<?xml version="1.0" encoding="utf-8"?>
<!-- Generator: Adobe Illustrator 21.0.0, SVG Export Plug-In . SVG Version: 6.00 Build 0)  -->
<svg version="1.1" id="Layer_1" xmlns="http://www.w3.org/2000/svg" xmlns:xlink="http://www.w3.org/1999/xlink" x="0px" y="0px"
	 viewBox="0 0 150 125" style="enable-background:new 0 0 150 125;" xml:space="preserve">
<g>
	<path d="M64.2,76c-0.6,0-1.2,0-1.8,0c0-0.2,0-0.3,0-0.5c0-2.2,0-4.4,0-6.6c0-0.4,0-0.9-0.1-1.4c-0.1-1.2-0.7-1.7-1.8-1.9
		c-1.8-0.2-3.3,0.9-3.4,2.8C57,70.7,57,73.1,57,75.5c0,0.2,0,0.3,0,0.5c-0.7,0-1.2,0-1.9,0c0-0.2,0-0.3,0-0.5c0-2.3,0-4.6,0-6.9
		c0-0.6-0.1-1-0.2-1.6c-0.2-0.7-0.7-1.2-1.4-1.4c-1.7-0.3-3.4,0.7-3.7,2.5c-0.1,0.4-0.1,0.9-0.1,1.3c0,2,0,4,0,6.1
		c0,0.2,0,0.3,0,0.5c-0.7,0-1.2,0-1.9,0c0-3.9,0-7.7,0-11.7c0.6,0,1.2,0,1.7,0c0,0.5,0,1,0,1.5c0.3-0.3,0.6-0.6,0.9-0.8
		c1.3-1.2,2.8-1.2,4.4-0.8c0.9,0.2,1.4,0.9,1.7,1.7c0.2-0.3,0.5-0.6,0.7-0.7c1.3-1.2,3.7-1.6,5.2-0.7c1,0.6,1.5,1.5,1.6,2.6
		c0.1,2.9,0,5.8,0,8.7C64.3,75.9,64.2,75.9,64.2,76z"/>
	<path d="M80.5,52.2c-1.1,0.2-1.3-0.1-1.3-1.1c0-0.4,0-0.9,0.1-1.4c0-1.7,0.1-3.2,0.1-4.9c-0.1-1.6-0.7-2.4-2.2-2.8
		c-0.7-0.2-1.4-0.3-2.1-0.3c-1.2-0.1-2.5,0.2-3.5,0.9c-1.1,0.7-1.5,1.8-1.6,3.1c0.6,0,1,0,1.5,0c0.2,0,0.4-0.1,0.4-0.3
		c0.1-0.7,0.3-1.3,1-1.7c1.2-0.6,2.4-0.6,3.6,0c0.7,0.3,0.9,1.1,0.8,2c-0.1,0.7-0.4,0.9-1.2,1.1c-0.7,0.2-1.5,0.2-2.2,0.3
		c-0.9,0.1-1.8,0.2-2.7,0.7c-1.2,0.7-1.8,1.9-1.7,3.4c0.2,1.5,1,2.4,2.4,2.8c1.1,0.3,2.2,0.2,3.2-0.1c0.9-0.3,1.7-0.8,2.3-1.6
		c0.1,0.9,0.4,1.5,1.2,1.7c0.6,0.1,1.1-0.1,1.7-0.1c0.1,0,0.2-0.2,0.2-0.2C80.5,53.1,80.5,52.7,80.5,52.2z M77.2,49.9
		c-0.1,0.4-0.2,0.9-0.5,1.2c-1,1.2-2.3,1.6-3.8,1.2c-0.8-0.2-1.4-0.8-1.5-1.7c-0.1-0.9,0.2-1.7,1.1-2c0.7-0.3,1.6-0.4,2.3-0.6
		c0.8-0.2,1.7-0.2,2.5-0.7C77.3,48.4,77.3,49.2,77.2,49.9z"/>
	<path d="M58.2,52.2c-0.1,0-0.2,0-0.2,0.1c-0.7,0.2-1-0.1-1-0.7c0-0.2,0-0.3,0-0.5c0.1-1.9,0.1-3.8,0.1-5.7c0-1.3-0.3-2.5-1.7-3
		c-1.8-0.7-3.7-0.7-5.6,0.1c-1.3,0.6-2.2,2-2.1,3.4h1.8c0.1-0.2,0.1-0.3,0.1-0.5c0.2-0.6,0.4-1.2,1-1.5c1.2-0.6,2.4-0.6,3.6-0.1
		c0.7,0.3,1,1.2,0.9,2c-0.1,0.7-0.7,1-1.2,1.1c-0.7,0.1-1.4,0.2-2.2,0.3c-1,0.2-2,0.3-2.8,0.7c-1.3,0.7-1.7,2-1.5,3.4
		c0.2,1.4,0.9,2.2,2.2,2.6c2,0.6,3.8,0.2,5.3-1.3c0.1-0.1,0.2-0.2,0.3-0.3c0.2,1.1,0.6,1.6,1.3,1.7c0.5,0.1,1-0.1,1.5-0.2
		c0.1,0,0.2-0.2,0.2-0.3C58.2,53,58.2,52.7,58.2,52.2z M55,50.2c0,0.2-0.1,0.4-0.2,0.6c-0.8,1.3-2.9,2.1-4.4,1.5
		c-0.7-0.2-1.2-0.7-1.2-1.6s0.2-1.5,1-1.9c0.8-0.4,1.7-0.4,2.5-0.6c0.7-0.2,1.7-0.2,2.4-0.6C55,48.6,55,49.4,55,50.2z"/>
	<path d="M88,76.1c-0.8,0-1.7,0-2.3,0c-0.1,0-0.2-0.2-0.3-0.3c-1.2-1.8-2.3-3.6-3.6-5.4c-0.1-0.1-0.2-0.2-0.2-0.4
		c-0.6,0.6-1.2,1-1.7,1.5c-0.1,0.1-0.2,0.3-0.2,0.4c0,1.2,0,2.4,0,3.6c0,0.2,0,0.3,0,0.5c-0.7,0-1.2,0-1.9,0c0-5.3,0-10.7,0-16.1
		c0.6,0,1.2,0,1.8,0c0,3.2,0,6.3,0,9.6c0.5-0.4,0.9-0.8,1.3-1.2c1.2-1.2,2.6-2.4,3.8-3.7c0.1-0.1,0.2-0.2,0.3-0.2c0.7,0,1.7,0,2.5,0
		c-1.7,1.5-3.1,2.8-4.7,4.2C84.7,71,86.4,73.5,88,76.1z"/>
	<path d="M102.5,53.7c-0.7,0-1.2,0-1.9,0c0-0.2,0-0.3,0-0.5c0-2.4,0-4.8,0-7.2c0-0.3-0.1-0.6-0.1-0.9c-0.2-1.1-1-1.7-2.2-1.8
		c-2-0.1-3.4,1.2-3.6,3.2c-0.1,2.2-0.1,4.4-0.1,6.7c0,0.2,0,0.3,0,0.6c-0.7,0-1.2,0-1.9,0c0-3.9,0-7.7,0-11.7c0.6,0,1.2,0,1.7,0
		c0,0.6,0,1.1,0,1.5c0.3-0.3,0.7-0.6,1.1-0.9c1.3-1.1,3.7-1.2,5.2-0.4c1,0.6,1.5,1.4,1.6,2.6c0.1,0.5,0.1,0.9,0.1,1.4
		c0,2.3,0,4.7,0,7.1C102.5,53.3,102.5,53.5,102.5,53.7z"/>
	<path d="M64.7,53.7c-0.7,0-1.2,0-1.8,0c0-5.3,0-10.7,0-16.2c0.7,0,1.2,0,1.8,0C64.7,42.9,64.7,48.3,64.7,53.7z"/>
	<path d="M94.7,76.1c-0.7,0-1.2,0-1.8,0c0-5.3,0-10.7,0-16.2c0.7,0,1.2,0,1.8,0C94.7,65.2,94.7,70.7,94.7,76.1z"/>
	<path d="M100.6,64.3c0.7,0,1.2,0,1.8,0c0,3.9,0,7.7,0,11.7c-0.7,0-1.2,0-1.8,0C100.6,72.1,100.6,68.2,100.6,64.3z"/>
	<path d="M71.9,76c-0.7,0-1.2,0-1.8,0c0-3.9,0-7.7,0-11.7c0.7,0,1.2,0,1.8,0C71.9,68.2,71.9,72.1,71.9,76z"/>
	<path d="M86.9,53.7c-0.7,0-1.2,0-1.8,0c0-3.9,0-7.7,0-11.7c0.7,0,1.2,0,1.8,0C86.9,45.9,86.9,49.7,86.9,53.7z"/>
	<path d="M76.2,85.7c0.2-1.1-0.4-2-1.5-2.2c-1.1-0.2-2,0.6-2.1,1.7c-0.2,1.2,0.6,2.1,1.7,2.2c1,0.1,1.8-0.4,1.9-1.2
		c-0.4,0-0.7-0.1-1.1,0.2c-0.2,0.3-0.7,0.2-1,0.1c-0.3-0.2-0.4-0.4-0.3-0.7L76.2,85.7L76.2,85.7z M74.4,84.3
		c0.5-0.1,0.7,0.2,0.8,0.7h-1.5C73.7,84.7,74,84.4,74.4,84.3z"/>
	<path d="M86.9,86.4c-0.2,0.3-0.7,0.2-1,0.1c-0.3-0.2-0.4-0.4-0.4-0.7h2.6c0.1-1.2-0.6-2.1-1.6-2.2c-1.1-0.1-2,0.7-2.1,1.7
		c-0.1,1.2,0.6,2,1.6,2.2c1,0.1,1.8-0.4,1.9-1.2C87.7,86.2,87.3,86.1,86.9,86.4z M86.4,84.3c0.4,0,0.7,0.2,0.7,0.7
		c-0.1,0-0.2,0.1-0.2,0.1c-0.4,0-0.8,0-1.2,0C85.6,84.6,85.9,84.3,86.4,84.3z"/>
	<path d="M92.9,84.7c-0.3,0-0.6,0-0.7,0c-0.1,0-0.2-0.1-0.2-0.2c-0.2-0.4-0.6-0.4-0.9-0.3c-0.1,0-0.2,0.2-0.3,0.2
		c0,0.1,0.1,0.3,0.2,0.3c0.2,0.1,0.4,0.2,0.7,0.2c0.2,0.1,0.4,0.1,0.7,0.2c0.4,0.2,0.7,0.3,0.7,0.7c0.1,0.5-0.1,0.9-0.6,1.2
		c-0.7,0.4-1.5,0.4-2.2,0c-0.3-0.2-0.5-0.5-0.6-1c0.3,0,0.6,0,0.9,0c0.3,0.6,0.7,0.7,1.2,0.6c0.2-0.1,0.3-0.2,0.3-0.3
		c0-0.1-0.2-0.3-0.2-0.4c-0.3-0.2-0.7-0.2-1.1-0.3c-0.7-0.2-0.9-0.5-0.9-1c0.1-0.6,0.3-0.9,1-1c0.4-0.1,0.9,0,1.4,0.1
		C92.5,83.7,92.7,84.2,92.9,84.7z"/>
	<path d="M68.6,87.3c-0.3,0-0.7,0-1,0c0-1.2,0-2.3,0-3.6c0.3,0,0.6,0,0.9,0c0.1,0.1,0.1,0.2,0.1,0.3c0.1-0.1,0.1-0.1,0.1-0.1
		c0.3-0.3,0.7-0.4,1.2-0.4c0.7,0.1,1.2,0.4,1.2,1.1c0.1,0.9,0,1.7,0,2.7c-0.3,0-0.6,0-1,0c0-0.2-0.1-0.3-0.1-0.6
		c0-0.6,0-1.2-0.1-1.8c0-0.3-0.2-0.6-0.6-0.6c-0.3,0-0.7,0.1-0.7,0.5c-0.1,0.3-0.1,0.7-0.1,1.1C68.6,86.4,68.6,86.8,68.6,87.3z"/>
	<path d="M64.9,83.7c0.3,0,0.7,0,1,0c0,1.2,0,2.3,0,3.6c-0.3,0-0.6,0-0.9,0c0-0.1-0.1-0.2-0.1-0.3c-0.1,0-0.1,0-0.1,0.1
		c-0.3,0.3-0.7,0.5-1.2,0.4c-0.6,0-1.1-0.3-1.1-1c-0.1-0.9,0-1.8,0-2.7c0.3,0,0.7,0,1,0c0,0.4,0,0.7,0,1.2c0,0.4,0,0.7,0.1,1.2
		c0,0.3,0.2,0.6,0.6,0.6c0.4,0.1,0.7-0.2,0.7-0.5C65,85.7,65,85.4,65,85C64.9,84.5,64.9,84.2,64.9,83.7z"/>
	<path d="M57.4,82.3c0.3,0,0.7,0,1.1,0c0,1.4,0,2.7,0,4.1c0.8,0,1.7,0,2.5,0c0,0.3,0,0.7,0,0.9c-1.2,0-2.3,0-3.6,0
		C57.4,85.7,57.4,84,57.4,82.3z"/>
	<path d="M81.5,84.4c-0.2,0-0.4-0.1-0.6-0.1c0-0.2,0-0.4,0-0.7c0.2,0,0.3-0.1,0.6-0.1c0-0.3,0-0.7,0-1c0.3,0,0.7,0,1,0
		c0,0.3,0,0.7,0,1c0.3,0,0.5,0.1,0.7,0.1c0,0.2,0,0.4,0,0.7c-0.2,0-0.4,0-0.7,0.1c0,0.7,0,1.2,0,1.9c0,0.1,0.2,0.2,0.3,0.2
		c0.1,0.1,0.2,0,0.4,0c0,0.3,0,0.5,0,0.7c-0.4,0-0.7,0.1-1.1,0c-0.4-0.1-0.7-0.3-0.7-0.7C81.5,85.8,81.5,85.1,81.5,84.4z"/>
	<path d="M79.8,84.3c-0.2,0-0.4,0-0.7,0c0,0.7-0.1,1.2,0,1.9c0,0.4,0.4,0.2,0.7,0.3c0,0.2,0,0.5,0,0.7c-0.3,0-0.7,0.1-1.1,0
		C78.3,87.2,78,87,78,86.6c0-0.7,0-1.4,0-2.1c0,0,0-0.1-0.1-0.1c-0.2,0-0.3,0-0.6-0.1c0-0.2,0-0.4,0-0.7c0.2,0,0.3-0.1,0.6-0.1
		c0-0.3,0-0.7,0-1c0.3,0,0.7,0,1,0c0,0.3,0,0.7,0,1c0.2,0,0.5,0.1,0.7,0.1C79.8,83.9,79.8,84.1,79.8,84.3z"/>
	<path d="M71,62.5c-0.7,0-1.1-0.5-1.1-1.1s0.5-1.1,1.2-1.1c0.6,0,1.1,0.5,1.1,1.1S71.6,62.5,71,62.5z"/>
	<path d="M85.9,40.2c-0.6,0-1.1-0.5-1.1-1.2c0-0.7,0.5-1.1,1.2-1.1c0.6,0,1.1,0.5,1.1,1.1C87,39.7,86.5,40.2,85.9,40.2z"/>
	<path d="M102.6,61.3c0,0.7-0.4,1.1-1.1,1.1s-1.1-0.5-1.1-1.1s0.5-1.1,1.1-1.1C102.1,60.2,102.6,60.7,102.6,61.3z"/>
</g>
</svg>
