<?xml version="1.0" encoding="utf-8"?>
<!-- Generator: Adobe Illustrator 21.0.0, SVG Export Plug-In . SVG Version: 6.00 Build 0)  -->
<svg version="1.1" id="Layer_1" xmlns="http://www.w3.org/2000/svg" xmlns:xlink="http://www.w3.org/1999/xlink" x="0px" y="0px"
	 viewBox="0 0 150 125" style="enable-background:new 0 0 150 125;" xml:space="preserve">
<g>
	<path d="M62.1,78.7c-0.7,0-1.4,0-2.2,0c0-0.2,0-0.4,0-0.6c0-2.7,0-5.3,0-7.9c0-0.5,0-1.1-0.1-1.7c-0.1-1.4-0.9-2.1-2.2-2.3
		c-2.2-0.3-4,1.1-4.1,3.4c-0.1,2.8-0.1,5.6-0.1,8.5c0,0.2,0,0.4,0,0.6c-0.8,0-1.5,0-2.3,0c0-0.2,0-0.4,0-0.6c0-2.8,0-5.5,0-8.3
		c0-0.7-0.1-1.2-0.2-1.9c-0.2-0.9-0.8-1.5-1.7-1.7c-2.1-0.4-4.1,0.9-4.4,3c-0.1,0.5-0.1,1.1-0.1,1.6c0,2.4,0,4.8,0,7.3
		c0,0.2,0,0.4,0,0.6c-0.8,0-1.5,0-2.3,0c0-4.7,0-9.3,0-14c0.7,0,1.4,0,2.1,0c0,0.6,0,1.2,0,1.8c0.4-0.4,0.7-0.7,1.1-1
		c1.6-1.4,3.4-1.5,5.3-1c1.1,0.3,1.7,1.1,2.1,2.1c0.3-0.4,0.6-0.7,0.9-0.9c1.6-1.5,4.4-1.9,6.3-0.8c1.2,0.7,1.8,1.8,1.9,3.1
		c0.1,3.5,0,7,0,10.5C62.2,78.6,62.1,78.6,62.1,78.7z"/>
	<path d="M81.6,50.1C80.3,50.3,80,50,80,48.8c0-0.5,0-1.1,0.1-1.7c0-2,0.1-3.9,0.1-5.9c-0.1-1.9-0.8-2.9-2.6-3.4
		c-0.8-0.2-1.7-0.4-2.5-0.4c-1.5-0.1-3,0.2-4.2,1.1c-1.3,0.9-1.8,2.2-1.9,3.7c0.7,0,1.2,0,1.8,0c0.3,0,0.5-0.1,0.5-0.4
		c0.1-0.8,0.4-1.6,1.2-2c1.4-0.7,2.9-0.7,4.3,0c0.8,0.4,1.1,1.3,1,2.4c-0.1,0.8-0.5,1.1-1.5,1.3c-0.9,0.2-1.8,0.2-2.7,0.4
		c-1.1,0.1-2.2,0.3-3.2,0.8c-1.5,0.8-2.2,2.3-2.1,4.1c0.2,1.8,1.2,2.9,2.9,3.4c1.3,0.4,2.6,0.2,3.9-0.1c1.1-0.4,2-1,2.8-1.9
		c0.1,1.1,0.5,1.8,1.5,2c0.7,0.1,1.3-0.1,2-0.1c0.1,0,0.2-0.2,0.2-0.2C81.6,51.2,81.6,50.7,81.6,50.1z M77.7,47.4
		c-0.1,0.5-0.3,1.1-0.6,1.4c-1.2,1.5-2.8,1.9-4.6,1.5c-1-0.2-1.7-1-1.8-2c-0.1-1.1,0.3-2,1.3-2.4c0.9-0.4,1.9-0.5,2.8-0.7
		c1-0.2,2-0.2,3-0.8C77.8,45.6,77.8,46.5,77.7,47.4z"/>
	<path d="M54.9,50.1c-0.1,0-0.2,0-0.2,0.1c-0.8,0.2-1.2-0.1-1.2-0.9c0-0.2,0-0.4,0-0.6c0.1-2.3,0.1-4.6,0.1-6.9c0-1.6-0.4-3-2-3.6
		c-2.2-0.9-4.5-0.9-6.7,0.1c-1.6,0.7-2.6,2.4-2.5,4.1h2.2c0.1-0.2,0.1-0.4,0.1-0.6c0.2-0.7,0.5-1.4,1.2-1.8c1.4-0.7,2.9-0.7,4.3-0.1
		c0.8,0.4,1.2,1.4,1.1,2.4c-0.1,0.9-0.8,1.2-1.5,1.3c-0.9,0.1-1.7,0.2-2.6,0.4c-1.2,0.2-2.4,0.4-3.4,0.9c-1.6,0.9-2.1,2.4-1.8,4.1
		c0.2,1.7,1.1,2.7,2.7,3.1c2.4,0.7,4.6,0.2,6.4-1.6c0.1-0.1,0.2-0.2,0.4-0.4c0.2,1.3,0.7,1.9,1.6,2c0.6,0.1,1.2-0.1,1.8-0.2
		c0.1,0,0.3-0.2,0.3-0.4C54.9,51.1,54.9,50.7,54.9,50.1z M51,47.8c0,0.2-0.1,0.5-0.2,0.7c-1,1.6-3.5,2.5-5.3,1.8
		c-0.9-0.3-1.4-0.9-1.5-1.9c-0.1-1,0.2-1.8,1.2-2.3s2-0.5,3-0.7c0.9-0.2,2-0.2,2.9-0.7C51,45.8,51,46.8,51,47.8z"/>
	<path d="M90.7,78.8c-1,0-2,0-2.8,0c-0.1,0-0.3-0.2-0.4-0.4c-1.4-2.2-2.8-4.3-4.3-6.5c-0.1-0.1-0.2-0.3-0.3-0.5
		c-0.7,0.7-1.4,1.2-2,1.8c-0.1,0.1-0.2,0.4-0.2,0.5c0,1.4,0,2.9,0,4.3c0,0.2,0,0.4,0,0.6c-0.8,0-1.5,0-2.3,0c0-6.4,0-12.9,0-19.3
		c0.7,0,1.5,0,2.2,0c0,3.8,0,7.6,0,11.5c0.6-0.5,1.1-1,1.6-1.5c1.5-1.5,3.1-2.9,4.6-4.4c0.1-0.1,0.2-0.2,0.4-0.2c0.9,0,2,0,3,0
		c-2,1.8-3.7,3.4-5.6,5.1C86.7,72.7,88.7,75.7,90.7,78.8z"/>
	<path d="M108.1,51.9c-0.8,0-1.5,0-2.3,0c0-0.2,0-0.4,0-0.6c0-2.9,0-5.8,0-8.7c0-0.4-0.1-0.7-0.1-1.1c-0.2-1.3-1.2-2.1-2.7-2.2
		c-2.4-0.1-4.1,1.4-4.3,3.8c-0.1,2.7-0.1,5.3-0.1,8c0,0.2,0,0.4,0,0.7c-0.8,0-1.5,0-2.3,0c0-4.7,0-9.3,0-14c0.7,0,1.4,0,2.1,0
		c0,0.7,0,1.3,0,1.8c0.4-0.4,0.8-0.7,1.3-1.1c1.6-1.3,4.5-1.5,6.3-0.5c1.2,0.7,1.8,1.7,1.9,3.1c0.1,0.6,0.1,1.1,0.1,1.7
		c0,2.8,0,5.7,0,8.5C108.1,51.5,108.1,51.7,108.1,51.9z"/>
	<path d="M62.7,51.9c-0.8,0-1.5,0-2.2,0c0-6.4,0-12.9,0-19.4c0.8,0,1.5,0,2.2,0C62.7,39,62.7,45.5,62.7,51.9z"/>
	<path d="M98.7,78.8c-0.8,0-1.5,0-2.2,0c0-6.4,0-12.9,0-19.4c0.8,0,1.5,0,2.2,0C98.7,65.8,98.7,72.3,98.7,78.8z"/>
	<path d="M105.8,64.7c0.8,0,1.5,0,2.2,0c0,4.7,0,9.3,0,14c-0.8,0-1.5,0-2.2,0C105.8,74,105.8,69.4,105.8,64.7z"/>
	<path d="M71.3,78.7c-0.8,0-1.5,0-2.2,0c0-4.7,0-9.3,0-14c0.8,0,1.5,0,2.2,0C71.3,69.4,71.3,74,71.3,78.7z"/>
	<path d="M89.3,51.9c-0.8,0-1.5,0-2.2,0c0-4.7,0-9.3,0-14c0.8,0,1.5,0,2.2,0C89.3,42.6,89.3,47.2,89.3,51.9z"/>
	<path d="M76.5,90.4c0.2-1.3-0.5-2.4-1.8-2.6c-1.3-0.2-2.4,0.7-2.5,2c-0.2,1.4,0.7,2.5,2,2.7c1.2,0.1,2.2-0.5,2.3-1.5
		c-0.5,0-0.9-0.1-1.3,0.3c-0.3,0.4-0.8,0.3-1.2,0.1c-0.4-0.2-0.5-0.5-0.4-0.9H76.5z M74.3,88.7c0.6-0.1,0.9,0.2,1,0.9h-1.8
		C73.5,89.1,73.8,88.8,74.3,88.7z"/>
	<path d="M89.4,91.2c-0.3,0.4-0.8,0.3-1.2,0.1c-0.4-0.2-0.5-0.5-0.5-0.9h3.1c0.1-1.5-0.7-2.5-1.9-2.6c-1.3-0.1-2.4,0.8-2.5,2.1
		c-0.1,1.4,0.7,2.4,1.9,2.6c1.2,0.1,2.2-0.5,2.3-1.5C90.3,90.9,89.8,90.8,89.4,91.2z M88.7,88.7c0.5,0,0.8,0.3,0.9,0.9
		c-0.1,0-0.2,0.1-0.3,0.1c-0.5,0-1,0-1.5,0C87.8,89,88.1,88.7,88.7,88.7z"/>
	<path d="M96.5,89.2c-0.4,0-0.7,0-0.9,0c-0.1,0-0.2-0.1-0.2-0.2c-0.2-0.5-0.7-0.5-1.1-0.4c-0.1,0-0.3,0.2-0.4,0.3
		c0,0.1,0.1,0.4,0.2,0.4c0.2,0.1,0.5,0.2,0.8,0.2c0.2,0.1,0.5,0.1,0.8,0.2c0.5,0.2,0.8,0.4,0.8,0.9c0.1,0.6-0.1,1.1-0.7,1.4
		c-0.9,0.5-1.8,0.5-2.7,0c-0.4-0.2-0.6-0.6-0.7-1.2c0.4,0,0.7,0,1.1,0c0.4,0.7,0.8,0.8,1.4,0.7c0.2-0.1,0.4-0.2,0.4-0.4
		c0-0.1-0.2-0.4-0.3-0.5c-0.4-0.2-0.9-0.2-1.3-0.4c-0.8-0.2-1.1-0.6-1.1-1.2c0.1-0.7,0.4-1.1,1.2-1.2c0.5-0.1,1.1,0,1.7,0.1
		S96.3,88.5,96.5,89.2z"/>
	<path d="M67.4,92.3c-0.4,0-0.8,0-1.2,0c0-1.4,0-2.8,0-4.3c0.4,0,0.7,0,1.1,0c0.1,0.1,0.1,0.2,0.1,0.4c0.1-0.1,0.1-0.1,0.1-0.1
		c0.4-0.4,0.8-0.5,1.4-0.5c0.8,0.1,1.4,0.5,1.4,1.3c0.1,1.1,0,2.1,0,3.2c-0.4,0-0.7,0-1.2,0c0-0.2-0.1-0.4-0.1-0.7
		c0-0.7,0-1.5-0.1-2.2c0-0.4-0.2-0.7-0.7-0.7c-0.4,0-0.8,0.1-0.9,0.6c-0.1,0.4-0.1,0.9-0.1,1.3C67.4,91.2,67.4,91.7,67.4,92.3z"/>
	<path d="M62.9,87.9c0.4,0,0.8,0,1.2,0c0,1.5,0,2.8,0,4.3c-0.4,0-0.7,0-1.1,0c0-0.1-0.1-0.2-0.1-0.4c-0.1,0-0.1,0-0.1,0.1
		c-0.4,0.4-0.9,0.6-1.5,0.5C60.6,92.4,60,92,60,91.2c-0.1-1.1,0-2.2,0-3.3c0.4,0,0.8,0,1.2,0c0,0.5,0,0.9,0,1.4c0,0.5,0,0.9,0.1,1.5
		c0,0.4,0.2,0.7,0.7,0.7c0.5,0.1,0.8-0.2,0.9-0.6c0.1-0.5,0.1-0.9,0.1-1.4C62.9,88.9,62.9,88.5,62.9,87.9z"/>
	<path d="M53.9,86.3c0.4,0,0.8,0,1.3,0c0,1.7,0,3.3,0,4.9c1,0,2,0,3,0c0,0.4,0,0.8,0,1.1c-1.4,0-2.8,0-4.3,0
		C53.9,90.3,53.9,88.3,53.9,86.3z"/>
	<path d="M82.9,88.8c-0.3,0-0.5-0.1-0.7-0.1c0-0.2,0-0.5,0-0.8c0.2,0,0.4-0.1,0.7-0.1c0-0.4,0-0.8,0-1.2c0.4,0,0.8,0,1.2,0
		c0,0.4,0,0.8,0,1.2c0.4,0,0.6,0.1,0.9,0.1c0,0.2,0,0.5,0,0.8c-0.3,0-0.5,0-0.8,0.1c0,0.8,0,1.5,0,2.3c0,0.1,0.2,0.2,0.4,0.3
		c0.1,0.1,0.3,0,0.5,0c0,0.4,0,0.6,0,0.9c-0.5,0-0.9,0.1-1.3,0c-0.5-0.1-0.8-0.4-0.8-0.9C82.9,90.5,82.9,89.6,82.9,88.8z"/>
	<path d="M80.8,88.7c-0.3,0-0.5,0-0.8,0c0,0.8-0.1,1.5,0,2.3c0,0.5,0.5,0.3,0.8,0.4c0,0.3,0,0.6,0,0.9c-0.4,0-0.9,0.1-1.3,0
		c-0.5-0.1-0.8-0.4-0.8-0.9c0-0.8,0-1.7,0-2.5c0,0,0-0.1-0.1-0.1c-0.2,0-0.4,0-0.7-0.1c0-0.2,0-0.5,0-0.8c0.2,0,0.4-0.1,0.7-0.1
		c0-0.4,0-0.8,0-1.2c0.4,0,0.8,0,1.2,0c0,0.4,0,0.8,0,1.2c0.3,0,0.6,0.1,0.9,0.1C80.8,88.2,80.8,88.4,80.8,88.7z"/>
	<path d="M70.2,62.5c-0.8,0-1.3-0.6-1.3-1.3c0-0.7,0.6-1.3,1.4-1.3c0.7,0,1.3,0.6,1.3,1.3C71.6,61.9,71,62.5,70.2,62.5z"/>
	<path d="M88.2,35.7c-0.7,0-1.3-0.6-1.3-1.4c0-0.8,0.6-1.3,1.4-1.3c0.7,0,1.3,0.6,1.3,1.3C89.5,35.1,88.9,35.7,88.2,35.7z"/>
	<path d="M108.2,61.1c0,0.8-0.5,1.3-1.3,1.3c-0.8,0-1.3-0.6-1.3-1.3s0.6-1.3,1.3-1.3S108.2,60.4,108.2,61.1z"/>
</g>
</svg>
