<?xml version="1.0" encoding="utf-8"?>
<!-- Generator: Adobe Illustrator 21.0.0, SVG Export Plug-In . SVG Version: 6.00 Build 0)  -->
<svg version="1.1" id="Layer_1" xmlns="http://www.w3.org/2000/svg" xmlns:xlink="http://www.w3.org/1999/xlink" x="0px" y="0px"
	 viewBox="0 0 150 125" style="enable-background:new 0 0 150 125;" xml:space="preserve">
<style type="text/css">
	.st0{fill:#231F20;}
</style>
<g>
	<path class="st0" d="M24.2,63.9l-1.6,1c0-0.1-0.2-0.7-0.7-1.9c-0.4-1.2-0.9-2.7-1.6-4.6h-6.2c-0.7,2-1.3,3.6-1.7,4.7
		c-0.4,1.1-0.6,1.7-0.7,1.8L10.5,64c0.2-0.4,0.9-2.4,2.2-5.9c1.3-3.5,2.7-7.2,4-11h1.3c1.4,3.9,2.7,7.6,4.1,11.2
		C23.5,61.9,24.2,63.8,24.2,63.9 M19.8,56.8c-0.4-1-0.8-2.1-1.2-3.3c-0.4-1.1-0.8-2.3-1.3-3.6h0c-0.3,0.9-0.8,2.1-1.3,3.5
		c-0.5,1.4-0.9,2.5-1.2,3.4l0,0L19.8,56.8L19.8,56.8L19.8,56.8z M34.1,64.6h-1.6c0-0.2,0-1,0-2.4c0-1.4,0-2.2,0-2.5c0-0.4,0-1.1,0-2
		c0-0.9,0-1.5,0-1.9c0-1-0.2-1.7-0.5-2.1c-0.3-0.4-0.8-0.6-1.5-0.6c-0.4,0-0.9,0.2-1.6,0.5c-0.6,0.3-1.2,0.7-1.9,1.2
		c0,0.1,0,0.6,0,1.5c0,0.9,0,1.8,0,2.5c0,1,0,2.2,0,3.6c0,1.4,0,2.2,0,2.2h-1.6c0-0.1,0-0.6,0-1.6c0-1,0-2.5,0-4.4c0-0.9,0-2,0-3.2
		c0-1.2,0-2.5,0-3.9h1.6l0,1.5l0,0c1-0.7,1.8-1.2,2.4-1.4c0.6-0.3,1.2-0.4,1.6-0.4c0.9,0,1.6,0.3,2.1,1c0.5,0.7,0.8,1.6,0.8,2.8
		c0,1.1,0,2,0,2.8c0,0.8,0,1.4,0,1.9c0,0.8,0,1.8,0,2.9C34.1,63.9,34.1,64.5,34.1,64.6 M44.2,57.2c0,2.1,0,3.9,0,5.2
		c0,1.3,0,2.1,0,2.2c-0.1,0-0.4,0-1,0.1c-0.6,0.1-1.3,0.1-2.2,0.1c-0.6,0-1.1-0.1-1.7-0.2c-0.6-0.1-1.1-0.3-1.5-0.6
		c-0.6-0.3-1-0.8-1.3-1.3c-0.3-0.6-0.5-1.2-0.5-2c0-0.8,0.2-1.5,0.6-2.1c0.4-0.6,1-1.1,1.7-1.5c0.4-0.2,1-0.4,1.8-0.6
		c0.8-0.2,1.6-0.3,2.6-0.4c0-0.7-0.2-1.2-0.4-1.7c-0.2-0.4-0.6-0.8-1-1c-0.3-0.2-0.6-0.3-1-0.3c-0.4-0.1-0.8-0.1-1.3-0.1
		c-0.3,0-0.6,0-0.8,0c-0.2,0-0.5,0-0.9,0.1l0.2-1.7c0.1,0,0.3,0,0.6,0c0.3,0,0.7,0,1.3,0c0.8,0,1.5,0.1,2.2,0.3
		c0.6,0.2,1.2,0.5,1.6,1c0.4,0.4,0.7,1,0.9,1.7C44.1,55,44.2,56,44.2,57.2 M42.6,60.3v-1.1c0-0.4,0-1,0-1.5c-0.3,0-0.8,0.1-1.6,0.2
		c-0.8,0.1-1.4,0.3-1.9,0.6c-0.4,0.2-0.7,0.5-1,0.8c-0.3,0.4-0.4,0.8-0.4,1.3c0,0.6,0.1,1.1,0.4,1.4c0.3,0.4,0.6,0.6,1,0.8
		c0.3,0.1,0.7,0.3,1.1,0.3c0.4,0.1,0.8,0.1,1.3,0.1c0.1,0,0.3,0,0.5,0c0.2,0,0.4,0,0.6,0v-0.9C42.6,61.9,42.6,61.2,42.6,60.3
		 M63.9,64.6h-1.7c0-0.5,0-1.5,0-2.9c0-1.4,0-3.1,0-5.2h-1.8c-1.1,0-2,0-2.5,0c-0.7,0-1.5,0-2.5,0h-1.6c0,2.4,0,4.2,0,5.4
		c0,1.2,0,2.1,0,2.6h-1.7c0-0.5,0-1.4,0-2.7c0-1.3,0-3.5,0-6.7c0-0.9,0-2.1,0-3.5c0-1.4,0-2.8,0-4.4h1.7c0,1.3,0,2.6,0,3.9
		c0,1.3,0,2.5,0,3.6c0.1,0,0.5,0,1.3,0h2.7h2.7c1,0,1.6,0,1.7,0c0-1.1,0-2.3,0-3.6c0-1.3,0-2.5,0-3.9h1.7c0,1.3,0,2.8,0,4.5
		c0,1.7,0,3.1,0,4.2c0,2.5,0,4.5,0,5.8C63.9,63.1,63.9,64.1,63.9,64.6 M69.3,49h-1.8v-2.2h1.8V49L69.3,49z M69.2,64.6h-1.6
		c0-0.1,0-1,0-2.5c0-1.6,0-2.8,0-3.9c0-0.9,0-1.9,0-2.9c0-1.1,0-2.3,0-3.7h1.6c0,1.2,0,2.4,0,3.5c0,1.1,0,2,0,2.9c0,2,0,3.6,0,4.8
		C69.2,63.9,69.2,64.6,69.2,64.6 M79.2,62.9l-0.1,1.7h-0.3h-0.3c-0.9,0-1.7-0.1-2.5-0.3c-0.8-0.2-1.5-0.5-2.1-0.9
		c-0.8-0.6-1.5-1.3-2-2.3c-0.5-0.9-0.7-2-0.7-3.1c0-1,0.2-2,0.6-2.8c0.4-0.9,1-1.6,1.7-2.1c0.6-0.5,1.4-0.9,2.2-1.1
		c0.9-0.3,1.8-0.4,2.7-0.4h0.2h0.2l0.1,1.7h-0.2h-0.2c-0.8,0-1.4,0.1-2,0.2c-0.5,0.1-1.1,0.3-1.6,0.6c-0.7,0.3-1.2,0.9-1.6,1.6
		c-0.4,0.7-0.6,1.5-0.6,2.4c0,1,0.2,1.9,0.6,2.5c0.4,0.7,0.9,1.2,1.5,1.6c0.5,0.3,1,0.5,1.6,0.6c0.6,0.1,1.2,0.2,1.9,0.2h0.4H79.2
		L79.2,62.9z M82.8,64.6h-1.6c0-0.2,0-1.3,0-3.5c0-2.2,0-4.4,0-6.7c0-1,0-2.2,0-3.7c0-1.5,0-3.2,0-5.1h1.6c0,1.5,0,3.3,0,5.3v3.6
		c0,0.9,0,2.7,0,5.6C82.8,63,82.8,64.5,82.8,64.6 M90.2,64.3l-1,1.1c-1.5-1.9-2.9-3.6-4.1-5.1c-1.2-1.4-1.8-2.2-2-2.4v0
		c0.2-0.2,0.9-1.1,2.2-2.7c1.3-1.6,2.3-3,3.1-4l1,1.3c-0.8,1-1.7,2-2.6,3.1c-0.9,1.1-1.5,1.8-1.7,2.1v0c0,0,0.5,0.7,1.5,2
		C87.7,61,88.9,62.6,90.2,64.3 M106.3,64.6h-1.6c0-0.1,0-0.7,0-1.8c0-1.1,0-2.2,0-3.1c0-0.4,0-1,0-1.9c0-0.9,0-1.5,0-2
		c0-1-0.2-1.7-0.5-2.1c-0.3-0.4-0.8-0.6-1.4-0.6c-0.4,0-0.8,0.1-1.4,0.3c-0.5,0.2-1.1,0.6-1.8,1.1v0.3c0,0.1,0,0.3,0,0.5
		c0,0.7,0,1.4,0,2.1c0,0.7,0,1.4,0,2.1c0,1.4,0,2.6,0,3.6c0,1,0,1.5,0,1.6h-1.6c0-0.1,0-0.6,0-1.6c0-0.9,0-2.1,0-3.4
		c0-0.4,0-1.1,0-2c0-0.9,0-1.5,0-1.9c0-0.4,0-0.7-0.1-1.1c0-0.3-0.1-0.6-0.3-0.9c-0.1-0.3-0.3-0.5-0.6-0.6c-0.2-0.1-0.6-0.2-1-0.2
		c-0.4,0-0.8,0.1-1.4,0.4c-0.5,0.3-1.1,0.7-1.8,1.2c0,0.1,0,0.7,0,1.7c0,0.9,0,1.7,0,2.3c0,1,0,2.3,0,3.7c0,1.4,0,2.2,0,2.3h-1.6
		c0-0.1,0-0.6,0-1.5c0-0.9,0-2.5,0-4.6c0-0.7,0-1.7,0-2.9c0-1.2,0-2.6,0-4.1h1.6l0,1.5l0,0c0.5-0.4,1-0.8,1.7-1.2
		c0.7-0.4,1.3-0.6,1.9-0.6c0.7,0,1.2,0.2,1.7,0.5c0.5,0.4,0.8,0.8,1,1.3h0c0.8-0.6,1.5-1.1,2.2-1.4c0.7-0.3,1.2-0.5,1.7-0.5
		c1,0,1.7,0.3,2.2,1c0.5,0.7,0.8,1.6,0.8,2.8c0,0.9,0,1.7,0,2.3c0,0.6,0,1.3,0,2c0,1.4,0,2.7,0,3.7C106.3,64,106.3,64.5,106.3,64.6
		 M116.5,57.2c0,2.1,0,3.9,0,5.2c0,1.3,0,2.1,0,2.2c-0.1,0-0.4,0-1,0.1c-0.6,0.1-1.3,0.1-2.2,0.1c-0.6,0-1.1-0.1-1.7-0.2
		c-0.6-0.1-1.1-0.3-1.5-0.6c-0.6-0.3-1-0.8-1.3-1.3c-0.3-0.6-0.5-1.2-0.5-2c0-0.8,0.2-1.5,0.6-2.1c0.4-0.6,1-1.1,1.7-1.5
		c0.4-0.2,1-0.4,1.8-0.6c0.8-0.2,1.6-0.3,2.6-0.4c0-0.7-0.2-1.2-0.4-1.7c-0.2-0.4-0.6-0.8-1-1c-0.3-0.2-0.6-0.3-1-0.3
		c-0.4-0.1-0.8-0.1-1.3-0.1c-0.3,0-0.6,0-0.8,0c-0.2,0-0.5,0-0.9,0.1l0.2-1.7c0.1,0,0.3,0,0.6,0c0.3,0,0.7,0,1.3,0
		c0.8,0,1.5,0.1,2.2,0.3c0.6,0.2,1.2,0.5,1.6,1c0.4,0.4,0.7,1,0.9,1.7C116.4,55,116.5,56,116.5,57.2 M114.9,60.3v-1.1
		c0-0.4,0-1,0-1.5c-0.3,0-0.8,0.1-1.6,0.2c-0.8,0.1-1.4,0.3-1.9,0.6c-0.4,0.2-0.7,0.5-1,0.8c-0.3,0.4-0.4,0.8-0.4,1.3
		c0,0.6,0.1,1.1,0.4,1.4c0.3,0.4,0.6,0.6,1,0.8c0.3,0.1,0.7,0.3,1.1,0.3c0.4,0.1,0.8,0.1,1.3,0.1c0.1,0,0.3,0,0.5,0
		c0.2,0,0.4,0,0.6,0v-0.9C114.9,61.9,114.9,61.2,114.9,60.3 M128,64.6h-1.6c0-0.2,0-1,0-2.4c0-1.4,0-2.2,0-2.5c0-0.4,0-1.1,0-2
		c0-0.9,0-1.5,0-1.9c0-1-0.2-1.7-0.5-2.1c-0.3-0.4-0.8-0.6-1.5-0.6c-0.4,0-0.9,0.2-1.6,0.5c-0.6,0.3-1.2,0.7-1.9,1.2
		c0,0.1,0,0.6,0,1.5c0,0.9,0,1.8,0,2.5c0,1,0,2.2,0,3.6c0,1.4,0,2.2,0,2.2h-1.6c0-0.1,0-0.6,0-1.6c0-1,0-2.5,0-4.4c0-0.9,0-2,0-3.2
		c0-1.2,0-2.5,0-3.9h1.6l0,1.5l0,0c1-0.7,1.8-1.2,2.4-1.4c0.6-0.3,1.2-0.4,1.6-0.4c0.9,0,1.6,0.3,2.1,1c0.5,0.7,0.8,1.6,0.8,2.8
		c0,1.1,0,2,0,2.8c0,0.8,0,1.4,0,1.9c0,0.8,0,1.8,0,2.9C128,63.9,128,64.5,128,64.6 M139.5,64.6h-1.6c0-0.2,0-1,0-2.4
		c0-1.4,0-2.2,0-2.5c0-0.4,0-1.1,0-2c0-0.9,0-1.5,0-1.9c0-1-0.2-1.7-0.5-2.1c-0.3-0.4-0.8-0.6-1.5-0.6c-0.4,0-0.9,0.2-1.6,0.5
		c-0.6,0.3-1.2,0.7-1.9,1.2c0,0.1,0,0.6,0,1.5c0,0.9,0,1.8,0,2.5c0,1,0,2.2,0,3.6c0,1.4,0,2.2,0,2.2h-1.6c0-0.1,0-0.6,0-1.6
		c0-1,0-2.5,0-4.4c0-0.9,0-2,0-3.2c0-1.2,0-2.5,0-3.9h1.6l0,1.5l0,0c1-0.7,1.8-1.2,2.4-1.4c0.6-0.3,1.2-0.4,1.6-0.4
		c0.9,0,1.6,0.3,2.1,1c0.5,0.7,0.8,1.6,0.8,2.8c0,1.1,0,2,0,2.8c0,0.8,0,1.4,0,1.9c0,0.8,0,1.8,0,2.9
		C139.5,63.9,139.5,64.5,139.5,64.6"/>
	<path class="st0" d="M53.5,75.7l0.9,0.1c-0.1,0.5-0.4,0.9-0.8,1.2c-0.4,0.3-0.9,0.4-1.4,0.4c-0.7,0-1.3-0.2-1.7-0.7
		c-0.4-0.4-0.6-1.1-0.6-1.9c0-0.8,0.2-1.5,0.6-2c0.4-0.5,1-0.7,1.7-0.7c0.7,0,1.2,0.2,1.6,0.7c0.4,0.5,0.6,1.1,0.6,1.9
		c0,0.1,0,0.1,0,0.2h-3.7c0,0.5,0.2,1,0.5,1.3c0.3,0.3,0.6,0.4,1,0.4c0.3,0,0.6-0.1,0.8-0.2C53.2,76.3,53.3,76.1,53.5,75.7
		 M50.7,74.3h2.8c0-0.4-0.1-0.7-0.3-0.9c-0.3-0.3-0.6-0.5-1-0.5c-0.4,0-0.7,0.1-1,0.4C50.9,73.5,50.7,73.9,50.7,74.3 M57.9,79.2
		l-0.1-0.8c0.2,0.1,0.3,0.1,0.5,0.1c0.2,0,0.3,0,0.5-0.1c0.1-0.1,0.2-0.2,0.3-0.3c0.1-0.1,0.1-0.3,0.3-0.6c0,0,0-0.1,0.1-0.2l-1.9-5
		h0.9l1,2.9c0.1,0.4,0.3,0.8,0.4,1.2c0.1-0.4,0.2-0.8,0.3-1.1l1.1-2.9H62l-1.9,5.1c-0.2,0.5-0.4,0.9-0.5,1.1
		c-0.2,0.3-0.3,0.5-0.5,0.6c-0.2,0.1-0.4,0.2-0.7,0.2C58.3,79.3,58.1,79.3,57.9,79.2 M68.7,75.7l0.9,0.1c-0.1,0.5-0.4,0.9-0.8,1.2
		c-0.4,0.3-0.9,0.4-1.4,0.4c-0.7,0-1.3-0.2-1.7-0.7c-0.4-0.4-0.6-1.1-0.6-1.9c0-0.8,0.2-1.5,0.6-2c0.4-0.5,1-0.7,1.7-0.7
		c0.7,0,1.2,0.2,1.6,0.7c0.4,0.5,0.6,1.1,0.6,1.9c0,0.1,0,0.1,0,0.2h-3.7c0,0.5,0.2,1,0.5,1.3c0.3,0.3,0.6,0.4,1,0.4
		c0.3,0,0.6-0.1,0.8-0.2C68.4,76.3,68.6,76.1,68.7,75.7 M65.9,74.3h2.8c0-0.4-0.1-0.7-0.3-0.9c-0.3-0.3-0.6-0.5-1-0.5
		c-0.4,0-0.7,0.1-1,0.4C66.1,73.5,65.9,73.9,65.9,74.3 M74.1,77.3l-1.5-5h0.9l0.8,2.9l0.3,1.1c0-0.1,0.1-0.4,0.3-1l0.8-2.9h0.9
		l0.7,2.9l0.3,1l0.3-1l0.9-2.9h0.8l-1.6,5H77l-0.8-3L76,73.5l-1,3.8H74.1L74.1,77.3z M86.1,75.7l0.9,0.1c-0.1,0.5-0.4,0.9-0.8,1.2
		c-0.4,0.3-0.9,0.4-1.4,0.4c-0.7,0-1.3-0.2-1.7-0.7c-0.4-0.4-0.6-1.1-0.6-1.9c0-0.8,0.2-1.5,0.6-2c0.4-0.5,1-0.7,1.7-0.7
		c0.7,0,1.2,0.2,1.6,0.7c0.4,0.5,0.6,1.1,0.6,1.9c0,0.1,0,0.1,0,0.2h-3.7c0,0.5,0.2,1,0.5,1.3c0.3,0.3,0.6,0.4,1,0.4
		c0.3,0,0.6-0.1,0.8-0.2C85.8,76.3,85.9,76.1,86.1,75.7 M83.3,74.3h2.8c0-0.4-0.1-0.7-0.3-0.9c-0.3-0.3-0.6-0.5-1-0.5
		c-0.4,0-0.7,0.1-1,0.4C83.5,73.5,83.3,73.9,83.3,74.3 M93.8,76.7c-0.3,0.3-0.6,0.5-0.9,0.6c-0.3,0.1-0.6,0.2-0.9,0.2
		c-0.5,0-1-0.1-1.3-0.4c-0.3-0.3-0.4-0.6-0.4-1c0-0.2,0.1-0.5,0.2-0.7c0.1-0.2,0.3-0.4,0.4-0.5c0.2-0.1,0.4-0.2,0.6-0.3
		c0.2,0,0.4-0.1,0.8-0.1c0.7-0.1,1.2-0.2,1.5-0.3c0-0.1,0-0.2,0-0.2c0-0.3-0.1-0.6-0.2-0.7c-0.2-0.2-0.5-0.3-1-0.3
		c-0.4,0-0.7,0.1-0.9,0.2c-0.2,0.1-0.3,0.4-0.4,0.7l-0.8-0.1c0.1-0.4,0.2-0.6,0.4-0.9c0.2-0.2,0.4-0.4,0.8-0.5
		c0.3-0.1,0.7-0.2,1.1-0.2c0.4,0,0.8,0.1,1,0.2c0.3,0.1,0.5,0.2,0.6,0.4c0.1,0.2,0.2,0.3,0.3,0.6c0,0.1,0,0.4,0,0.8v1.1
		c0,0.8,0,1.3,0.1,1.5c0,0.2,0.1,0.4,0.2,0.6H94C93.9,77.1,93.8,76.9,93.8,76.7 M93.7,74.8c-0.3,0.1-0.8,0.2-1.4,0.3
		c-0.3,0-0.6,0.1-0.7,0.2c-0.1,0.1-0.3,0.2-0.3,0.3c-0.1,0.1-0.1,0.3-0.1,0.4c0,0.2,0.1,0.4,0.3,0.6c0.2,0.1,0.4,0.2,0.8,0.2
		c0.3,0,0.6-0.1,0.9-0.2c0.3-0.1,0.4-0.3,0.6-0.6c0.1-0.2,0.1-0.5,0.1-0.8V74.8L93.7,74.8z M98.4,77.3v-5h0.8v0.8
		c0.2-0.4,0.4-0.6,0.5-0.7c0.2-0.1,0.3-0.2,0.5-0.2c0.3,0,0.6,0.1,0.9,0.3l-0.3,0.8c-0.2-0.1-0.4-0.2-0.6-0.2
		c-0.2,0-0.4,0.1-0.5,0.2c-0.1,0.1-0.3,0.3-0.3,0.5c-0.1,0.3-0.1,0.6-0.1,1v2.6H98.4L98.4,77.3z"/>
</g>
</svg>
