<?xml version="1.0" encoding="utf-8"?>
<!-- Generator: Adobe Illustrator 21.0.0, SVG Export Plug-In . SVG Version: 6.00 Build 0)  -->
<svg version="1.1" id="Layer_1" xmlns="http://www.w3.org/2000/svg" xmlns:xlink="http://www.w3.org/1999/xlink" x="0px" y="0px"
	 viewBox="0 0 150 125" style="enable-background:new 0 0 150 125;" xml:space="preserve">
<style type="text/css">
	.st0{fill:#231F20;}
</style>
<g>
	<path class="st0" d="M32.4,63.7L31,64.5c0-0.1-0.2-0.6-0.6-1.6c-0.3-1-0.8-2.3-1.3-3.9h-5.2c-0.6,1.7-1.1,3-1.4,3.9
		c-0.3,0.9-0.5,1.4-0.6,1.5l-1-0.8c0.2-0.3,0.8-2,1.8-5c1.1-2.9,2.3-6,3.4-9.2h1.1c1.2,3.3,2.3,6.4,3.4,9.4
		C31.8,62,32.4,63.6,32.4,63.7 M28.7,57.7c-0.3-0.8-0.7-1.8-1-2.8c-0.3-0.9-0.7-1.9-1.1-3l0,0c-0.3,0.8-0.7,1.8-1.1,2.9
		c-0.4,1.2-0.8,2.1-1,2.9l0,0L28.7,57.7L28.7,57.7L28.7,57.7z M40.7,64.3h-1.3c0-0.2,0-0.8,0-2s0-1.8,0-2.1c0-0.3,0-0.9,0-1.7
		s0-1.3,0-1.6c0-0.8-0.2-1.4-0.4-1.8c-0.3-0.3-0.7-0.5-1.3-0.5c-0.3,0-0.8,0.2-1.3,0.4c-0.5,0.3-1,0.6-1.6,1c0,0.1,0,0.5,0,1.3
		s0,1.5,0,2.1c0,0.8,0,1.8,0,3c0,1.2,0,1.8,0,1.8h-1.3c0-0.1,0-0.5,0-1.3c0-0.8,0-2.1,0-3.7c0-0.8,0-1.7,0-2.7c0-1,0-2.1,0-3.3h1.3
		v1.3l0,0c0.8-0.6,1.5-1,2-1.2c0.5-0.3,1-0.3,1.3-0.3c0.8,0,1.3,0.3,1.8,0.8c0.4,0.6,0.7,1.3,0.7,2.3c0,0.9,0,1.7,0,2.3s0,1.2,0,1.6
		c0,0.7,0,1.5,0,2.4C40.7,63.7,40.7,64.2,40.7,64.3 M49.2,58.1c0,1.8,0,3.3,0,4.4c0,1.1,0,1.8,0,1.8c-0.1,0-0.3,0-0.8,0.1
		c-0.5,0.1-1.1,0.1-1.8,0.1c-0.5,0-0.9-0.1-1.4-0.2c-0.5-0.1-0.9-0.3-1.3-0.5c-0.5-0.3-0.8-0.7-1.1-1.1c-0.3-0.5-0.4-1-0.4-1.7
		c0-0.7,0.2-1.3,0.5-1.8c0.3-0.5,0.8-0.9,1.4-1.3c0.3-0.2,0.8-0.3,1.5-0.5c0.7-0.2,1.3-0.3,2.2-0.3c0-0.6-0.2-1-0.3-1.4
		c-0.2-0.3-0.5-0.7-0.8-0.8c-0.3-0.2-0.5-0.3-0.8-0.3c-0.3-0.1-0.7-0.1-1.1-0.1c-0.3,0-0.5,0-0.7,0s-0.4,0-0.8,0.1l0.2-1.4
		c0.1,0,0.3,0,0.5,0s0.6,0,1.1,0c0.7,0,1.3,0.1,1.8,0.3c0.5,0.2,1,0.4,1.3,0.8c0.3,0.3,0.6,0.8,0.8,1.4C49.1,56.2,49.2,57,49.2,58.1
		 M47.8,60.7v-0.9c0-0.3,0-0.8,0-1.3c-0.3,0-0.7,0.1-1.3,0.2c-0.7,0.1-1.2,0.3-1.6,0.5c-0.3,0.2-0.6,0.4-0.8,0.7
		c-0.3,0.3-0.3,0.7-0.3,1.1c0,0.5,0.1,0.9,0.3,1.2c0.3,0.3,0.5,0.5,0.8,0.7c0.3,0.1,0.6,0.3,0.9,0.3c0.3,0.1,0.7,0.1,1.1,0.1
		c0.1,0,0.3,0,0.4,0s0.3,0,0.5,0v-0.8C47.8,62,47.8,61.4,47.8,60.7 M65.7,64.3h-1.4c0-0.4,0-1.3,0-2.4s0-2.6,0-4.4h-1.5
		c-0.9,0-1.7,0-2.1,0c-0.6,0-1.3,0-2.1,0h-1.3c0,2,0,3.5,0,4.5s0,1.8,0,2.2h-1.4c0-0.4,0-1.2,0-2.3c0-1.1,0-2.9,0-5.6
		c0-0.8,0-1.8,0-2.9c0-1.2,0-2.3,0-3.7h1.4c0,1.1,0,2.2,0,3.3c0,1.1,0,2.1,0,3c0.1,0,0.4,0,1.1,0h2.3h2.3c0.8,0,1.3,0,1.4,0
		c0-0.9,0-1.9,0-3c0-1.1,0-2.1,0-3.3h1.4c0,1.1,0,2.3,0,3.8s0,2.6,0,3.5c0,2.1,0,3.8,0,4.9C65.7,63,65.7,63.8,65.7,64.3 M70.2,51.2
		h-1.5v-1.8h1.5V51.2L70.2,51.2z M70.1,64.3h-1.3c0-0.1,0-0.8,0-2.1c0-1.3,0-2.3,0-3.3c0-0.8,0-1.6,0-2.4c0-0.9,0-1.9,0-3.1h1.3
		c0,1,0,2,0,2.9c0,0.9,0,1.7,0,2.4c0,1.7,0,3,0,4C70.1,63.7,70.1,64.3,70.1,64.3 M78.5,62.8l-0.1,1.4h-0.3h-0.3
		c-0.8,0-1.4-0.1-2.1-0.3c-0.7-0.2-1.3-0.4-1.8-0.8c-0.7-0.5-1.3-1.1-1.7-1.9c-0.4-0.8-0.6-1.7-0.6-2.6c0-0.8,0.2-1.7,0.5-2.3
		c0.3-0.8,0.8-1.3,1.4-1.8c0.5-0.4,1.2-0.8,1.8-0.9c0.8-0.3,1.5-0.3,2.3-0.3H78h0.2l0.1,1.4h-0.2h-0.2c-0.7,0-1.2,0.1-1.7,0.2
		c-0.4,0.1-0.9,0.3-1.3,0.5c-0.6,0.3-1,0.8-1.3,1.3c-0.3,0.6-0.5,1.3-0.5,2c0,0.8,0.2,1.6,0.5,2.1c0.3,0.6,0.8,1,1.3,1.3
		c0.4,0.3,0.8,0.4,1.3,0.5c0.5,0.1,1,0.2,1.6,0.2h0.3L78.5,62.8L78.5,62.8z M81.5,64.3h-1.3c0-0.2,0-1.1,0-2.9c0-1.8,0-3.7,0-5.6
		c0-0.8,0-1.8,0-3.1c0-1.3,0-2.7,0-4.3h1.3c0,1.3,0,2.8,0,4.4v3c0,0.8,0,2.3,0,4.7C81.5,62.9,81.5,64.2,81.5,64.3 M87.8,64l-0.8,0.9
		c-1.3-1.6-2.4-3-3.4-4.3c-1-1.2-1.5-1.8-1.7-2l0,0c0.2-0.2,0.8-0.9,1.8-2.3c1.1-1.3,1.9-2.5,2.6-3.4l0.8,1.1
		c-0.7,0.8-1.4,1.7-2.2,2.6s-1.3,1.5-1.4,1.8l0,0c0,0,0.4,0.6,1.3,1.7C85.7,61.2,86.7,62.6,87.8,64 M101.3,64.3h-1.3
		c0-0.1,0-0.6,0-1.5s0-1.8,0-2.6c0-0.3,0-0.8,0-1.6s0-1.3,0-1.7c0-0.8-0.2-1.4-0.4-1.8s-0.7-0.5-1.2-0.5c-0.3,0-0.7,0.1-1.2,0.3
		c-0.4,0.2-0.9,0.5-1.5,0.9V56c0,0.1,0,0.3,0,0.4c0,0.6,0,1.2,0,1.8c0,0.6,0,1.2,0,1.8c0,1.2,0,2.2,0,3s0,1.3,0,1.3h-1.3
		c0-0.1,0-0.5,0-1.3c0-0.8,0-1.8,0-2.9c0-0.3,0-0.9,0-1.7s0-1.3,0-1.6s0-0.6-0.1-0.9c0-0.3-0.1-0.5-0.3-0.8
		c-0.1-0.3-0.3-0.4-0.5-0.5c-0.2-0.1-0.5-0.2-0.8-0.2s-0.7,0.1-1.2,0.3c-0.4,0.3-0.9,0.6-1.5,1c0,0.1,0,0.6,0,1.4c0,0.8,0,1.4,0,1.9
		c0,0.8,0,1.9,0,3.1s0,1.8,0,1.9h-1.3c0-0.1,0-0.5,0-1.3s0-2.1,0-3.9c0-0.6,0-1.4,0-2.4s0-2.2,0-3.4h1.3v1.3l0,0
		c0.4-0.3,0.8-0.7,1.4-1S92.5,53,93,53c0.6,0,1,0.2,1.4,0.4c0.4,0.3,0.7,0.7,0.8,1.1l0,0c0.7-0.5,1.3-0.9,1.8-1.2
		c0.6-0.3,1-0.4,1.4-0.4c0.8,0,1.4,0.3,1.8,0.8s0.7,1.3,0.7,2.3c0,0.8,0,1.4,0,1.9s0,1.1,0,1.7c0,1.2,0,2.3,0,3.1
		C101.3,63.8,101.3,64.2,101.3,64.3 M109.8,58.1c0,1.8,0,3.3,0,4.4c0,1.1,0,1.8,0,1.8c-0.1,0-0.3,0-0.8,0.1
		c-0.5,0.1-1.1,0.1-1.8,0.1c-0.5,0-0.9-0.1-1.4-0.2s-0.9-0.3-1.3-0.5c-0.5-0.3-0.8-0.7-1.1-1.1c-0.3-0.5-0.4-1-0.4-1.7
		c0-0.7,0.2-1.3,0.5-1.8c0.3-0.5,0.8-0.9,1.4-1.3c0.3-0.2,0.8-0.3,1.5-0.5c0.7-0.2,1.3-0.3,2.2-0.3c0-0.6-0.2-1-0.3-1.4
		c-0.2-0.3-0.5-0.7-0.8-0.8c-0.3-0.2-0.5-0.3-0.8-0.3c-0.3-0.1-0.7-0.1-1.1-0.1c-0.3,0-0.5,0-0.7,0c-0.2,0-0.4,0-0.8,0.1l0.2-1.4
		c0.1,0,0.3,0,0.5,0c0.3,0,0.6,0,1.1,0c0.7,0,1.3,0.1,1.8,0.3c0.5,0.2,1,0.4,1.3,0.8c0.3,0.3,0.6,0.8,0.8,1.4
		C109.7,56.2,109.8,57,109.8,58.1 M108.5,60.7v-0.9c0-0.3,0-0.8,0-1.3c-0.3,0-0.7,0.1-1.3,0.2c-0.7,0.1-1.2,0.3-1.6,0.5
		c-0.3,0.2-0.6,0.4-0.8,0.7c-0.3,0.3-0.3,0.7-0.3,1.1c0,0.5,0.1,0.9,0.3,1.2c0.3,0.3,0.5,0.5,0.8,0.7c0.3,0.1,0.6,0.3,0.9,0.3
		c0.3,0.1,0.7,0.1,1.1,0.1c0.1,0,0.3,0,0.4,0c0.2,0,0.3,0,0.5,0v-0.8C108.5,62,108.5,61.4,108.5,60.7 M119.5,64.3h-1.3
		c0-0.2,0-0.8,0-2s0-1.8,0-2.1c0-0.3,0-0.9,0-1.7s0-1.3,0-1.6c0-0.8-0.2-1.4-0.4-1.8c-0.3-0.3-0.7-0.5-1.3-0.5
		c-0.3,0-0.8,0.2-1.3,0.4c-0.5,0.3-1,0.6-1.6,1c0,0.1,0,0.5,0,1.3s0,1.5,0,2.1c0,0.8,0,1.8,0,3c0,1.2,0,1.8,0,1.8h-1.3
		c0-0.1,0-0.5,0-1.3c0-0.8,0-2.1,0-3.7c0-0.8,0-1.7,0-2.7c0-1,0-2.1,0-3.3h1.3v1.3l0,0c0.8-0.6,1.5-1,2-1.2c0.5-0.3,1-0.3,1.3-0.3
		c0.8,0,1.3,0.3,1.8,0.8c0.4,0.6,0.7,1.3,0.7,2.3c0,0.9,0,1.7,0,2.3s0,1.2,0,1.6c0,0.7,0,1.5,0,2.4
		C119.5,63.7,119.5,64.2,119.5,64.3 M129.1,64.3h-1.3c0-0.2,0-0.8,0-2s0-1.8,0-2.1c0-0.3,0-0.9,0-1.7s0-1.3,0-1.6
		c0-0.8-0.2-1.4-0.4-1.8c-0.3-0.3-0.7-0.5-1.3-0.5c-0.3,0-0.8,0.2-1.3,0.4c-0.5,0.3-1,0.6-1.6,1c0,0.1,0,0.5,0,1.3s0,1.5,0,2.1
		c0,0.8,0,1.8,0,3c0,1.2,0,1.8,0,1.8h-1.3c0-0.1,0-0.5,0-1.3c0-0.8,0-2.1,0-3.7c0-0.8,0-1.7,0-2.7c0-1,0-2.1,0-3.3h1.3v1.3l0,0
		c0.8-0.6,1.5-1,2-1.2c0.5-0.3,1-0.3,1.3-0.3c0.8,0,1.3,0.3,1.8,0.8c0.4,0.6,0.7,1.3,0.7,2.3c0,0.9,0,1.7,0,2.3s0,1.2,0,1.6
		c0,0.7,0,1.5,0,2.4C129.1,63.7,129.1,64.2,129.1,64.3"/>
	<path class="st0" d="M57,73.6l0.8,0.1c-0.1,0.4-0.3,0.8-0.7,1c-0.3,0.3-0.8,0.3-1.2,0.3c-0.6,0-1.1-0.2-1.4-0.6
		c-0.3-0.3-0.5-0.9-0.5-1.6c0-0.7,0.2-1.3,0.5-1.7c0.3-0.4,0.8-0.6,1.4-0.6c0.6,0,1,0.2,1.3,0.6c0.3,0.4,0.5,0.9,0.5,1.6
		c0,0.1,0,0.1,0,0.2h-3.1c0,0.4,0.2,0.8,0.4,1.1s0.5,0.3,0.8,0.3c0.3,0,0.5-0.1,0.7-0.2S56.8,73.9,57,73.6 M54.6,72.4H57
		c0-0.3-0.1-0.6-0.3-0.8c-0.3-0.3-0.5-0.4-0.8-0.4s-0.6,0.1-0.8,0.3C54.8,71.7,54.6,72.1,54.6,72.4 M60.7,76.5l-0.1-0.7
		c0.2,0.1,0.3,0.1,0.4,0.1c0.2,0,0.3,0,0.4-0.1c0.1-0.1,0.2-0.2,0.3-0.3c0.1-0.1,0.1-0.3,0.3-0.5c0,0,0-0.1,0.1-0.2l-1.6-4.2h0.8
		l0.8,2.4c0.1,0.3,0.3,0.7,0.3,1c0.1-0.3,0.2-0.7,0.3-0.9l0.9-2.4h0.6l-1.6,4.3c-0.2,0.4-0.3,0.8-0.4,0.9c-0.2,0.3-0.3,0.4-0.4,0.5
		c-0.2,0.1-0.3,0.2-0.6,0.2C61,76.6,60.8,76.6,60.7,76.5 M69.7,73.6l0.8,0.1c-0.1,0.4-0.3,0.8-0.7,1C69.5,74.9,69,75,68.6,75
		c-0.6,0-1.1-0.2-1.4-0.6c-0.3-0.3-0.5-0.9-0.5-1.6c0-0.7,0.2-1.3,0.5-1.7c0.3-0.4,0.8-0.6,1.4-0.6s1,0.2,1.3,0.6s0.5,0.9,0.5,1.6
		c0,0.1,0,0.1,0,0.2h-3.1c0,0.4,0.2,0.8,0.4,1.1s0.5,0.3,0.8,0.3c0.3,0,0.5-0.1,0.7-0.2C69.5,74.1,69.6,73.9,69.7,73.6 M67.4,72.4
		h2.3c0-0.3-0.1-0.6-0.3-0.8c-0.3-0.3-0.5-0.4-0.8-0.4s-0.6,0.1-0.8,0.3C67.5,71.7,67.4,72.1,67.4,72.4 M74.2,74.9L73,70.7h0.8
		l0.7,2.4l0.3,0.9c0-0.1,0.1-0.3,0.3-0.8l0.7-2.4h0.8l0.6,2.4l0.3,0.8l0.3-0.8l0.8-2.4h0.7L77.5,75h-0.8L76,72.5l-0.2-0.8L75,74.9
		H74.2L74.2,74.9z M84.3,73.6l0.8,0.1c-0.1,0.4-0.3,0.8-0.7,1c-0.3,0.3-0.8,0.3-1.2,0.3c-0.6,0-1.1-0.2-1.4-0.6
		c-0.3-0.3-0.5-0.9-0.5-1.6c0-0.7,0.2-1.3,0.5-1.7c0.3-0.4,0.8-0.6,1.4-0.6s1,0.2,1.3,0.6c0.3,0.4,0.5,0.9,0.5,1.6
		c0,0.1,0,0.1,0,0.2H82c0,0.4,0.2,0.8,0.4,1.1s0.5,0.3,0.8,0.3c0.3,0,0.5-0.1,0.7-0.2S84.1,73.9,84.3,73.6 M82,72.4h2.3
		c0-0.3-0.1-0.6-0.3-0.8c-0.3-0.3-0.5-0.4-0.8-0.4c-0.3,0-0.6,0.1-0.8,0.3C82.1,71.7,82,72.1,82,72.4 M90.8,74.4
		c-0.3,0.3-0.5,0.4-0.8,0.5c-0.3,0.1-0.5,0.2-0.8,0.2c-0.4,0-0.8-0.1-1.1-0.3c-0.3-0.3-0.3-0.5-0.3-0.8c0-0.2,0.1-0.4,0.2-0.6
		c0.1-0.2,0.3-0.3,0.3-0.4c0.2-0.1,0.3-0.2,0.5-0.3c0.2,0,0.3-0.1,0.7-0.1c0.6-0.1,1-0.2,1.3-0.3c0-0.1,0-0.2,0-0.2
		c0-0.3-0.1-0.5-0.2-0.6c-0.2-0.2-0.4-0.3-0.8-0.3c-0.3,0-0.6,0.1-0.8,0.2c-0.2,0.1-0.3,0.3-0.3,0.6L88,72c0.1-0.3,0.2-0.5,0.3-0.8
		c0.2-0.2,0.3-0.3,0.7-0.4c0.3-0.1,0.6-0.2,0.9-0.2c0.3,0,0.7,0.1,0.8,0.2c0.3,0.1,0.4,0.2,0.5,0.3c0.1,0.2,0.2,0.3,0.3,0.5
		c0,0.1,0,0.3,0,0.7v0.9c0,0.7,0,1.1,0.1,1.3c0,0.2,0.1,0.3,0.2,0.5h-0.8C90.9,74.8,90.8,74.6,90.8,74.4 M90.7,72.8
		c-0.3,0.1-0.7,0.2-1.2,0.3c-0.3,0-0.5,0.1-0.6,0.2c-0.1,0.1-0.3,0.2-0.3,0.3c-0.1,0.1-0.1,0.3-0.1,0.3c0,0.2,0.1,0.3,0.3,0.5
		c0.2,0.1,0.3,0.2,0.7,0.2c0.3,0,0.5-0.1,0.8-0.2c0.3-0.1,0.3-0.3,0.5-0.5c0.1-0.2,0.1-0.4,0.1-0.7v-0.3H90.7z M94.6,74.9v-4.2h0.7
		v0.7c0.2-0.3,0.3-0.5,0.4-0.6c0.2-0.1,0.3-0.2,0.4-0.2c0.3,0,0.5,0.1,0.8,0.3l-0.3,0.7c-0.2-0.1-0.3-0.2-0.5-0.2s-0.3,0.1-0.4,0.2
		c-0.1,0.1-0.3,0.3-0.3,0.4c-0.1,0.3-0.1,0.5-0.1,0.8V75L94.6,74.9L94.6,74.9z"/>
</g>
</svg>
