<?xml version="1.0" encoding="utf-8"?>
<!-- Generator: Adobe Illustrator 21.0.0, SVG Export Plug-In . SVG Version: 6.00 Build 0)  -->
<svg version="1.1" id="Layer_1" xmlns="http://www.w3.org/2000/svg" xmlns:xlink="http://www.w3.org/1999/xlink" x="0px" y="0px"
	 viewBox="0 0 150 125" style="enable-background:new 0 0 150 125;" xml:space="preserve">
<style type="text/css">
	.st0{fill:#FFFFFF;}
</style>
<g>
	<g>
		<path d="M123.7,61.1c-0.3,0.2-0.6,0.4-0.8,0.5c0.7,0.8,1,0.7,2.1-0.6c-0.4-0.3-0.8-0.5-1.4-0.9c2.7-0.8,5.1-1.6,7.3,0.1
			c0,0.2,0,0.3,0.1,0.5c-0.4,0.2-0.8,0.3-1.3,0.5c-1.3,0.5-2.6,1-3.8,1.6c-0.2,0.1-0.5,0.5-0.4,0.7c0.1,0.3,0.4,0.7,0.7,0.9
			c0.3,0.3,0.8,0.3,1.1,0.6c1.1,0.8,2.2,1.8,3.3,2.6c0.2,0.2,0.7,0,1.2,0.2c-0.5,0.3-0.9,0.7-1.4,0.9c-1.6,0.5-3.2,0.9-4.8,0.1
			c-0.3-0.1-0.7-0.1-1.1,0c-1.3,0.1-2.5,0.2-3.8,0.2c-0.3,0-0.8-0.1-1-0.3c-0.3-0.2-0.4-0.7-0.4-1c0-0.2,0.4-0.5,0.7-0.5
			c1.1,0,1.1-0.5,1-1.4c-0.1-2,0-4,0-6.1c0-1.2,0.2-2.5-1.5-2.7c-0.2,0-0.5-0.5-0.4-0.6c0.2-0.3,0.5-0.8,0.9-0.9
			c1.3-0.3,2.4,0,3.4,0.9c-0.1,0-0.3,0.1-0.4,0.1c0,0.9,0,1.7,0,2.6c0,0.5,0.1,1.1,0.2,1.9C123.2,60.8,123.4,60.9,123.7,61.1z"/>
		<path d="M117.6,68.5c-1.5,1.1-4.9,1.1-6.4-0.3c-1.5,1.5-3.5,0.6-5.2,0.7c-0.3,0-0.6-0.6-0.8-0.9c0-0.1,0.4-0.6,0.7-0.6
			c1.2-0.2,1.5-0.6,1.2-1.9c-0.2-1,0.1-2.1,0.2-3.1c0-0.8,0.2-1.8-1.2-1.6c-0.2,0-0.6-0.3-0.6-0.4c0.1-0.4,0.2-1,0.5-1.1
			c0.8-0.4,1.8-0.5,2.4,0.3c0.6,0.7,1.1,0.7,1.7,0.2c1.8-1.2,3-1.2,4.8,0.1c0.2,0.1,0.4,0.2,0.6,0.3c1.1,0.2,1.3,0.7,0.9,1.9
			c-0.3-0.1-0.6-0.3-1.1-0.5c0.1,0.4,0.1,0.8,0.3,1c0.2,0.3,0.6,0.4,0.9,0.6c0,0.8,0,1.8,0.2,2.7C116.8,66.7,117.2,67.5,117.6,68.5z
			 M110.8,67c1.2,0,2.2,0.2,2.3-1.3c0.1-1.3,0.2-2.6,0.1-3.9c0-0.6-0.5-1-1.1-0.4c-0.6,0.7-1.2,1.5-1.8,2.3
			C110.4,64.5,110.6,65.7,110.8,67z"/>
		<path d="M25,61.2c1.4,2.1,2.5,4.1,0.5,6.5C27,67.3,28,66.1,28,65c0.7,0.6,0.8,1.3,0.1,2c-0.9,0.9-1.9,1.4-3.2,1.3
			c-1.5,0-3.1,0.4-4.6,0.5c-1.4,0.1-2.9,0-4.3-0.1c-0.3,0-0.6-0.6-0.9-1c0.3-0.2,0.7-0.5,1-0.6c0.2-0.1,0.5,0,0.7,0.1
			c1,0.3,1.5-0.2,1.6-1.1c0.1-2.6,0.2-5.2,0.2-7.8c0-1.5-0.4-1.9-1.9-2.1c-0.4-0.1-0.8-0.2-1.2-0.6c0.4-0.1,0.8-0.4,1.2-0.4
			c1.3,0,2.6,0,3.9,0c0.2,0,0.5,0,0.6,0.1c0.6,0.5,1.1,0.6,2,0.3c0.6-0.2,1.9,0.4,2.2,1C26.1,58.1,26.4,59.8,25,61.2z M20.5,67.1
			c0.8-0.2,1.4-0.4,1.9-0.3c1.5,0.1,2.2-0.6,2.1-2.1c0-0.4-0.1-0.8-0.2-1.2c-0.3-0.9-1-1.4-2-1.3c-0.6,0.1-1.3,0.1-2,0.2
			C20.3,64,20.4,65.6,20.5,67.1z M20.1,60c1,0.9,2.1,0.2,3.2,0c1.2-0.3,1.6-1.6,0.6-2.3c-0.8-0.6-1.9-0.8-2.9-1.1
			c-0.1,0-0.5,0.5-0.6,0.9C20.2,58.3,20.1,59.1,20.1,60z"/>
		<path d="M39.4,63.9c-0.3-0.7-0.6-1.4-1-2.1c-0.1,0-0.1,0.1-0.2,0.1c0,1.1,0.2,2.2-0.1,3.2c-0.2,1-0.9,1.8-1.3,2.7
			c0.2,0.1,0.3,0.2,0.5,0.3c0.7-1,1.4-2,2.3-3.2c0.1,0.5,0.3,1.1,0.1,1.4c-1.2,1.7-2.6,3.2-5,2.7c-0.2,0-0.4,0-0.6,0
			c-3,0-4.2-0.9-5.2-3.8c-0.6-1.9,0.2-4.5,2.1-5.8c0.6-0.4,1.5-0.8,2.2-0.8c2.6,0.3,5,1.3,6.4,3.7c0.2,0.4,0.1,1,0.2,1.5
			C39.8,63.8,39.6,63.8,39.4,63.9z M36.3,63.8c-0.2-0.5-0.3-0.8-0.5-1.2c-0.1-0.4-0.2-0.9-0.4-1.1c-0.3-0.2-0.9-0.2-1.2,0
			c-1.2,0.6-2.1,2.8-1.6,4c0.2,0.5,0.8,1.1,1.4,1.2c0.4,0.1,1.1-0.4,1.4-0.8C35.8,65.2,36,64.4,36.3,63.8z"/>
		<path d="M44.4,59.6c0.6-0.1,1.2-0.3,1.8-0.4c0.9-0.2,1.7-0.1,2.5,0.6c0.5,0.4,1.2,0.6,1.5,1.1c0.6,1,1,2.2,1.6,3.3
			c-1.2,0.9-0.7,2.5-1.5,3.5c-1.1,1.2-2.6,1.5-4.2,1.4c-0.8,0-1.6-0.3-2.5-0.4c-0.6-0.1-0.9-0.2-0.9-0.8c0.1-1.2-0.6-2.4,0.2-3.6
			c0.1-0.2-0.1-0.7-0.2-1c-0.1-0.3-0.3-0.6-0.2-0.9c0.1-1,0.2-2.1,0.3-3.1c0.2-1.2-0.3-1.8-1.4-2.2c-0.4-0.1-0.8-0.5-1.1-0.7
			c0.4-0.2,0.7-0.6,1.1-0.7c1.8-0.6,2.5-0.1,2.7,1.8C44.2,58.1,44.3,58.8,44.4,59.6z M48.4,61.6c-0.8-0.1-1.4-0.2-1.9-0.2
			c-1,0.1-1.7,0.6-1.6,1.7c0.1,1.3,0.4,2.6,0.7,4.1c0.9-0.2,2.2-0.4,2.3-0.7c0.2-1.3,1.8-2.6,0-3.8C48,62.4,48.1,62.1,48.4,61.6z"/>
		<path d="M79.1,67.1c0,0.6,0.2,1.2,0,1.3c-0.4,0.3-1.2,0.7-1.6,0.6c-1.3-0.5-2.4-0.2-3.6,0c-1,0.2-2.2,0-3.1-0.5
			c-0.7-0.3-1.2-1.2-1.5-2c-0.6-1.8-0.9-3.6,0.2-5.3c1.1-1.9,2.6-2.5,4.7-2c0.3,0.1,0.7,0,1.1,0c0-0.6,0-1.2-0.2-1.8
			c-0.1-0.2-0.6-0.3-0.9-0.4c-0.2,0-0.4,0.2-0.5,0.2c-0.4-0.2-0.8-0.6-1.2-0.8c0.3-0.3,0.6-0.7,0.9-0.9c0.4-0.2,1-0.1,1.5-0.1
			c1,0,1.8,0.3,1.9,1.4c0.1,0.6,0,1.1,0,1.7c0,2.7,0,5.3,0.1,8C76.9,67.2,77.8,67.5,79.1,67.1z M70.6,63.5c0.2,1,0.3,1.9,0.6,2.6
			c0.4,1.1,1.7,1.3,2.6,0.5c1.8-1.4,1.6-3.7,0.1-5.1c-0.9-0.8-1.9-0.7-2.6,0.3C70.9,62.5,70.8,63.1,70.6,63.5z"/>
		<path d="M60.8,68.5c-0.5,0.7-1.2,0.9-2-0.1c-0.2-0.3-0.3-0.7-0.2-1.1c0.4-1.2,0.8-2.4-0.1-3.6c0.9-0.5,1.6-0.4,2.1,0.4
			c0.3,0.4,0.4,1,0.7,1.4c0.5,1.2,1.5,1.5,2.7,1.4c1.2,0,1.9-0.5,2.2-1.8c0.2-1-0.5-2.4-1.5-2.6c-0.3-0.1-0.6-0.1-0.8-0.1
			c-1.7,0.4-2.9-0.8-4.3-1.5c-0.8-0.4-1-3.4-0.4-4.1c1.5-1.8,4.3-2.2,6.3-1.2c0.4,0.2,1.1,0.1,1.7,0.1c0,1.2,0,2.5,0,3.7
			c-0.2,0-0.3,0.1-0.5,0.1c-0.2-0.4-0.6-0.8-0.7-1.2c-0.4-1.4-2.4-2.4-3.7-1.6c-0.3,0.2-0.7,0.4-1,0.6c-1.1,0.6-1.2,1.7-0.1,2.3
			c1,0.6,2.1,1,3.3,1.1c2.2,0.3,3.1,1.8,3.6,3.7c0.5,1.8-1.5,4.3-3.4,4.3C63.6,69.1,62.3,68.7,60.8,68.5z"/>
		<path d="M101.9,67.4c0.6,0.3,1.8,0.5,1.8,0.8c-0.1,1-1.1,0.8-1.8,1c-0.9,0.3-1.4,0-1.8-0.7c-0.1-0.2-0.4-0.4-0.7-0.7
			c-0.1,0.5-0.2,0.7-0.2,1c-0.8,0.1-1.5,0.2-2.3,0.3c-2.3,0.3-3.8-1.5-3.7-4.1c0-0.7,0.3-1.4,0.4-2.1c0.2-1.4-0.1-1.7-1.5-2
			c-0.4-0.1-0.7-0.7-1-1.1c0.4-0.3,0.8-0.7,1.2-0.8c0.5-0.1,1,0.1,1.5,0.2c1.4,0.2,1.5,0.7,1.3,2.1c-0.2,1.4,0,2.9-0.1,4.3
			c-0.1,1.1,0.5,1.6,1.3,1.9c0.3,0.1,0.8,0.1,1-0.1c0.8-0.7,1.6-1.4,2.3-2.1c0.6-0.6,0.7-1.3,0.3-2.1c0-0.1-0.1-0.1-0.1-0.2
			c0.3-1.6-0.4-2.2-2-2.3c-0.1,0-0.4-0.6-0.4-0.8c0.2-0.4,0.7-0.9,0.9-0.9c0.9,0.1,1.7,0.4,2.5,0.8c0.3,0.2,0.3,0.9,0.3,1.4
			c0,1.3,0,2.6,0,3.9c0,0.8,0.1,1.7,0.2,2.5C101.7,67.5,101.8,67.4,101.9,67.4z"/>
		<path d="M80.4,61.5c0-0.5,0-1-0.1-1.7c1.2-0.1,2.4-0.1,3.5-0.1c0.2,0,0.5,0.2,0.6,0.3c0.5,0.8,1,0.8,1.7,0.1
			c0.9-0.9,3.8-0.4,4.4,0.7c0.2,0.5,0,1.3-0.2,1.9c-0.1,0.3-0.9,0.6-1.2,0.4c-0.5-0.3-0.8-0.8-1.1-1.3c-0.1-0.1,0.3-0.4,0.4-0.6
			c-1.6-0.1-3.1,1.4-3.2,2.9c0,0.5,0,1.1-0.1,1.6c-0.2,1.3,0.2,1.7,1.5,1.7c0.6,0,1.3,0,2,0c0,0.1,0.1,0.3,0.1,0.4
			c-0.3,0.2-0.6,0.6-0.9,0.6c-2,0.2-3.9,0.3-5.9,0.4c-0.7,0-1.5-0.1-1.2-1.2c0.9-0.2,1.8-0.5,2.8-0.7c0-1.3,0.1-2.6,0-3.9
			c-0.1-1.2-0.9-1.7-2.1-1.4C81.1,61.6,80.8,61.5,80.4,61.5z"/>
		<path d="M132.6,55.4c1,0,2,1,2,2c0,1.1-0.9,2-2,2.1c-1.1,0-2.1-1-2.1-2.1C130.6,56.4,131.6,55.4,132.6,55.4z M133.6,58.6
			c0.8-0.7,0.7-1.5,0-2.2c-0.5-0.5-1.1-0.8-1.7,0c-0.1,0.6-0.5,1.5-0.2,1.8C132.1,58.6,133,58.5,133.6,58.6z"/>
		<path class="st0" d="M110.8,67c-0.2-1.3-0.4-2.5-0.5-3.3c0.7-0.9,1.2-1.6,1.8-2.3c0.6-0.6,1.1-0.2,1.1,0.4
			c0.1,1.3-0.1,2.6-0.1,3.9C113,67.2,111.9,67,110.8,67z"/>
		<path class="st0" d="M20.5,67.1c-0.1-1.6-0.1-3.1-0.2-4.7c0.7-0.1,1.3-0.2,2-0.2c1-0.1,1.7,0.4,2,1.3c0.1,0.4,0.2,0.8,0.2,1.2
			c0.1,1.5-0.6,2.1-2.1,2.1C21.8,66.7,21.3,67,20.5,67.1z"/>
		<path class="st0" d="M20.1,60c0.1-0.9,0.1-1.7,0.3-2.5c0.1-0.3,0.5-0.9,0.6-0.9c1,0.3,2.1,0.5,2.9,1.1c1,0.7,0.6,2-0.6,2.3
			C22.2,60.2,21.1,60.9,20.1,60z"/>
		<path class="st0" d="M36.3,63.8c-0.3,0.6-0.5,1.4-0.9,2.1c-0.3,0.4-1,0.9-1.4,0.8c-0.5-0.1-1.1-0.6-1.4-1.2
			c-0.5-1.2,0.4-3.4,1.6-4c0.3-0.2,0.9-0.2,1.2,0s0.3,0.7,0.4,1.1C35.9,63,36.1,63.3,36.3,63.8z"/>
		<path class="st0" d="M48.4,61.6c-0.3,0.6-0.4,0.8-0.6,1.2c1.8,1.2,0.2,2.5,0,3.8c0,0.3-1.4,0.4-2.3,0.7c-0.3-1.5-0.6-2.8-0.7-4.1
			c-0.1-1.1,0.6-1.6,1.6-1.7C47.1,61.3,47.6,61.5,48.4,61.6z"/>
		<path class="st0" d="M70.6,63.5c0.2-0.4,0.3-1,0.7-1.6c0.7-1,1.7-1.1,2.6-0.3c1.5,1.4,1.7,3.6-0.1,5.1c-0.9,0.7-2.2,0.5-2.6-0.5
			C70.9,65.4,70.8,64.5,70.6,63.5z"/>
		<path d="M133.6,58.6c-0.7-0.1-1.5,0-1.9-0.4c-0.3-0.3,0.1-1.2,0.2-1.8c0.6,0,1.5-0.3,1.5,0.8C133.5,57.7,133.6,58.1,133.6,58.6z"
			/>
		<path class="st0" d="M133.6,58.6c-0.1-0.5-0.1-0.9-0.2-1.4c-0.1-1.1-0.9-0.8-1.5-0.8c0.6-0.8,1.2-0.5,1.7,0
			C134.3,57,134.4,57.8,133.6,58.6z"/>
	</g>
</g>
</svg>
