<?xml version="1.0" encoding="utf-8"?>
<!-- Generator: Adobe Illustrator 21.0.0, SVG Export Plug-In . SVG Version: 6.00 Build 0)  -->
<svg version="1.1" id="Layer_1" xmlns="http://www.w3.org/2000/svg" xmlns:xlink="http://www.w3.org/1999/xlink" x="0px" y="0px"
	 viewBox="0 0 150 125" style="enable-background:new 0 0 150 125;" xml:space="preserve">
<style type="text/css">
	.st0{fill:#231F20;}
</style>
<g>
	<path class="st0" d="M51,58.8c4.7,0,8.5,3.6,8.5,7.8c0,4.4-3.8,7.8-8.5,7.8c-4.7,0-8.5-3.5-8.5-7.8v-16h6.3V59
		C49.5,58.9,50.3,58.8,51,58.8v5c-1.6,0-3,1.3-3,2.8c0,1.6,1.3,2.8,3,2.8c1.6,0,3-1.3,3-2.8c0-1.6-1.3-2.8-3-2.8V58.8L51,58.8z"/>
	<path class="st0" d="M68.3,63.8c1.6,0,3,1.3,3,2.8c0,1.6-1.3,2.8-3,2.8c-1.6,0-3-1.3-3-2.8C65.3,65,66.7,63.8,68.3,63.8v-5
		c-4.5,0-8.2,3.6-8.2,7.8c0,4.4,3.6,7.8,8.2,7.8c4.5,0,8.2-3.6,8.2-7.8c0-4.4-3.6-7.8-8.2-7.8V63.8L68.3,63.8z"/>
	<path class="st0" d="M107.3,64.5c-1.2-3.1-3.6-5.7-7.7-5.7c-4.7,0-8.5,3.6-8.5,7.8c0,4.4,3.8,7.8,8.5,7.8c3.6,0,6.3-1.7,7.9-4.1
		l-4-2.8c-0.4,0.5-1.5,1.9-4,1.9c-1.6,0-2.9-1.8-3-3.4c-0.1-1.1,0.5-2,1.4-2.5c0.7-0.3,2.2-0.5,3,0.7l-5,2.2l0.9,2.5L107.3,64.5
		L107.3,64.5z"/>
	<polygon class="st0" points="95.4,57.9 101.4,50.5 104.5,51.7 97.6,58.4 	"/>
	<polygon class="st0" points="77,50.6 83.3,50.6 83.3,74.2 77,74.2 	"/>
	<polygon class="st0" points="84.2,50.6 90.5,50.6 90.5,74.2 84.2,74.2 	"/>
</g>
</svg>
