<?xml version="1.0" encoding="utf-8"?>
<!-- Generator: Adobe Illustrator 21.0.0, SVG Export Plug-In . SVG Version: 6.00 Build 0)  -->
<svg version="1.1" id="Layer_1" xmlns="http://www.w3.org/2000/svg" xmlns:xlink="http://www.w3.org/1999/xlink" x="0px" y="0px"
	 viewBox="0 0 150 125" style="enable-background:new 0 0 150 125;" xml:space="preserve">
<style type="text/css">
	.st0{fill:#231F20;}
</style>
<g>
	<path class="st0" d="M41.7,57.4c6.5,0,11.7,4.9,11.7,10.8c0,6-5.2,10.8-11.7,10.8C35.2,79,30,74.2,30,68.2V46.1h8.7v11.6
		C39.6,57.5,40.7,57.4,41.7,57.4v6.9c-2.2,0-4.1,1.8-4.1,3.9c0,2.2,1.8,3.9,4.1,3.9c2.2,0,4.1-1.8,4.1-3.9c0-2.2-1.8-3.9-4.1-3.9
		V57.4L41.7,57.4z"/>
	<path class="st0" d="M65.5,64.3c2.2,0,4.1,1.8,4.1,3.9c0,2.2-1.8,3.9-4.1,3.9c-2.2,0-4.1-1.8-4.1-3.9C61.5,66,63.3,64.3,65.5,64.3
		v-6.9c-6.2,0-11.3,4.9-11.3,10.8c0,6,5,10.8,11.3,10.8c6.2,0,11.3-4.9,11.3-10.8c0-6-5-10.8-11.3-10.8V64.3L65.5,64.3z"/>
	<path class="st0" d="M119.3,65.2c-1.7-4.3-5-7.8-10.6-7.8c-6.5,0-11.7,4.9-11.7,10.8c0,6,5.2,10.8,11.7,10.8
		c4.9,0,8.7-2.4,10.9-5.6l-5.5-3.9c-0.5,0.7-2,2.6-5.5,2.6c-2.2,0-4-2.5-4.2-4.7c-0.2-1.5,0.7-2.8,1.9-3.4c1-0.4,3.1-0.7,4.1,0.9
		l-6.9,3l1.3,3.5L119.3,65.2L119.3,65.2z"/>
	<polygon class="st0" points="102.9,56.2 111.2,46 115.5,47.6 106,56.8 	"/>
	<polygon class="st0" points="77.5,46.1 86.2,46.1 86.2,78.6 77.5,78.6 	"/>
	<polygon class="st0" points="87.5,46.1 96.2,46.1 96.2,78.6 87.5,78.6 	"/>
</g>
</svg>
