<?xml version="1.0" encoding="utf-8"?>
<!-- Generator: Adobe Illustrator 21.0.0, SVG Export Plug-In . SVG Version: 6.00 Build 0)  -->
<svg version="1.1" id="Layer_1" xmlns="http://www.w3.org/2000/svg" xmlns:xlink="http://www.w3.org/1999/xlink" x="0px" y="0px"
	 viewBox="0 0 150 125" style="enable-background:new 0 0 150 125;" xml:space="preserve">
<g>
	<g>
		<path d="M85.7,58c-1,1.5-1.9,3.1-2.9,4.7c0.9,0,1.7,0,2.6,0c0,0.1,0,0.2-0.1,0.4c-0.1,0-0.2,0-0.4,0c-0.7,0-1.3,0-2.1,0
			c-0.2,0-0.4,0.1-0.4,0.2c-1.7,2.8-3.5,5.5-5.2,8.3c-0.2,0.4-0.4,0.7-0.4,1.2c-0.1,0.5,0.1,0.9,0.7,1c0.7,0.1,1.2,0.1,1.9-0.1
			c0.4-0.1,0.9-0.4,1.2-0.7c1.9-1.6,3.7-3.3,5.4-5.1c0.7-0.7,1.2-1.5,1.7-2.3c0.4-0.7,0.8-1.3,1.2-2c0.1-0.1,0.1-0.1,0.1-0.3
			c0.7,0,1.3,0,2.1,0c-0.1,0.1-0.1,0.2-0.1,0.4c-1.5,2.8-3.1,5.5-4.6,8.3c-0.1,0.3-0.2,0.6-0.3,0.9c-0.1,0.7,0.2,1.2,1,1.2
			c0.5,0,1-0.1,1.4-0.3c0.7-0.4,1.4-0.9,2-1.4c0.9-0.9,1.7-1.8,2.4-2.9c1.1-1.8,2.4-3.5,4.1-4.9c1-0.9,2.2-1.5,3.5-1.8
			c0.6-0.1,1.2-0.1,1.9,0c1,0.2,1.5,0.8,1.5,1.8c0,0.5-0.1,1-0.4,1.5c-0.6,1.2-1.5,2.1-2.7,2.8c-1.2,0.7-2.4,1-3.7,1.2
			c-0.5,0.1-1.1,0.1-1.6,0.1c-0.2,0-0.3,0.1-0.4,0.3c-0.2,0.7-0.4,1.3-0.3,2.1c0.1,0.7,0.5,1.1,1.2,1.3c0.7,0.2,1.5,0.1,2.2-0.1
			c1.2-0.3,2.4-0.9,3.4-1.5c1.8-1.1,3.4-2.4,4.9-3.9c0.7-0.7,1.4-1.4,2.1-2.1c0.1-0.1,0.2-0.3,0.3-0.4c0.4-0.7,0.9-1.4,1.2-2.1
			c0.1-0.1,0.2-0.2,0.4-0.2c0.7,0,1.4,0,2.1,0c-0.5,1-1.1,1.8-1.6,2.9c0.1,0,0.2,0,0.3-0.1c0.1-0.1,0.1-0.1,0.2-0.2
			c0.8-0.7,1.7-1.5,2.6-2c0.5-0.3,1.1-0.5,1.7-0.6c0.4-0.1,0.9,0,1.2,0.3c0.2,0.2,0.4,0.4,0.4,0.7c0.1,0.4,0.1,0.9-0.1,1.2
			c-0.1,0.1-0.1,0.2-0.2,0.4c-0.3,0.4-0.7,0.4-1.1,0.2c-0.4-0.2-0.6-0.7-0.5-1.2c0.1-0.4,0.4-0.8,0.9-0.9c0.1,0,0.4,0,0.6,0.1
			c-0.1-0.3-0.4-0.4-0.7-0.5c-0.6-0.1-1.1,0-1.6,0.2c-0.9,0.4-1.7,1-2.5,1.7c-1,0.8-1.8,1.7-2.6,2.6c-0.4,0.4-0.7,1-1,1.5
			c-0.9,1.5-1.8,3-2.6,4.6c-0.1,0.2-0.2,0.3-0.4,0.3c-0.7,0-1.3,0-2,0c-0.1,0-0.2,0-0.4,0c1.4-2.3,2.7-4.6,4-6.8l0,0
			c-0.1,0-0.1,0.1-0.1,0.1c-0.1,0.1-0.1,0.1-0.1,0.1c-1.2,1.3-2.4,2.5-3.8,3.6c-1.5,1.2-3.2,2.1-5.1,2.7C96.8,74.8,95.9,75,95,75
			c-0.4,0-1,0-1.4-0.1c-1.2-0.3-1.9-1.2-2-2.4c0-0.4,0-0.7,0-1.2c-0.1,0.1-0.1,0.1-0.2,0.2c-0.7,0.9-1.5,1.7-2.4,2.3
			c-0.8,0.5-1.7,1-2.6,1.1c-0.5,0.1-1,0.1-1.5-0.1c-1.1-0.3-1.6-1.2-1.3-2.4c0.1-0.4,0.2-0.7,0.4-1c0.4-0.7,0.7-1.2,1.1-1.8
			c0.1-0.1,0.1-0.2,0.1-0.3c0,0,0,0-0.1-0.1c-0.1,0.1-0.2,0.2-0.3,0.4c-1,1.2-2.1,2.3-3.4,3.2c-0.6,0.4-1.1,0.9-1.8,1.2
			c-1,0.6-2.1,0.9-3.2,0.7c-0.4-0.1-0.7-0.1-1-0.2c-1-0.3-1.3-1-1.1-2c0.1-0.5,0.4-1,0.6-1.4c1.5-2.3,2.9-4.6,4.3-6.8
			c0.1-0.1,0.1-0.2,0.1-0.3c-0.1,0.1-0.1,0.1-0.2,0.2c-0.6,0.6-1.2,1.2-1.9,1.6c-0.4,0.3-0.9,0.5-1.3,0.7c-0.3,0.1-0.7,0.1-1,0.1
			c-0.5-0.1-1-0.6-1-1.2c0-0.6,0.4-1.1,0.9-1.2c0.2,0,0.4,0,0.7,0c-0.1-0.3-0.2-0.5-0.4-0.6c0.1-0.4-0.1-0.4-0.4-0.4
			c-1.5,0.4-2.9,1.1-4,2.2c-0.1,0.1-0.2,0.3-0.3,0.4c-1.5,2.6-2.9,5.4-4.4,8c-0.1,0.1-0.1,0.1-0.1,0.2c-0.8,0-1.6,0-2.4,0
			c0.2-0.4,0.4-0.8,0.7-1.2c0.2-0.4,0.4-0.9,0.7-1.2c0.2-0.4,0.4-0.8,0.7-1.2c0,0-0.1,0-0.1-0.1c-0.1,0.1-0.1,0.1-0.2,0.2
			c-1,1-2.1,2-3.3,2.8c-0.7,0.4-1.5,0.8-2.4,0.9c-0.6,0.1-1.2,0-1.7-0.1c-1-0.3-1.5-1.1-1.3-2.1c0-0.1,0-0.1,0.1-0.4
			c-0.1,0.1-0.2,0.1-0.4,0.2c-1,0.7-2.1,1.4-3.3,1.9c-0.5,0.2-1.1,0.4-1.7,0.4c-0.6,0.1-1.2,0-1.8-0.1c-1.2-0.4-1.9-1.4-1.8-2.7
			c0-0.1,0-0.2,0.1-0.4c-0.1,0-0.1,0.1-0.1,0.1c-1.5,1.3-3.4,2.1-5.3,2.6c-1.2,0.3-2.4,0.6-3.5,0.6c-1.4,0-2.6-0.3-3.7-1.2
			c-1.1-0.9-1.7-2.1-1.9-3.4c-0.4-2.4,0-4.6,0.9-6.8c2.1-5.3,5.7-9.3,10.8-11.8c1.4-0.7,2.9-1.2,4.5-1.3c1.7-0.1,3.4,0,5,0.8
			c0.2,0.1,0.4,0.2,0.6,0.4c0.4,0.3,0.9,0.4,1.4,0.3c0.5-0.1,1.1-0.2,1.6-0.4c0.1,0,0.1-0.1,0.2-0.1c-0.1,0.2-2.6,3.8-3,4.3
			c0-0.1,0-0.1,0-0.2c0.1-0.8,0.1-1.5-0.1-2.4c-0.3-1-0.8-1.9-2.4-2.1c-3.6-0.4-6.8,0.7-9.6,2.9c-1.3,1.1-2.4,2.5-3.4,3.9
			c-1.5,2.2-2.6,4.6-3.3,7.3c-0.4,1.7-0.6,3.4-0.4,5.1c0.1,1.1,0.5,2.1,1.3,2.8c0.9,0.9,2,1.2,3.2,1c2.8-0.3,5.2-1.3,7.4-3.2
			c0.2-0.2,0.4-0.4,0.5-0.7c1-1.8,2.1-3.3,3.6-4.7c1.1-1.1,2.4-2,3.7-2.5c0.8-0.3,1.6-0.5,2.5-0.5c0.4,0,0.8,0.1,1.2,0.2
			c0.7,0.2,1.2,0.8,1.2,1.7c0,0.1,0,0.1,0.1,0.3c0.1-0.1,0.1-0.1,0.1-0.1c0.2-0.4,0.4-0.7,0.7-1.2c0.1-0.1,0.1-0.2,0.3-0.2
			c0.7,0,1.2,0.1,2,0.1c-0.1,0.1-0.1,0.2-0.1,0.3c-1.5,2.7-3,5.4-4.5,8.2c-0.2,0.4-0.4,0.8-0.5,1.2c-0.1,0.2-0.1,0.4-0.1,0.7
			c0.1,0.4,0.4,0.7,0.7,0.6c0.3,0,0.7-0.1,1-0.2c0.9-0.3,1.7-0.8,2.4-1.4c1.5-1.1,2.7-2.5,3.9-3.9c0.3-0.4,0.5-0.7,0.7-1.1
			c0.9-1.3,1.8-2.7,2.6-4C69.9,63,70,63,70.2,63c0.5,0,1,0,1.5,0c0.1,0,0.1,0,0.3,0c-0.2,0.4-0.4,0.7-0.5,1c0.1,0.1,0.3,0,0.4,0
			c0.5-0.2,1.1-0.5,1.6-0.7c0.3-0.1,0.7-0.2,1-0.3c0.3-0.1,0.7,0,1,0.1c0.5,0.1,1,0.6,1,1.1c0.1,0.6,0,1.1-0.3,1.6v0.1
			c0.3-0.1,0.5-0.2,0.7-0.4c1-0.6,2-1.3,2.8-2.2c0,0,0,0,0.1-0.1c0.7-0.7,1.4-1.5,1.9-2.4c0.6-1,1.2-1.9,1.8-2.9
			c0.1-0.1,0.2-0.2,0.4-0.2c0.5,0,1.1,0,1.6,0C85.6,57.9,85.6,57.9,85.7,58z M50,72.3c0,0.1,0,0.4,0.1,0.6c0.1,0.4,0.4,0.7,0.8,0.7
			c0.3,0,0.6,0.1,0.9,0c0.8-0.1,1.6-0.4,2.3-0.8c1.2-0.7,2.2-1.6,3.2-2.6c0.1-0.1,0.1-0.1,0.1-0.2c0.6-1,1.2-2.1,1.8-3.2
			c0.2-0.4,0.4-0.8,0.5-1.2c0.1-0.4,0.2-0.8,0.1-1.2c-0.1-0.6-0.3-1.2-1-1.3c-0.4-0.1-0.7-0.1-1.1,0c-0.9,0.1-1.6,0.6-2.3,1.2
			c-1,0.8-1.9,1.6-2.7,2.6c-1,1.1-1.8,2.4-2.5,3.7C50.1,71.1,50,71.6,50,72.3z M102.3,64.2c0-0.1,0-0.3-0.1-0.4
			c-0.1-0.6-0.7-1-1.2-0.8c-0.4,0.1-0.8,0.3-1.1,0.5c-0.6,0.4-1,0.8-1.5,1.3c-1.1,1.2-1.9,2.6-2.6,4.2c0,0.1,0,0.1-0.1,0.1
			c-0.1,0.2,0,0.4,0.2,0.4c0.1,0,0.2,0,0.4,0c0.7-0.1,1.5-0.3,2.1-0.6"/>
		<path d="M91.7,60.5c-0.5,0-0.9-0.4-1-0.9c0-0.6,0.4-1.1,1-1.2c0.6-0.1,1,0.3,1,0.9C92.8,59.9,92.3,60.5,91.7,60.5z"/>
	</g>
</g>
</svg>
