<?xml version="1.0" encoding="utf-8"?>
<!-- Generator: Adobe Illustrator 21.0.0, SVG Export Plug-In . SVG Version: 6.00 Build 0)  -->
<svg version="1.1" id="Layer_1" xmlns="http://www.w3.org/2000/svg" xmlns:xlink="http://www.w3.org/1999/xlink" x="0px" y="0px"
	 viewBox="0 0 150 125" style="enable-background:new 0 0 150 125;" xml:space="preserve">
<g>
	<g>
		<path d="M89.5,56.4c-1.3,2.1-2.6,4.2-4,6.4c1.2,0,2.3,0,3.5,0c0,0.2,0,0.3-0.1,0.5c-0.2,0-0.3,0-0.5,0c-0.9,0-1.8,0-2.8,0
			c-0.3,0-0.5,0.1-0.6,0.3c-2.3,3.8-4.7,7.5-7.1,11.3c-0.3,0.5-0.5,1-0.6,1.6c-0.1,0.7,0.2,1.2,0.9,1.4c0.9,0.2,1.7,0.1,2.6-0.2
			c0.6-0.2,1.2-0.5,1.7-0.9c2.6-2.2,5.1-4.5,7.3-7c0.9-1,1.6-2,2.3-3.1c0.5-0.9,1.1-1.8,1.6-2.7c0.1-0.1,0.1-0.2,0.2-0.4
			c0.9,0,1.8,0,2.8,0c-0.1,0.2-0.2,0.3-0.2,0.5c-2.1,3.8-4.2,7.5-6.2,11.3c-0.2,0.4-0.3,0.8-0.4,1.2c-0.2,1,0.3,1.6,1.3,1.7
			c0.7,0,1.3-0.2,1.9-0.4c1-0.5,1.9-1.2,2.7-1.9c1.2-1.2,2.3-2.5,3.2-4c1.5-2.5,3.3-4.7,5.6-6.6c1.4-1.2,3-2.1,4.8-2.5
			c0.8-0.2,1.7-0.2,2.6,0c1.3,0.3,2,1.1,2,2.5c0,0.7-0.2,1.4-0.5,2.1c-0.8,1.7-2.1,2.9-3.7,3.8s-3.3,1.3-5.1,1.6
			c-0.7,0.1-1.5,0.2-2.2,0.2c-0.3,0-0.4,0.1-0.5,0.4c-0.3,0.9-0.6,1.8-0.4,2.8c0.1,0.9,0.7,1.5,1.6,1.8c1,0.3,2,0.1,3-0.1
			c1.7-0.4,3.2-1.2,4.6-2.1c2.4-1.5,4.6-3.3,6.6-5.3c1-0.9,1.9-1.9,2.8-2.9c0.2-0.2,0.3-0.4,0.4-0.6c0.6-0.9,1.2-1.9,1.7-2.8
			c0.1-0.2,0.3-0.3,0.5-0.3c0.9,0,1.9,0,2.9,0c-0.7,1.3-1.5,2.5-2.2,3.9c0.2,0,0.3,0,0.4-0.1s0.2-0.2,0.3-0.3c1.1-1,2.3-2,3.6-2.7
			c0.7-0.4,1.5-0.7,2.3-0.8c0.6-0.1,1.2,0,1.6,0.4c0.3,0.3,0.6,0.6,0.6,1c0.1,0.6,0.1,1.2-0.2,1.7c-0.1,0.2-0.2,0.3-0.3,0.5
			c-0.4,0.5-1,0.6-1.5,0.3c-0.5-0.3-0.8-1-0.7-1.6s0.6-1.1,1.2-1.2c0.2,0,0.5,0,0.8,0.1c-0.2-0.4-0.5-0.6-0.9-0.7
			c-0.8-0.2-1.5,0-2.2,0.3c-1.2,0.6-2.3,1.4-3.4,2.3c-1.3,1.1-2.5,2.3-3.5,3.6c-0.5,0.6-0.9,1.3-1.3,2c-1.2,2.1-2.4,4.1-3.6,6.2
			c-0.2,0.3-0.3,0.4-0.6,0.4c-0.9,0-1.8,0-2.7,0c-0.1,0-0.3,0-0.5,0c1.9-3.1,3.7-6.2,5.5-9.3l0,0c-0.1,0-0.1,0.1-0.2,0.1
			c-0.1,0.1-0.1,0.1-0.2,0.2c-1.6,1.8-3.3,3.4-5.2,4.9c-2.1,1.6-4.4,2.9-7,3.7c-1.2,0.4-2.4,0.6-3.7,0.7c-0.6,0-1.3,0-1.9-0.2
			c-1.6-0.4-2.6-1.6-2.7-3.3c0-0.5,0-1,0-1.6c-0.1,0.1-0.2,0.2-0.3,0.3c-1,1.2-2,2.3-3.3,3.1c-1.1,0.7-2.3,1.3-3.6,1.5
			c-0.7,0.1-1.4,0.1-2.1-0.1c-1.5-0.4-2.2-1.7-1.8-3.2c0.1-0.5,0.3-0.9,0.5-1.3c0.5-0.9,1-1.7,1.5-2.5c0.1-0.1,0.2-0.3,0.2-0.4
			c0,0,0,0-0.1-0.1c-0.1,0.2-0.3,0.3-0.4,0.5c-1.4,1.6-2.9,3.1-4.6,4.4c-0.8,0.6-1.5,1.2-2.4,1.7c-1.3,0.8-2.8,1.2-4.4,1
			c-0.5-0.1-0.9-0.2-1.3-0.3c-1.3-0.4-1.8-1.4-1.5-2.7c0.2-0.7,0.5-1.3,0.8-1.9c2-3.1,3.9-6.2,5.9-9.3c0.1-0.1,0.2-0.3,0.2-0.4
			c-0.1,0.1-0.2,0.2-0.3,0.3c-0.8,0.8-1.6,1.6-2.6,2.2c-0.6,0.4-1.2,0.7-1.8,1c-0.4,0.2-0.9,0.2-1.4,0.2c-0.7-0.1-1.3-0.8-1.3-1.6
			c0-0.8,0.5-1.5,1.2-1.6c0.3,0,0.6,0,0.9,0c-0.1-0.4-0.3-0.7-0.6-0.8C75,64,74.7,64,74.4,64c-2.1,0.5-3.9,1.5-5.5,3
			c-0.2,0.2-0.3,0.4-0.4,0.6c-2,3.6-4,7.3-6,10.9c-0.1,0.1-0.1,0.2-0.2,0.3c-1.1,0-2.2,0-3.3,0c0.3-0.6,0.6-1.1,0.9-1.7
			c0.3-0.6,0.6-1.2,1-1.7c0.3-0.6,0.6-1.1,0.9-1.7c0,0-0.1,0-0.1-0.1c-0.1,0.1-0.2,0.2-0.3,0.3c-1.4,1.4-2.8,2.7-4.5,3.8
			c-1,0.6-2.1,1.1-3.3,1.2c-0.8,0.1-1.6,0-2.3-0.2c-1.3-0.4-2-1.5-1.8-2.9c0-0.1,0-0.2,0.1-0.5c-0.2,0.1-0.3,0.2-0.5,0.3
			c-1.4,1-2.8,1.9-4.5,2.6c-0.7,0.3-1.5,0.5-2.3,0.6s-1.6,0-2.4-0.2c-1.7-0.5-2.6-1.9-2.4-3.7c0-0.1,0-0.3,0.1-0.5
			c-0.1,0-0.2,0.1-0.2,0.1c-2.1,1.8-4.6,2.9-7.2,3.6c-1.6,0.4-3.2,0.8-4.8,0.8c-1.9,0-3.6-0.4-5.1-1.6s-2.3-2.8-2.6-4.6
			c-0.5-3.2,0-6.3,1.2-9.2c2.9-7.2,7.8-12.6,14.7-16.1c1.9-1,3.9-1.6,6.1-1.8c2.3-0.2,4.6,0,6.8,1.1c0.3,0.1,0.6,0.3,0.8,0.5
			c0.6,0.4,1.2,0.5,1.9,0.4s1.5-0.3,2.2-0.6c0.1,0,0.2-0.1,0.3-0.1c-0.1,0.3-3.5,5.2-4.1,5.9c0-0.1,0-0.2,0-0.3
			c0.1-1.1,0.1-2.1-0.2-3.2c-0.4-1.3-1.1-2.6-3.3-2.9c-4.9-0.5-9.2,0.9-13,4c-1.8,1.5-3.3,3.4-4.6,5.3c-2.1,3-3.6,6.3-4.5,9.9
			c-0.6,2.3-0.8,4.6-0.6,7c0.1,1.5,0.7,2.8,1.8,3.8c1.2,1.2,2.7,1.6,4.3,1.4c3.8-0.4,7.1-1.8,10-4.3c0.3-0.3,0.5-0.6,0.7-0.9
			c1.3-2.4,2.9-4.5,4.9-6.4c1.5-1.5,3.2-2.7,5.1-3.4c1.1-0.4,2.2-0.7,3.4-0.7c0.6,0,1.1,0.1,1.7,0.3c1,0.3,1.7,1.1,1.7,2.3
			c0,0.2,0,0.2,0.2,0.4c0.1-0.1,0.1-0.2,0.2-0.2c0.3-0.5,0.6-1,0.9-1.6c0.1-0.2,0.2-0.3,0.4-0.3c0.9,0,1.7,0.1,2.7,0.1
			c-0.1,0.1-0.1,0.3-0.1,0.4c-2,3.7-4.1,7.4-6.1,11.2c-0.3,0.5-0.5,1.1-0.7,1.6c-0.1,0.3-0.1,0.6-0.1,1c0.1,0.5,0.5,0.9,1,0.8
			c0.4,0,0.9-0.1,1.3-0.3c1.2-0.4,2.3-1.1,3.3-1.9c2-1.5,3.7-3.4,5.3-5.3c0.4-0.5,0.7-1,1-1.5c1.2-1.8,2.4-3.7,3.5-5.5
			c0.2-0.3,0.3-0.4,0.6-0.3c0.7,0,1.3,0,2,0c0.1,0,0.2,0,0.4,0c-0.3,0.5-0.5,0.9-0.7,1.4c0.2,0.2,0.4,0,0.5,0c0.7-0.3,1.5-0.7,2.2-1
			c0.4-0.2,0.9-0.3,1.4-0.4c0.4-0.1,0.9,0,1.3,0.1c0.7,0.2,1.3,0.8,1.3,1.5c0.1,0.8,0,1.5-0.4,2.2v0.1c0.4-0.2,0.7-0.3,1-0.5
			c1.4-0.8,2.7-1.8,3.8-3c0,0,0,0,0.1-0.1c1-1,1.9-2,2.6-3.2c0.8-1.3,1.7-2.6,2.5-3.9c0.1-0.2,0.3-0.3,0.6-0.3c0.7,0,1.5,0,2.2,0
			C89.3,56.3,89.4,56.3,89.5,56.4z M40.9,75.9c0,0.2,0,0.5,0.1,0.8c0.1,0.6,0.5,0.9,1.1,1c0.4,0,0.8,0.1,1.2,0
			c1.1-0.1,2.2-0.5,3.1-1.1c1.6-0.9,3-2.2,4.3-3.6c0.1-0.1,0.1-0.2,0.2-0.3c0.8-1.4,1.7-2.8,2.5-4.3c0.3-0.5,0.5-1.1,0.7-1.7
			c0.2-0.5,0.3-1.1,0.2-1.6c-0.1-0.8-0.4-1.6-1.4-1.8c-0.5-0.1-1-0.1-1.5,0c-1.2,0.2-2.2,0.8-3.1,1.6c-1.3,1.1-2.6,2.2-3.7,3.5
			c-1.4,1.5-2.5,3.2-3.4,5.1C41.1,74.3,40.9,75,40.9,75.9z M112,64.9c0-0.2,0-0.4-0.1-0.6c-0.1-0.8-0.9-1.3-1.7-1.1
			c-0.5,0.2-1.1,0.4-1.5,0.7c-0.8,0.5-1.4,1.1-2.1,1.8c-1.5,1.7-2.6,3.6-3.5,5.7c0,0.1,0,0.1-0.1,0.2c-0.1,0.3,0,0.5,0.3,0.5
			c0.2,0,0.3,0,0.5,0c1-0.1,2-0.4,2.9-0.8"/>
		<path d="M97.6,59.8c-0.7,0-1.2-0.5-1.3-1.2c0-0.8,0.6-1.5,1.3-1.6c0.8-0.1,1.3,0.4,1.4,1.2S98.4,59.8,97.6,59.8z"/>
	</g>
</g>
</svg>
