<?xml version="1.0" encoding="utf-8"?>
<!-- Generator: Adobe Illustrator 21.0.0, SVG Export Plug-In . SVG Version: 6.00 Build 0)  -->
<svg version="1.1" id="Layer_1" xmlns="http://www.w3.org/2000/svg" xmlns:xlink="http://www.w3.org/1999/xlink" x="0px" y="0px"
	 viewBox="0 0 150 125" style="enable-background:new 0 0 150 125;" xml:space="preserve">
<style type="text/css">
	.st0{fill:#231F20;}
</style>
<g>
	<path class="st0" d="M67.6,54.7h-2l-6.9,15.7h3.2l1.6-3.5h4.1h4.1l1.6,3.5h3.2l-6.8-15.7H67.6L67.6,54.7L67.6,54.7z M67.6,63.8
		h-2.8l2.8-6.3l0,0l2.8,6.3H67.6L67.6,63.8L67.6,63.8z"/>
	<polygon class="st0" points="102.3,64.1 109.5,64.1 109.5,61 102.3,61 102.3,57.6 110.4,57.6 110.4,54.7 98.9,54.7 98.9,70.4 
		111.3,70.4 111.3,67.5 102.3,67.5 	"/>
	<polygon class="st0" points="118.6,67.5 118.6,54.7 115.2,54.7 115.2,70.4 126.8,70.4 126.8,67.5 	"/>
	<polygon class="st0" points="52.6,60.3 45.3,60.3 45.3,54.7 41.9,54.7 41.9,70.4 45.3,70.4 45.3,63.7 52.6,63.7 52.6,70.4 56,70.4 
		56,54.7 52.6,54.7 	"/>
	<polygon class="st0" points="90.8,64.4 83.8,54.7 82.6,54.7 79.9,54.7 79.9,70.4 82.6,70.4 82.6,58.9 90.8,70.4 93.8,70.4 
		93.8,54.7 90.8,54.7 	"/>
	<polygon class="st0" points="35.4,65.4 34.9,65.8 34.5,66.3 34,66.6 33.4,66.9 32.8,67.1 32.2,67.3 31.4,67.3 31,67.3 30.5,67.2 
		30.1,67.1 29.6,66.9 29.2,66.7 28.9,66.5 28.4,66.2 28.1,65.9 27.8,65.5 27.5,65.2 27.2,64.8 27,64.3 26.8,63.9 26.7,63.4 26.7,63 
		26.7,62.5 26.7,62 26.7,61.6 26.8,61.1 27,60.7 27.2,60.3 27.5,59.8 27.8,59.5 28.1,59.1 28.4,58.8 28.9,58.5 29.2,58.3 29.6,58.1 
		30.1,57.9 30.5,57.8 31,57.7 31.4,57.7 32,57.7 32.5,57.8 32.9,57.9 33.4,58.1 33.7,58.3 34.1,58.5 34.6,58.8 34.9,59.1 35.3,59.6 
		35.6,60 38.6,58.4 38.4,58 38,57.5 37.7,57.2 37.3,56.7 36.7,56.1 36,55.7 35.3,55.3 34.6,54.9 33.9,54.7 33.1,54.5 32.3,54.3 
		31.4,54.3 30.6,54.3 29.8,54.5 29.1,54.7 28.3,54.9 27.6,55.3 26.8,55.7 26.3,56.1 25.6,56.7 25.2,57.3 24.7,57.9 24.3,58.6 
		23.9,59.3 23.6,60.1 23.4,60.8 23.3,61.7 23.3,62.5 23.3,63.3 23.4,64.2 23.6,64.9 23.9,65.6 24.3,66.4 24.6,67 25.1,67.7 
		25.6,68.3 26.3,68.9 26.9,69.3 27.6,69.8 28.3,70.1 29.1,70.3 29.9,70.6 30.7,70.7 31.4,70.7 32.3,70.7 33.1,70.6 33.9,70.3 
		34.6,70.1 35.3,69.8 36,69.3 36.7,68.9 37.3,68.3 37.7,67.8 38.1,67.4 38.4,66.8 38.7,66.3 35.7,64.8 	"/>
</g>
</svg>
