<?xml version="1.0" encoding="utf-8"?>
<!-- Generator: Adobe Illustrator 21.0.0, SVG Export Plug-In . SVG Version: 6.00 Build 0)  -->
<svg version="1.1" id="Layer_1" xmlns="http://www.w3.org/2000/svg" xmlns:xlink="http://www.w3.org/1999/xlink" x="0px" y="0px"
	 viewBox="0 0 150 125" style="enable-background:new 0 0 150 125;" xml:space="preserve">
<style type="text/css">
	.st0{fill:#231F20;}
</style>
<g>
	<path class="st0" d="M67,54h-2.2l-7.5,17.1h3.5l1.7-3.8H67h4.4l1.7,3.8h3.5L69.2,54H67L67,54L67,54z M67,63.9h-3l3-6.8l0,0l3,6.8
		H67L67,63.9L67,63.9z"/>
	<polygon class="st0" points="104.7,64.2 112.5,64.2 112.5,60.9 104.7,60.9 104.7,57.2 113.4,57.2 113.4,54 101,54 101,71.1 
		114.4,71.1 114.4,67.9 104.7,67.9 104.7,64.2 	"/>
	<polygon class="st0" points="122.4,67.9 122.4,54 118.7,54 118.7,71.1 131.2,71.1 131.2,67.9 122.4,67.9 	"/>
	<polygon class="st0" points="50.7,60.1 42.8,60.1 42.8,54 39.1,54 39.1,71.1 42.8,71.1 42.8,63.8 50.7,63.8 50.7,71.1 54.4,71.1 
		54.4,54 50.7,54 50.7,60.1 	"/>
	<polygon class="st0" points="92.2,64.6 84.6,54 83.3,54 80.3,54 80.3,71.1 83.3,71.1 83.3,58.6 92.2,71.1 95.4,71.1 95.4,54 
		92.2,54 92.2,64.6 	"/>
	<polygon class="st0" points="32,65.6 31.5,66.1 31,66.6 30.5,67 29.8,67.3 29.2,67.5 28.5,67.7 27.7,67.7 27.2,67.7 26.7,67.6 
		26.2,67.5 25.7,67.3 25.3,67.1 24.9,66.8 24.4,66.5 24.1,66.2 23.7,65.8 23.4,65.4 23.1,65 22.9,64.5 22.7,64 22.6,63.5 22.6,63 
		22.5,62.5 22.6,62 22.6,61.5 22.7,61 22.9,60.5 23.1,60.1 23.4,59.6 23.7,59.2 24.1,58.8 24.4,58.5 24.9,58.2 25.3,57.9 25.7,57.7 
		26.2,57.5 26.7,57.4 27.2,57.3 27.7,57.3 28.3,57.3 28.8,57.4 29.3,57.5 29.8,57.7 30.2,57.9 30.6,58.2 31.1,58.5 31.4,58.8 
		31.9,59.3 32.2,59.8 35.5,58.1 35.2,57.6 34.8,57.1 34.5,56.7 34.1,56.2 33.4,55.6 32.7,55.1 31.9,54.7 31.1,54.3 30.4,54 
		29.5,53.8 28.6,53.6 27.7,53.6 26.8,53.6 25.9,53.8 25.1,54 24.3,54.3 23.5,54.7 22.7,55.1 22.1,55.6 21.4,56.2 20.9,56.9 
		20.4,57.5 19.9,58.3 19.5,59 19.2,59.9 19,60.7 18.9,61.6 18.8,62.5 18.9,63.4 19,64.3 19.2,65.1 19.5,65.9 19.9,66.7 20.3,67.4 
		20.8,68.1 21.4,68.8 22.1,69.4 22.8,69.9 23.5,70.4 24.3,70.7 25.1,71 26,71.3 26.9,71.4 27.7,71.4 28.6,71.4 29.5,71.3 30.4,71 
		31.1,70.7 31.9,70.4 32.7,69.9 33.4,69.4 34.1,68.8 34.5,68.3 34.9,67.8 35.3,67.2 35.6,66.6 32.3,65 32,65.6 	"/>
</g>
</svg>
