<?xml version="1.0" encoding="utf-8"?>
<!-- Generator: Adobe Illustrator 21.0.0, SVG Export Plug-In . SVG Version: 6.00 Build 0)  -->
<svg version="1.1" id="Layer_1" xmlns="http://www.w3.org/2000/svg" xmlns:xlink="http://www.w3.org/1999/xlink" x="0px" y="0px"
	 viewBox="0 0 150 125" style="enable-background:new 0 0 150 125;" xml:space="preserve">
<style type="text/css">
	.st0{fill:#050507;}
	.st1{fill:#040406;}
	.st2{fill:#070709;}
	.st3{fill:#060608;}
	.st4{fill:#060708;}
	.st5{fill:#07080A;}
	.st6{fill:#0F1012;}
	.st7{fill:#0E0E0F;}
	.st8{fill:#09090B;}
	.st9{fill:#151517;}
	.st10{fill:#111112;}
	.st11{fill:#0A0B0D;}
	.st12{fill:#0B0C0D;}
	.st13{fill:#1E1E1F;}
	.st14{fill:#19191A;}
	.st15{fill:#8E8F8E;}
	.st16{fill:#08080B;}
	.st17{fill:#FCFCFC;}
	.st18{fill:#F6F6F6;}
	.st19{fill:#EBEBEA;}
</style>
<g>
	<g>
		<path class="st0" d="M88.8,62c0-1.2,0-2.3,0-3.4c0-0.6,0.1-0.9,0.8-0.9c0.6,0,0.6,0.4,0.6,0.9c0,3.3,0,6.6,0,9.9
			c0,0.3,0.1,0.7-0.3,0.8c-0.4,0.1-0.8,0.2-0.9-0.3c-0.2-0.8-0.5-0.2-0.7-0.1c-2.3,1.3-4.5,0.4-5.2-2.2c-0.3-1-0.2-2,0.1-3
			C83.9,61.3,86.1,60.6,88.8,62z"/>
		<path class="st1" d="M67,68.3c-1.3,1.2-2.6,1.4-3.9,0.6c-1.5-0.9-2-2.4-1.7-4.1c0.2-1.5,0.9-2.7,2.4-3.3c0.9-0.3,1.8-0.3,2.6,0.2
			c0.4,0.3,0.7,0.7,1-0.1c0.2-0.4,1.1-0.4,1.1,0.6c-0.1,2.5,0.2,5-0.3,7.4c-0.5,2.6-3.4,4-5.8,2.7C62,72.2,61.8,72,62,71.5
			c0.2-0.7,0.6-0.3,1-0.2C65.6,72.1,67.1,71.2,67,68.3z"/>
		<path class="st2" d="M123.6,62.1c2.7-1.5,4.7-0.5,4.8,2.5c0,1.3,0,2.7,0,4c0,0.6-0.1,0.9-0.8,0.9s-0.8-0.3-0.8-0.9
			c0-1.3,0-2.6,0-3.9c0-1.1-0.4-1.9-1.6-2c-1.1-0.1-2,0.8-2,2c0,1.2,0,2.5,0,3.7c0,0.6,0,1.1-0.9,1.1s-0.7-0.5-0.7-1.1
			c0-3.5,0-7,0-10.5c1.5-0.3,1.5-0.3,1.5,1.2c0,0.8,0,1.5,0,2.3C123.2,61.8,123.1,62.2,123.6,62.1z"/>
		<path class="st3" d="M38.9,66c0,0.7-0.1,1.7-0.1,2.7c0,0.7-0.6,0.8-0.8,0.6c-0.6-0.7-1-0.2-1.5,0c-1.4,0.7-3.1,0.2-3.6-0.9
			c-0.7-1.4,0-3,1.6-3.6c0.6-0.2,1.2-0.3,1.8-0.4c0.4-0.1,1.1,0.2,1.1-0.6c0-0.6-0.4-1.1-1-1.2c-0.7-0.1-1.3-0.1-2,0.2
			c-0.4,0.2-0.8,0.3-0.9-0.3c-0.2-0.5,0.2-0.6,0.6-0.8c2.7-1.2,4.8,0.1,4.9,3.1C39,65.1,38.9,65.4,38.9,66z"/>
		<path class="st3" d="M77,67.8c-1.3,1.8-3.6,2.3-5.4,1c-1.7-1.2-2.1-4.1-0.9-5.9c1.2-1.7,3.6-2.3,5.3-1.1c1.7,1.1,1.6,2.8,1.5,4.6
			C77.2,66.8,77.3,67.4,77,67.8z"/>
		<path class="st4" d="M101.1,61.7c1.6-0.8,2.4-0.6,3.7,0.9c0.5-0.3,0.8-0.9,1.4-1.2c1.5-0.6,3.1,0.1,3.6,1.6
			c0.6,1.9,0.2,3.8,0.3,5.7c0,0.6-0.5,0.5-0.8,0.5c-0.5,0-0.6-0.3-0.6-0.7c0-1.2,0-2.5,0-3.7c0-1.6-0.6-2.4-1.6-2.4
			c-1.2,0-1.9,0.9-1.9,2.5c0,1.1,0,2.2,0,3.3c0,0.5,0,0.9-0.7,0.9s-0.7-0.5-0.7-1c0-1.2,0-2.4,0-3.6c0-1.9-0.5-2.4-2.4-2.2
			C101,62.1,101,61.9,101.1,61.7z"/>
		<path class="st3" d="M53.6,65.8c-0.5,0-1,0-1.4,0s-1-0.2-1.2,0.2c-0.2,0.5,0.1,1,0.4,1.4c1,1.1,2.2,1,3.5,0.8
			c0.4-0.1,0.9-0.4,1,0.3c0.1,0.6-0.4,0.7-0.8,0.8c-1.8,0.5-3.8,0.1-4.8-1.1c-1.2-1.6-1.2-3.3-0.3-5c0.7-1.5,2.5-2.2,4.1-1.7
			c1.3,0.4,2.4,2.1,2.3,3.6c0,0.5-0.2,0.7-0.7,0.7C55.1,65.7,54.4,65.8,53.6,65.8z"/>
		<path class="st5" d="M25.7,69.5c-1.9,0-3.3-0.9-3.8-2.3c-0.6-1.7-0.4-3.4,0.8-4.8c1-1.1,3.1-1.5,4.5-1c0.4,0.2,0.6,0.3,0.5,0.8
			c-0.2,0.6-0.6,0.4-0.9,0.3c-1.8-0.3-3,0.3-3.5,1.7c-0.8,2.3,0.8,4.3,3.3,4c0.4-0.1,1-0.6,1.2,0.4c0.2,0.9-0.6,0.7-1,0.9
			C26.4,69.5,25.9,69.5,25.7,69.5z"/>
		<path class="st5" d="M94.9,61.2c0.3,0,0.6,0,0.9,0.2c0.4,0.2,1,0.1,0.8,0.9c-0.2,0.7-0.6,0.6-1.1,0.4c-0.4-0.1-0.9-0.1-1.3,0
			s-0.8,0.4-0.8,0.9c0,0.4,0.2,0.7,0.5,0.9c0.4,0.2,0.8,0.4,1.2,0.5c1.1,0.5,1.9,1.3,1.7,2.7c-0.2,1.3-1.2,1.9-2.4,2.1
			c-0.7,0.2-1.4-0.1-2.1-0.2c-0.4-0.1-0.7-0.3-0.5-0.8c0.2-0.4,0.2-1,1-0.6c0.1,0,0.2,0.1,0.3,0.1c0.9,0.2,2,0.5,2.4-0.6
			c0.5-1.2-0.7-1.5-1.5-1.9c-1.2-0.5-2.2-1.1-1.8-2.6C92.6,61.7,93.6,61.3,94.9,61.2z"/>
		<path class="st6" d="M31,63.7c0,1.6,0,3.1,0,4.7c0,0.6-0.1,1-0.8,1c-0.8,0-0.8-0.5-0.8-1c0-3.2,0-6.4,0-9.6c0-0.6,0.1-1,0.8-1
			c0.8,0,0.8,0.5,0.8,1C31,60.4,31,62.1,31,63.7z"/>
		<path class="st7" d="M81,63.7c0,1.6,0,3.2,0,4.9c0,0.6-0.2,0.9-0.8,0.8c-0.6,0-0.8-0.3-0.8-0.9c0-3.3,0-6.6,0-9.9
			c0-0.6,0.2-0.8,0.8-0.8c0.7,0,0.8,0.3,0.8,0.9C81,60.3,81,62,81,63.7z"/>
		<path class="st8" d="M116.5,65.3c0-0.6,0-1.1,0-1.7c0-0.5,0-1-0.7-0.9c-0.4,0-0.6-0.2-0.6-0.6c0-0.4,0.2-0.5,0.5-0.5
			c0.7,0.1,0.7-0.4,0.7-0.9c0-0.7,0.5-0.8,0.9-0.8c0.7-0.1,0.6,0.5,0.5,0.9c-0.1,0.9,0.4,0.9,1,0.9c0.4,0,0.9-0.2,1,0.5
			c0,0.6-0.4,0.7-0.9,0.6c-1.1-0.2-1.2,0.4-1.1,1.3c0,0.8,0,1.6,0,2.4c0,1-0.1,2,1.4,1.9c0.4,0,0.4,0.3,0.4,0.6
			c0,0.4-0.2,0.5-0.5,0.6c-1.3,0.4-2.5-0.4-2.7-1.8C116.5,66.8,116.5,66.1,116.5,65.3L116.5,65.3z"/>
		<path class="st9" d="M114,65.3c0,1,0,2.1,0,3.1c0,0.7-0.2,0.9-0.9,0.9c-0.7,0-0.7-0.5-0.7-1c0-2,0-4.1,0-6.1
			c0-0.6,0.2-0.8,0.8-0.8c0.6,0,0.8,0.3,0.8,0.9C114,63.3,114,64.3,114,65.3z"/>
		<path class="st10" d="M101.1,61.7c0,0.2,0,0.4,0,0.6c-1,1-1,2.2-1,3.4c0,0.9,0,1.8,0,2.7c0,0.5-0.3,0.6-0.8,0.6
			c-0.4,0-0.7-0.1-0.7-0.5c0-2.2,0-4.4,0.2-6.6c0-0.8,1-0.6,1.1-0.3C100.5,62.6,100.8,61.6,101.1,61.7z"/>
		<path class="st11" d="M42.6,65.5c0,1.1,0,2.1,0,3.2c0,0.6-0.2,0.8-0.8,0.8c-0.5,0-0.8-0.1-0.8-0.7c0-2.1,0-4.3,0-6.4
			c0-0.6,0.2-0.7,0.8-0.7s0.8,0.2,0.8,0.8C42.5,63.4,42.6,64.4,42.6,65.5z"/>
		<path class="st12" d="M46.8,62c0.1-0.3,0.4-0.5,0.7-0.5c0.4,0,1-0.4,1.1,0.4c0.1,0.6-0.3,0.7-0.8,0.7c-0.3,0-0.5,0.3-0.8,0.4
			c-0.6,0.3-0.6,1-0.9,1.5c-0.3,1.3-0.1,2.5-0.2,3.8c0,0.4,0.1,0.9-0.6,0.9c-0.7,0-0.6-0.5-0.6-0.9c0-1.9,0-3.7,0-5.6
			c0-0.3-0.1-0.7,0.3-0.9c0.4-0.2,0.7,0,0.9,0.4C46.4,62.6,46.7,62.4,46.8,62z"/>
		<path class="st9" d="M46.8,62c-0.1,0.7-0.3,1.3-0.8,0.3c-0.1-0.2-0.2-0.4-0.5-0.4c-0.3,0.1-0.3,0.3-0.3,0.6c0,1.9,0,3.9,0,5.8
			c0,0.3,0.1,0.6,0.4,0.6c0.4,0,0.4-0.3,0.4-0.6c0.2-1.3-0.3-2.6,0.3-3.9c0,1.3,0,2.7,0.1,4c0,0.6-0.1,0.9-0.8,0.9
			c-0.8,0-0.8-0.4-0.8-1c0-2,0-3.9,0.1-5.9c0-0.4-0.1-0.8,0.4-0.9c0.4,0,0.8-0.2,0.9,0.5C46.3,62.6,46.6,62,46.8,62z"/>
		<path class="st13" d="M42.8,59.1c-0.1,0.6-0.4,1-1,1s-1-0.4-1-1s0.3-1,1-1C42.4,58.1,42.6,58.5,42.8,59.1z"/>
		<path class="st14" d="M113.1,58.1c0.6,0.1,1,0.4,1,1s-0.4,1-1,0.9c-0.6,0-1-0.4-1-1S112.5,58.1,113.1,58.1z"/>
		<path class="st15" d="M123.6,62.1c-0.5,0.6-0.6,0.2-0.6-0.3c0-0.8-0.1-1.7,0-2.5c0.1-1.1-0.3-1.6-1.4-1.2c1.3-0.7,1.6-0.5,1.7,0.8
			C123.4,60,123,61.1,123.6,62.1z"/>
		<path class="st9" d="M47.1,62.9c0.1-0.3,0.4-0.4,0.7-0.5s0.8,0,0.7-0.5s-0.6-0.3-0.9-0.4c0.5-0.2,1-0.7,1.3,0.2
			c0.2,0.7-0.2,1-0.9,1C47.7,62.7,47.4,62.8,47.1,62.9z"/>
		<path class="st16" d="M77,67.8c0-0.5-0.1-1.1,0.6-1.4C77.6,67,77.4,67.4,77,67.8z"/>
		<path class="st17" d="M88.6,65.3c0,0.4,0,0.8,0,1.1c0,0.9-0.5,1.4-1.3,1.7c-0.9,0.3-1.6,0.1-2.2-0.6c-1-1.1-1-3.3,0-4.4
			c0.6-0.7,1.4-0.8,2.2-0.6c0.8,0.2,1.3,0.8,1.3,1.7C88.6,64.7,88.6,65,88.6,65.3z"/>
		<path class="st17" d="M66.9,65.4c0,1.7-0.6,2.6-1.8,2.8c-1.1,0.2-2.1-0.6-2.4-1.7c-0.4-1.6,0.2-3.3,1.3-3.7
			C65.5,62.1,67.2,63.3,66.9,65.4z"/>
		<path class="st18" d="M37.2,66.4c0,1.3-0.7,2-1.8,2c-0.8,0-1.4-0.4-1.4-1.3c0-1,1.1-1.6,2.5-1.7C37.5,65.3,37.1,66,37.2,66.4z"/>
		<path class="st17" d="M71.7,65.8c0-1,0.1-1.7,0.4-2.3c0.5-0.8,1.2-1.3,2.1-1.2s1.4,0.6,1.8,1.4c0.3,0.6,0.3,1.2,0.3,1.8
			c-0.1,1.6-1.2,2.8-2.5,2.7C72.4,68.2,71.7,67.2,71.7,65.8z"/>
		<path class="st19" d="M53,64.6c-0.2,0-0.4,0-0.6,0c-0.5-0.1-1.2,0.4-1.3-0.4c-0.1-0.6,0.3-1.1,0.8-1.4c0.7-0.6,1.5-0.6,2.3-0.2
			c0.6,0.3,1,0.9,0.8,1.5c-0.1,0.8-0.8,0.3-1.3,0.4C53.4,64.7,53.2,64.6,53,64.6z"/>
	</g>
</g>
</svg>
