<?xml version="1.0" encoding="utf-8"?>
<!-- Generator: Adobe Illustrator 21.0.0, SVG Export Plug-In . SVG Version: 6.00 Build 0)  -->
<svg version="1.1" id="Layer_1" xmlns="http://www.w3.org/2000/svg" xmlns:xlink="http://www.w3.org/1999/xlink" x="0px" y="0px"
	 viewBox="0 0 150 125" style="enable-background:new 0 0 150 125;" xml:space="preserve">
<style type="text/css">
	.st0{fill:#050507;}
	.st1{fill:#040406;}
	.st2{fill:#070709;}
	.st3{fill:#060608;}
	.st4{fill:#060708;}
	.st5{fill:#07080A;}
	.st6{fill:#0F1012;}
	.st7{fill:#0E0E0F;}
	.st8{fill:#09090B;}
	.st9{fill:#151517;}
	.st10{fill:#111112;}
	.st11{fill:#0A0B0D;}
	.st12{fill:#0B0C0D;}
	.st13{fill:#1E1E1F;}
	.st14{fill:#19191A;}
	.st15{fill:#8E8F8E;}
	.st16{fill:#08080B;}
	.st17{fill:#FCFCFC;}
	.st18{fill:#F6F6F6;}
	.st19{fill:#EBEBEA;}
</style>
<g>
	<g>
		<path class="st0" d="M89.4,59.1c0-1.3,0-2.4,0-3.6c0-0.6,0.1-0.9,0.8-0.9c0.6,0,0.6,0.4,0.6,0.9c0,3.5,0,6.9,0,10.4
			c0,0.3,0.1,0.7-0.3,0.8c-0.4,0.1-0.8,0.2-0.9-0.3c-0.2-0.8-0.5-0.2-0.7-0.1c-2.4,1.4-4.7,0.4-5.4-2.3c-0.3-1-0.2-2.1,0.1-3.1
			C84.3,58.4,86.6,57.6,89.4,59.1z"/>
		<path class="st1" d="M66.6,65.7c-1.4,1.3-2.7,1.5-4.1,0.6c-1.6-0.9-2.1-2.5-1.8-4.3c0.2-1.6,0.9-2.8,2.5-3.5
			c0.9-0.3,1.9-0.3,2.7,0.2c0.4,0.3,0.7,0.7,1-0.1c0.2-0.4,1.2-0.4,1.2,0.6c-0.1,2.6,0.2,5.2-0.3,7.7c-0.5,2.7-3.6,4.2-6.1,2.8
			c-0.4-0.1-0.6-0.3-0.4-0.8c0.2-0.7,0.6-0.3,1-0.2C65.2,69.7,66.8,68.7,66.6,65.7z"/>
		<path class="st2" d="M125.8,59.2c2.8-1.6,4.9-0.5,5,2.6c0,1.4,0,2.8,0,4.2c0,0.6-0.1,0.9-0.8,0.9s-0.8-0.3-0.8-0.9
			c0-1.4,0-2.7,0-4.1c0-1.2-0.4-2-1.7-2.1c-1.2-0.1-2.1,0.8-2.1,2.1c0,1.3,0,2.6,0,3.9c0,0.6,0,1.2-0.9,1.2s-0.7-0.5-0.7-1.2
			c0-3.7,0-7.3,0-11c1.6-0.3,1.6-0.3,1.6,1.3c0,0.8,0,1.6,0,2.4C125.4,58.9,125.3,59.3,125.8,59.2z"/>
		<path class="st3" d="M37.3,63.3c0,0.7-0.1,1.8-0.1,2.8c0,0.7-0.6,0.8-0.8,0.6c-0.6-0.7-1-0.2-1.6,0c-1.5,0.7-3.2,0.2-3.8-0.9
			c-0.7-1.5,0-3.1,1.7-3.8c0.6-0.2,1.3-0.3,1.9-0.4c0.4-0.1,1.2,0.2,1.2-0.6c0-0.6-0.4-1.2-1-1.3c-0.7-0.1-1.4-0.1-2.1,0.2
			c-0.4,0.2-0.8,0.3-0.9-0.3c-0.2-0.5,0.2-0.6,0.6-0.8c2.8-1.3,5,0.1,5.1,3.2C37.4,62.3,37.3,62.7,37.3,63.3z"/>
		<path class="st3" d="M77.1,65.2c-1.4,1.9-3.8,2.4-5.6,1c-1.8-1.3-2.2-4.3-0.9-6.2c1.3-1.8,3.8-2.4,5.5-1.2
			c1.8,1.2,1.7,2.9,1.6,4.8C77.3,64.1,77.4,64.8,77.1,65.2z"/>
		<path class="st4" d="M102.3,58.8c1.7-0.8,2.5-0.6,3.9,0.9c0.5-0.3,0.8-0.9,1.5-1.3c1.6-0.6,3.2,0.1,3.8,1.7c0.6,2,0.2,4,0.3,6
			c0,0.6-0.5,0.5-0.8,0.5c-0.5,0-0.6-0.3-0.6-0.7c0-1.3,0-2.6,0-3.9c0-1.7-0.6-2.5-1.7-2.5c-1.3,0-2,0.9-2,2.6c0,1.2,0,2.3,0,3.5
			c0,0.5,0,0.9-0.7,0.9c-0.7,0-0.7-0.5-0.7-1c0-1.3,0-2.5,0-3.8c0-2-0.5-2.5-2.5-2.3C102.2,59.2,102.2,59,102.3,58.8z"/>
		<path class="st3" d="M52.6,63.1c-0.5,0-1,0-1.5,0c-0.4,0-1-0.2-1.3,0.2c-0.2,0.5,0.1,1,0.4,1.5c1,1.2,2.3,1,3.7,0.8
			c0.4-0.1,0.9-0.4,1,0.3c0.1,0.6-0.4,0.7-0.8,0.8c-1.9,0.5-4,0.1-5-1.2c-1.3-1.7-1.3-3.5-0.3-5.2c0.7-1.6,2.6-2.3,4.3-1.8
			c1.4,0.4,2.5,2.2,2.4,3.8c0,0.5-0.2,0.7-0.7,0.7C54.2,63,53.5,63.1,52.6,63.1z"/>
		<path class="st5" d="M23.5,66.9c-2,0-3.5-0.9-4-2.4c-0.6-1.8-0.4-3.6,0.8-5c1-1.2,3.2-1.6,4.7-1c0.4,0.2,0.6,0.3,0.5,0.8
			c-0.2,0.6-0.6,0.4-0.9,0.3c-1.9-0.3-3.1,0.3-3.7,1.8c-0.8,2.4,0.8,4.5,3.5,4.2c0.4-0.1,1-0.6,1.3,0.4c0.2,0.9-0.6,0.7-1,0.9
			C24.2,66.9,23.7,66.9,23.5,66.9z"/>
		<path class="st5" d="M95.8,58.3c0.3,0,0.6,0,0.9,0.2c0.4,0.2,1,0.1,0.8,0.9c-0.2,0.7-0.6,0.6-1.2,0.4c-0.4-0.1-0.9-0.1-1.4,0
			s-0.8,0.4-0.8,0.9c0,0.4,0.2,0.7,0.5,0.9c0.4,0.2,0.8,0.4,1.3,0.5c1.2,0.5,2,1.4,1.8,2.8c-0.2,1.4-1.3,2-2.5,2.2
			c-0.7,0.2-1.5-0.1-2.2-0.2c-0.4-0.1-0.7-0.3-0.5-0.8c0.2-0.4,0.2-1,1-0.6c0.1,0,0.2,0.1,0.3,0.1c0.9,0.2,2.1,0.5,2.5-0.6
			c0.5-1.3-0.7-1.6-1.6-2c-1.3-0.5-2.3-1.2-1.9-2.7C93.4,58.8,94.5,58.4,95.8,58.3z"/>
		<path class="st6" d="M29,60.9c0,1.7,0,3.2,0,4.9c0,0.6-0.1,1-0.8,1c-0.8,0-0.8-0.5-0.8-1c0-3.3,0-6.7,0-10c0-0.6,0.1-1,0.8-1
			c0.8,0,0.8,0.5,0.8,1C29,57.4,29,59.2,29,60.9z"/>
		<path class="st7" d="M81.3,60.9c0,1.7,0,3.3,0,5.1c0,0.6-0.2,0.9-0.8,0.8c-0.6,0-0.8-0.3-0.8-0.9c0-3.5,0-6.9,0-10.4
			c0-0.6,0.2-0.8,0.8-0.8c0.7,0,0.8,0.3,0.8,0.9C81.3,57.3,81.3,59.1,81.3,60.9z"/>
		<path class="st8" d="M118.4,62.6c0-0.6,0-1.2,0-1.8c0-0.5,0-1-0.7-0.9c-0.4,0-0.6-0.2-0.6-0.6c0-0.4,0.2-0.5,0.5-0.5
			c0.7,0.1,0.7-0.4,0.7-0.9c0-0.7,0.5-0.8,0.9-0.8c0.7-0.1,0.6,0.5,0.5,0.9c-0.1,0.9,0.4,0.9,1,0.9c0.4,0,0.9-0.2,1,0.5
			c0,0.6-0.4,0.7-0.9,0.6c-1.2-0.2-1.3,0.4-1.2,1.4c0,0.8,0,1.7,0,2.5c0,1-0.1,2.1,1.5,2c0.4,0,0.4,0.3,0.4,0.6
			c0,0.4-0.2,0.5-0.5,0.6c-1.4,0.4-2.6-0.4-2.8-1.9C118.4,64.1,118.4,63.4,118.4,62.6L118.4,62.6z"/>
		<path class="st9" d="M115.8,62.6c0,1,0,2.2,0,3.2c0,0.7-0.2,0.9-0.9,0.9c-0.7,0-0.7-0.5-0.7-1c0-2.1,0-4.3,0-6.4
			c0-0.6,0.2-0.8,0.8-0.8c0.6,0,0.8,0.3,0.8,0.9C115.8,60.5,115.8,61.5,115.8,62.6z"/>
		<path class="st10" d="M102.3,58.8c0,0.2,0,0.4,0,0.6c-1,1-1,2.3-1,3.6c0,0.9,0,1.9,0,2.8c0,0.5-0.3,0.6-0.8,0.6
			c-0.4,0-0.7-0.1-0.7-0.5c0-2.3,0-4.6,0.2-6.9c0-0.8,1-0.6,1.2-0.3C101.7,59.7,102,58.7,102.3,58.8z"/>
		<path class="st11" d="M41.1,62.8c0,1.2,0,2.2,0,3.3c0,0.6-0.2,0.8-0.8,0.8c-0.5,0-0.8-0.1-0.8-0.7c0-2.2,0-4.5,0-6.7
			c0-0.6,0.2-0.7,0.8-0.7s0.8,0.2,0.8,0.8C41,60.6,41.1,61.6,41.1,62.8z"/>
		<path class="st12" d="M45.5,59.1c0.1-0.3,0.4-0.5,0.7-0.5c0.4,0,1-0.4,1.2,0.4c0.1,0.6-0.3,0.7-0.8,0.7c-0.3,0-0.5,0.3-0.8,0.4
			c-0.6,0.3-0.6,1-0.9,1.6c-0.3,1.4-0.1,2.6-0.2,4c0,0.4,0.1,0.9-0.6,0.9s-0.6-0.5-0.6-0.9c0-2,0-3.9,0-5.9c0-0.3-0.1-0.7,0.3-0.9
			c0.4-0.2,0.7,0,0.9,0.4C45.1,59.7,45.4,59.5,45.5,59.1z"/>
		<path class="st9" d="M45.5,59.1c-0.1,0.7-0.3,1.4-0.8,0.3c-0.1-0.2-0.2-0.4-0.5-0.4c-0.3,0.1-0.3,0.3-0.3,0.6c0,2,0,4.1,0,6.1
			c0,0.3,0.1,0.6,0.4,0.6c0.4,0,0.4-0.3,0.4-0.6c0.2-1.4-0.3-2.7,0.3-4.1c0,1.4,0,2.8,0.1,4.2c0,0.6-0.1,0.9-0.8,0.9
			c-0.8,0-0.8-0.4-0.8-1c0-2.1,0-4.1,0.1-6.2c0-0.4-0.1-0.8,0.4-0.9c0.4,0,0.8-0.2,0.9,0.5C45,59.7,45.3,59.1,45.5,59.1z"/>
		<path class="st13" d="M41.3,56.1c-0.1,0.6-0.4,1-1,1s-1-0.4-1-1s0.3-1,1-1C40.9,55,41.1,55.4,41.3,56.1z"/>
		<path class="st14" d="M114.9,55c0.6,0.1,1,0.4,1,1s-0.4,1-1,0.9c-0.6,0-1-0.4-1-1S114.2,55,114.9,55z"/>
		<path class="st15" d="M125.8,59.2c-0.5,0.6-0.6,0.2-0.6-0.3c0-0.8-0.1-1.8,0-2.6c0.1-1.2-0.3-1.7-1.5-1.3c1.4-0.7,1.7-0.5,1.8,0.8
			C125.6,57,125.2,58.2,125.8,59.2z"/>
		<path class="st9" d="M45.8,60c0.1-0.3,0.4-0.4,0.7-0.5c0.3-0.1,0.8,0,0.7-0.5c-0.1-0.5-0.6-0.3-0.9-0.4c0.5-0.2,1-0.7,1.4,0.2
			c0.2,0.7-0.2,1-0.9,1C46.5,59.8,46.1,59.9,45.8,60z"/>
		<path class="st16" d="M77.1,65.2c0-0.5-0.1-1.2,0.6-1.5C77.7,64.3,77.5,64.8,77.1,65.2z"/>
		<path class="st17" d="M89.2,62.6c0,0.4,0,0.8,0,1.2c0,0.9-0.5,1.5-1.4,1.8c-0.9,0.3-1.7,0.1-2.3-0.6c-1-1.2-1-3.5,0-4.6
			c0.6-0.7,1.5-0.8,2.3-0.6c0.8,0.2,1.4,0.8,1.4,1.8C89.2,61.9,89.2,62.2,89.2,62.6z"/>
		<path class="st17" d="M66.5,62.7c0,1.8-0.6,2.7-1.9,2.9c-1.2,0.2-2.2-0.6-2.5-1.8c-0.4-1.7,0.2-3.5,1.4-3.9
			C65.1,59.2,66.9,60.5,66.5,62.7z"/>
		<path class="st18" d="M35.5,63.7c0,1.4-0.7,2.1-1.9,2.1c-0.8,0-1.5-0.4-1.5-1.4c0-1,1.2-1.7,2.6-1.8
			C35.8,62.6,35.4,63.3,35.5,63.7z"/>
		<path class="st17" d="M71.6,63.1c0-1,0.1-1.8,0.4-2.4c0.5-0.8,1.3-1.4,2.2-1.3c0.9,0.1,1.5,0.6,1.9,1.5c0.3,0.6,0.3,1.3,0.3,1.9
			c-0.1,1.7-1.3,2.9-2.6,2.8C72.3,65.6,71.6,64.5,71.6,63.1z"/>
		<path class="st19" d="M52,61.8c-0.2,0-0.4,0-0.6,0c-0.5-0.1-1.3,0.4-1.4-0.4c-0.1-0.6,0.3-1.2,0.8-1.5c0.7-0.6,1.6-0.6,2.4-0.2
			c0.6,0.3,1,0.9,0.8,1.6c-0.1,0.8-0.8,0.3-1.4,0.4C52.4,61.9,52.2,61.8,52,61.8z"/>
	</g>
</g>
</svg>
