<?xml version="1.0" encoding="utf-8"?>
<!-- Generator: Adobe Illustrator 21.0.0, SVG Export Plug-In . SVG Version: 6.00 Build 0)  -->
<svg version="1.1" id="Layer_1" xmlns="http://www.w3.org/2000/svg" xmlns:xlink="http://www.w3.org/1999/xlink" x="0px" y="0px"
	 viewBox="0 0 150 125" style="enable-background:new 0 0 150 125;" xml:space="preserve">
<style type="text/css">
	.st0{fill:#231F20;}
	.st1{fill:#FFFFFF;}
</style>
<g>
	<path class="st0" d="M82.6,54c0.7,1.2,0.8,2.6,0.9,4.1h-3.3c0-1,0-2.1-0.7-2.8c-0.3-0.2-0.9-0.3-1.3-0.1c-0.6,0.3-0.9,1-0.9,1.7
		c0.1,1.4,1.1,2.5,2.2,3.4l2.2,2c2.1,2.1,3,5.4,1.8,8.2c-0.7,1.8-2.6,2.8-4.5,2.7c-1.6,0-3.2-0.6-4-2.1c-0.6-1.3-0.9-2.7-0.9-4.2
		h3.2c0.1,1.1,0.1,2.2,1,3c0.5,0.3,1.1,0.2,1.6-0.1c0.7-0.6,0.9-1.5,0.6-2.5c-0.2-0.8-0.8-1.5-1.5-2.1l-2.3-2
		c-2.2-1.8-3.3-4.4-2.7-7.2c0.3-1.5,1.4-3.2,2.9-3.8c1.6-0.6,3.7-0.4,4.8,0.9C82.2,53.4,82.4,53.7,82.6,54L82.6,54z"/>
	<path class="st0" d="M49.3,52.3c2.2,0.1,4.4,0.7,5.4,2.8c1,1.9,1,4.3,1.1,6.6v3.6c-0.1,2-0.3,3.8-1.4,5.4c-1,1.4-2.6,2-4.2,2.1
		h-4.5V52.3H49.3L49.3,52.3z"/>
	<polygon class="st0" points="61.9,72.9 58.1,72.9 58.1,52.3 61.9,52.3 	"/>
	<polygon class="st0" points="73.1,55.5 68.4,55.5 68.4,60.7 71.9,60.7 71.9,64.1 68.4,64.1 68.4,69.7 73.3,69.7 73.3,72.9 
		64.5,72.9 64.5,52.3 73.1,52.3 	"/>
	<polygon class="st0" points="94.2,55.5 89.5,55.5 89.5,60.7 93,60.7 93,64.1 89.7,64.1 89.7,69.6 94.5,69.6 94.5,72.9 85.7,72.9 
		85.7,52.3 94.2,52.3 	"/>
	<polygon class="st0" points="100,69.6 104.3,69.6 104.3,72.9 96.2,72.9 96.2,52.3 100,52.3 	"/>
	<path class="st1" d="M51.2,56.3c0.5,0.9,0.5,1.9,0.6,3v7.5c-0.1,1.1-0.2,2.4-1.4,2.9c-0.3,0.1-0.6,0.1-1,0V55.5
		C50.1,55.5,50.9,55.6,51.2,56.3L51.2,56.3z"/>
</g>
</svg>
