<?xml version="1.0" encoding="utf-8"?>
<!-- Generator: Adobe Illustrator 21.0.0, SVG Export Plug-In . SVG Version: 6.00 Build 0)  -->
<svg version="1.1" id="Layer_1" xmlns="http://www.w3.org/2000/svg" xmlns:xlink="http://www.w3.org/1999/xlink" x="0px" y="0px"
	 viewBox="0 0 150 125" style="enable-background:new 0 0 150 125;" xml:space="preserve">
<style type="text/css">
	.st0{fill:#231F20;}
	.st1{fill:#FFFFFF;}
</style>
<g>
	<path class="st0" d="M88,47.6c1.2,2.1,1.4,4.6,1.6,7.2h-5.7c0-1.8,0-3.7-1.3-4.9c-0.6-0.4-1.5-0.5-2.2-0.2
		c-1.1,0.5-1.5,1.7-1.6,2.9c0.1,2.5,1.9,4.4,3.8,5.9l3.9,3.5c3.7,3.7,5.3,9.4,3.2,14.3c-1.3,3.1-4.5,4.9-7.8,4.8
		c-2.8,0-5.6-1-6.9-3.6c-1.1-2.2-1.6-4.7-1.5-7.4h5.6c0.1,1.9,0.1,3.9,1.7,5.2c0.8,0.5,2,0.4,2.8-0.2c1.2-1,1.5-2.7,1.1-4.3
		c-0.4-1.4-1.4-2.6-2.6-3.7L78,63.6c-3.8-3.2-5.7-7.7-4.7-12.6c0.5-2.7,2.4-5.6,5.1-6.6c2.8-1,6.4-0.7,8.4,1.6
		C87.4,46.6,87.7,47.1,88,47.6L88,47.6z"/>
	<path class="st0" d="M29.9,44.7c3.8,0.1,7.6,1.3,9.4,4.9c1.7,3.4,1.8,7.5,1.9,11.6v6.2c-0.1,3.5-0.6,6.7-2.4,9.5
		c-1.8,2.5-4.5,3.5-7.4,3.7h-7.8V44.7H29.9L29.9,44.7z"/>
	<polygon class="st0" points="52,80.7 45.3,80.7 45.3,44.7 52,44.7 	"/>
	<polygon class="st0" points="71.4,50.3 63.2,50.3 63.2,59.3 69.3,59.3 69.3,65.2 63.3,65.2 63.3,75 71.8,75 71.8,80.7 56.5,80.7 
		56.5,44.7 71.4,44.7 	"/>
	<polygon class="st0" points="108.3,50.2 100.2,50.2 100.2,59.3 106.3,59.3 106.3,65.2 100.4,65.2 100.4,74.9 108.8,74.9 
		108.8,80.7 93.5,80.7 93.5,44.7 108.3,44.7 	"/>
	<polygon class="st0" points="118.4,74.8 126,74.8 126,80.7 111.8,80.7 111.8,44.7 118.4,44.7 	"/>
	<path class="st1" d="M33.3,51.6c0.8,1.5,0.9,3.4,1,5.3V70c-0.2,1.9-0.4,4.2-2.5,5c-0.5,0.2-1.1,0.1-1.7,0V50.3
		C31.3,50.3,32.7,50.4,33.3,51.6L33.3,51.6z"/>
</g>
</svg>
