<?xml version="1.0" encoding="utf-8"?>
<!-- Generator: Adobe Illustrator 21.0.0, SVG Export Plug-In . SVG Version: 6.00 Build 0)  -->
<svg version="1.1" id="Layer_1" xmlns="http://www.w3.org/2000/svg" xmlns:xlink="http://www.w3.org/1999/xlink" x="0px" y="0px"
	 viewBox="0 0 150 125" style="enable-background:new 0 0 150 125;" xml:space="preserve">
<style type="text/css">
	.st0{fill:#231F20;}
	.st1{fill:#FFFFFF;}
</style>
<g>
	<path class="st0" d="M84,52.3c0.8,1.4,1,3.2,1.1,4.9h-3.9c0-1.2,0-2.5-0.9-3.4c-0.4-0.3-1-0.3-1.5-0.1c-0.8,0.3-1,1.2-1.1,2
		c0.1,1.7,1.3,3,2.6,4l2.7,2.4c2.5,2.5,3.6,6.4,2.2,9.8c-0.9,2.1-3.1,3.4-5.3,3.3c-1.9,0-3.8-0.7-4.7-2.5c-0.8-1.5-1.1-3.2-1-5.1
		h3.8c0.1,1.3,0.1,2.7,1.2,3.6c0.5,0.3,1.4,0.3,1.9-0.1c0.8-0.7,1-1.8,0.8-2.9c-0.3-1-1-1.8-1.8-2.5l-2.8-2.4
		c-2.6-2.2-3.9-5.3-3.2-8.6c0.3-1.8,1.6-3.8,3.5-4.5c1.9-0.7,4.4-0.5,5.8,1.1C83.6,51.6,83.8,52,84,52.3L84,52.3z"/>
	<path class="st0" d="M44.2,50.3c2.6,0.1,5.2,0.9,6.4,3.4c1.2,2.3,1.2,5.1,1.3,7.9v4.2c-0.1,2.4-0.4,4.6-1.6,6.5
		c-1.2,1.7-3.1,2.4-5.1,2.5h-5.3V50.3H44.2L44.2,50.3z"/>
	<polygon class="st0" points="59.4,75 54.8,75 54.8,50.3 59.4,50.3 	"/>
	<polygon class="st0" points="72.7,54.2 67.1,54.2 67.1,60.3 71.2,60.3 71.2,64.4 67.1,64.4 67.1,71.1 72.9,71.1 72.9,75 62.5,75 
		62.5,50.3 72.7,50.3 	"/>
	<polygon class="st0" points="97.9,54.1 92.4,54.1 92.4,60.3 96.6,60.3 96.6,64.4 92.5,64.4 92.5,71 98.3,71 98.3,75 87.8,75 
		87.8,50.3 97.9,50.3 	"/>
	<polygon class="st0" points="104.9,70.9 110.1,70.9 110.1,75 100.3,75 100.3,50.3 104.9,50.3 	"/>
	<path class="st1" d="M46.6,55c0.5,1,0.6,2.3,0.7,3.6v9c-0.1,1.3-0.3,2.9-1.7,3.4c-0.3,0.1-0.8,0.1-1.2,0V54.2
		C45.2,54.2,46.2,54.2,46.6,55L46.6,55z"/>
</g>
</svg>
