<?xml version="1.0" encoding="utf-8"?>
<!-- Generator: Adobe Illustrator 21.0.0, SVG Export Plug-In . SVG Version: 6.00 Build 0)  -->
<svg version="1.1" id="Layer_1" xmlns="http://www.w3.org/2000/svg" xmlns:xlink="http://www.w3.org/1999/xlink" x="0px" y="0px"
	 viewBox="0 0 150 125" style="enable-background:new 0 0 150 125;" xml:space="preserve">
<style type="text/css">
	.st0{fill:#211E1E;}
</style>
<g>
	<path class="st0" d="M94.2,65c0-0.1,0-0.2,0.5-0.4s1.8-0.6,2.6-1c0.8-0.4,0.9-0.5,1.1-0.4c0.2,0.1,0.1,0.4,0.1,0.6V66
		c0.3-0.5,1.2-2,2-2.5c0.6-0.4,0.8-0.4,1.1-0.4c0.4,0,1.4,0.2,1.5,1.3c0.1,0.8-0.6,1.2-1,1.1c-0.3-0.1-0.5-0.4-0.7-0.7
		c-0.2-0.3-0.5-0.5-0.8-0.4c-0.3,0.1-2,1.2-2.1,2.8c-0.1,1.1,0,4.7,0,4.7c0,0.5,0.2,0.8,0.5,0.9c0.2,0.1,1.1,0.2,1.4,0.2
		c0.2,0.1,0.2,0.1,0.2,0.2s0,0.1-0.2,0.1h-5.9c-0.2,0-0.2-0.1-0.2-0.1c0-0.2,0.2-0.1,0.4-0.2c0.2,0,1.2,0.1,1.5-0.4
		c0.2-0.4,0.2-0.8,0.2-0.8v-6.3c0-0.5-0.2-0.6-0.3-0.7s-0.4-0.1-0.8,0.1C94.6,65,94.3,65.2,94.2,65L94.2,65z"/>
	<path class="st0" d="M73.4,65c-0.1-0.2,0.1-0.2,0.5-0.4s1.6-0.5,2.4-1c0.8-0.5,1-0.5,1.2-0.5s0.2,0.4,0.2,0.7V72
		c0,0.5,0.1,0.7,0.2,0.8c0.2,0.2,0.7,0.3,1.4,0.3c0.3,0,0.4,0.1,0.4,0.2s-0.1,0.1-0.2,0.1h-5.9c-0.2,0-0.2-0.1-0.2-0.2
		s0.1-0.2,0.4-0.2c0.2,0,1.3,0.1,1.6-0.5c0.1-0.2,0.1-0.5,0.1-0.8v-6.5c0-0.5-0.4-0.7-0.8-0.6C74.2,64.9,73.6,65.2,73.4,65L73.4,65z
		"/>
	<path class="st0" d="M76.4,59.4c0.8,0,1.4-0.7,1.4-1.4c0-0.8-0.7-1.4-1.4-1.4c-0.8,0-1.4,0.7-1.4,1.4S75.7,59.4,76.4,59.4
		L76.4,59.4z"/>
	<path class="st0" d="M83.5,68.6c0.3,2.6,1.9,4.7,3.8,4.4c2-0.4,2.9-2.2,2.7-5.2c-0.2-3-1.7-4.5-3.8-4.4
		C84.1,63.6,83.2,66,83.5,68.6L83.5,68.6z M85.5,63c2.5-0.5,6.1,0.1,6.9,4c0.8,3.9-1.9,6-4.2,6.5c-2.3,0.5-6.2,0.1-6.9-4.1
		C80.6,65.6,83.3,63.4,85.5,63L85.5,63z"/>
	<path class="st0" d="M55.7,72.8h1.4c5.4,0,6.9-0.5,8.8-3c1.9-2.5,2.2-6.2,2.2-7.4s-0.3-4.3-2.2-6.9s-5.1-3.3-7.9-3.3h-2.3
		c-0.5,0-0.5,0.2-0.5,0.6v19.6C55.1,72.8,55.3,72.8,55.7,72.8L55.7,72.8z M46.9,73.2c0-0.2,0.2-0.2,0.5-0.2c2.8-0.1,3.3-0.2,3.6-0.5
		c0.2-0.2,0.4-0.3,0.4-1.6V53.3c0-1.6-1.9-1.3-3.3-1.5c-0.5-0.1-0.5-0.1-0.5-0.2c0-0.1,0.1-0.2,0.4-0.2H59
		c12.2,0,12.9,8.9,12.9,11.3c0,5.1-3.4,10.8-10.5,10.8H47.3C47.1,73.5,47,73.4,46.9,73.2L46.9,73.2L46.9,73.2z"/>
</g>
</svg>
