<?xml version="1.0" encoding="utf-8"?>
<!-- Generator: Adobe Illustrator 21.0.0, SVG Export Plug-In . SVG Version: 6.00 Build 0)  -->
<svg version="1.1" id="Layer_1" xmlns="http://www.w3.org/2000/svg" xmlns:xlink="http://www.w3.org/1999/xlink" x="0px" y="0px"
	 viewBox="0 0 150 125" style="enable-background:new 0 0 150 125;" xml:space="preserve">
<style type="text/css">
	.st0{fill:#211E1E;}
</style>
<g>
	<path class="st0" d="M107.1,66.7c0-0.2,0-0.3,0.9-0.6c0.9-0.3,3-1,4.3-1.7c1.3-0.7,1.5-0.8,1.8-0.6c0.3,0.2,0.2,0.7,0.2,1v3.5
		c0.5-0.8,2-3.4,3.3-4.1c1-0.6,1.3-0.7,1.9-0.7c0.7,0,2.4,0.4,2.5,2.2c0.1,1.4-1,2-1.6,1.9c-0.5-0.1-0.9-0.6-1.2-1.1
		c-0.3-0.5-0.8-0.8-1.3-0.6c-0.5,0.2-3.3,2-3.5,4.6c-0.1,1.9,0,7.9,0,7.9c0,0.9,0.3,1.3,0.8,1.5c0.4,0.2,1.9,0.3,2.3,0.3
		c0.4,0.1,0.4,0.2,0.4,0.3c0,0.1,0,0.2-0.4,0.2h-9.9c-0.3,0-0.4-0.1-0.4-0.2c0-0.3,0.4-0.2,0.7-0.3c0.3,0,2,0.1,2.5-0.7
		c0.4-0.6,0.3-1.4,0.3-1.4l0-10.5c0-0.8-0.3-1-0.5-1.1c-0.2-0.1-0.6-0.2-1.4,0.1C107.8,66.7,107.2,67,107.1,66.7L107.1,66.7z"/>
	<path class="st0" d="M72.4,66.7c-0.1-0.3,0.1-0.4,0.9-0.6c0.8-0.2,2.6-0.8,4-1.6c1.4-0.8,1.7-0.9,2-0.8c0.3,0.1,0.3,0.6,0.3,1.1
		v13.6c0,0.8,0.1,1.1,0.4,1.4c0.3,0.3,1.2,0.5,2.3,0.5c0.5,0,0.7,0.1,0.7,0.3c0,0.2-0.2,0.2-0.4,0.2h-9.9c-0.3,0-0.4-0.1-0.4-0.3
		c0-0.2,0.1-0.3,0.6-0.3c0.4,0,2.2,0.1,2.6-0.8c0.2-0.4,0.2-0.8,0.2-1.3V67.3c0-0.8-0.6-1.2-1.4-1C73.6,66.5,72.6,67,72.4,66.7
		L72.4,66.7z"/>
	<path class="st0" d="M77.4,57.3c1.3,0,2.4-1.1,2.4-2.4c0-1.3-1.1-2.4-2.4-2.4c-1.3,0-2.4,1.1-2.4,2.4C75,56.2,76.1,57.3,77.4,57.3
		L77.4,57.3z"/>
	<path class="st0" d="M89.2,72.7c0.5,4.4,3.1,7.8,6.4,7.3c3.3-0.6,4.9-3.7,4.5-8.7c-0.4-5.1-2.9-7.6-6.3-7.3
		C90.3,64.3,88.7,68.3,89.2,72.7L89.2,72.7z M92.5,63.2c4.2-0.8,10.2,0.1,11.5,6.7c1.4,6.6-3.2,10.1-7.1,10.9
		c-3.8,0.8-10.3,0.2-11.5-6.8C84.3,67.7,88.9,63.9,92.5,63.2L92.5,63.2z"/>
	<path class="st0" d="M42.8,79.7h2.4c9.1,0,11.5-0.8,14.7-5.1c3.2-4.2,3.6-10.3,3.6-12.4c0-2.1-0.5-7.2-3.7-11.6
		c-3.2-4.4-8.5-5.5-13.2-5.5h-3.8c-0.9,0-0.9,0.4-0.9,1v32.7C41.8,79.6,42.1,79.7,42.8,79.7L42.8,79.7z M28,80.4
		c0-0.3,0.4-0.3,0.8-0.4c4.6-0.1,5.5-0.3,6-0.8c0.3-0.3,0.7-0.5,0.7-2.7V47.1c0-2.6-3.2-2.2-5.5-2.5c-0.8-0.1-0.9-0.2-0.9-0.4
		c0-0.2,0.2-0.3,0.6-0.4h18.6c20.4,0,21.5,14.9,21.5,18.9c0,8.6-5.7,18-17.5,18H28.6C28.3,80.8,28.1,80.7,28,80.4L28,80.4L28,80.4z"
		/>
</g>
</svg>
