<?xml version="1.0" encoding="utf-8"?>
<!-- Generator: Adobe Illustrator 21.0.0, SVG Export Plug-In . SVG Version: 6.00 Build 0)  -->
<svg version="1.1" id="Layer_1" xmlns="http://www.w3.org/2000/svg" xmlns:xlink="http://www.w3.org/1999/xlink" x="0px" y="0px"
	 viewBox="0 0 150 125" style="enable-background:new 0 0 150 125;" xml:space="preserve">
<path d="M74.2,50.5c-0.5,0.2-1.1,0.7-1.6,1.6c-0.6,0.8-0.6,1.3-0.2,1.4c0.2,0,0.4-0.1,0.7-0.4c0.2-0.2,0.6-0.4,0.7-0.5
	c0.5-0.2,1.2-0.6,1.5-0.7c0.1-0.1,0.4-0.2,0.7-0.2c0.6-0.2,1.4-0.4,1.7-0.4c0.5,0,1.1,0.4,1.4,1.1c0.2,0.3,0.2,0.6,0.2,6.2v5.8
	L79,64.5c-0.2,0.2-0.3,0.4-0.6,0.4c-0.2,0.1-0.5,0.1-0.6,0.1c-0.2,0-0.4,0.2-0.2,0.3c0.2,0.1,7.8,0.2,8,0c0.2-0.1,0.1-0.2-0.6-0.4
	c-0.3-0.1-0.6-0.2-0.7-0.3c-0.4-0.3-0.4-0.3-0.4-6.4s0-6,0.4-6.6c0.5-0.6,1.3-0.7,2.2-0.2c0.1,0.1,0.2,0.1,0.3,0.1
	c0.1,0,0.4,0.1,1.6,0.6c0.2,0.1,0.4,0.2,0.5,0.2c0.1,0.1,0.2,0.1,0.4,0.2c0.1,0.1,0.6,0.4,1.1,0.7c0.4,0.3,0.9,0.6,0.9,0.6
	c0.2,0,0.4-0.2,0.4-0.4c0-0.2-1.4-2.1-2-2.7l-0.4-0.4h-1.9c-1,0-4.2,0-7.2-0.1C75,50.3,74.6,50.3,74.2,50.5L74.2,50.5z M98.1,50.4
	l-3,0.1v0.2c-0.1,0.2,0.3,0.4,0.7,0.4c0.2,0,0.8,0.3,1.2,0.6c0.3,0.2,0.9,0.9,1.1,1.4c0.2,0.6,0.2,0.9-0.7,2.6
	c-0.4,0.9-0.9,1.7-0.9,1.7c-0.1,0.1-0.4,0.7-0.6,1.3c-0.3,0.6-0.8,1.6-1.1,2.2c-0.3,0.6-0.8,1.5-1.1,2.1c-0.6,1.1-0.9,1.5-1.4,1.7
	c-0.7,0.3-0.8,0.4-0.8,0.6c0,0.1,0.1,0.2,1.9,0.2c1.1,0,2.1,0,2.2,0c0.3-0.1,0.2-0.2-0.1-0.4c-0.8-0.4-0.9-1-0.3-2.2
	c0.2-0.4,0.5-1,0.6-1.3c0.1-0.3,0.3-0.6,0.4-0.7c0.1-0.1,0.7-0.1,3.2-0.1c1.7,0,3.2,0,3.4,0.1c0.3,0.1,0.3,0.1,1.1,1.5
	c0.2,0.5,0.6,1.1,0.7,1.4c0.4,0.7,0.2,1.2-0.4,1.5c-0.2,0.1-0.4,0.2-0.4,0.3v0.2h4.1c2.3,0,4.2-0.1,4.2-0.1c0.1-0.1,0.1-0.2-0.1-0.4
	c-0.1-0.1-0.3-0.1-0.5-0.1c-0.6,0-1.1-0.5-2.6-2.9c-0.2-0.4-0.4-0.6-0.5-0.8c-0.1-0.1-0.2-0.3-0.2-0.4c-0.1-0.1-0.2-0.3-0.2-0.4
	s-0.2-0.2-0.2-0.4c-0.1-0.1-1.1-1.9-2.4-3.9c-1.2-2-2.3-3.8-2.4-3.9c-0.1-0.1-0.2-0.3-0.2-0.4c-0.1-0.1-0.2-0.3-0.2-0.4
	c-0.1-0.1-0.2-0.4-0.3-0.5c-0.1-0.2-0.4-0.4-0.8-0.4C101.2,50.4,99.8,50.4,98.1,50.4L98.1,50.4z M99.6,55c0.1,0.1,0.3,0.5,0.6,0.9
	c0.2,0.4,0.5,0.9,0.6,1.1c0.1,0.2,0.2,0.4,0.2,0.5s0.2,0.3,0.2,0.4c0.1,0.1,0.2,0.3,0.2,0.4c0.1,0.1,0.2,0.4,0.4,0.7
	c0.3,0.5,0.4,0.6,0.2,0.7c-0.1,0.1-0.5,0.1-2.7,0.1h-2.6v-0.2c-0.1-0.2,0.1-0.6,0.9-2c0.2-0.3,0.6-1,0.8-1.6
	C99.4,54.8,99.4,54.7,99.6,55z M38,50.5c-0.2,0.1-0.2,0.3,0.1,0.3c0.7,0.1,1.1,0.2,1.2,0.4c0.4,0.4,0.4,0.2,0.4,6.9v6.3l-0.3,0.2
	c-0.2,0.1-0.4,0.2-0.5,0.2c-0.2,0-0.9,0.2-1,0.3c-0.1,0.1-0.1,0.1,0,0.2c0.1,0.1,9.8,0.1,10.9,0.1c1.2-0.1,2.7-0.6,3.5-1.1
	c0.1-0.1,0.3-0.2,0.4-0.2c0.1,0,0.4-0.2,0.6-0.4c2.1-1.7,3-4.2,2.6-6.7c-0.2-1.4-0.4-1.9-1.2-3.2c-0.2-0.4-1.3-1.4-1.9-1.8
	c-0.6-0.4-1.5-0.8-2.1-1c-1.5-0.4-1.1-0.4-7-0.4C40.6,50.5,38.1,50.5,38,50.5L38,50.5z M48.5,51.5c0.6,0.2,1.2,1.1,1.5,1.9
	c0.1,0.4,0.1,1.1,0.1,4.9c0,5,0.1,4.7-0.7,5.4c-0.9,0.7-1.6,1-2.9,1c-1,0-1,0-1.4-0.2c-0.2-0.2-0.4-0.4-0.5-0.6
	c-0.1-0.2-0.1-1.7-0.1-6.2v-5.9l0.2-0.2c0.2-0.2,0.2-0.2,1.8-0.2C47.8,51.3,48.2,51.4,48.5,51.5z M59.9,50.5
	c-0.2,0.1-0.1,0.2,0.1,0.4c0.1,0.1,0.4,0.1,0.6,0.1c0.4,0.1,0.6,0.1,0.7,0.4l0.2,0.2v12.6l-0.2,0.3c-0.2,0.2-0.4,0.3-0.7,0.4
	c-0.6,0.1-0.7,0.2-0.7,0.4c0.1,0.1,0.4,0.1,4,0.1c2.2,0,4-0.1,4-0.1c0.2-0.1,0-0.2-0.6-0.4c-0.4-0.1-0.7-0.2-0.8-0.4l-0.2-0.2v-6.3
	c0-4.9,0-6.3,0.1-6.5c0.2-0.2,0.6-0.5,1.1-0.6c0.6-0.1,0.7-0.1,0.6-0.4c0-0.2-0.2-0.2-4-0.2C61.9,50.5,60,50.5,59.9,50.5L59.9,50.5z
	 M88.2,71.6c-0.4,0.6-0.7,1.1-0.7,1.1c0,0.1-0.2,0.4-0.6,0.9c-0.2,0.4-0.5,0.8-0.5,0.9c0,0.2,0.6,0.2,0.9-0.1
	c0.1-0.1,0.2-0.2,0.2-0.3s0.1-0.2,0.2-0.2c0.2-0.2,0.3-0.2,1.2-0.2h1.1l0.2,0.4c0.4,0.6,0.4,0.6,0.8,0.6c0.3,0,0.4,0,0.4-0.2
	c0-0.1-0.1-0.2-0.1-0.2c-0.1,0-0.2-0.3-0.4-0.7c-0.2-0.3-0.4-0.7-0.5-0.8c-0.1-0.1-0.3-0.5-0.5-0.8c-0.2-0.3-0.4-0.7-0.6-0.9
	c-0.1-0.1-0.2-0.3-0.2-0.4s-0.1-0.1-0.1-0.1C88.9,70.5,88.6,71,88.2,71.6L88.2,71.6z M89.2,72.1c0.1,0.1,0.2,0.2,0.2,0.3
	s0.1,0.1,0.1,0.2c0.1,0.1,0.1,0.2,0.1,0.2c0,0.1-0.1,0.2-0.6,0.2c-0.5,0-0.6,0-0.6-0.1s0.6-1,0.6-1C89,71.9,89.1,72,89.2,72.1z
	 M73.8,71.1c-0.4,0.8-1,1.9-1.1,1.9s-0.3-0.2-0.6-0.6c-0.1-0.2-0.2-0.5-0.3-0.6c-0.1-0.1-0.2-0.4-0.4-0.6c-0.2-0.4-0.2-0.4-0.6-0.4
	c-0.4,0-0.5,0.1-0.4,0.3c0.1,0.1,0.2,0.4,0.3,0.6c0.1,0.2,0.3,0.6,0.4,0.7c0.1,0.2,0.2,0.5,0.4,0.7c0.1,0.2,0.3,0.6,0.4,0.7
	c0.1,0.2,0.2,0.4,0.2,0.5c0.1,0.2,0.3,0.4,0.4,0.4c0.1-0.1,0.5-0.9,0.9-1.6c0.2-0.4,0.4-0.7,0.4-0.6c0.1,0,0.4,0.6,0.7,1.1
	c0.6,1.1,0.8,1.4,0.9,1.1c0.1-0.1,0.3-0.6,0.7-1.2c0.3-0.6,0.6-1.1,0.7-1.2c0.1-0.1,0.1-0.2,0.2-0.4s0.2-0.3,0.2-0.4
	c0.1-0.1,0.1-0.2,0.2-0.2c0.1-0.1,0.1-0.2,0.1-0.2c-0.1-0.1-0.6-0.1-0.8,0c-0.1,0.1-0.3,0.4-0.5,0.8c-0.2,0.4-0.5,0.8-0.6,0.9
	c-0.1,0.1-0.1,0.2-0.2,0.4c-0.2,0.4-0.3,0.2-1-1.1c-0.2-0.6-0.6-1.1-0.6-1.1C74.1,70.6,73.9,70.8,73.8,71.1L73.8,71.1z M52.1,70.7
	c-0.1,0.1-0.1,3.5,0.1,3.7c0.1,0.1,0.5,0.1,1.5,0.1c1.3,0,1.4,0,1.4-0.2c0-0.1,0-0.2,0-0.2c-0.1-0.1-0.4-0.1-1-0.1
	c-0.9,0-0.9,0-1.1-0.2c-0.1-0.2-0.1-0.9,0-1.1c0.1-0.1,0.5-0.1,1.1-0.1c0.9,0,0.9-0.1,0.9-0.2c0.1-0.3-0.2-0.4-1.1-0.3
	c-0.7,0.1-0.7,0-0.8-0.1c-0.1-0.2-0.1-0.6,0-0.7c0.1-0.1,0.6-0.1,1.1-0.1c0.9,0,0.9,0,0.9-0.2v-0.2h-1.4
	C52.8,70.7,52.1,70.7,52.1,70.7L52.1,70.7z M57.8,70.7c0,0.1,0.9,1.2,1.2,1.6c0.3,0.3,0.4,0.6,0.4,1.4l0.1,0.8h0.4
	c0.4,0.1,0.5-0.1,0.5-1.1c0-0.6,0.1-0.9,0.4-1.2c0.2-0.2,1.1-1.4,1.1-1.5s-0.2-0.1-0.4-0.1c-0.4,0-0.4,0-0.7,0.4
	c-0.7,0.9-0.7,1-0.9,0.9c-0.1-0.1-0.3-0.4-0.6-0.7c-0.4-0.6-0.5-0.6-0.9-0.6C58,70.7,57.8,70.7,57.8,70.7L57.8,70.7z M64.8,72.6v1.9
	h1.4c1.2,0,1.4,0,1.5-0.1c0.1-0.3,0-0.4-1-0.4c-0.6,0-1-0.1-1.1-0.1c-0.2-0.2-0.1-1.1,0.1-1.1c0.1,0,0.5-0.1,1-0.1
	c0.7,0,0.9,0,0.9-0.1c0-0.1,0-0.2-0.1-0.3c-0.1-0.1-0.2-0.1-0.9-0.1c-1,0-1.1-0.1-1.1-0.5v-0.4l1.1-0.1c1.1-0.1,1.1-0.1,1.1-0.2
	v-0.2h-1.5h-1.4V72.6z M80.7,70.8c-0.1,0.2-0.1,3.2,0,3.5c0.1,0.2,0.1,0.2,1.5,0.2h1.4v-0.2V74h-1.1h-1.1v-1.2l1-0.1
	c0.9-0.1,1-0.1,1.1-0.2c0.1-0.3-0.1-0.4-1.1-0.3c-0.9,0-0.9,0-1-0.2c-0.1-0.1-0.1-0.3,0-0.4v-0.2h1.1h1v-0.5h-1.4
	C81,70.7,80.7,70.7,80.7,70.8L80.7,70.8z M94.3,70.8c0,0.1,0,0.9,0,1.9v1.8h0.4c0.4,0,0.4,0,0.4-0.2c0.1-0.2,0.1-0.5,0-0.7
	c0-0.2,0-0.4,0.1-0.4c0.1,0,0.4,0.3,0.8,0.7c0.7,0.7,0.7,0.7,1.1,0.7c0.2,0,0.4-0.1,0.4-0.1c0-0.1-0.3-0.4-0.7-0.7
	c-0.6-0.6-0.7-0.9-0.4-0.9c0.2,0,0.6-0.3,0.7-0.6c0.2-0.5-0.1-1.1-0.6-1.3c-0.3-0.1-0.6-0.2-1.3-0.2C94.7,70.7,94.4,70.7,94.3,70.8
	L94.3,70.8z M96.2,71.4c0.4,0.2,0.4,0.6,0.1,0.8c-0.3,0.2-0.9,0.2-1.1,0.1c-0.1-0.1-0.1-0.9,0-1.1C95.3,71.2,95.9,71.2,96.2,71.4z"
	/>
</svg>
