<?xml version="1.0" encoding="utf-8"?>
<!-- Generator: Adobe Illustrator 21.0.0, SVG Export Plug-In . SVG Version: 6.00 Build 0)  -->
<svg version="1.1" id="Layer_1" xmlns="http://www.w3.org/2000/svg" xmlns:xlink="http://www.w3.org/1999/xlink" x="0px" y="0px"
	 viewBox="0 0 150 125" style="enable-background:new 0 0 150 125;" xml:space="preserve">
<path d="M74,43.2c-0.8,0.3-1.7,1.2-2.6,2.6c-0.9,1.3-1,2.1-0.4,2.2c0.3,0,0.6-0.1,1.2-0.6c0.4-0.3,1-0.7,1.1-0.8
	c0.8-0.4,2-1,2.4-1.1c0.2-0.1,0.7-0.3,1.1-0.4c1-0.4,2.3-0.7,2.7-0.7c0.8,0,1.7,0.7,2.2,1.7C82,46.6,82,47,82,56v9.3l-0.3,0.5
	c-0.3,0.4-0.5,0.6-1,0.7c-0.4,0.1-0.8,0.2-1,0.2c-0.4,0-0.6,0.3-0.4,0.5c0.3,0.2,12.6,0.3,12.9,0c0.3-0.2,0.1-0.4-0.9-0.7
	c-0.5-0.1-1-0.3-1.2-0.5c-0.7-0.5-0.7-0.5-0.7-10.3c0-9.8,0-9.6,0.7-10.6c0.8-1,2.1-1.2,3.6-0.4c0.2,0.1,0.4,0.2,0.5,0.2
	c0.2,0,0.7,0.2,2.5,1c0.3,0.2,0.7,0.3,0.8,0.4c0.1,0.1,0.4,0.2,0.6,0.3c0.2,0.1,1,0.6,1.7,1.1c0.7,0.5,1.4,0.9,1.5,0.9
	c0.3,0,0.6-0.3,0.6-0.6c0-0.3-2.2-3.3-3.2-4.3l-0.7-0.7H95c-1.6,0-6.8,0-11.6-0.1C75.3,43,74.6,43,74,43.2L74,43.2z M112.4,43.1
	l-4.8,0.1l0,0.3c-0.1,0.3,0.5,0.7,1.1,0.7c0.3,0,1.3,0.5,2,1c0.5,0.3,1.4,1.5,1.7,2.3c0.4,1,0.3,1.4-1.1,4.2
	c-0.7,1.4-1.4,2.7-1.5,2.8s-0.6,1.1-1,2.1c-0.5,1-1.3,2.6-1.8,3.6c-0.5,1-1.3,2.4-1.7,3.3c-0.9,1.7-1.4,2.4-2.2,2.8
	c-1.1,0.5-1.3,0.6-1.3,0.9c0,0.2,0.2,0.3,3.1,0.3c1.7,0,3.3,0,3.5,0c0.5-0.1,0.4-0.4-0.2-0.7c-1.3-0.7-1.4-1.6-0.5-3.5
	c0.3-0.7,0.8-1.6,1-2.1c0.2-0.5,0.5-1,0.7-1.1c0.2-0.2,1.2-0.2,5.2-0.2c2.7,0,5.1,0,5.4,0.1c0.5,0.1,0.5,0.2,1.7,2.4
	c0.4,0.8,0.9,1.8,1.1,2.2c0.6,1.2,0.4,1.9-0.7,2.4c-0.4,0.2-0.6,0.3-0.6,0.5v0.3l6.6,0c3.7,0,6.7-0.1,6.8-0.1
	c0.2-0.1,0.1-0.4-0.1-0.7c-0.1-0.1-0.5-0.2-0.8-0.2c-1,0-1.8-0.8-4.2-4.7c-0.4-0.6-0.6-0.9-0.8-1.3c-0.1-0.2-0.3-0.5-0.4-0.7
	c-0.2-0.2-0.3-0.5-0.4-0.7s-0.3-0.4-0.4-0.7c-0.1-0.2-1.8-3-3.8-6.3c-2-3.2-3.7-6.1-3.8-6.3c-0.1-0.2-0.3-0.5-0.4-0.7
	s-0.3-0.5-0.4-0.7c-0.2-0.2-0.4-0.6-0.5-0.8c-0.2-0.4-0.7-0.6-1.3-0.7C117.4,43.1,115.1,43.1,112.4,43.1L112.4,43.1z M114.9,50.5
	c0.1,0.1,0.5,0.8,0.9,1.4c0.4,0.7,0.8,1.4,1,1.7c0.2,0.3,0.3,0.6,0.4,0.8c0.1,0.2,0.3,0.5,0.4,0.7c0.2,0.2,0.3,0.5,0.4,0.6
	c0.1,0.1,0.4,0.7,0.7,1.2c0.5,0.8,0.6,1,0.4,1.2c-0.2,0.2-0.8,0.2-4.4,0.2l-4.2,0l0-0.3c-0.1-0.3,0.2-0.9,1.5-3.2
	c0.3-0.5,0.9-1.6,1.3-2.5C114.5,50.1,114.5,50,114.9,50.5z M15.9,43.3c-0.4,0.1-0.3,0.5,0.1,0.5c1.1,0.2,1.7,0.4,1.9,0.6
	c0.7,0.6,0.7,0.4,0.7,11.1v10.1L18.1,66c-0.3,0.2-0.7,0.4-0.8,0.4c-0.4,0-1.4,0.3-1.6,0.5c-0.1,0.1-0.1,0.2,0,0.3
	c0.2,0.2,15.8,0.2,17.5,0.1c1.9-0.2,4.4-0.9,5.6-1.7c0.2-0.2,0.5-0.3,0.6-0.4c0.1,0,0.6-0.4,1-0.7c3.4-2.8,4.9-6.8,4.1-10.7
	c-0.4-2.2-0.7-3.1-1.9-5.2c-0.3-0.6-2.1-2.3-3-2.9c-1-0.7-2.4-1.3-3.3-1.6c-2.4-0.7-1.8-0.7-11.2-0.7C20.1,43.3,16.1,43.3,15.9,43.3
	L15.9,43.3z M32.7,44.9c1,0.4,2,1.7,2.4,3c0.2,0.7,0.2,1.7,0.2,7.9c0,8.1,0.1,7.5-1.2,8.6c-1.4,1.2-2.6,1.6-4.7,1.6
	c-1.6,0-1.6,0-2.2-0.4c-0.3-0.3-0.7-0.7-0.8-1c-0.1-0.4-0.2-2.7-0.2-9.9l0-9.4l0.3-0.3c0.3-0.3,0.4-0.3,2.9-0.3
	C31.6,44.6,32.3,44.7,32.7,44.9z M51.1,43.3c-0.3,0.1-0.2,0.4,0.1,0.6c0.1,0.1,0.6,0.2,1,0.2c0.6,0.1,0.9,0.2,1.2,0.6l0.4,0.4v20.3
	l-0.4,0.5c-0.3,0.4-0.6,0.5-1.2,0.7c-1,0.2-1.2,0.3-1.1,0.6c0.1,0.2,0.7,0.2,6.4,0.2c3.5,0,6.4-0.1,6.5-0.1c0.3-0.2,0-0.4-1-0.7
	c-0.6-0.2-1.1-0.4-1.3-0.7l-0.4-0.4V55.4c0-7.9,0-10.2,0.2-10.4c0.3-0.4,1-0.8,1.7-0.9c0.9-0.1,1.1-0.2,1-0.6c0-0.3-0.3-0.3-6.5-0.3
	C54.2,43.3,51.2,43.3,51.1,43.3L51.1,43.3z M96.6,77.1c-0.6,0.9-1.1,1.7-1.1,1.8c0,0.1-0.4,0.7-0.9,1.4c-0.4,0.7-0.8,1.3-0.8,1.4
	c0,0.4,1,0.3,1.4-0.1c0.2-0.2,0.3-0.4,0.3-0.5c0-0.1,0.1-0.3,0.3-0.4c0.3-0.3,0.5-0.3,2-0.3h1.7l0.4,0.6c0.6,0.9,0.7,0.9,1.3,0.9
	c0.5,0,0.6,0,0.6-0.3c0-0.2-0.1-0.3-0.1-0.3c-0.1,0-0.4-0.5-0.7-1.1c-0.3-0.5-0.7-1.1-0.8-1.3s-0.5-0.8-0.8-1.3
	c-0.3-0.5-0.7-1.2-0.9-1.4c-0.1-0.2-0.3-0.5-0.3-0.6c0-0.1-0.1-0.2-0.2-0.2C97.7,75.4,97.2,76.2,96.6,77.1L96.6,77.1z M98.1,78
	c0.1,0.2,0.3,0.4,0.3,0.5c0,0.1,0.1,0.2,0.2,0.3s0.2,0.3,0.2,0.4c0,0.2-0.1,0.3-1,0.3c-0.8,0-1,0-1-0.2c0-0.2,0.9-1.6,1-1.6
	C97.8,77.7,98,77.8,98.1,78z M73.4,76.4c-0.7,1.3-1.6,3-1.7,3.1c-0.1,0.1-0.5-0.3-0.9-1c-0.2-0.4-0.4-0.8-0.5-1
	c-0.1-0.2-0.3-0.6-0.6-1c-0.4-0.7-0.4-0.7-1-0.7c-0.7,0-0.8,0.1-0.6,0.5c0.1,0.2,0.3,0.6,0.5,1c0.2,0.4,0.5,0.9,0.7,1.2
	c0.2,0.3,0.4,0.8,0.6,1.1c0.2,0.3,0.5,0.9,0.6,1.1c0.2,0.3,0.3,0.6,0.4,0.8c0.2,0.3,0.5,0.7,0.7,0.6c0.1-0.1,0.8-1.5,1.4-2.6
	c0.3-0.7,0.6-1.1,0.7-1c0.1,0,0.6,0.9,1.1,1.8c0.9,1.8,1.3,2.2,1.5,1.7c0.1-0.1,0.5-1,1.1-1.9c0.5-0.9,1-1.8,1.1-1.9
	c0.1-0.1,0.2-0.4,0.4-0.6c0.2-0.2,0.3-0.5,0.4-0.6c0.1-0.1,0.2-0.3,0.3-0.4c0.1-0.1,0.2-0.3,0.1-0.4c-0.1-0.2-1-0.2-1.3,0
	c-0.1,0.1-0.5,0.6-0.8,1.3s-0.8,1.3-0.9,1.5c-0.1,0.2-0.2,0.4-0.3,0.6c-0.3,0.6-0.5,0.4-1.6-1.8c-0.4-0.9-0.9-1.7-1-1.7
	C73.9,75.6,73.6,75.9,73.4,76.4L73.4,76.4z M38.6,75.8c-0.2,0.2-0.1,5.7,0.1,5.9c0.1,0.1,0.8,0.2,2.4,0.2c2.1,0,2.2,0,2.3-0.3
	c0-0.2,0-0.3,0-0.4c-0.1-0.1-0.7-0.1-1.6-0.1c-1.4,0-1.5,0-1.7-0.3c-0.2-0.4-0.2-1.5,0-1.7c0.1-0.1,0.8-0.2,1.7-0.2
	c1.4,0,1.5-0.1,1.5-0.3c0.1-0.5-0.4-0.6-1.8-0.5c-1.1,0.1-1.2,0-1.3-0.2c-0.2-0.4-0.2-0.9,0-1.1c0.1-0.1,0.9-0.2,1.7-0.2
	c1.5,0,1.5,0,1.5-0.4v-0.3l-2.3,0C39.7,75.7,38.6,75.8,38.6,75.8L38.6,75.8z M47.7,75.8c0,0.1,1.4,2,1.9,2.5c0.5,0.5,0.7,1,0.7,2.2
	l0.1,1.3l0.6,0c0.7,0.1,0.8-0.1,0.8-1.7c0-1,0.1-1.4,0.7-1.9c0.3-0.3,1.8-2.3,1.8-2.4c0-0.1-0.3-0.2-0.7-0.2c-0.7,0-0.7,0-1.2,0.7
	c-1.1,1.4-1.2,1.6-1.5,1.4c-0.1-0.1-0.5-0.6-1-1.1c-0.7-1-0.8-1-1.5-1C48,75.7,47.7,75.8,47.7,75.8L47.7,75.8z M58.9,78.7l0,3.1
	l2.3,0c1.9,0,2.3,0,2.4-0.2c0.2-0.5,0-0.6-1.6-0.6c-1,0-1.6-0.1-1.7-0.2c-0.3-0.3-0.2-1.7,0.1-1.8c0.1,0,0.8-0.1,1.6-0.1
	c1.2,0,1.4,0,1.5-0.2c0-0.1,0-0.3-0.1-0.5C63.3,78.1,63.1,78,62,78c-1.6,0-1.8-0.1-1.8-0.8l0-0.6l1.7-0.1c1.7-0.1,1.7-0.1,1.7-0.4
	v-0.3l-2.4,0l-2.3,0L58.9,78.7z M84.5,75.9c-0.1,0.3-0.1,5.2,0,5.6c0.1,0.3,0.1,0.3,2.4,0.3l2.3,0l0-0.4l0-0.4l-1.7,0l-1.7,0v-2
	l1.6-0.1c1.4-0.1,1.6-0.1,1.7-0.3c0.1-0.5-0.2-0.6-1.7-0.5c-1.5,0-1.5,0-1.6-0.3c-0.1-0.2-0.1-0.5,0-0.7l0-0.4l1.7,0l1.6,0v-0.8
	h-2.3C84.9,75.7,84.5,75.7,84.5,75.9L84.5,75.9z M106.4,75.9c0,0.1,0,1.5,0,3l0,2.9l0.6,0c0.6,0,0.6,0,0.7-0.4
	c0.1-0.3,0.1-0.8,0-1.2c0-0.4,0-0.7,0.1-0.7c0.1,0,0.7,0.5,1.3,1.1c1.1,1.2,1.2,1.2,1.8,1.2c0.4,0,0.7-0.1,0.7-0.2
	c0-0.1-0.5-0.7-1.1-1.2c-1-1-1.2-1.4-0.6-1.4c0.3,0,0.9-0.5,1.1-0.9c0.4-0.8-0.1-1.7-1-2.1c-0.5-0.2-0.9-0.3-2.1-0.3
	C106.9,75.7,106.5,75.8,106.4,75.9L106.4,75.9z M109.4,76.8c0.6,0.3,0.6,1,0.1,1.3c-0.5,0.3-1.5,0.4-1.7,0.2c-0.1-0.2-0.1-1.5,0-1.7
	C108,76.5,108.9,76.5,109.4,76.8z"/>
</svg>
