<?xml version="1.0" encoding="utf-8"?>
<!-- Generator: Adobe Illustrator 21.0.0, SVG Export Plug-In . SVG Version: 6.00 Build 0)  -->
<svg version="1.1" id="Layer_1" xmlns="http://www.w3.org/2000/svg" xmlns:xlink="http://www.w3.org/1999/xlink" x="0px" y="0px"
	 viewBox="0 0 150 125" style="enable-background:new 0 0 150 125;" xml:space="preserve">
<style type="text/css">
	.st0{fill:#231F20;}
</style>
<g>
	<path class="st0" d="M19.6,59.1h-8.1V68h8.1c1.1,0,1.8-0.2,2.3-0.6c0.4-0.4,0.6-1.1,0.6-2.2v-3.3c0-1.1-0.2-1.8-0.6-2.2
		C21.5,59.3,20.8,59.1,19.6,59.1L19.6,59.1z M47.8,61.6h1.5v6.5h1.8c0.8,0,1.3-0.1,1.8-0.2c1.1-0.3,1.3-1.8,1.3-2c0-0.5,0-0.9,0-1.1
		v-2.8c0-0.7,0-1.2-0.1-1.5c-0.1-0.3-0.2-0.5-0.3-0.8c-0.2-0.3-0.5-0.5-0.9-0.6c-0.4-0.1-1-0.2-1.7-0.2h-5.2c-0.8,0-1.3,0.1-1.7,0.2
		c-0.4,0.1-0.7,0.3-0.9,0.6c-0.2,0.2-0.3,0.4-0.3,0.7c-0.1,0.3-0.1,0.7-0.1,1.3v0.4v3c0,0.6,0,1,0.1,1.3c0.1,0.3,0.2,0.5,0.3,0.7
		c0.2,0.3,0.5,0.5,0.9,0.6c0.4,0.1,1.1,0.2,2,0.2h1.6V61.6L47.8,61.6z M18.7,57.8c1.1,0,2,0.1,2.5,0.2c0.6,0.1,1,0.3,1.4,0.6
		c0.5,0.3,0.8,0.8,1,1.3c0.2,0.5,0.3,1.2,0.3,2.1v3.1c0,0.9-0.1,1.6-0.3,2.1c-0.2,0.5-0.6,1-1,1.3c-0.4,0.3-0.8,0.5-1.4,0.6
		c-0.6,0.1-1.4,0.2-2.5,0.2h-8.6V57.8H18.7L18.7,57.8z M26.2,65.6h1.4c0,0.1,0,0.1,0,0.2c0,0.2,0,0.4,0,0.5c0,0.7,0.2,1.2,0.7,1.5
		c0.5,0.3,1.4,0.4,2.6,0.4h3c1.6,0,2.6-0.2,3-0.5c0.5-0.3,0.7-0.9,0.7-1.8c0-0.7-0.2-1.2-0.5-1.5c-0.3-0.3-1-0.4-2-0.4h-4.8
		c-1.5,0-2.6-0.2-3.2-0.7c-0.6-0.5-0.9-1.3-0.9-2.4c0-1.2,0.4-2,1.1-2.5c0.7-0.5,2-0.7,3.9-0.7h2.6c1.4,0,2.4,0.1,3,0.2
		c0.6,0.1,1,0.3,1.3,0.6c0.3,0.2,0.5,0.5,0.6,0.9c0.1,0.4,0.2,0.8,0.2,1.4V61h-1.4v-0.2c0-0.8-0.2-1.3-0.5-1.5
		c-0.4-0.3-1.1-0.4-2.3-0.4h-3.9c-1.2,0-2,0.1-2.4,0.4c-0.4,0.3-0.6,0.8-0.6,1.5c0,0.7,0.2,1.2,0.6,1.5c0.4,0.3,1.2,0.4,2.5,0.4h4.1
		c0.9,0,1.6,0,2,0.1c0.5,0.1,0.8,0.2,1.1,0.4c0.4,0.2,0.7,0.6,0.8,1c0.2,0.4,0.2,1,0.2,1.8c0,1.3-0.3,2.2-1,2.7
		c-0.7,0.5-1.9,0.8-3.7,0.8h-3.9c-1.5,0-2.6-0.2-3.3-0.7c-0.7-0.5-1-1.2-1-2.3c0-0.1,0-0.4,0-0.7C26.2,65.6,26.2,65.6,26.2,65.6
		L26.2,65.6z M46.6,69.4c-1.2,0-2.1-0.1-2.7-0.2c-0.6-0.1-1.1-0.3-1.4-0.6c-0.4-0.3-0.7-0.7-0.9-1.3c-0.2-0.5-0.3-1.2-0.3-2.1v-3.1
		c0-0.9,0.1-1.7,0.3-2.3c0.2-0.6,0.5-1,0.9-1.3c0.4-0.3,0.8-0.5,1.4-0.6c0.6-0.1,1.5-0.2,2.7-0.2h3.8c1.2,0,2.1,0.1,2.7,0.2
		c0.6,0.1,1.1,0.3,1.4,0.6c0.4,0.3,0.7,0.7,0.9,1.3c0.2,0.6,0.3,1.3,0.3,2.2v3.1c0,1.2-0.1,1.8-0.7,3c-0.3,0.5-0.8,0.8-1.5,1
		c-0.6,0.2-1.7,0.3-3.2,0.3H46.6L46.6,69.4z M63.1,69.4c-1.1,0-2-0.1-2.5-0.2c-0.5-0.1-1-0.3-1.3-0.6c-0.4-0.3-0.6-0.7-0.8-1.3
		c-0.2-0.5-0.3-1.2-0.3-2.1v-7.4h1.5v7.4c0,0.6,0,1.1,0.1,1.3c0.1,0.3,0.2,0.5,0.3,0.7c0.2,0.3,0.5,0.5,0.9,0.6
		c0.4,0.1,0.9,0.2,1.6,0.2h4.7c0.7,0,1.2-0.1,1.6-0.2c0.4-0.1,0.7-0.3,0.9-0.6c0.1-0.2,0.2-0.4,0.3-0.7c0.1-0.3,0.1-0.7,0.1-1.3
		v-0.4v-7h1.5v7.3c0,0.9-0.1,1.6-0.3,2.1c-0.2,0.6-0.4,1-0.8,1.3c-0.3,0.3-0.8,0.5-1.3,0.6c-0.5,0.1-1.4,0.2-2.5,0.2H63.1L63.1,69.4
		z M76.5,65.6h7.7L80.4,59L76.5,65.6L76.5,65.6z M72.7,69.3l6.7-11.5h1.9L88,69.3h-1.5L85,66.8h-9.1l-1.5,2.5H72.7L72.7,69.3z
		 M98,59.1h-7.2v4.4H98c1,0,1.7-0.1,2-0.4c0.3-0.3,0.5-0.8,0.5-1.5V61c0-0.8-0.2-1.3-0.5-1.5C99.7,59.2,99,59.1,98,59.1L98,59.1z
		 M90.8,69.3h-1.4V57.8h8.2c1.8,0,3,0.2,3.6,0.6c0.6,0.4,0.9,1.1,0.9,2.1v1.4c0,0.7-0.1,1.2-0.4,1.6c-0.3,0.3-0.8,0.6-1.6,0.7
		c0.6,0.1,1.1,0.3,1.4,0.7c0.3,0.4,0.5,0.9,0.5,1.6v2.8h-1.4v-2.6c0-0.7-0.2-1.3-0.5-1.5c-0.3-0.3-1.1-0.4-2.3-0.4h-7V69.3
		L90.8,69.3z M104.6,69.3V57.8h11.3v1.3H106v3.6h9.5V64H106v4h9.9v1.3H104.6L104.6,69.3z M127.5,59.1h-8.1V68h8.1
		c1.1,0,1.8-0.2,2.3-0.6c0.4-0.4,0.6-1.1,0.6-2.2v-3.3c0-1.1-0.2-1.8-0.6-2.2C129.4,59.3,128.6,59.1,127.5,59.1L127.5,59.1z
		 M126.6,57.8c1.1,0,2,0.1,2.5,0.2c0.6,0.1,1,0.3,1.4,0.6c0.5,0.3,0.8,0.8,1,1.3c0.2,0.5,0.3,1.2,0.3,2.1v3.1c0,0.9-0.1,1.6-0.3,2.1
		c-0.2,0.5-0.6,1-1,1.3c-0.4,0.3-0.8,0.5-1.4,0.6c-0.6,0.1-1.4,0.2-2.5,0.2H118V57.8H126.6L126.6,57.8z M139.9,61.4h-6.4v-1.2
		c0-0.5,0.1-0.9,0.4-1.2c0.3-0.2,0.8-0.4,1.6-0.4l2.5-0.2c0.4,0,0.7-0.1,0.8-0.3c0.2-0.1,0.2-0.4,0.2-0.7c0-0.3,0-0.5-0.1-0.7
		c0-0.1-0.1-0.2-0.2-0.3c-0.1-0.1-0.3-0.2-0.6-0.3c-0.3-0.1-0.6-0.1-1.1-0.1H136c-0.7,0-1.1,0.1-1.4,0.3c-0.2,0.2-0.4,0.5-0.4,1v0.4
		h-0.7v-0.7c0-0.5,0.2-0.9,0.5-1.1c0.3-0.2,0.9-0.3,1.7-0.3h1.7c0.9,0,1.6,0.1,1.9,0.4c0.3,0.3,0.5,0.7,0.5,1.5c0,0.6-0.1,1-0.4,1.2
		c-0.3,0.2-0.7,0.4-1.4,0.4l-2.4,0.2c-0.4,0-0.7,0.1-0.8,0.1c-0.1,0.1-0.2,0.1-0.3,0.2c0,0.1-0.1,0.2-0.1,0.3c0,0.1,0,0.3,0,0.5
		c0,0,0,0.1,0,0.1c0,0.1,0,0.1,0,0.1h5.6V61.4L139.9,61.4z"/>
</g>
</svg>
