<?xml version="1.0" encoding="utf-8"?>
<!-- Generator: Adobe Illustrator 21.0.0, SVG Export Plug-In . SVG Version: 6.00 Build 0)  -->
<svg version="1.1" id="Layer_1" xmlns="http://www.w3.org/2000/svg" xmlns:xlink="http://www.w3.org/1999/xlink" x="0px" y="0px"
	 viewBox="0 0 150 125" style="enable-background:new 0 0 150 125;" xml:space="preserve">
<style type="text/css">
	.st0{fill:#231F20;}
</style>
<g>
	<path class="st0" d="M27.7,59.6h-6.9v7.6h6.9c0.9,0,1.5-0.2,2-0.5c0.3-0.3,0.5-0.9,0.5-1.9v-2.8c0-0.9-0.2-1.5-0.5-1.9
		S28.7,59.6,27.7,59.6L27.7,59.6z M51.8,61.7H53v5.5h1.5c0.7,0,1.1-0.1,1.5-0.2c0.9-0.3,1.1-1.5,1.1-1.7c0-0.4,0-0.8,0-0.9V62
		c0-0.6,0-1-0.1-1.3c-0.1-0.3-0.2-0.4-0.3-0.7c-0.2-0.3-0.4-0.4-0.8-0.5c-0.3-0.1-0.9-0.2-1.4-0.2h-4.4c-0.7,0-1.1,0.1-1.4,0.2
		s-0.6,0.3-0.8,0.5c-0.2,0.2-0.3,0.3-0.3,0.6c-0.1,0.3-0.1,0.6-0.1,1.1v0.3v2.6c0,0.5,0,0.9,0.1,1.1c0.1,0.3,0.2,0.4,0.3,0.6
		c0.2,0.3,0.4,0.4,0.8,0.5s0.9,0.2,1.7,0.2h1.4L51.8,61.7L51.8,61.7z M27,58.5c0.9,0,1.7,0.1,2.1,0.2c0.5,0.1,0.9,0.3,1.2,0.5
		c0.4,0.3,0.7,0.7,0.9,1.1c0.2,0.4,0.3,1,0.3,1.8v2.6c0,0.8-0.1,1.4-0.3,1.8c-0.2,0.4-0.5,0.9-0.9,1.1c-0.3,0.3-0.7,0.4-1.2,0.5
		c-0.5,0.1-1.2,0.2-2.1,0.2h-7.3v-9.8H27L27,58.5z M33.4,65.1h1.2c0,0.1,0,0.1,0,0.2c0,0.2,0,0.3,0,0.4c0,0.6,0.2,1,0.6,1.3
		s1.2,0.3,2.2,0.3h2.6c1.4,0,2.2-0.2,2.6-0.4c0.4-0.3,0.6-0.8,0.6-1.5c0-0.6-0.2-1-0.4-1.3c-0.3-0.3-0.9-0.3-1.7-0.3h-4.1
		c-1.3,0-2.2-0.2-2.7-0.6c-0.5-0.4-0.8-1.1-0.8-2c0-1,0.3-1.7,0.9-2.1s1.7-0.6,3.3-0.6h2.2c1.2,0,2,0.1,2.6,0.2
		c0.5,0.1,0.9,0.3,1.1,0.5c0.3,0.2,0.4,0.4,0.5,0.8c0.1,0.3,0.2,0.7,0.2,1.2v0.2H43V61c0-0.7-0.2-1.1-0.4-1.3
		c-0.3-0.3-0.9-0.3-2-0.3h-3.3c-1,0-1.7,0.1-2,0.3c-0.3,0.3-0.5,0.7-0.5,1.3s0.2,1,0.5,1.3s1,0.3,2.1,0.3h3.5c0.8,0,1.4,0,1.7,0.1
		c0.4,0.1,0.7,0.2,0.9,0.3c0.3,0.2,0.6,0.5,0.7,0.9c0.2,0.3,0.2,0.9,0.2,1.5c0,1.1-0.3,1.9-0.9,2.3c-0.6,0.4-1.6,0.7-3.2,0.7H37
		c-1.3,0-2.2-0.2-2.8-0.6c-0.6-0.4-0.9-1-0.9-2c0-0.1,0-0.3,0-0.6C33.4,65.1,33.4,65.1,33.4,65.1L33.4,65.1z M50.7,68.3
		c-1,0-1.8-0.1-2.3-0.2c-0.5-0.1-0.9-0.3-1.2-0.5c-0.3-0.3-0.6-0.6-0.8-1.1c-0.2-0.4-0.3-1-0.3-1.8v-2.6c0-0.8,0.1-1.4,0.3-2
		c0.2-0.5,0.4-0.9,0.8-1.1c0.3-0.3,0.7-0.4,1.2-0.5c0.5-0.1,1.3-0.2,2.3-0.2H54c1,0,1.8,0.1,2.3,0.2c0.5,0.1,0.9,0.3,1.2,0.5
		c0.3,0.3,0.6,0.6,0.8,1.1c0.2,0.5,0.3,1.1,0.3,1.9v2.6c0,1-0.1,1.5-0.6,2.6c-0.3,0.4-0.7,0.7-1.3,0.9c-0.5,0.2-1.4,0.3-2.7,0.3
		L50.7,68.3L50.7,68.3z M64.8,68.3c-0.9,0-1.7-0.1-2.1-0.2c-0.4-0.1-0.9-0.3-1.1-0.5c-0.3-0.3-0.5-0.6-0.7-1.1
		c-0.2-0.4-0.3-1-0.3-1.8v-6.3h1.3v6.3c0,0.5,0,0.9,0.1,1.1c0.1,0.3,0.2,0.4,0.3,0.6c0.2,0.3,0.4,0.4,0.8,0.5
		c0.3,0.1,0.8,0.2,1.4,0.2h4c0.6,0,1-0.1,1.4-0.2c0.3-0.1,0.6-0.3,0.8-0.5c0.1-0.2,0.2-0.3,0.3-0.6c0.1-0.3,0.1-0.6,0.1-1.1v-0.3v-6
		h1.3v6.2c0,0.8-0.1,1.4-0.3,1.8c-0.2,0.5-0.3,0.9-0.7,1.1c-0.3,0.3-0.7,0.4-1.1,0.5c-0.4,0.1-1.2,0.2-2.1,0.2L64.8,68.3L64.8,68.3z
		 M76.2,65.1h6.6l-3.2-5.6L76.2,65.1L76.2,65.1z M73,68.3l5.7-9.8h1.6l5.7,9.8h-1.3l-1.3-2.1h-7.8l-1.3,2.1H73L73,68.3z M94.6,59.6
		h-6.1v3.8h6.1c0.9,0,1.4-0.1,1.7-0.3s0.4-0.7,0.4-1.3v-0.5c0-0.7-0.2-1.1-0.4-1.3C96,59.6,95.4,59.6,94.6,59.6L94.6,59.6z
		 M88.4,68.3h-1.2v-9.8h7c1.5,0,2.6,0.2,3.1,0.5s0.8,0.9,0.8,1.8v1.2c0,0.6-0.1,1-0.3,1.4c-0.3,0.3-0.7,0.5-1.4,0.6
		c0.5,0.1,0.9,0.3,1.2,0.6c0.3,0.3,0.4,0.8,0.4,1.4v2.4h-1.2V66c0-0.6-0.2-1.1-0.4-1.3c-0.3-0.3-0.9-0.3-2-0.3h-6L88.4,68.3
		L88.4,68.3z M100.2,68.3v-9.8h9.6v1.1h-8.4v3.1h8.1v1.1h-8.1v3.4h8.4v1.1H100.2L100.2,68.3z M119.7,59.6h-6.9v7.6h6.9
		c0.9,0,1.5-0.2,2-0.5c0.3-0.3,0.5-0.9,0.5-1.9v-2.8c0-0.9-0.2-1.5-0.5-1.9C121.3,59.7,120.7,59.6,119.7,59.6L119.7,59.6z M119,58.5
		c0.9,0,1.7,0.1,2.1,0.2c0.5,0.1,0.9,0.3,1.2,0.5c0.4,0.3,0.7,0.7,0.9,1.1c0.2,0.4,0.3,1,0.3,1.8v2.6c0,0.8-0.1,1.4-0.3,1.8
		c-0.2,0.4-0.5,0.9-0.9,1.1s-0.7,0.4-1.2,0.5c-0.5,0.1-1.2,0.2-2.1,0.2h-7.3v-9.8H119L119,58.5z M130.3,61.5h-5.5v-1
		c0-0.4,0.1-0.8,0.3-1c0.3-0.2,0.7-0.3,1.4-0.3l2.1-0.2c0.3,0,0.6-0.1,0.7-0.3c0.2-0.1,0.2-0.3,0.2-0.6c0-0.3,0-0.4-0.1-0.6
		c0-0.1-0.1-0.2-0.2-0.3c-0.1-0.1-0.3-0.2-0.5-0.3c-0.3-0.1-0.5-0.1-0.9-0.1H127c-0.6,0-0.9,0.1-1.2,0.3c-0.2,0.2-0.3,0.4-0.3,0.9
		v0.3h-0.6v-0.6c0-0.4,0.2-0.8,0.4-0.9s0.8-0.3,1.4-0.3h1.4c0.8,0,1.4,0.1,1.6,0.3c0.3,0.3,0.4,0.6,0.4,1.3c0,0.5-0.1,0.9-0.3,1
		s-0.6,0.3-1.2,0.3l-2,0.2c-0.3,0-0.6,0.1-0.7,0.1c-0.1,0.1-0.2,0.1-0.3,0.2c0,0.1-0.1,0.2-0.1,0.3c0,0.1,0,0.3,0,0.4v0.1
		c0,0.1,0,0.1,0,0.1h4.8L130.3,61.5L130.3,61.5z"/>
</g>
</svg>
