<?xml version="1.0" encoding="utf-8"?>
<!-- Generator: Adobe Illustrator 21.0.0, SVG Export Plug-In . SVG Version: 6.00 Build 0)  -->
<svg version="1.1" id="Layer_1" xmlns="http://www.w3.org/2000/svg" xmlns:xlink="http://www.w3.org/1999/xlink" x="0px" y="0px"
	 viewBox="0 0 150 125" style="enable-background:new 0 0 150 125;" xml:space="preserve">
<style type="text/css">
	.st0{fill:#231F20;}
</style>
<g>
	<path class="st0" d="M15.3,68.9v-0.5h1.1V56.6h-1.1v-0.5h9.4l0.2,3.3h-0.6c-0.3-1-0.8-1.8-1.3-2.1c-0.5-0.4-1.4-0.6-2.6-0.6h-0.8
		V62c0.8,0,1.3-0.2,1.7-0.5c0.3-0.3,0.5-0.9,0.5-1.7h0.5V65h-0.5c0-0.9-0.2-1.6-0.6-2c-0.3-0.4-0.9-0.5-1.7-0.6v5.9h0.8
		c1.3,0,2.3-0.3,2.9-0.8c0.6-0.6,1-1.5,1.2-2.8H25l-0.2,4.2L15.3,68.9L15.3,68.9z M26.3,68.9v-0.5h1.1V56.6h-1.1v-0.5h4.6L33,64
		l2.5-7.9h4.3v0.5h-1v11.7h1v0.5h-5.2v-0.5h1.2V57.5l-3.6,11.4h-0.8l-3.3-11.7v11.2h1.1v0.5H26.3L26.3,68.9z M45.8,68.4h1.1v0.5
		h-5.4v-0.5h1.1V56.6h-1.1v-0.5h5.4v0.5h-1.1V68.4L45.8,68.4z M48.3,68.9v-0.5h1.1V56.6h-1.1v-0.5h5.6v0.5h-1.3v11.7h1.1
		c1.1,0,1.9-0.3,2.5-0.9s0.9-1.5,1.1-2.9h0.6v4.3h-9.6V68.9z M63.4,68.4h1.1v0.5h-5.4v-0.5h1.1V56.6h-1.1v-0.5h5.4v0.5h-1.1V68.4
		L63.4,68.4z M73.9,64.6v-4.2c0-1.4-0.2-2.4-0.5-3.1c-0.3-0.6-0.9-0.9-1.6-0.9c-0.8,0-1.3,0.3-1.6,0.9c-0.3,0.6-0.5,1.7-0.5,3.1v4.2
		c0,1.4,0.2,2.4,0.5,3.1c0.3,0.6,0.9,1,1.6,1c0.8,0,1.3-0.3,1.6-1S73.9,66,73.9,64.6L73.9,64.6z M65.9,62.5c0-1.1,0.2-2,0.5-2.8
		s0.9-1.6,1.6-2.3c0.5-0.5,1.1-0.9,1.7-1.1c0.6-0.3,1.3-0.4,1.9-0.4c0.7,0,1.3,0.1,2,0.4c0.6,0.3,1.2,0.6,1.7,1.1
		c0.7,0.7,1.2,1.4,1.6,2.3c0.3,0.8,0.5,1.8,0.5,2.8c0,1.1-0.2,2-0.5,2.8s-0.9,1.6-1.6,2.3c-0.5,0.5-1.1,0.9-1.7,1.1
		c-0.6,0.3-1.3,0.4-2,0.4c-0.6,0-1.3-0.1-1.9-0.4s-1.2-0.7-1.8-1.2c-0.7-0.7-1.2-1.4-1.6-2.3C66.1,64.5,65.9,63.6,65.9,62.5
		L65.9,62.5z M87.9,56.6v5.7c0.1,0,0.1,0,0.2,0s0.2,0,0.3,0c0.9,0,1.6-0.2,2-0.7c0.4-0.4,0.6-1.2,0.6-2.2s-0.2-1.8-0.6-2.2
		s-1.1-0.7-2-0.7c-0.1,0-0.2,0-0.3,0C88,56.6,88,56.6,87.9,56.6L87.9,56.6z M83.6,68.9v-0.5h1.1V56.6h-1.1v-0.5h5.1
		c1.9,0,3.4,0.3,4.3,0.8c1,0.5,1.4,1.3,1.4,2.4c0,1.1-0.5,2-1.5,2.6s-2.4,0.9-4.2,0.9c-0.2,0-0.4,0-0.5,0s-0.2,0-0.3,0v5.5h1.3v0.5
		L83.6,68.9L83.6,68.9z M96.4,56.6h-1v-0.5h5.4v0.5h-1.2v8.7c0,1.3,0.2,2.1,0.5,2.5s0.9,0.6,1.7,0.6c0.9,0,1.5-0.3,1.9-0.8
		s0.6-1.4,0.6-2.6v-8.5h-1V56h3v0.5H105v8c0,1.7-0.3,2.9-1,3.6c-0.6,0.7-1.8,1-3.4,1c-0.7,0-1.4-0.1-2-0.3c-0.6-0.2-1.1-0.5-1.4-0.8
		s-0.5-0.7-0.7-1.2c-0.1-0.4-0.2-1.1-0.2-2.1L96.4,56.6L96.4,56.6z M116.2,69l-0.6-0.7c-0.4,0.3-0.9,0.4-1.3,0.6
		c-0.4,0.1-0.9,0.2-1.3,0.2c-1.7,0-3-0.6-4.1-1.8c-1-1.2-1.5-2.8-1.5-4.7c0-0.9,0.1-1.8,0.4-2.5c0.2-0.8,0.6-1.5,1.1-2.1
		c0.6-0.7,1.2-1.2,1.9-1.6c0.7-0.4,1.4-0.6,2.2-0.6c0.5,0,0.9,0.1,1.4,0.2c0.4,0.2,0.9,0.4,1.4,0.8l0.6-0.9h0.4v3.6h-0.5
		c-0.2-1-0.6-1.8-1.1-2.4c-0.5-0.6-1.1-0.8-1.9-0.8c-0.7,0-1.3,0.3-1.6,0.8c-0.3,0.5-0.5,1.4-0.5,2.6v5.1c0,1.4,0.2,2.3,0.5,2.9
		c0.3,0.5,0.9,0.8,1.6,0.8c0.8,0,1.5-0.3,2-0.9s0.9-1.4,1-2.5h0.6V69H116.2L116.2,69z M127.1,69l-0.6-0.7c-0.4,0.3-0.9,0.4-1.3,0.6
		c-0.4,0.1-0.9,0.2-1.3,0.2c-1.7,0-3-0.6-4.1-1.8c-1-1.2-1.5-2.8-1.5-4.7c0-0.9,0.1-1.8,0.4-2.5c0.2-0.8,0.6-1.5,1.1-2.1
		c0.6-0.7,1.2-1.2,1.9-1.6c0.7-0.4,1.4-0.6,2.2-0.6c0.5,0,0.9,0.1,1.4,0.2c0.4,0.2,0.9,0.4,1.4,0.8l0.6-0.9h0.4v3.6H127
		c-0.2-1-0.6-1.8-1.1-2.4c-0.5-0.6-1.1-0.8-1.9-0.8c-0.7,0-1.3,0.3-1.6,0.8c-0.3,0.5-0.5,1.4-0.5,2.6v5.1c0,1.4,0.2,2.3,0.5,2.9
		c0.3,0.5,0.9,0.8,1.6,0.8c0.8,0,1.5-0.3,2-0.9s0.9-1.4,1-2.5h0.6V69H127.1L127.1,69z M133.6,68.4h1.1v0.5h-5.4v-0.5h1.1V56.6h-1.1
		v-0.5h5.4v0.5h-1.1V68.4L133.6,68.4z"/>
</g>
</svg>
