<?xml version="1.0" encoding="utf-8"?>
<!-- Generator: Adobe Illustrator 21.0.0, SVG Export Plug-In . SVG Version: 6.00 Build 0)  -->
<svg version="1.1" id="Layer_1" xmlns="http://www.w3.org/2000/svg" xmlns:xlink="http://www.w3.org/1999/xlink" x="0px" y="0px"
	 viewBox="0 0 150 125" style="enable-background:new 0 0 150 125;" xml:space="preserve">
<style type="text/css">
	.st0{clip-path:url(#SVGID_2_);fill:#231F20;}
	.st1{fill:#231F20;}
	.st2{clip-path:url(#SVGID_4_);fill:#231F20;}
	.st3{clip-path:url(#SVGID_6_);fill:#231F20;}
</style>
<g>
	<g>
		<defs>
			<polyline id="SVGID_1_" points="9.1,54.5 9.1,70.5 140.9,70.5 140.9,54.5 			"/>
		</defs>
		<clipPath id="SVGID_2_">
			<use xlink:href="#SVGID_1_"  style="overflow:visible;"/>
		</clipPath>
		<path class="st0" d="M11.6,55.6c0-0.1-0.1-0.1-0.1-0.2c-0.3-0.1-0.7-0.1-1-0.2c-0.4-0.1-0.9-0.1-1.3-0.2c0,0-0.1,0-0.1-0.1
			c0-0.1-0.1-0.3,0-0.4c0.1-0.1,0.3-0.1,0.4-0.1c1.1,0,2.2,0,3.3,0c0.3,0,0.6,0,0.9,0c0.5,0,0.8,0,1.3,0c0.1,0,0.6,0,0.7,0
			c0.6,0,1.1,0,1.6,0h2.2c0.3,0,0.7,0,1,0.1c0,0,0.1,0.1,0.1,0.1c0,0.5,0,1,0,1.5v2.7c0,0.1,0,0.3-0.1,0.4c-0.1,0-0.2,0-0.2,0
			c-0.1,0-0.1-0.1-0.1-0.2c-0.1-0.5-0.2-1-0.4-1.4c-0.1-0.3-0.3-0.6-0.4-0.9l0,0l0,0c-0.3-0.7-1-1.2-1.7-1.2c-0.4,0-0.8-0.1-1.3,0
			c0,0-0.1,0-0.1,0l-0.1,0c-0.6,0-1.2,0-1.8,0c-0.1,0-0.4,0-0.4,0.2c0,0.4,0,0.9,0,1.3c0,0.9,0,1.8,0,2.7c0,0.1,0,0.3,0.1,0.4
			c0.1,0.1,0.3,0.1,0.4,0.1c0.8,0.1,1.6,0,2-0.7c0.5-0.7,0.7-1.5,0.7-2.3c0-0.1,0-0.2,0.1-0.2c0.1,0,0.2,0,0.3,0l0,0.1l0,1.1l0,2.8
			c0,0.9,0,1.9,0,2.8c0,0.1,0,0.2-0.1,0.2c-0.1,0-0.3,0.1-0.4-0.1C17,63.4,17,63.1,17,62.9c-0.1-0.6-0.3-1.2-0.7-1.7
			c-0.3-0.4-0.7-0.5-1.1-0.6c-0.4,0-0.7,0-1.1,0c-0.1,0-0.2,0-0.2,0.1c0,0.8,0,2.5,0,2.5s0,1.6,0,2.4c0,0.1,0.1,0.2,0.2,0.2
			c1.2,0,2.5,0,3.7-0.1c1.5-0.3,2.1-1.9,2.6-3.2c0.1-0.4,0.2-0.8,0.3-1.2c0,0,0-0.1,0.1-0.1c0.1,0,0.2-0.1,0.3,0
			c0.1,0.3,0.1,0.5,0.1,0.9c0,1.2,0,2.2,0,3.4v0.8c0,0.1,0,0.2-0.1,0.2c-0.3,0.1-0.6,0-0.9,0c-0.9,0-2.8,0-2.8,0h-1.9l-2.1,0
			c-0.3,0-0.6,0-0.9,0l-2.3,0c-0.3,0-0.6,0.1-0.8-0.1c0-0.2-0.1-0.4,0.1-0.5c0.7-0.1,1.4-0.1,2-0.3c0.2-0.1,0.2-0.4,0.2-0.6
			L11.6,55.6"/>
	</g>
	<path class="st1" d="M22,66.6c-0.1,0-0.1,0-0.1-0.1c0-0.1-0.1-0.3,0.1-0.4c0.4-0.1,0.8-0.1,1.1-0.2c0.2,0,0.4-0.1,0.4-0.2
		c0-0.5,0-0.9,0-1.4v-1l0-2.9c-0.1-0.3,0.1-0.6-0.2-0.7c-0.4-0.1-0.8-0.1-1.2-0.2c-0.1,0-0.1,0-0.2-0.1c0-0.1,0-0.2,0-0.3
		c0.1-0.1,0.2-0.1,0.3-0.1c0.9,0,1.8-0.1,2.7-0.2c0.1,0,0.1,0,0.2,0.1c0.1,0.4,0,0.8,0.1,1.2c0,0,0.1,0,0.1,0
		c0.2-0.2,0.3-0.5,0.5-0.7c0,0,0,0,0.1,0c0-0.1,0.1-0.2,0.2-0.3c0.4-0.3,1.1-0.4,1.6-0.3c0.1,0.1,0.3,0.1,0.4,0.2
		c0.3,0.2,0.5,0.5,0.5,0.8c0.1,0.5-0.1,1-0.5,1.3c-0.2,0.1-0.5,0.1-0.8,0C27.2,61,27,60.9,27,60.7c-0.2-0.4-0.1-1,0.2-1.3
		c0,0,0-0.1,0-0.1c-0.2-0.1-0.3,0-0.5,0.1c-0.5,0.3-0.7,0.8-0.9,1.3c-0.3,0.7-0.5,1.5-0.5,2.3c0,0.9-0.1,1.7-0.1,2.6
		c0,0.3,0.5,0.3,0.8,0.3c0.3,0,0.5,0.1,0.7,0.1c0.2,0,0.2,0.1,0.3,0.1c0.1,0.1,0.1,0.3,0,0.4c0,0.1-0.1,0.1-0.2,0.1
		C24.5,66.6,22.8,66.6,22,66.6"/>
	<path class="st1" d="M41.3,64c0,0.5,0,1.2,0,1.7c0,0.1,0.1,0.1,0.1,0.2c0.4,0.2,0.9,0.1,1.3,0.2c0.1,0.1,0.1,0.3,0,0.4
		c0,0.2-0.3,0.1-0.5,0.1h-2.7c0,0-0.8,0-1.2,0c-0.1,0-0.1-0.1-0.2-0.1c0-0.1-0.1-0.3,0-0.4c0.3-0.1,0.7-0.1,1-0.2
		c0.1-0.1,0.4-0.1,0.5-0.3c0-0.6,0-1,0-1.6v-1.2l0-2.5c0-0.4-0.2-0.8-0.6-1c-0.3-0.2-0.8-0.1-1.1,0.1c-0.5,0.4-0.7,1-1,1.6
		c-0.2,0.6-0.3,1.3-0.3,2.1l0,2.5c0,0.1,0,0.2,0.1,0.2c0.3,0.2,0.7,0.1,1,0.2c0.1,0.1,0.1,0.3,0,0.4c0,0.2-0.2,0.1-0.3,0.1h-2.4
		l-1.5,0c-0.1,0-0.1-0.1-0.2-0.2c0-0.1,0-0.3,0.1-0.3c0.4-0.1,0.9,0,1.2-0.2c0.2-0.2,0.1-0.3,0.1-0.6l0-0.9l0-2.9
		c-0.1-0.7,0.2-1.6-0.5-1.9c-0.3-0.1-0.6-0.1-0.8,0.1c-1.1,1.1-1.5,2.5-1.6,4c0,0.7,0,1.4,0,2.1c0,0.1,0.1,0.2,0.2,0.2
		c0.3,0.1,0.6,0.1,0.9,0.2c0.1,0,0.1,0.1,0.1,0.1c0,0.1,0,0.3,0,0.4c-0.1,0.1-0.2,0.1-0.4,0.1l-3.5,0h-0.5c-0.1,0-0.1-0.1-0.1-0.1
		c0-0.1,0-0.3,0.1-0.4C29,66,29.2,66,29.5,66c0.2-0.1,0.4-0.1,0.6-0.2c0.1-0.1,0.1-0.2,0.1-0.4l0-1.2l0-2.4l0-1.8
		c0-0.1,0-0.3-0.2-0.4c-0.4-0.1-0.8-0.2-1.3-0.2c0,0-0.1,0-0.1-0.1c0-0.1,0-0.2,0-0.3l0.1-0.1c1-0.1,2-0.1,3-0.2
		c0.1,0,0.1,0,0.2,0.1l0,0.2l0,1.2c0,0,0,0,0.1,0.1c0.1,0,0.2-0.1,0.2-0.2c0.3-0.6,0.8-1.2,1.5-1.3c0.2-0.1,0.4-0.1,0.6-0.1
		c0.6,0,1.2,0.2,1.7,0.6c0.3,0.3,0.4,0.6,0.6,0.9c0,0,0.1,0.1,0.1,0c0.2-0.4,0.5-0.9,0.9-1.2c0.5-0.3,1.1-0.4,1.8-0.3
		c0.7,0.1,1.3,0.5,1.7,1.1c0.2,0.4,0.3,0.7,0.3,1.4L41.3,64"/>
	<path class="st1" d="M54.2,66.6c0,0-0.6,0.1-0.7-0.1c0-0.1,0-0.3,0-0.4c0.2-0.1,0.5-0.1,0.7-0.1c0.2-0.1,0.5,0,0.6-0.2
		c0.1-0.7,0-1.3,0.1-2c0-0.4,0-0.8,0-1.2c-0.1-0.8,0-1.6-0.1-2.4c-0.1-0.3-0.4-0.6-0.7-0.7c-0.4-0.1-0.8,0.1-1,0.4
		c-0.8,1.1-1.3,2.3-1.3,3.7c0,0.7-0.1,1.4,0,2.1c0.1,0.3,0.4,0.2,0.6,0.3c0.3,0.1,0.6-0.1,0.7,0.3c0,0.1,0,0.3-0.1,0.3
		c-0.4,0-1.9,0-2.3,0l-1.8,0c-0.1,0-0.2,0-0.2-0.1c0-0.1-0.1-0.3,0-0.4c0.2-0.1,0.4-0.1,0.5-0.1c0.3-0.1,0.6-0.1,0.9-0.2
		c0.2-0.2,0.1-0.5,0.2-0.7c0-0.5,0-0.9,0-1.4v-2.9c0-0.3,0-0.6-0.1-0.9c-0.1-0.1-0.1-0.1-0.2-0.1c-0.4-0.1-0.9-0.1-1.3-0.1
		c-0.1-0.1-0.1-0.2-0.1-0.3c0.1-0.3,0.4-0.1,0.5-0.2c0.8-0.1,1.7-0.1,2.5-0.2c0.1,0,0.1,0,0.2,0.1c0.1,0.5,0,1,0.1,1.4
		c0,0,0,0.1,0.1,0.1c0.1,0,0.1-0.1,0.2-0.2c0.3-0.5,0.5-1,1-1.3c0.4-0.2,0.9-0.3,1.4-0.2c0.1,0,0.3,0,0.4,0.1c0.2,0,0.3,0.1,0.5,0.1
		c0.6,0.3,1.2,1,1.2,1.7c0,1.6-0.1,3.2-0.1,4.8c0.1,0.2,0.2,0.2,0.4,0.3c0.3,0.1,0.6,0.1,1,0.1c0.1,0.1,0.1,0.3,0.1,0.5
		c0,0.1,0,0,0,0.1L54.2,66.6"/>
	<path class="st1" d="M72.1,66.6c-0.1,0-0.1,0-0.2-0.1c0-0.1,0-0.3,0-0.4c0.2-0.1,0.5-0.1,0.7-0.1c0.3,0,0.6-0.1,0.8-0.2
		c0.2-0.1,0.1-0.4,0.1-0.6l0-1l0-4c0-0.1,0-0.2-0.1-0.2c-0.3-0.2-0.6-0.2-1-0.2c-0.2,0-0.5,0-0.6-0.2c0-0.1,0-0.2,0-0.3
		c0.1-0.1,0.2-0.1,0.3-0.1c0.9,0,1.8-0.1,2.8-0.2c0.1,0,0.1,0,0.1,0.1l0,0.4v2.1c0,1.3,0,2.5,0,3.8c0,0.2,0,0.4,0.2,0.5
		c0.3,0.1,0.6,0.1,0.9,0.1c0.5,0,0.9,0,1.4-0.1c0.1,0,0.3-0.1,0.3-0.2c0-1.3,0-3.7,0-3.7l0-2.2l0-3.6c0-0.2,0-0.4-0.2-0.5
		c-0.5-0.1-1-0.1-1.5-0.2c0,0-0.1,0-0.1-0.1c0-0.1,0-0.2,0-0.2c0.2-0.1,0.4-0.1,0.7-0.1c0.7-0.1,1.4-0.1,2-0.2c0.2,0,0.5-0.1,0.7,0
		c0.1,0.1,0.1,0.3,0.1,0.4c0,1.3,0,3.8,0,3.8v6.3c0,0.1,0,0.3,0.2,0.4c0.5,0.2,1,0.2,1.5,0.3c0.1,0.1,0.1,0.3,0.1,0.4
		c-0.1,0.1-0.4,0.1-0.4,0.1L72.1,66.6"/>
	<path class="st1" d="M124.3,66.6c-0.1,0-0.1,0-0.1-0.1c0-0.1-0.1-0.3,0-0.5c0.1-0.1,0.2-0.1,0.3-0.1c0.3,0,0.7-0.1,1-0.2
		c0.3-0.1,0.2-0.4,0.2-0.7c0-0.9,0-1.7,0-2.6v-2.1c-0.1-0.3,0.1-0.7-0.3-0.8c-0.4-0.1-0.7-0.1-1.1-0.1c-0.1,0-0.2,0-0.2-0.1
		c0-0.1-0.1-0.3,0.1-0.4c0.3-0.1,0.6-0.1,0.8-0.1c0.5,0,1-0.1,1.5-0.1c0.1,0,0.2-0.1,0.2,0c0.1,0,0.3,0,0.5,0.1
		c0.1,0.1,0.1,0.1,0.1,0.2c0,0.4,0,0.8,0,1.2c0,0,0,0.1,0.1,0.1c0.2-0.2,0.3-0.5,0.4-0.7c0.4-0.7,1.1-1,1.9-1c0.9,0,1.9,0.6,2.2,1.4
		c0.2,0.4,0.1,0.9,0.1,1.3c-0.1,1.3,0,2.6-0.1,3.9c0,0.4,0.3,0.3,0.6,0.4c0.3,0,0.5,0.1,0.8,0.1c0.1,0.1,0.1,0.3,0.1,0.5
		c0,0.1-0.1,0.1-0.2,0.1c-1.4,0-2.7,0-4.1,0c-0.2,0-0.1-0.3-0.2-0.4c0-0.1,0-0.2,0.1-0.2c0.4-0.1,0.8,0,1.1-0.2
		c0-0.1,0.1-0.1,0.1-0.2c0-1.7,0.1-3.3,0-5c0-0.4-0.2-0.8-0.6-1c-0.3-0.2-0.8-0.1-1,0.2c-1,1.2-1.4,2.5-1.4,4.1c0,0.6,0,1.2,0,1.8
		c0.1,0.3,0.4,0.2,0.7,0.3c0.2,0,0.6,0,0.6,0.3c0,0.1,0,0.3-0.1,0.4l-0.1,0H124.3"/>
	<path class="st1" d="M108.9,66.6l0.2,0c0.1,0,0.1-0.1,0.1-0.2c0-0.6,0-1.2,0-1.8v-3c0-0.1,0-0.3,0-0.4c-0.1-0.1-0.2-0.1-0.3-0.1
		c-0.1,0-0.1,0.1-0.1,0.1c-0.1,1.2-0.5,2.3-1,3.4c-0.4,0.7-1.1,1.3-1.9,1.4c-1.2,0-2.3,0-3.5,0c-0.1,0-0.1,0-0.2-0.1
		c0-0.1,0-0.2,0.1-0.3l1.2-1.9c0.2-0.2,0.3-0.5,0.5-0.7c1-1.4,1.9-2.9,2.8-4.3c0.7-1.2,1.5-2.3,2.3-3.4c0.1-0.2,0.3-0.4,0.3-0.6
		c0,0-0.1-0.1-0.1-0.1c-0.7,0-2.1,0-2.1,0l-1,0l-3,0c0,0-1.7,0-2.3,0c-0.1,0-0.1,0.2-0.1,0.3c0,0.6,0,1.2,0,1.9v2.2l0,0.1
		c0.1,0.1,0.2,0.1,0.3,0.1c0.1,0,0.1-0.1,0.1-0.1c0.1-0.7,0.3-1.4,0.6-2.1c0.4-0.7,1-1.5,1.8-1.7c0.9,0,1.8-0.1,2.7,0
		c0.1,0,0.1,0.1,0.1,0.2c-0.6,1.1-1.4,2.3-2.1,3.4c-0.8,1.3-1.6,2.6-2.5,3.8c-0.8,1.2-1.5,2.3-2.3,3.5c-0.1,0.1-0.2,0.2-0.2,0.4
		c0.1,0.1,0.2,0.1,0.3,0.1H108.9"/>
	<path class="st1" d="M88.8,64.4c-0.4-0.8-0.5-1.9-0.2-2.7c0.3-1,0.9-2,1.9-2.5c0.3-0.2,0.7-0.3,1-0.4c0.8-0.2,1.7-0.1,2.3,0.3
		c0.7,0.4,1.3,1.1,1.7,1.8c0.4,0.9,0.5,2.1,0.2,3.1c-0.1,0.3-0.2,0.5-0.3,0.8c-0.7,1.3-2.1,2.2-3.7,2C90.5,66.5,89.3,65.5,88.8,64.4
		L88.8,64.4z M91.8,66.1c0.6,0.2,1.1-0.1,1.5-0.5c0.4-0.5,0.6-1.1,0.7-1.7c0.1-1.2,0.1-2.5-0.2-3.5c-0.2-0.5-0.7-1.1-1.3-1.2
		c-0.6-0.1-1.1,0.1-1.5,0.4c-0.8,1-0.8,2.4-0.8,3.7c0.1,0.8,0.3,1.5,0.7,2.1C91.2,65.8,91.5,65.9,91.8,66.1"/>
	<g>
		<defs>
			<polyline id="SVGID_3_" points="9.1,54.5 9.1,70.5 140.9,70.5 140.9,54.5 			"/>
		</defs>
		<clipPath id="SVGID_4_">
			<use xlink:href="#SVGID_3_"  style="overflow:visible;"/>
		</clipPath>
		<path class="st2" d="M82.5,66.3c-1.3-0.8-1.8-2.2-1.7-3.6c0-1.3,0.6-2.4,1.4-3.3c0.4-0.4,0.8-0.7,1.3-0.8l0.1,0
			c0.2-0.1,0.4-0.1,0.6-0.1c0.1,0,0.3,0,0.4,0.1c0.2,0,0.3,0.1,0.4,0.2c0.3,0.2,0.6,0.6,0.8,0.9c0,0,0.1,0.1,0.1,0.1
			c0.1-0.1,0.1-0.2,0.1-0.3c0-1.2,0-2.3,0-3.6c0-0.1-0.1-0.2-0.1-0.2c-0.7-0.2-1.4-0.3-2.2-0.3c-0.1,0-0.1,0-0.1-0.1
			c-0.1-0.1-0.1-0.3,0-0.4c0-0.1,0.1,0,0.2-0.1c0.9,0,1.8,0,2.7-0.1c0.4,0,0.7-0.1,1.1-0.1c0.1,0,0.1,0,0.2,0.1l0,0.1
			c0,1.1,0,3.2,0,3.2l0,3.9c0,0,0,2.5,0,3.8c0,0.1,0.1,0.2,0.2,0.2c0.4,0.2,0.9,0.1,1.3,0.2c0.1,0.1,0.1,0.2,0.1,0.3
			c-0.2,0.2-0.7,0.2-0.7,0.2l-0.8,0c0,0-1,0-1.5,0c-0.1,0-0.1-0.1-0.1-0.2c0-0.3,0-0.6,0-0.8c0-0.1,0-0.2-0.1-0.3
			c-0.1,0-0.1,0.1-0.1,0.2c-0.2,0.4-0.4,0.8-0.8,1c-0.4,0.3-1,0.3-1.4,0.2C83.1,66.6,82.8,66.5,82.5,66.3L82.5,66.3z M83.3,65.9
			c0.3,0.3,0.8,0.3,1.2,0.1c0.3-0.1,0.4-0.4,0.6-0.6c0.3-0.5,0.5-1.1,0.6-1.7c0.1-1.1,0.1-2.2-0.1-3.2c-0.2-0.5-0.4-1.2-1-1.4
			c-0.3-0.1-0.6-0.1-0.9,0c-0.2,0.1-0.5,0.3-0.6,0.6c-0.5,0.7-0.5,1.6-0.6,2.5c0,1-0.1,2.1,0.3,3C83,65.5,83.1,65.7,83.3,65.9"/>
		<path class="st2" d="M133.7,65.9c-0.4-0.5-0.4-1.3-0.3-1.9c0.3-0.9,1.3-1.5,2.2-1.6c0.6-0.1,1.2-0.1,1.7-0.4
			c0.5-0.4,0.4-1.1,0.4-1.7c0-0.3-0.1-0.6-0.3-0.8c-0.3-0.5-1-0.4-1.5-0.3c-0.4,0.1-0.7,0.3-1,0.6c0,0,0,0.1,0,0.1
			c0.1,0.1,0.2,0.2,0.3,0.3c0.2,0.3,0.2,0.8,0,1.1c-0.2,0.3-0.5,0.5-0.9,0.4c-0.4-0.1-0.6-0.4-0.8-0.7c-0.2-0.7,0.2-1.2,0.6-1.7
			c1-0.9,2.5-1.1,3.8-0.7c0.6,0.2,1.3,0.8,1.4,1.5c0,0.4,0,0.8,0,1.1c0,1.3-0.1,2.7,0,4c0,0.2,0.1,0.4,0.3,0.4c0.1,0.1,0.3,0,0.4,0
			c0.3-0.2,0.2-0.5,0.3-0.8v-1.5c0-0.1,0.1-0.1,0.1-0.1c0.1,0,0.3,0,0.4,0.1c0.1,0.5,0,1,0,1.5c0,0.6-0.1,1.2-0.7,1.5
			c-0.5,0.2-1.1,0.3-1.6,0.1c-0.4-0.2-0.7-0.6-0.9-1c0-0.1-0.1-0.1-0.2,0c-0.2,0.2-0.4,0.5-0.6,0.7c-0.8,0.6-2.1,0.7-2.9,0.2
			C133.9,66.2,133.8,66.1,133.7,65.9L133.7,65.9z M136,65.8c0.4,0,0.7-0.2,1-0.5c0.6-0.6,0.7-1.4,0.7-2.3c0-0.1,0-0.3-0.1-0.4
			c-0.2,0-0.4,0.1-0.7,0.2c-0.5,0-1.1,0.1-1.5,0.5c-0.5,0.5-0.6,1.4-0.3,2C135.3,65.6,135.6,65.8,136,65.8"/>
		<path class="st2" d="M67,70.3c-0.3-0.1-0.6-0.2-0.9-0.3c-0.6-0.3-1.3-0.8-1.4-1.5c0-0.5,0.4-0.8,0.7-1c0.2-0.1,0.5-0.3,0.6-0.5
			c0-0.2-0.2-0.2-0.3-0.3c-0.6-0.4-0.9-1.1-0.8-1.8c0-0.6,0.5-1.1,1-1.3c0.1-0.1,0.3-0.1,0.4-0.2c0-0.1-0.1-0.2-0.2-0.3
			c-0.7-0.5-1-1.4-0.7-2.2c0.3-1.2,1.5-2,2.6-2.2c0.5-0.1,1.1,0,1.6,0.1c0,0,0.1,0,0.1,0c0.1-0.1,0.1-0.2,0.1-0.3
			c0-0.2,0-0.4,0.1-0.6c0.1-0.4,0.4-0.6,0.8-0.7c0.3-0.1,0.7,0,0.9,0.2c0.1,0.2,0.2,0.4,0.1,0.7c0,0.2-0.2,0.3-0.4,0.3
			c-0.2,0.1-0.4,0-0.6-0.2c-0.1-0.1-0.1-0.2-0.2-0.3c-0.1,0-0.1,0-0.2,0.1c-0.1,0.2-0.1,0.5-0.1,0.8c0,0.2,0,0.4,0.1,0.5
			c0.8,0.6,1.4,1.6,1.1,2.6c-0.4,1.2-1.7,1.9-2.8,2c-0.6,0.1-1.3-0.2-1.9,0c-0.4,0.1-0.9,0.2-1.1,0.7c0,0.2-0.1,0.4,0.1,0.6
			c0.5,0.5,1.3,0.3,2,0.3c0.4,0,0.8-0.1,1.2-0.1c0.8,0,1.5,0.1,2.1,0.4c0.8,0.6,1.2,1.5,1,2.4c-0.1,0.6-0.4,1.2-1,1.5
			C70,70.6,68.4,70.7,67,70.3L67,70.3z M68.2,70c0.9,0,1.8-0.1,2.5-0.5c0.3-0.2,0.5-0.4,0.6-0.7c0.1-0.3,0.2-0.8-0.1-1.1
			c-0.6-0.6-1.5-0.7-2.4-0.7c-0.8,0.1-1.6,0-2.3,0.4c-0.1,0.1-0.2,0.2-0.4,0.3C66,67.8,66,68,65.9,68.1c-0.1,0.5,0,1,0.4,1.3
			C66.9,69.8,67.5,69.9,68.2,70L68.2,70z M67.9,63.3c0.6,0.3,1.3,0.1,1.7-0.3c0.7-0.6,0.6-1.8,0.4-2.6c-0.1-0.5-0.7-1-1.2-1.1
			c-0.6-0.1-1.2,0.2-1.5,0.7c-0.2,0.4-0.3,0.9-0.3,1.5c0,0.4,0,0.8,0.2,1.2C67.2,62.9,67.6,63.1,67.9,63.3"/>
	</g>
	<path class="st1" d="M118.6,69.9c-0.6-0.3-1.4-0.7-1.7-1.4c-0.1-0.2-0.1-0.5,0-0.7c0.3-0.4,0.7-0.8,1.2-1c0,0,0.1-0.1,0.1-0.1
		c-0.1-0.2-0.3-0.3-0.4-0.4c-0.4-0.4-0.6-0.8-0.6-1.3c0-0.6,0.3-1.2,0.9-1.6c0.2-0.1,0.4-0.1,0.5-0.3c0,0,0-0.1,0-0.1
		c-0.7-0.6-1.1-1.4-0.8-2.3c0.3-1.2,1.5-2.1,2.8-2.3c0.5-0.1,1,0.1,1.5,0.1c0.2-0.1,0.1-0.4,0.2-0.6c0-0.3,0.1-0.6,0.4-0.9
		c0.3-0.2,0.7-0.3,1.1-0.2c0.2,0.1,0.4,0.3,0.4,0.5c0.1,0.2,0,0.4-0.1,0.6c-0.1,0.2-0.4,0.3-0.6,0.2c-0.2-0.1-0.4-0.2-0.4-0.4
		c0-0.1-0.1-0.1-0.1-0.1c-0.2,0.1-0.2,0.4-0.2,0.6c0,0.3-0.1,0.6,0.1,0.8c0.8,0.6,1.2,1.6,1,2.6c-0.3,1.1-1.4,1.8-2.4,1.9
		c-0.5,0.1-1,0.1-1.5,0c-0.6,0-1.3,0-1.8,0.5c-0.2,0.2-0.2,0.5-0.1,0.7c0.2,0.4,0.6,0.4,0.9,0.4c1.5,0.1,3.1-0.4,4.3,0.4
		c0.9,0.6,1.1,1.7,0.9,2.7c-0.2,0.9-1.1,1.6-1.9,1.9c-0.1,0-0.2,0-0.3,0.1C120.8,70.5,119.6,70.3,118.6,69.9L118.6,69.9z
		 M121.9,69.6c0.7-0.2,1.4-0.6,1.5-1.4c0.1-0.5-0.2-0.8-0.6-1c-0.8-0.4-1.7-0.4-2.6-0.4c-0.8,0.1-1.8,0.1-2.2,1
		c-0.1,0.2-0.1,0.5-0.1,0.8c0.1,0.4,0.4,0.7,0.8,0.9C119.8,69.8,120.9,69.8,121.9,69.6L121.9,69.6z M120.1,63
		c0.5,0.2,1.1,0.1,1.5-0.2c0.4-0.3,0.6-0.7,0.7-1.2c0-0.9,0.1-1.8-0.6-2.4c-0.4-0.3-1-0.4-1.5-0.2c-0.6,0.3-0.9,1-1,1.6
		c0,0.6-0.1,1.2,0.2,1.7C119.5,62.7,119.8,62.9,120.1,63"/>
	<path class="st1" d="M58.5,65.6c-0.3-0.3-0.5-0.6-0.6-1c-0.3-0.7-0.4-1.5-0.3-2.3c0-0.1,0-0.3,0.1-0.4c0.1-0.4,0.2-0.8,0.4-1.1
		c0.4-0.8,1.2-1.8,2.2-2.1c0.8-0.3,2-0.3,2.7,0.4c0.7,0.5,1,1.3,1.2,2c0.1,0.4,0.2,0.9,0.1,1.4c0,0.1-0.1,0.1-0.1,0.2l-0.1,0h-2.6
		c-0.1,0-0.2,0-0.3,0c-0.6,0-1.1,0-1.7,0c-0.2,0.1-0.1,0.3-0.2,0.4c0,0.9,0,2,0.9,2.5c0.6,0.5,1.6,0.5,2.3,0.1
		c0.7-0.4,1.2-1.2,1.2-2c0-0.1,0.2-0.1,0.3-0.1c0.1,0,0.1,0,0.2,0c0.1,0.1,0,0.2,0,0.3c-0.1,1-0.7,1.9-1.7,2.3
		c-1.2,0.5-2.7,0.3-3.7-0.5L58.5,65.6L58.5,65.6z M59.6,62.1c1,0,2,0.1,3,0c0.3-0.1,0.1-0.4,0.2-0.6c-0.1-0.6,0-1.1-0.3-1.6
		c-0.3-0.5-0.8-0.8-1.4-0.8c-0.4,0-0.8,0.2-1.1,0.5c-0.2,0.2-0.3,0.4-0.4,0.6c-0.2,0.5-0.2,1.1-0.3,1.6c0,0.1,0,0.2,0.1,0.3
		L59.6,62.1"/>
	<path class="st1" d="M44.2,62.8C44,62.9,44,63.2,44,63.4c0,0.9,0.1,1.8,0.9,2.4c0.5,0.4,1.4,0.4,2.1,0.2c0.8-0.4,1.3-1.2,1.4-2
		c0-0.1,0-0.2,0.1-0.2c0.1,0,0.3-0.1,0.4,0.1c0,0.5-0.1,1-0.4,1.4c-0.6,1.2-2,1.6-3.2,1.5c-0.8-0.1-1.5-0.4-2.1-1L43,65.5
		c-0.7-1-1-2.3-0.7-3.5c0.2-0.8,0.6-1.5,1.2-2.2c0.7-0.8,1.6-1.2,2.6-1.2c1,0.1,2,0.8,2.4,1.7c0.3,0.7,0.5,1.4,0.5,2.1
		c0,0.1-0.1,0.3-0.2,0.4L44.2,62.8L44.2,62.8z M47.1,62.1l0.2,0c0.1,0,0.1-0.1,0.2-0.2c0-0.4,0-0.7,0-1.1c0-0.7-0.3-1.4-1-1.6
		c-0.6-0.2-1.3,0-1.7,0.5c-0.4,0.5-0.4,1.2-0.5,1.9c0,0.2-0.1,0.4,0,0.5c0.1,0,0.2,0.1,0.3,0.1H47.1"/>
	<g>
		<defs>
			<polyline id="SVGID_5_" points="9.1,54.5 9.1,70.5 140.9,70.5 140.9,54.5 			"/>
		</defs>
		<clipPath id="SVGID_6_">
			<use xlink:href="#SVGID_5_"  style="overflow:visible;"/>
		</clipPath>
		<path class="st3" d="M111.7,66.2c-0.5-0.3-1.1-0.8-1.4-1.3c-0.3-0.6-0.5-1.3-0.5-2c0-1.3,0.5-2.4,1.3-3.3c0.6-0.7,1.5-1.1,2.4-1.2
			c1.1,0,2.1,0.8,2.5,1.7c0.3,0.7,0.5,1.4,0.5,2.2c0,0.1,0,0.2-0.1,0.3c-0.3,0.1-0.5,0-0.8,0.1h-1.2l-2.3,0c-0.1,0-0.3,0-0.4,0.2
			c-0.1,0.6,0,1.2,0.1,1.7c0.2,0.6,0.7,1.2,1.3,1.4c0.9,0.2,1.7-0.1,2.3-0.8c0.3-0.4,0.5-0.9,0.5-1.4c0-0.1,0.1-0.1,0.2-0.1
			c0.1,0,0.3,0,0.3,0.1c0,0.2,0,0.4,0,0.5c-0.2,0.9-0.8,1.8-1.6,2.1C113.8,66.7,112.6,66.6,111.7,66.2L111.7,66.2z M112.9,61.9
			c0.6,0,1.3,0,1.9-0.1c0.2-0.1,0.1-0.3,0.2-0.4c0-0.6,0-1.2-0.3-1.8c-0.2-0.4-0.7-0.7-1.1-0.8c-0.6-0.1-1.2,0.2-1.5,0.8
			c-0.3,0.6-0.4,1.2-0.4,1.9c0,0.1,0,0.3,0.1,0.3C112.1,61.9,112.5,61.9,112.9,61.9"/>
		<path class="st3" d="M73.7,55.9c-0.1-0.3-0.1-0.7,0.1-0.9c0.2-0.3,0.6-0.5,1-0.4c0.3,0.1,0.5,0.4,0.6,0.7c0.1,0.4,0,0.8-0.3,1
			c-0.2,0.2-0.6,0.3-1,0.1C73.9,56.3,73.7,56.1,73.7,55.9"/>
	</g>
</g>
</svg>
