<?xml version="1.0" encoding="utf-8"?>
<!-- Generator: Adobe Illustrator 21.0.0, SVG Export Plug-In . SVG Version: 6.00 Build 0)  -->
<svg version="1.1" id="Layer_1" xmlns="http://www.w3.org/2000/svg" xmlns:xlink="http://www.w3.org/1999/xlink" x="0px" y="0px"
	 viewBox="0 0 150 125" style="enable-background:new 0 0 150 125;" xml:space="preserve">
<style type="text/css">
	.st0{fill:#231F20;}
</style>
<g>
	<polygon class="st0" points="48.2,63.8 48.2,70.6 45.1,70.6 45.1,54.5 55.8,54.5 55.8,57.3 48.2,57.3 48.2,61 54.9,61 54.9,63.8 	
		"/>
	<polygon class="st0" points="68.9,54.5 68.9,57.3 60.9,57.3 60.9,60.7 68.3,60.7 68.3,63.6 60.9,63.6 60.9,67.7 69.3,67.7 
		69.3,70.6 57.9,70.6 57.9,54.5 	"/>
	<polygon class="st0" points="81,65.7 81,54.5 83.9,54.5 83.9,70.6 80.8,70.6 74.7,59.1 74.6,59.1 74.6,70.6 71.7,70.6 71.7,54.5 
		75,54.5 	"/>
	<path class="st0" d="M93,57.3c0.6,0,1.1,0.1,1.6,0.3c0.5,0.2,0.9,0.7,1.3,1.5c0.3,0.7,0.5,1.9,0.5,3.3c0,1-0.1,1.8-0.3,2.6
		c-0.2,0.8-0.6,1.5-1.1,2c-0.5,0.5-1.2,0.7-2,0.7H90V57.3H93L93,57.3z M93.4,70.6c1.2,0,2.2-0.3,3-0.8c0.8-0.5,1.5-1.2,1.9-2
		c0.5-0.9,0.8-1.8,1-2.7c0.2-1,0.3-1.9,0.3-2.9c0-0.9-0.1-1.8-0.3-2.6c-0.2-0.9-0.5-1.7-0.9-2.4c-0.5-0.7-1.1-1.4-1.9-1.9
		c-0.8-0.5-1.8-0.7-3-0.7h-6.7v16.2H93.4L93.4,70.6z"/>
	<polygon class="st0" points="104.9,54.5 104.9,70.6 101.8,70.6 101.8,54.5 	"/>
</g>
</svg>
