<?xml version="1.0" encoding="utf-8"?>
<!-- Generator: Adobe Illustrator 21.0.0, SVG Export Plug-In . SVG Version: 6.00 Build 0)  -->
<svg version="1.1" id="Layer_1" xmlns="http://www.w3.org/2000/svg" xmlns:xlink="http://www.w3.org/1999/xlink" x="0px" y="0px"
	 viewBox="0 0 150 125" style="enable-background:new 0 0 150 125;" xml:space="preserve">
<style type="text/css">
	.st0{fill:#231F20;}
</style>
<g>
	<polygon class="st0" points="43.8,64 43.8,71.9 40.1,71.9 40.1,53.2 52.6,53.2 52.6,56.5 43.8,56.5 43.8,60.7 51.5,60.7 51.5,64 	
		"/>
	<polygon class="st0" points="67.9,53.2 67.9,56.5 58.6,56.5 58.6,60.4 67.2,60.4 67.2,63.8 58.6,63.8 58.6,68.6 68.4,68.6 
		68.4,71.9 55.1,71.9 55.1,53.2 	"/>
	<polygon class="st0" points="82,66.2 82,53.2 85.4,53.2 85.4,71.9 81.8,71.9 74.6,58.5 74.5,58.5 74.5,71.9 71.2,71.9 71.2,53.2 
		75,53.2 	"/>
	<path class="st0" d="M96,56.4c0.7,0,1.3,0.1,1.9,0.4c0.6,0.3,1.1,0.9,1.5,1.7c0.4,0.9,0.6,2.2,0.6,3.8c0,1.1-0.1,2.1-0.4,3
		c-0.3,0.9-0.7,1.7-1.3,2.3c-0.6,0.6-1.4,0.9-2.3,0.9h-3.6V56.4H96L96,56.4z M96.5,71.9c1.4,0,2.5-0.3,3.5-0.9
		c0.9-0.6,1.7-1.4,2.3-2.4c0.5-1,0.9-2.1,1.2-3.2c0.2-1.1,0.3-2.3,0.3-3.4c0-1-0.1-2.1-0.3-3c-0.2-1-0.6-2-1.1-2.8
		c-0.5-0.9-1.3-1.6-2.2-2.2c-0.9-0.5-2.1-0.9-3.5-0.9h-7.8v18.8L96.5,71.9L96.5,71.9z"/>
	<polygon class="st0" points="109.9,53.2 109.9,71.9 106.2,71.9 106.2,53.2 	"/>
</g>
</svg>
