<?xml version="1.0" encoding="utf-8"?>
<!-- Generator: Adobe Illustrator 21.0.0, SVG Export Plug-In . SVG Version: 6.00 Build 0)  -->
<svg version="1.1" id="Layer_1" xmlns="http://www.w3.org/2000/svg" xmlns:xlink="http://www.w3.org/1999/xlink" x="0px" y="0px"
	 viewBox="0 0 150 125" style="enable-background:new 0 0 150 125;" xml:space="preserve">
<style type="text/css">
	.st0{fill:#231F20;}
</style>
<g>
	<polygon class="st0" points="27.7,79.3 27.7,91.2 22.2,91.2 22.2,62.9 41,62.9 41,67.9 27.7,67.9 27.7,74.3 39.4,74.3 39.4,79.3 	
		"/>
	<polygon class="st0" points="64.1,62.9 64.1,67.9 50.1,67.9 50.1,73.9 63,73.9 63,78.9 50.1,78.9 50.1,86.2 64.8,86.2 64.8,91.2 
		44.7,91.2 44.7,62.9 	"/>
	<polygon class="st0" points="85.3,82.6 85.3,62.9 90.5,62.9 90.5,91.2 85,91.2 74.2,71 74.1,71 74.1,91.2 69,91.2 69,62.9 
		74.8,62.9 85.3,82.6 	"/>
	<path class="st0" d="M106.5,67.8c1,0,2,0.2,2.9,0.6s1.6,1.3,2.3,2.6c0.6,1.3,0.9,3.3,0.9,5.8c0,1.7-0.2,3.2-0.6,4.6s-1,2.6-1.9,3.5
		s-2.1,1.3-3.5,1.3h-5.4V67.8H106.5L106.5,67.8z M107.2,91.2c2.1,0,3.8-0.5,5.3-1.4c1.4-0.9,2.6-2.1,3.4-3.6s1.4-3.1,1.8-4.8
		c0.3-1.7,0.5-3.4,0.5-5.1c0-1.5-0.2-3.1-0.5-4.6s-0.9-3-1.6-4.3c-0.8-1.3-1.9-2.4-3.3-3.3c-1.4-0.8-3.2-1.3-5.3-1.3H95.8v28.4
		L107.2,91.2L107.2,91.2z"/>
	<polygon class="st0" points="127.4,62.9 127.4,91.2 121.9,91.2 121.9,62.9 	"/>
	<polygon class="st0" points="65.2,27.4 65.1,52.1 68.8,52.1 68.8,39.3 74.8,39.3 74.8,36 68.8,36 68.8,30.9 79.4,30.9 79.5,27.5 	
		"/>
	<polygon class="st0" points="84.4,52.1 84.5,27.4 80.8,27.4 80.8,40.3 74.8,40.3 74.8,43.5 80.8,43.5 80.8,48.7 70.2,48.7 
		70.1,52.1 	"/>
</g>
</svg>
