<?xml version="1.0" encoding="utf-8"?>
<!-- Generator: Adobe Illustrator 21.0.0, SVG Export Plug-In . SVG Version: 6.00 Build 0)  -->
<svg version="1.1" id="Layer_1" xmlns="http://www.w3.org/2000/svg" xmlns:xlink="http://www.w3.org/1999/xlink" x="0px" y="0px"
	 viewBox="0 0 150 125" style="enable-background:new 0 0 150 125;" xml:space="preserve">
<style type="text/css">
	.st0{fill:#231F20;}
</style>
<g>
	<path class="st0" d="M118.5,55.8h3.3c-0.4,0.3-0.6,0.6-0.6,1.1v11.3c0,0.5,0.2,0.8,0.6,1.1h-3.3c0.3-0.3,0.6-0.6,0.6-1.1V56.8
		C119,56.4,118.8,56,118.5,55.8L118.5,55.8z"/>
	<path class="st0" d="M42.1,60.6c-0.6-1.1-1.1-2.3-2.1-3.1c-1-0.9-2.4-1.4-3.8-1.4c-3.7,0-5.3,3.3-5.3,6.6c0,3.1,1.6,6.3,5.1,6.3
		c1.4,0,2.9-0.6,3.8-1.8v-2.6c0-0.7-0.2-1.1-0.8-1.5h3.8c-0.4,0.5-0.6,0.9-0.6,1.5v2.6c-1.7,1.6-3.9,2.6-6.3,2.6
		c-4.2,0-7.6-3.1-7.6-7.4s3.4-7.2,7.6-7.2c2.6,0,4.7,1,6.3,2.9L42.1,60.6L42.1,60.6z"/>
	<path class="st0" d="M51.3,55.8h3.5c-0.5,0.3-0.6,0.7-0.6,1.4v8.3c0,2.2,2.7,3.4,4.6,3.4c1.9,0,4.4-1.1,4.4-3.4v-8.3
		c0-0.6-0.2-1-0.5-1.4h1.9c-0.4,0.4-0.6,0.8-0.6,1.4v8.4c0,3-3.5,4.2-5.9,4.2c-2.5,0-6.2-1.1-6.2-4.2v-8.4
		C51.9,56.5,51.7,56.1,51.3,55.8L51.3,55.8z"/>
	<path class="st0" d="M86.9,60.7c-0.5-1.2-1-2.2-2-3.1c-1-1-2.3-1.5-3.8-1.5c-3.6,0-5.5,3.2-5.5,6.5s1.9,6.5,5.5,6.5
		c2.7,0,4.6-1.9,5.7-4.2v2.5c-1.7,1.7-3.9,2.5-6.2,2.5c-4.3,0-7.6-2.8-7.6-7.3c0-4.3,3.1-7.2,7.4-7.2c2.4,0,4.7,0.8,6.4,2.5
		L86.9,60.7L86.9,60.7z"/>
	<path class="st0" d="M109.8,60.7c-0.5-1.2-1-2.2-2-3.1c-1-1-2.3-1.5-3.8-1.5c-3.6,0-5.5,3.2-5.5,6.5s1.9,6.5,5.5,6.5
		c2.7,0,4.6-1.9,5.7-4.2v2.5c-1.7,1.7-3.8,2.5-6.2,2.5c-4.3,0-7.6-2.8-7.6-7.3c0-4.3,3.1-7.2,7.4-7.2c2.4,0,4.7,0.8,6.4,2.5
		L109.8,60.7L109.8,60.7z"/>
</g>
</svg>
