<?xml version="1.0" encoding="utf-8"?>
<!-- Generator: Adobe Illustrator 21.0.0, SVG Export Plug-In . SVG Version: 6.00 Build 0)  -->
<svg version="1.1" id="Layer_1" xmlns="http://www.w3.org/2000/svg" xmlns:xlink="http://www.w3.org/1999/xlink" x="0px" y="0px"
	 viewBox="0 0 150 125" style="enable-background:new 0 0 150 125;" xml:space="preserve">
<style type="text/css">
	.st0{fill:#231F20;}
</style>
<g>
	<path class="st0" d="M128.9,54.1h4.1c-0.5,0.4-0.7,0.8-0.7,1.4v14.1c0,0.6,0.3,1,0.7,1.4h-4.1c0.4-0.4,0.7-0.8,0.7-1.4V55.4
		C129.6,54.9,129.3,54.4,128.9,54.1L128.9,54.1z"/>
	<path class="st0" d="M33.8,60.1c-0.7-1.4-1.4-2.9-2.6-3.9c-1.3-1.1-3-1.8-4.7-1.8c-4.6,0-6.6,4.1-6.6,8.2c0,3.9,2,7.9,6.4,7.9
		c1.8,0,3.6-0.8,4.7-2.2v-3.2c0-0.9-0.3-1.4-1-1.9h4.7c-0.5,0.6-0.8,1.1-0.8,1.9v3.2c-2.1,2-4.8,3.2-7.8,3.2c-5.2,0-9.5-3.9-9.5-9.2
		s4.2-9,9.4-9c3.2,0,5.8,1.2,7.9,3.6v3.2H33.8z"/>
	<path class="st0" d="M45.3,54.1h4.4c-0.6,0.4-0.8,0.9-0.8,1.7v10.3c0,2.8,3.3,4.2,5.7,4.2s5.5-1.4,5.5-4.2V55.8
		c0-0.7-0.2-1.2-0.6-1.7h2.4c-0.5,0.5-0.7,1-0.7,1.7v10.4c0,3.7-4.4,5.2-7.4,5.2c-3.1,0-7.7-1.4-7.7-5.2V55.8
		C46.1,55,45.8,54.5,45.3,54.1L45.3,54.1z"/>
	<path class="st0" d="M89.6,60.2c-0.6-1.5-1.3-2.8-2.5-3.9c-1.3-1.2-2.9-1.9-4.7-1.9c-4.5,0-6.9,4-6.9,8.1s2.4,8.1,6.9,8.1
		c3.3,0,5.7-2.4,7.1-5.2v3.1c-2.1,2.1-4.8,3.1-7.7,3.1c-5.4,0-9.5-3.5-9.5-9.1c0-5.4,3.9-9,9.2-9c3,0,5.8,1,8,3.1L89.6,60.2
		L89.6,60.2z"/>
	<path class="st0" d="M118.1,60.2c-0.6-1.5-1.3-2.8-2.5-3.9c-1.3-1.2-2.9-1.9-4.7-1.9c-4.5,0-6.9,4-6.9,8.1s2.4,8.1,6.9,8.1
		c3.3,0,5.7-2.4,7.1-5.2v3.1c-2.1,2.1-4.7,3.1-7.7,3.1c-5.4,0-9.5-3.5-9.5-9.1c0-5.4,3.9-9,9.2-9c3,0,5.8,1,8,3.1L118.1,60.2
		L118.1,60.2z"/>
</g>
</svg>
