<?xml version="1.0" encoding="utf-8"?>
<!-- Generator: Adobe Illustrator 21.0.0, SVG Export Plug-In . SVG Version: 6.00 Build 0)  -->
<svg version="1.1" id="Layer_1" xmlns="http://www.w3.org/2000/svg" xmlns:xlink="http://www.w3.org/1999/xlink" x="0px" y="0px"
	 viewBox="0 0 150 125" style="enable-background:new 0 0 150 125;" xml:space="preserve">
<g>
	<g>
		<path d="M35.8,74.9c-0.7,0-1-0.1-1.4-0.1l-0.2-0.1v-3.2h0.5c0.7,0,1-0.3,1-1V50.2h4v20.6C39.7,73.5,38.3,74.9,35.8,74.9"/>
	</g>
	<g>
		<path d="M55.3,70c-1,0-2.2-0.3-3.3-0.7l-0.1-0.1v-4l0.4,0.2c1.3,0.7,2.1,1,2.9,1c0.6,0,1-0.3,1-1v-0.1c0-0.5-0.1-1-1.7-2.4
			c-1.7-1.6-2.7-3.1-2.7-5.2v-0.1c0-2.7,1.8-4.6,4.7-4.6c1,0,1.8,0.1,2.7,0.4l0.2,0.1v4l-0.4-0.2c-0.7-0.4-1.6-0.7-2.2-0.7
			c-0.6,0-1,0.3-1,0.7v0.1c0,0.5,0.2,0.9,1.8,2.4c1.9,1.8,2.6,3.2,2.6,5.1V65C59.9,68.1,58,70,55.3,70"/>
	</g>
	<g>
		<path d="M44.3,70c-2,0-3.3-1.7-3.3-4.4V53.5h4v11.4c0,0.5,0.1,1.6,0.9,1.6c0.5,0,1-0.6,1-1.6V53.5h4v16.3h-4v-1.2
			C46.4,69.3,45.5,70,44.3,70"/>
	</g>
	<g>
		<path d="M64.4,69.9c-2.3,0-3.5-1.1-3.5-3.2v-9.9h-1v-3.3h1v-3.3h4v3.3h1.8v3.3h-1.8v8.8c0,0.5,0.2,0.7,0.7,0.7
			c0.2,0,0.5-0.1,0.7-0.1l0.3-0.1v3.3l-0.1,0.1C66,69.7,65.1,69.9,64.4,69.9"/>
	</g>
	<g>
		<path d="M102.7,60.3v5.1c0,1.4-1.1,2.5-2.4,2.5s-2.4-1.1-2.4-2.5c0-1.5,1.2-2.5,2.2-3.3C101.3,61.3,102.7,60.3,102.7,60.3
			 M102.7,58.1c-0.9,0.6-3.5,2.2-4.6,3c-1.2,0.7-2.5,2-2.5,4.6c0,2.3,1.8,4.2,4.1,4.2c1.2,0,2.2-0.4,3-1.2v1l2.2-0.1V58.5
			c0-2.8-1.9-5-4.2-5s-4.2,2.2-4.2,5v1.4h2.2v-1.4v-0.1c0-1.4,0.9-2.5,2-2.5C101.7,55.7,102.5,56.7,102.7,58.1L102.7,58.1z
			 M108.7,50.5v19.1h-2.3V50.5H108.7z M84.9,60.3v5.1c0,1.4-1.1,2.5-2.4,2.5c-1.3,0-2.4-1.1-2.4-2.5c0-1.5,1.2-2.5,2.2-3.3
			C83.5,61.3,84.9,60.3,84.9,60.3 M84.9,58.1c-0.9,0.6-3.5,2.2-4.6,3c-1.2,0.7-2.5,2-2.5,4.6c0,2.3,1.8,4.2,4.1,4.2
			c1.2,0,2.2-0.4,3-1.2v1l2.2-0.1V58.5c0-2.8-1.9-5-4.2-5c-2.3,0-4.2,2.2-4.2,5v1.4h2.2v-1.4v-0.1c0-1.4,0.9-2.5,2-2.5
			C84,55.7,84.8,56.7,84.9,58.1L84.9,58.1z M87.2,53.9h2.4l2.2,10l2.1-10h2.4l-3.7,15.8h-1.9L87.2,53.9z M112.2,50.5v19.1H110V50.5
			H112.2z M115.9,50.5V53h-2.3v-2.5H115.9z M115.9,53.9v15.6h-2.3V53.9H115.9z M77.3,58.8h-2.1c-0.1-1.8-1-3.2-2.2-3.2
			s-2.2,1.5-2.2,3.3v5.4c0,1.8,1,3.3,2.2,3.3s2.2-1.4,2.2-3.3h2.1v0.3c0,2.8-2,5-4.4,5s-4.4-2.2-4.4-5v-6.3c0-2.8,2-5,4.4-5
			s4.4,2.2,4.4,5V58.8z"/>
	</g>
</g>
</svg>
