<?xml version="1.0" encoding="utf-8"?>
<!-- Generator: Adobe Illustrator 21.0.0, SVG Export Plug-In . SVG Version: 6.00 Build 0)  -->
<svg version="1.1" id="Layer_1" xmlns="http://www.w3.org/2000/svg" xmlns:xlink="http://www.w3.org/1999/xlink" x="0px" y="0px"
	 viewBox="0 0 150 125" style="enable-background:new 0 0 150 125;" xml:space="preserve">
<g>
	<g>
		<path d="M17.3,80.7c-1,0-1.4-0.1-2.1-0.2l-0.3-0.1v-4.7h0.8c1.1,0,1.5-0.5,1.5-1.5V44.4h5.9v30.3C23.1,78.6,21.1,80.7,17.3,80.7"
			/>
	</g>
	<g>
		<path d="M46,73.5c-1.5,0-3.3-0.4-4.9-1.1l-0.2-0.1v-5.9l0.6,0.3c1.9,1,3.1,1.4,4.2,1.4c0.9,0,1.5-0.5,1.5-1.4v-0.1
			c0-0.8-0.2-1.4-2.5-3.6c-2.5-2.4-4-4.5-4-7.6v-0.1c0-4,2.7-6.7,6.9-6.7c1.5,0,2.6,0.2,3.9,0.6l0.3,0.1v5.9l-0.6-0.3
			c-1.1-0.6-2.3-1-3.3-1c-0.9,0-1.5,0.5-1.5,1.1v0.1c0,0.7,0.3,1.3,2.7,3.5c2.8,2.7,3.8,4.7,3.8,7.5v0.1C52.8,70.7,50,73.5,46,73.5"
			/>
	</g>
	<g>
		<path d="M29.9,73.5c-3,0-4.8-2.5-4.8-6.4V49.2H31v16.7c0,0.7,0.1,2.3,1.3,2.3c0.8,0,1.4-0.9,1.4-2.3V49.2h5.9v23.9h-5.9v-1.7
			C32.9,72.5,31.7,73.5,29.9,73.5"/>
	</g>
	<g>
		<path d="M59.4,73.4c-3.4,0-5.1-1.6-5.1-4.7V54.1h-1.4v-4.9h1.4v-4.9h5.9v4.9h2.7v4.9h-2.7V67c0,0.8,0.3,1,1,1
			c0.3,0,0.7-0.1,1.1-0.2l0.5-0.2v4.9l-0.2,0.1C61.7,73.1,60.4,73.4,59.4,73.4"/>
	</g>
	<g>
		<path d="M115.7,59.3v7.5c0,2-1.6,3.7-3.5,3.7c-1.9,0-3.5-1.6-3.5-3.7c0-2.2,1.8-3.7,3.3-4.9C113.6,60.7,115.7,59.3,115.7,59.3
			 M115.7,56c-1.3,0.9-5.1,3.3-6.8,4.4c-1.7,1.1-3.7,3-3.7,6.8c0,3.4,2.7,6.2,6,6.2c1.7,0,3.3-0.6,4.4-1.7v1.4l3.3-0.1V56.6
			c0-4.1-2.8-7.4-6.2-7.4c-3.4,0-6.2,3.3-6.2,7.4v2h3.2v-2.1v-0.2c0-2,1.3-3.7,2.9-3.7C114.3,52.5,115.5,54,115.7,56L115.7,56z
			 M124.5,44.8v28.1h-3.4V44.8H124.5z M89.6,59.3v7.5c0,2-1.6,3.7-3.5,3.7c-1.9,0-3.5-1.6-3.5-3.7c0-2.2,1.8-3.7,3.3-4.9
			C87.5,60.7,89.6,59.3,89.6,59.3 M89.6,56c-1.3,0.9-5.1,3.3-6.8,4.4c-1.7,1.1-3.7,3-3.7,6.8c0,3.4,2.7,6.2,6,6.2
			c1.7,0,3.3-0.6,4.4-1.7v1.4l3.3-0.1V56.6c0-4.1-2.8-7.4-6.2-7.4c-3.4,0-6.2,3.3-6.2,7.4v2h3.2v-2.1v-0.2c0-2,1.3-3.7,2.9-3.7
			C88.2,52.5,89.4,54,89.6,56L89.6,56z M93,49.8h3.6l3.3,14.7l3.1-14.7h3.6L101.2,73h-2.8L93,49.8z M129.7,44.8v28.1h-3.3V44.8
			H129.7z M135.1,44.8v3.7h-3.4v-3.7H135.1z M135.1,49.9v22.9h-3.4V49.9H135.1z M78.4,57.1h-3.1c-0.1-2.6-1.5-4.7-3.3-4.7
			c-1.8,0-3.3,2.2-3.3,4.9v7.9c0,2.7,1.5,4.9,3.3,4.9c1.8,0,3.3-2.1,3.3-4.8h3.1v0.5c0,4.1-2.9,7.4-6.4,7.4c-3.5,0-6.4-3.3-6.4-7.4
			v-9.2c0-4.1,2.9-7.4,6.4-7.4c3.5,0,6.4,3.3,6.4,7.4L78.4,57.1z"/>
	</g>
</g>
</svg>
