<?xml version="1.0" encoding="utf-8"?>
<!-- Generator: Adobe Illustrator 21.0.0, SVG Export Plug-In . SVG Version: 6.00 Build 0)  -->
<svg version="1.1" id="Layer_1" xmlns="http://www.w3.org/2000/svg" xmlns:xlink="http://www.w3.org/1999/xlink" x="0px" y="0px"
	 viewBox="0 0 150 125" style="enable-background:new 0 0 150 125;" xml:space="preserve">
<g>
	<g>
		<path d="M38.1,74.1c-0.6,0-0.9-0.1-1.3-0.1L36.5,74v-3H37c0.7,0,1-0.3,1-1V50.9h3.8v19.4C41.8,72.8,40.5,74.1,38.1,74.1"/>
	</g>
	<g>
		<path d="M56.4,69.5c-1,0-2.1-0.3-3.1-0.7l-0.1-0.1V65l0.4,0.2c1.2,0.6,2,0.9,2.7,0.9c0.6,0,1-0.3,1-0.9v-0.1
			c0-0.5-0.1-0.9-1.6-2.3C54,61.3,53,59.9,53,58v-0.1c0-2.6,1.7-4.3,4.4-4.3c1,0,1.7,0.1,2.5,0.4l0.2,0.1v3.8l-0.4-0.2
			c-0.7-0.4-1.5-0.6-2.1-0.6c-0.6,0-1,0.3-1,0.7v0.1c0,0.4,0.2,0.8,1.7,2.2c1.8,1.7,2.4,3,2.4,4.8v0.1C60.8,67.7,59,69.5,56.4,69.5"
			/>
	</g>
	<g>
		<path d="M46.1,69.5c-1.9,0-3.1-1.6-3.1-4.1V54h3.8v10.7c0,0.4,0.1,1.5,0.8,1.5c0.5,0,0.9-0.6,0.9-1.5V54h3.8v15.3h-3.8v-1.1
			C48.1,68.9,47.3,69.5,46.1,69.5"/>
	</g>
	<g>
		<path d="M65,69.5c-2.2,0-3.3-1-3.3-3v-9.3h-0.9V54h0.9v-3.1h3.8V54h1.7v3.1h-1.7v8.3c0,0.5,0.2,0.6,0.6,0.6c0.2,0,0.4-0.1,0.7-0.1
			l0.3-0.1v3.1L67.1,69C66.5,69.3,65.7,69.5,65,69.5"/>
	</g>
	<g>
		<path d="M101,60.5v4.8c0,1.3-1,2.4-2.2,2.4s-2.2-1-2.2-2.4c0-1.4,1.2-2.4,2.1-3.1C99.7,61.3,101,60.5,101,60.5 M101,58.3
			c-0.8,0.6-3.3,2.1-4.4,2.8c-1.1,0.7-2.4,1.9-2.4,4.4c0,2.2,1.7,4,3.8,4c1.1,0,2.1-0.4,2.8-1.1v0.9l2.1-0.1V58.7
			c0-2.6-1.8-4.7-4-4.7c-2.2,0-4,2.1-4,4.7V60h2v-1.3v-0.1c0-1.3,0.8-2.4,1.9-2.4C100.2,56.1,100.9,57.1,101,58.3L101,58.3z
			 M106.7,51.2v18h-2.2v-18H106.7z M84.3,60.5v4.8c0,1.3-1,2.4-2.2,2.4s-2.2-1-2.2-2.4c0-1.4,1.2-2.4,2.1-3.1
			C83,61.3,84.3,60.5,84.3,60.5 M84.3,58.3c-0.8,0.6-3.3,2.1-4.4,2.8c-1.1,0.7-2.4,1.9-2.4,4.4c0,2.2,1.7,4,3.8,4
			c1.1,0,2.1-0.4,2.8-1.1v0.9l2.1-0.1V58.7c0-2.6-1.8-4.7-4-4.7c-2.2,0-4,2.1-4,4.7V60h2v-1.3v-0.1c0-1.3,0.8-2.4,1.9-2.4
			C83.4,56.1,84.2,57.1,84.3,58.3L84.3,58.3z M86.5,54.4h2.3l2.1,9.4l2-9.4h2.3l-3.5,14.8H90L86.5,54.4z M110,51.2v18h-2.1v-18H110z
			 M113.5,51.2v2.4h-2.2v-2.4H113.5z M113.5,54.4v14.7h-2.2V54.4H113.5z M77.2,59h-2c-0.1-1.7-1-3-2.1-3S71,57.4,71,59.2v5.1
			c0,1.7,1,3.1,2.1,3.1s2.1-1.3,2.1-3.1h2v0.3c0,2.6-1.9,4.7-4.1,4.7S69,67.2,69,64.6v-5.9c0-2.6,1.9-4.7,4.1-4.7s4.1,2.1,4.1,4.7
			V59z"/>
	</g>
</g>
</svg>
