<?xml version="1.0" encoding="utf-8"?>
<!-- Generator: Adobe Illustrator 21.0.0, SVG Export Plug-In . SVG Version: 6.00 Build 0)  -->
<svg version="1.1" id="Layer_1" xmlns="http://www.w3.org/2000/svg" xmlns:xlink="http://www.w3.org/1999/xlink" x="0px" y="0px"
	 viewBox="0 0 150 125" style="enable-background:new 0 0 150 125;" xml:space="preserve">
<style type="text/css">
	.st0{fill:#FFFFFF;}
</style>
<g>
	<g>
		<path d="M55.5,74.8c-1.2,1.6-2.6,2.9-4.4,3.8c-4.4,2.2-9.6,1.4-13-2c-3.6-3.6-4.4-8.7-2.2-13.2c2.3-4.7,7.6-7.1,12.7-5.9
			c5,1.2,8.6,5.7,8.6,10.9c0,3.5,0,6.9,0,10.4c0,0.5,0.1,1-0.7,1s-0.8-0.4-0.8-1c0-1.3,0-2.6,0-3.8C55.7,74.8,55.6,74.8,55.5,74.8z
			 M45.9,78.2c5.4,0,9.8-4.3,9.9-9.6c0-5.5-4.3-9.9-9.7-9.9s-9.8,4.3-9.8,9.8C36.3,73.8,40.7,78.2,45.9,78.2z"/>
		<path d="M87,68.6c0,6.2-5,11.3-11.2,11.3c-6.3,0-11.4-5-11.4-11.3s5-11.4,11.2-11.4C81.9,57.2,87,62.2,87,68.6z M85.4,68.5
			c0-5.5-4.3-9.8-9.8-9.7c-5.3,0-9.6,4.4-9.6,9.8s4.3,9.7,9.7,9.7C81.1,78.2,85.4,73.9,85.4,68.5z"/>
		<path d="M91,59.9c0.3-0.2,0.5-0.4,0.6-0.5c2.4-2.2,5.2-2.8,8.2-1.5c3,1.2,4.6,3.7,4.7,6.9c0.1,4.7,0,9.4,0,14.1
			c0,0.6-0.1,0.9-0.8,0.9c-0.7,0-0.8-0.3-0.8-0.9c0-4.6,0-9.2,0-13.7c0-3.6-2.6-6.3-6-6.3s-6,2.7-6,6.2c0,4.5,0,9.1,0,13.6
			c0,0.5,0.1,1.1-0.8,1c-0.8,0-0.8-0.4-0.8-1c0-6.6,0-13.3,0-19.9c0-0.6-0.1-1,0.8-1c0.8,0,0.8,0.4,0.8,1C90.9,59.1,91,59.4,91,59.9
			z"/>
		<path d="M67.2,45.2c0.3,1.3,0.3,1.3-1,1.5C63,47,61.3,49,61.3,52.1c0,1.6,0,3.3,0,4.9c0,0.6,0.2,0.9,0.9,0.9c0.9,0,1.8,0,2.7,0
			c0.3,1.5,0.3,1.5-1.1,1.5c-2.5,0-2.5,0-2.5,2.5c0,5.5,0,11,0,16.5c0,0.4,0,0.7,0,1c-1.4,0.3-1.5,0.2-1.5-1.1c0-8.6,0-17.1,0-25.7
			c0-1.1,0.1-2.3,0.5-3.4C61.2,46.5,64.3,44.7,67.2,45.2z"/>
		<path d="M106.8,61.9c0-3.8,0-7.5,0-11.3c0-0.6,0-1,0.8-1s0.8,0.5,0.8,1c0,2.1,0,4.1,0,6.2c0,0.9,0.3,1.3,1.2,1.2
			c0.4,0,0.8,0,1.2,0c0.6,0,0.9,0.1,0.9,0.8s-0.4,0.8-0.9,0.8c-2.4,0-2.3,0.1-2.3,2.4c0,3.4,0,6.8,0,10.3c0,0.3,0,0.6,0,0.9
			c0.1,3.2,1.6,4.9,4.9,5.2c0.4,0,0.9,0.1,1.1,0.4c0.4,0.6-0.1,1.2-0.8,1.2c-4.2-0.1-6.6-2.6-6.7-7
			C106.8,69.2,106.8,65.5,106.8,61.9L106.8,61.9z"/>
		<path d="M32.8,79.5c-0.5,0-0.9,0-1.4,0c0-11.5,0-23.1,0-34.6c0.5,0,0.9,0,1.4,0C32.8,56.4,32.8,67.9,32.8,79.5z"/>
		<path d="M119.2,79.1c-0.4,0.3-0.8,0.8-1.1,0.8c-0.4-0.1-0.7-0.6-1.1-1c0.3-0.3,0.6-1,1-1s0.8,0.5,1.2,0.7
			C119.1,78.8,119.2,79,119.2,79.1z"/>
		<path d="M92.1,77.2c0.2,0,0.4-0.1,0.6-0.1c0.5,0,1.1-0.1,1.2,0.7c0.1,0.7-0.5,0.7-1,0.8c-0.3,0.1-0.5,0.6-0.8,0.9
			C92.1,78.8,92.1,78,92.1,77.2z"/>
		<path d="M96.1,79.5c-1-0.9-1.3-0.9-2.2,0c0.3-0.8,0.6-1.6,0.9-2.4c0.1,0,0.2,0,0.3,0C95.5,77.9,95.8,78.7,96.1,79.5z"/>
		<path d="M98.5,79.5c-0.4-0.3-0.8-0.6-1.2-0.9c-0.2,0.3-0.4,0.6-0.8,1.1c0-0.8-0.1-1.5,0.1-2.2c0-0.2,0.7-0.3,1.1-0.3
			c0.3,0,0.7,0.3,0.8,0.6C98.6,78.3,98.5,78.9,98.5,79.5z M97.5,78.5c0.3-0.3,0.5-0.5,0.7-0.6c-0.2-0.1-0.5-0.4-0.7-0.4
			s-0.4,0.2-0.6,0.4C97.1,78,97.2,78.2,97.5,78.5z"/>
		<path d="M100.2,79c0.2,0.1,0.3,0.3,0.5,0.3c0.3,0,0.6-0.1,0.9-0.2c-0.2-0.2-0.3-0.4-0.6-0.6c-0.3-0.3-0.6-0.5-0.9-0.7
			c0.2-0.3,0.4-0.7,0.7-0.7c0.4,0,0.8,0.2,1.1,0.5c-0.5,0-0.9-0.1-1.4-0.1c0,0.1-0.1,0.3-0.1,0.4c0.2,0.1,0.5,0.2,0.7,0.4
			c0.3,0.2,0.6,0.5,0.9,0.8c-0.3,0.2-0.5,0.7-0.8,0.7c-0.4,0-0.8-0.2-1.2-0.4C100.1,79.2,100.2,79.1,100.2,79z"/>
		<path class="st0" d="M97.5,78.5c-0.2-0.3-0.4-0.5-0.6-0.6c0.2-0.1,0.4-0.4,0.6-0.4s0.5,0.2,0.7,0.4C98,78,97.8,78.2,97.5,78.5z"/>
	</g>
</g>
</svg>
