<?xml version="1.0" encoding="utf-8"?>
<!-- Generator: Adobe Illustrator 21.0.0, SVG Export Plug-In . SVG Version: 6.00 Build 0)  -->
<svg version="1.1" id="Layer_1" xmlns="http://www.w3.org/2000/svg" xmlns:xlink="http://www.w3.org/1999/xlink" x="0px" y="0px"
	 viewBox="0 0 150 125" style="enable-background:new 0 0 150 125;" xml:space="preserve">
<style type="text/css">
	.st0{fill:#FFFFFF;}
</style>
<g>
	<g>
		<path d="M61.7,70.8c-0.8,1.1-1.7,1.9-2.9,2.5c-2.9,1.5-6.4,0.9-8.7-1.3c-2.4-2.4-2.9-5.8-1.5-8.8c1.5-3.1,5.1-4.8,8.5-4
			c3.4,0.8,5.8,3.8,5.8,7.3c0,2.3,0,4.6,0,7c0,0.3,0.1,0.7-0.5,0.7s-0.5-0.3-0.5-0.7c0-0.9,0-1.7,0-2.5
			C61.9,70.8,61.8,70.8,61.7,70.8z M55.3,73.1c3.6,0,6.6-2.9,6.6-6.4c0-3.7-2.9-6.6-6.5-6.6c-3.6,0-6.6,2.9-6.6,6.6
			C48.9,70.1,51.8,73.1,55.3,73.1z"/>
		<path d="M82.8,66.6c0,4.2-3.4,7.6-7.5,7.6c-4.2,0-7.6-3.4-7.6-7.6c0-4.2,3.4-7.6,7.5-7.6C79.4,59,82.8,62.3,82.8,66.6z M81.8,66.6
			c0-3.7-2.9-6.6-6.6-6.5c-3.6,0-6.4,2.9-6.4,6.6c0,3.6,2.9,6.5,6.5,6.5C78.9,73.1,81.8,70.2,81.8,66.6z"/>
		<path d="M85.5,60.8c0.2-0.1,0.3-0.3,0.4-0.3c1.6-1.5,3.5-1.9,5.5-1c2,0.8,3.1,2.5,3.1,4.6c0.1,3.1,0,6.3,0,9.4
			c0,0.4-0.1,0.6-0.5,0.6c-0.5,0-0.5-0.2-0.5-0.6c0-3.1,0-6.2,0-9.2c0-2.4-1.7-4.2-4-4.2s-4,1.8-4,4.2c0,3,0,6.1,0,9.1
			c0,0.3,0.1,0.7-0.5,0.7c-0.5,0-0.5-0.3-0.5-0.7c0-4.4,0-8.9,0-13.3c0-0.4-0.1-0.7,0.5-0.7c0.5,0,0.5,0.3,0.5,0.7
			C85.5,60.3,85.5,60.5,85.5,60.8z"/>
		<path d="M69.6,50.9c0.2,0.9,0.2,0.9-0.7,1c-2.1,0.2-3.3,1.5-3.3,3.6c0,1.1,0,2.2,0,3.3c0,0.4,0.1,0.6,0.6,0.6c0.6,0,1.2,0,1.8,0
			c0.2,1,0.2,1-0.7,1c-1.7,0-1.7,0-1.7,1.7c0,3.7,0,7.4,0,11.1c0,0.3,0,0.5,0,0.7c-0.9,0.2-1,0.1-1-0.7c0-5.8,0-11.5,0-17.2
			c0-0.7,0.1-1.5,0.3-2.3C65.6,51.8,67.6,50.6,69.6,50.9z"/>
		<path d="M96.1,62.1c0-2.5,0-5,0-7.6c0-0.4,0-0.7,0.5-0.7s0.5,0.3,0.5,0.7c0,1.4,0,2.7,0,4.2c0,0.6,0.2,0.9,0.8,0.8
			c0.3,0,0.5,0,0.8,0c0.4,0,0.6,0.1,0.6,0.5s-0.3,0.5-0.6,0.5c-1.6,0-1.5,0.1-1.5,1.6c0,2.3,0,4.6,0,6.9c0,0.2,0,0.4,0,0.6
			c0.1,2.1,1.1,3.3,3.3,3.5c0.3,0,0.6,0.1,0.7,0.3c0.3,0.4-0.1,0.8-0.5,0.8c-2.8-0.1-4.4-1.7-4.5-4.7C96.1,67,96.1,64.5,96.1,62.1
			L96.1,62.1z"/>
		<path d="M46.5,73.9c-0.3,0-0.6,0-0.9,0c0-7.7,0-15.5,0-23.2c0.3,0,0.6,0,0.9,0C46.5,58.4,46.5,66.2,46.5,73.9z"/>
		<path d="M104.4,73.7c-0.3,0.2-0.5,0.5-0.7,0.5c-0.3-0.1-0.5-0.4-0.7-0.7c0.2-0.2,0.4-0.7,0.7-0.7s0.5,0.3,0.8,0.5
			C104.3,73.5,104.4,73.6,104.4,73.7z"/>
		<path d="M86.3,72.4c0.1,0,0.3-0.1,0.4-0.1c0.3,0,0.7-0.1,0.8,0.5c0.1,0.5-0.3,0.5-0.7,0.5c-0.2,0.1-0.3,0.4-0.5,0.6
			C86.3,73.5,86.3,72.9,86.3,72.4z"/>
		<path d="M88.9,73.9c-0.7-0.6-0.9-0.6-1.5,0c0.2-0.5,0.4-1.1,0.6-1.6c0.1,0,0.1,0,0.2,0C88.5,72.9,88.7,73.4,88.9,73.9z"/>
		<path d="M90.5,73.9c-0.3-0.2-0.5-0.4-0.8-0.6c-0.1,0.2-0.3,0.4-0.5,0.7c0-0.5-0.1-1,0.1-1.5c0-0.1,0.5-0.2,0.7-0.2
			c0.2,0,0.5,0.2,0.5,0.4C90.6,73.1,90.5,73.5,90.5,73.9z M89.9,73.3c0.2-0.2,0.3-0.3,0.5-0.4c-0.1-0.1-0.3-0.3-0.5-0.3
			c-0.1,0-0.3,0.1-0.4,0.3C89.6,72.9,89.7,73.1,89.9,73.3z"/>
		<path d="M91.7,73.6c0.1,0.1,0.2,0.2,0.3,0.2c0.2,0,0.4-0.1,0.6-0.1c-0.1-0.1-0.2-0.3-0.4-0.4c-0.2-0.2-0.4-0.3-0.6-0.5
			c0.1-0.2,0.3-0.5,0.5-0.5c0.3,0,0.5,0.1,0.7,0.3c-0.3,0-0.6-0.1-0.9-0.1c0,0.1-0.1,0.2-0.1,0.3c0.1,0.1,0.3,0.1,0.5,0.3
			c0.2,0.1,0.4,0.3,0.6,0.5c-0.2,0.1-0.3,0.5-0.5,0.5c-0.3,0-0.5-0.1-0.8-0.3C91.6,73.7,91.7,73.7,91.7,73.6z"/>
		<path class="st0" d="M89.9,73.3c-0.1-0.2-0.3-0.3-0.4-0.4c0.1-0.1,0.3-0.3,0.4-0.3c0.1,0,0.3,0.1,0.5,0.3
			C90.2,72.9,90.1,73.1,89.9,73.3z"/>
	</g>
</g>
</svg>
