<?xml version="1.0" encoding="utf-8"?>
<!-- Generator: Adobe Illustrator 21.0.0, SVG Export Plug-In . SVG Version: 6.00 Build 0)  -->
<svg version="1.1" id="Layer_1" xmlns="http://www.w3.org/2000/svg" xmlns:xlink="http://www.w3.org/1999/xlink" x="0px" y="0px"
	 viewBox="0 0 150 125" style="enable-background:new 0 0 150 125;" xml:space="preserve">
<style type="text/css">
	.st0{fill-rule:evenodd;clip-rule:evenodd;fill:#231F20;}
</style>
<g>
	<path class="st0" d="M97.6,60.2c0.5,0,1.1,0,1.4,0.2c0.3,0.2,0.6,0.5,0.7,0.9c0.2,0.9-0.5,1.8-1.3,1.7l-0.8,0L97.6,60.2L97.6,60.2z
		 M55.2,59.5l0,3.2l0,4.6c1.7,0,3,0.1,4.2-1c1-1,1.4-2.3,1.2-3.5c-0.1-1.1-0.7-2-1.4-2.6C58,59.4,56.8,59.4,55.2,59.5L55.2,59.5
		L55.2,59.5z M56.1,62.8l0-2.5c1.1,0,2,0.2,2.6,0.7c0.5,0.5,0.8,1.1,0.9,1.8c0.2,1.1-0.1,2.2-0.9,3c-0.7,0.6-1.4,0.8-2.6,0.8
		L56.1,62.8L56.1,62.8z M40.4,59.4v7.9l0.9,0l0-6.2l4,6.2l0.9,0l0-7.9l-0.9,0l0,6.1l-4-6.2L40.4,59.4L40.4,59.4z M83.3,67.3v-7.9h4
		v0.8h-3.1v2.3h3v0.9h-3v3.1h3.1v0.8H83.3L83.3,67.3z M112.4,63.3h3.2v0.3c0,1.2-0.3,2.2-1,2.9c-0.7,0.7-1.6,1-2.8,1
		c-0.4,0-0.7,0-1-0.1c-0.3-0.1-0.6-0.2-0.9-0.3c-0.6-0.3-1.1-0.8-1.5-1.4c-0.3-0.6-0.5-1.3-0.5-2.1c0-0.6,0.1-1.2,0.3-1.7
		c0.2-0.5,0.5-1,0.9-1.4c0.3-0.3,0.7-0.6,1.2-0.7c0.5-0.2,1-0.3,1.5-0.3c0.7,0,1.4,0.1,1.9,0.4c0.5,0.3,1,0.7,1.3,1.2l-0.8,0.6
		c-0.3-0.5-0.6-0.8-1-1c-0.4-0.2-0.9-0.3-1.4-0.3c-0.9,0-1.6,0.3-2.2,0.9c-0.6,0.6-0.8,1.4-0.8,2.4c0,0.9,0.3,1.7,0.8,2.2
		c0.6,0.6,1.3,0.9,2.1,0.9c0.8,0,1.4-0.2,1.9-0.7c0.5-0.5,0.8-1.1,0.8-1.8h-2.2V63.3L112.4,63.3z M18.1,67.3v-7.9h0.9v7.1h3.2v0.8
		H18.1L18.1,67.3z M30.3,67.3v-7.9h0.9v7.9H30.3L30.3,67.3z M71.2,67.3c0.4,0,0.8,0,1.1-0.1c0.3-0.1,0.6-0.2,0.8-0.4
		c0.5-0.4,0.8-1,0.8-1.7c0-0.7-0.2-1.2-0.7-1.6c-0.1-0.1-0.4-0.4-0.7-0.5c0.5-0.4,0.8-0.9,0.8-1.5c0-0.6-0.3-1.3-0.8-1.6
		c-0.4-0.3-1.1-0.5-1.9-0.5h-1.2v3.7h0v4.1H71.2L71.2,67.3z M70.3,60.3h0.5c0.6,0,1,0.1,1.3,0.3c0.3,0.2,0.4,0.5,0.4,1
		c0,0.4-0.1,0.8-0.4,1c-0.2,0.1-0.3,0.2-0.5,0.2c-0.2,0-0.4,0.1-0.8,0.1h-0.5V60.3L70.3,60.3z M70.3,63.7H71c0.6,0,1.1,0.1,1.4,0.2
		c0.4,0.2,0.7,0.7,0.7,1.2c0,0.4-0.2,0.8-0.5,1.1c-0.2,0.1-0.4,0.2-0.6,0.3c-0.2,0.1-0.5,0.1-0.8,0.1h-0.9V63.7L70.3,63.7z
		 M126,58.3c0.4,0,0.6,0.2,0.9,0c0.2-0.1,0.1-0.1,0.3-0.3c1.1-0.6,4.6-0.7,4.9,0.3c0.1,0.2,0,0.8,0,1.1c0,0.4,0,0.6-0.4,0.8
		c-0.7,0.4-3.1,0.4-4,0.1c-0.8-0.3-0.7-0.5-1-1.3c-0.1-0.3-0.5-0.5-0.8-0.5c-0.3,0-0.7,0.1-0.8,0.5c-0.2,0.8-0.2,1-1,1.3
		c-0.9,0.3-3.3,0.2-4-0.1c-0.3-0.2-0.3-0.4-0.4-0.8c0-0.3,0-0.9,0-1.1c0.2-1.1,3.7-0.9,4.9-0.3c0.2,0.1,0.2,0.2,0.3,0.3
		C125.4,58.5,125.6,58.3,126,58.3L126,58.3z M122.6,57.9c-0.6,0-1.2,0-1.7,0.2c-0.5,0.2-0.5,0.5-0.4,1.1c0.1,0.6,0.1,0.7,0.7,0.9
		c0.7,0.2,3,0.3,3.4-0.4c0.4-0.8,0.3-1.3-0.4-1.6C123.6,58.1,123.1,57.9,122.6,57.9L122.6,57.9z M129.4,57.9c0.6,0,1.2,0,1.7,0.2
		c0.5,0.2,0.5,0.5,0.4,1.1c-0.1,0.6-0.1,0.7-0.7,0.9c-0.7,0.2-3,0.3-3.4-0.4c-0.4-0.8-0.3-1.3,0.4-1.6
		C128.3,58.1,128.9,57.9,129.4,57.9L129.4,57.9z M96.7,67.3l0.8,0l0-3.5l0.9,0l1.7,3.5l0.9,0l-1.8-3.7c0.8-0.2,1.5-1.3,1.3-2.5
		c-0.4-2-2.3-1.6-3.8-1.6L96.7,67.3L96.7,67.3z"/>
</g>
</svg>
