<?xml version="1.0" encoding="utf-8"?>
<!-- Generator: Adobe Illustrator 21.0.0, SVG Export Plug-In . SVG Version: 6.00 Build 0)  -->
<svg version="1.1" id="Layer_1" xmlns="http://www.w3.org/2000/svg" xmlns:xlink="http://www.w3.org/1999/xlink" x="0px" y="0px"
	 viewBox="0 0 150 125" style="enable-background:new 0 0 150 125;" xml:space="preserve">
<style type="text/css">
	.st0{fill:#FFFFFF;}
</style>
<g>
	<g>
		<path d="M132.4,74c2,2.8,0.9,6.3-3.1,7.6c0.9,1.2,1.8,2.4,2.7,3.5c1.4,1.7,2.9,3.3,4.7,4.5c0.1,0.1,0.3,0.1,0.4,0.1
			c0,0.1,0,0.2,0,0.4c-1.2,0-2.4-0.1-3.6-0.1c-1-0.1-1.6-0.7-2.2-1.4c-1.4-1.9-2.8-3.7-4.2-5.5c-0.5-0.7-0.9-1.4-1.3-2
			c1-0.4,1.9-0.7,2.9-1.1c1.1-0.5,1.9-2,1.7-3c-0.2-1.3-1.2-2.3-2.6-2.5c-0.8-0.1-1.5,0-2.4,0c0,0.4,0,0.6,0,0.9c0,4.2,0,8.3,0,12.5
			c0,0.9,0.3,1.7,1.3,2.4c-1.9,0-3.6,0-5.5,0c1.2-0.7,1.3-1.8,1.3-2.9c0-3.8,0-7.6,0-11.4c0-1.2,0.1-2.4-1.1-3.2
			c3.1,0.2,6.1-0.5,9.1,0.3c0.3,0.1,0.7,0.2,1,0.4C131.9,73.5,132.1,73.7,132.4,74z"/>
		<path d="M77.7,34.4c0.2,1.7,0.4,3.3,0.6,5c0.3,1.9,0.6,3.8,0.9,5.7c0.2,1,0.3,2.1,0.5,3.3c1.1-1.2,2.5-2,4.1-1.2
			c1.5,0.7,2,2.1,2.6,3.6c-0.5-0.1-1-0.1-1.7-0.2c1.3,1,1.5,2.2,1.4,3.6c-0.5-0.3-0.9-0.6-1.3-0.8c0.3,0.9,0.5,1.6,0.8,2.6
			c-1.7-0.8-3.1-0.7-4.1,0.8c-0.9-1.6-0.3-2.3,1.9-2.9c-1-0.5-0.7-1,0.3-2c-0.4,0.1-0.7,0.2-1,0.3c-0.3-1.4,0.4-2.2,1.7-2.8
			c-0.6-0.8-1.1-1.4-2.1-1.2c-0.7,0.1-1.9,1.4-1.9,2.2c0,1.4,0.1,2.8,0.2,4.3c0.2,1.8,0.6,3.7,0.8,5.5c0.3,1.7,0.5,3.4,0.7,5.1
			c0,0.2,0,0.4,0,0.6c-1.2,0-2.4,0-3.7,0c0-0.4,0-0.9,0-1.4c0.6,0,1.2,0,2.1,0c-1-7.1-2-14-3-20.9c-0.1,0-0.1,0-0.2,0
			C76.2,51,75.1,58.4,74,65.9c-0.4,0-0.8,0-1.3,0c0.6-3.7,1.2-7.4,1.7-11c0.5-3.7,1-7.4,1.5-11.1c0.4-2.7,0.9-5.5,1.3-8.2
			c0.1-0.3,0-0.7,0-1C77.5,34.4,77.6,34.4,77.7,34.4z"/>
		<path d="M73.4,34.4c0.2,1.1,0.4,2.2,0.6,3.3c0.4,2.5,0.8,4.9,1.1,7.4c0.1,1.2,0,2.4,0,3.6c0,0.6-0.1,1.1-0.4,1.7
			c-0.4-2.3-0.7-4.6-1.1-6.8c-0.1,0-0.1,0-0.2,0c-1,6.9-1.9,13.7-2.9,20.7c0.6,0,1.2,0,1.8,0c0,0.5,0,1,0,1.5c-1.1,0-2.2,0-3.5,0
			c0.1-0.8,0.1-1.6,0.2-2.3c0.4-2.9,0.9-5.8,1.3-8.7c0.1-1,0.3-1.9,0.5-2.9c0.1-0.5,0.1-1-0.5-1.3c-1.5-0.9-1.9-2.4-1.9-4
			c0-0.2,0-0.3-0.2-0.6c-0.2,0.2-0.3,0.4-0.5,0.7c-0.1-0.1-0.3-0.3-0.4-0.5c-0.3,0.4-0.5,0.8-0.7,1.2c1.7,0.8,2.1,2.2,2.3,3.9
			c0.1,1.1,0.2,2.3,0.9,3.3c0.2,0.3,0,0.8,0,1.4c-1.5-0.7-1.7-2-1.9-3.2c-0.1-0.8-0.2-1.7-0.4-2.5c-0.2-0.9-0.8-1.6-1.7-2
			c-0.3-0.1-0.6-0.3-0.8-0.4c0.6-1.2,1.3-2.3,1.9-3.5c0.4-0.9,1.3-1,2.3-1.4c-0.3,0.6-0.5,0.9-0.7,1.4c0.5-0.1,0.9-0.2,1.3-0.3
			c-0.1,1-0.2,1.9-0.2,2.9c0,1.1,0.4,2.1,1.5,3c0.1-0.7,0.3-1.4,0.4-2c0.5-3.6,1-7.3,1.5-10.9c0.1-0.8,0.2-1.6,0.4-2.3
			C73.3,34.4,73.4,34.4,73.4,34.4z"/>
		<path d="M37.1,90.1c-1.8,0-3.5,0-5.6,0c2.3-1.2,1.1-3,1.1-4.5c0-1.3-0.4-2.5-0.5-3.8c-0.2-1.9-0.4-3.9-0.8-5.9
			c-1.9,4.8-3.8,9.7-5.7,14.6c-1-0.4-1.6-1.2-2-2.1c-1-2.1-1.9-4.3-2.8-6.5c-0.8-2-1.7-4-2.6-6.3c-0.2,1.6-0.4,2.9-0.6,4.3
			c-0.3,2.2-0.6,4.3-0.9,6.5c-0.1,0.6-0.3,1.3-0.2,1.9c0.1,0.6,0.5,1.2,0.9,1.8c-1.3,0-2.7,0-4.3,0c0.1-0.2,0.3-0.5,0.4-0.7
			c0.3-0.8,0.8-1.6,0.9-2.4c0.4-2.5,0.8-5.1,1.1-7.7c0.2-1.6,0.5-3.2,0.5-4.8c0-0.6-0.4-1.2-0.6-1.9c1.3,0,2.8,0,4.3,0
			c0.1,0,0.3,0.3,0.4,0.5c1.2,2.9,2.5,5.9,3.7,8.8c0.4,1.1,0.9,2.1,1.4,3.4c1.7-4.3,3.3-8.5,4.9-12.7c1.4,0,2.9,0,4.5,0
			c-1.1,0.9-0.7,2.1-0.5,3.2c0.2,2.1,0.6,4.2,0.9,6.3c0.3,2,0.4,3.9,0.8,5.9C36.1,88.7,36.7,89.4,37.1,90.1z"/>
		<path d="M47.1,90.5c-4.1,0.2-8-2.8-9.1-6.3s-0.3-6.6,2.1-9.3c1.6-1.8,3.9-2.8,6.3-3c2.5-0.2,5,0.2,7.1,1.8
			c1.9,1.4,3.2,3.3,3.6,5.6c0.6,3.1-0.2,5.8-2.3,8C52.8,89.6,50.3,90.6,47.1,90.5z M47.6,88.5c2.5-0.2,4.5-1.2,5.7-3.6
			c0.7-1.4,0.9-3,0.6-4.5c-0.3-2-1-3.7-2.7-5.1c-1.6-1.3-3.4-1.5-5.2-1.2c-1.7,0.3-3.1,1.2-4,2.7c-1.5,2.4-1.5,4.9-0.3,7.5
			C42.7,86.9,44.7,88.4,47.6,88.5z"/>
		<path d="M63.1,90.1c-1.4,0-2.9,0-4.6,0c0.2-0.2,0.3-0.3,0.4-0.5c0.3-0.5,0.9-1,0.9-1.6c0.2-1.5,0.2-3,0.2-4.6c0-2.1,0-4.2,0-6.3
			c0-0.9,0-1.9-0.2-2.8c-0.2-0.6-0.7-1.1-1.1-1.8c1.2,0,2.4,0,3.6,0c0.2,0,0.4,0.1,0.5,0.3c2.8,3.5,5.5,7.1,8.3,10.7
			c0.5,0.7,1.1,1.3,1.7,2c0-0.2,0.1-0.3,0.1-0.4c0-3.4,0.1-6.9,0-10.3c0-0.8-0.6-1.5-0.9-2.2c1.3,0,2.9,0,4.6,0
			c-1.7,1-1.4,2.5-1.4,3.9c0,4.4,0,8.9,0,13.3c0,0.3,0,0.7,0,1.1c-1.1-0.1-2-0.6-2.6-1.3c-0.8-0.8-1.6-1.8-2.3-2.7
			c-2-2.5-3.9-5-5.9-7.5c-0.7-0.8-1.3-1.7-2-2.6c0,0.3-0.1,0.4-0.1,0.6c0,3.4-0.1,6.9,0,10.3C62.2,88.4,62.8,89.2,63.1,90.1z"/>
		<path d="M91.6,75.6c-1.7-0.4-3.3-1.1-5-1.2c-3.2-0.1-5.5,2-6,5.3c-0.4,2.4,0.2,4.6,1.8,6.3c1.9,2.2,4.5,2.5,7.2,1.7
			c1.1-0.3,2.1-0.8,3.4-1.3c-0.5,1.1-0.7,2.3-1.4,3.1c-0.5,0.6-1.6,0.9-2.5,0.9c-2.5,0.2-5.1,0.1-7.4-1.2c-2.9-1.6-4.3-4.1-4.4-7.4
			c-0.1-2.4,0.3-4.7,1.9-6.7c1.5-1.8,3.4-2.7,5.7-3.1c2.1-0.4,4.1,0,6.2,0.4c0.2,0,0.5,0.4,0.5,0.6C91.7,74,91.6,74.9,91.6,75.6z"/>
		<path d="M111.7,79.5c1.5,0,2.9,0,4.4,0c0,0.9,0,1.9,0,3c-1.3-1.4-2.9-0.7-4.4-0.8c0,2.1,0,4.1,0,6.1c2.9,0.4,5.7,1,8.2-1.3
			c0.1,0.1,0.1,0.1,0.2,0.2c-0.4,1.2-0.8,2.4-1.2,3.6c-3.8,0-7.5,0-11.6,0c1.6-0.9,1.5-2.3,1.5-3.5c0.1-3.6,0.1-7.2,0-10.9
			c0-1.1,0.1-2.4-1.1-3.3c3.3,0,6.5,0,9.9,0c0,1,0,2.1,0,3.2c-0.5-0.3-0.8-0.8-1.2-0.8c-1.4-0.2-2.8-0.2-4.2-0.3
			c-0.2,0-0.5,0.3-0.5,0.5C111.7,76.6,111.7,78,111.7,79.5z"/>
		<path d="M93.9,90c1.1-0.7,1.1-1.7,1.1-2.8c0-4,0-7.9,0-11.9c0-1-0.1-2-1.2-2.7c1.8,0,3.5,0,5.3,0C97.6,73.8,98,75.5,98,77
			c0,3.5,0,7.1,0,10.7c2.9,0.4,5.7,0.8,8.2-1.3c0.1,0.1,0.1,0.1,0.2,0.2c-0.4,1.1-0.9,2.3-1.4,3.4c0,0.1-0.3,0.2-0.5,0.2
			c-3.5,0-7,0-10.5,0C94,90.1,94,90.1,93.9,90z"/>
		<path d="M76.3,54.6c0.5,3.7,1,7.3,1.6,10.9c-0.4,0-0.7,0-1.1,0C76.5,62,75.3,58.5,76.3,54.6z"/>
		<path d="M132.4,74c-0.3-0.3-0.5-0.5-0.8-0.8c-0.5-1.3-0.7-2.5,0.4-3.6c0.9-0.9,2.3-1.1,3.4-0.5c1.1,0.6,1.6,2,1.3,3.1
			c-0.4,1.3-1.3,2.1-2.7,2.1C133.5,74.3,132.9,74.1,132.4,74z M136.3,71.5c0-1.1-1.2-2.2-2.3-2.2c-1.2,0-2.2,1.1-2.2,2.3
			c0,1.2,1.1,2.2,2.2,2.2C135.2,73.8,136.3,72.7,136.3,71.5z"/>
		<path class="st0" d="M136.3,71.5c0,1.1-1.1,2.3-2.2,2.3c-1.2,0-2.2-1-2.2-2.2s1-2.2,2.2-2.3C135.1,69.3,136.3,70.4,136.3,71.5z
			 M135,73.1c0.1-0.1,0.1-0.1,0.2-0.2c-0.2-0.4-0.4-0.8-0.6-1.1c0.1,0,0.2,0,0.2,0c0-0.5,0.3-1.2,0.1-1.4c-0.4-0.4-1.1-0.4-1.8-0.6
			c0,1.2,0,2.2,0,3.2c0.1,0,0.1,0,0.2,0c0.1-0.4,0.1-0.8,0.2-1.2c0.1,0,0.2-0.1,0.2-0.1C134.2,72.1,134.6,72.6,135,73.1z"/>
		<path d="M135,73.1c-0.4-0.5-0.8-1-1.2-1.5c-0.1,0-0.2,0.1-0.2,0.1c-0.1,0.4-0.1,0.8-0.2,1.2c-0.1,0-0.1,0-0.2,0c0-1,0-2,0-3.2
			c0.7,0.2,1.3,0.3,1.8,0.6c0.2,0.2,0,0.9-0.1,1.4c-0.1,0-0.2,0-0.2,0c0.2,0.4,0.4,0.8,0.6,1.1C135.1,73,135.1,73,135,73.1z
			 M134.9,70.8c-0.5-0.2-0.7-0.4-1-0.4c-0.2,0-0.4,0.3-0.4,0.5s0.3,0.5,0.5,0.5C134.2,71.3,134.5,71.1,134.9,70.8z"/>
		<path class="st0" d="M134.9,70.8c-0.5,0.3-0.7,0.5-1,0.5c-0.2,0-0.5-0.3-0.5-0.5s0.3-0.5,0.4-0.5
			C134.2,70.4,134.4,70.6,134.9,70.8z"/>
	</g>
</g>
</svg>
