<?xml version="1.0" encoding="utf-8"?>
<!-- Generator: Adobe Illustrator 21.0.0, SVG Export Plug-In . SVG Version: 6.00 Build 0)  -->
<svg version="1.1" id="Layer_1" xmlns="http://www.w3.org/2000/svg" xmlns:xlink="http://www.w3.org/1999/xlink" x="0px" y="0px"
	 viewBox="0 0 150 125" style="enable-background:new 0 0 150 125;" xml:space="preserve">
<style type="text/css">
	.st0{fill:#FFFFFF;}
</style>
<g>
	<g>
		<path d="M115,58.4c1.4,2,0.6,4.4-2.2,5.3c0.6,0.8,1.3,1.7,1.9,2.4c1,1.2,2,2.3,3.3,3.1c0.1,0.1,0.2,0.1,0.3,0.1c0,0.1,0,0.1,0,0.3
			c-0.8,0-1.7-0.1-2.5-0.1c-0.7-0.1-1.1-0.5-1.5-1c-1-1.3-2-2.6-2.9-3.8c-0.3-0.5-0.6-1-0.9-1.4c0.7-0.3,1.3-0.5,2-0.8
			c0.8-0.3,1.3-1.4,1.2-2.1c-0.1-0.9-0.8-1.6-1.8-1.7c-0.6-0.1-1,0-1.7,0c0,0.3,0,0.4,0,0.6c0,2.9,0,5.8,0,8.7
			c0,0.6,0.2,1.2,0.9,1.7c-1.3,0-2.5,0-3.8,0c0.8-0.5,0.9-1.3,0.9-2c0-2.7,0-5.3,0-8c0-0.8,0.1-1.7-0.8-2.2c2.2,0.1,4.3-0.3,6.3,0.2
			c0.2,0.1,0.5,0.1,0.7,0.3C114.6,58.1,114.8,58.2,115,58.4z"/>
		<path d="M48.5,69.7c-1.3,0-2.4,0-3.9,0c1.6-0.8,0.8-2.1,0.8-3.1c0-0.9-0.3-1.7-0.3-2.7c-0.1-1.3-0.3-2.7-0.6-4.1
			c-1.3,3.3-2.7,6.8-4,10.2c-0.7-0.3-1.1-0.8-1.4-1.5c-0.7-1.5-1.3-3-2-4.5c-0.6-1.4-1.2-2.8-1.8-4.4c-0.1,1.1-0.3,2-0.4,3
			c-0.2,1.5-0.4,3-0.6,4.5c-0.1,0.4-0.2,0.9-0.1,1.3c0.1,0.4,0.3,0.8,0.6,1.3c-0.9,0-1.9,0-3,0c0.1-0.1,0.2-0.3,0.3-0.5
			c0.2-0.6,0.6-1.1,0.6-1.7c0.3-1.7,0.6-3.6,0.8-5.4c0.1-1.1,0.3-2.2,0.3-3.3c0-0.4-0.3-0.8-0.4-1.3c0.9,0,2,0,3,0
			c0.1,0,0.2,0.2,0.3,0.3c0.8,2,1.7,4.1,2.6,6.1c0.3,0.8,0.6,1.5,1,2.4c1.2-3,2.3-5.9,3.4-8.9c1,0,2,0,3.1,0
			c-0.8,0.6-0.5,1.5-0.3,2.2c0.1,1.5,0.4,2.9,0.6,4.4c0.2,1.4,0.3,2.7,0.6,4.1C47.8,68.7,48.2,69.2,48.5,69.7z"/>
		<path d="M55.5,69.9c-2.9,0.1-5.6-2-6.3-4.4c-0.8-2.4-0.2-4.6,1.5-6.5c1.1-1.3,2.7-2,4.4-2.1c1.7-0.1,3.5,0.1,5,1.3
			c1.3,1,2.2,2.3,2.5,3.9c0.4,2.2-0.1,4-1.6,5.6C59.4,69.3,57.7,70,55.5,69.9z M55.8,68.5c1.7-0.1,3.1-0.8,4-2.5
			c0.5-1,0.6-2.1,0.4-3.1c-0.2-1.4-0.7-2.6-1.9-3.6c-1.1-0.9-2.4-1-3.6-0.8c-1.2,0.2-2.2,0.8-2.8,1.9c-1,1.7-1,3.4-0.2,5.2
			C52.4,67.4,53.8,68.5,55.8,68.5z"/>
		<path d="M66.6,69.7c-1,0-2,0-3.2,0c0.1-0.1,0.2-0.2,0.3-0.3c0.2-0.3,0.6-0.7,0.6-1.1c0.1-1,0.1-2.1,0.1-3.2c0-1.5,0-2.9,0-4.4
			c0-0.6,0-1.3-0.1-2c-0.1-0.4-0.5-0.8-0.8-1.3c0.8,0,1.7,0,2.5,0c0.1,0,0.3,0.1,0.3,0.2c2,2.4,3.8,5,5.8,7.5
			c0.3,0.5,0.8,0.9,1.2,1.4c0-0.1,0.1-0.2,0.1-0.3c0-2.4,0.1-4.8,0-7.2c0-0.6-0.4-1-0.6-1.5c0.9,0,2,0,3.2,0c-1.2,0.7-1,1.7-1,2.7
			c0,3.1,0,6.2,0,9.3c0,0.2,0,0.5,0,0.8c-0.8-0.1-1.4-0.4-1.8-0.9c-0.6-0.6-1.1-1.3-1.6-1.9c-1.4-1.7-2.7-3.5-4.1-5.2
			c-0.5-0.6-0.9-1.2-1.4-1.8c0,0.2-0.1,0.3-0.1,0.4c0,2.4-0.1,4.8,0,7.2C66,68.5,66.4,69,66.6,69.7z"/>
		<path d="M86.5,59.6c-1.2-0.3-2.3-0.8-3.5-0.8c-2.2-0.1-3.8,1.4-4.2,3.7c-0.3,1.7,0.1,3.2,1.3,4.4c1.3,1.5,3.1,1.7,5,1.2
			c0.8-0.2,1.5-0.6,2.4-0.9c-0.3,0.8-0.5,1.6-1,2.2c-0.3,0.4-1.1,0.6-1.7,0.6C83,70,81.2,69.9,79.6,69c-2-1.1-3-2.9-3.1-5.2
			c-0.1-1.7,0.2-3.3,1.3-4.7c1-1.3,2.4-1.9,4-2.2c1.5-0.3,2.9,0,4.3,0.3c0.1,0,0.3,0.3,0.3,0.4C86.6,58.4,86.5,59.1,86.5,59.6z"/>
		<path d="M100.5,62.3c1,0,2,0,3.1,0c0,0.6,0,1.3,0,2.1c-0.9-1-2-0.5-3.1-0.6c0,1.5,0,2.9,0,4.3c2,0.3,4,0.7,5.7-0.9
			c0.1,0.1,0.1,0.1,0.1,0.1c-0.3,0.8-0.6,1.7-0.8,2.5c-2.7,0-5.2,0-8.1,0c1.1-0.6,1-1.6,1-2.4c0.1-2.5,0.1-5,0-7.6
			c0-0.8,0.1-1.7-0.8-2.3c2.3,0,4.5,0,6.9,0c0,0.7,0,1.5,0,2.2c-0.3-0.2-0.6-0.6-0.8-0.6c-1-0.1-2-0.1-2.9-0.2
			c-0.1,0-0.3,0.2-0.3,0.3C100.5,60.2,100.5,61.2,100.5,62.3z"/>
		<path d="M88.1,69.6c0.8-0.5,0.8-1.2,0.8-2c0-2.8,0-5.5,0-8.3c0-0.7-0.1-1.4-0.8-1.9c1.3,0,2.4,0,3.7,0c-1,0.8-0.8,2-0.8,3.1
			c0,2.4,0,5,0,7.5c2,0.3,4,0.6,5.7-0.9c0.1,0.1,0.1,0.1,0.1,0.1c-0.3,0.8-0.6,1.6-1,2.4c0,0.1-0.2,0.1-0.3,0.1c-2.4,0-4.9,0-7.3,0
			C88.2,69.7,88.2,69.7,88.1,69.6z"/>
		<path d="M115,58.4c-0.2-0.2-0.3-0.3-0.6-0.6c-0.3-0.9-0.5-1.7,0.3-2.5c0.6-0.6,1.6-0.8,2.4-0.3c0.8,0.4,1.1,1.4,0.9,2.2
			c-0.3,0.9-0.9,1.5-1.9,1.5C115.7,58.6,115.3,58.5,115,58.4z M117.7,56.7c0-0.8-0.8-1.5-1.6-1.5c-0.8,0-1.5,0.8-1.5,1.6
			c0,0.8,0.8,1.5,1.5,1.5C116.9,58.3,117.7,57.5,117.7,56.7z"/>
		<path class="st0" d="M117.7,56.7c0,0.8-0.8,1.6-1.5,1.6c-0.8,0-1.5-0.7-1.5-1.5c0-0.8,0.7-1.5,1.5-1.6
			C116.8,55.2,117.7,55.9,117.7,56.7z M116.8,57.8c0.1-0.1,0.1-0.1,0.1-0.1c-0.1-0.3-0.3-0.6-0.4-0.8c0.1,0,0.1,0,0.1,0
			c0-0.3,0.2-0.8,0.1-1c-0.3-0.3-0.8-0.3-1.3-0.4c0,0.8,0,1.5,0,2.2c0.1,0,0.1,0,0.1,0c0.1-0.3,0.1-0.6,0.1-0.8
			c0.1,0,0.1-0.1,0.1-0.1C116.2,57.1,116.5,57.5,116.8,57.8z"/>
		<path d="M116.8,57.8c-0.3-0.3-0.6-0.7-0.8-1c-0.1,0-0.1,0.1-0.1,0.1c-0.1,0.3-0.1,0.6-0.1,0.8c-0.1,0-0.1,0-0.1,0
			c0-0.7,0-1.4,0-2.2c0.5,0.1,0.9,0.2,1.3,0.4c0.1,0.1,0,0.6-0.1,1c-0.1,0-0.1,0-0.1,0c0.1,0.3,0.3,0.6,0.4,0.8
			C116.8,57.7,116.8,57.7,116.8,57.8z M116.7,56.2c-0.3-0.1-0.5-0.3-0.7-0.3c-0.1,0-0.3,0.2-0.3,0.3s0.2,0.3,0.3,0.3
			C116.2,56.6,116.4,56.4,116.7,56.2z"/>
		<path class="st0" d="M116.7,56.2c-0.3,0.2-0.5,0.3-0.7,0.3c-0.1,0-0.3-0.2-0.3-0.3s0.2-0.3,0.3-0.3
			C116.2,55.9,116.4,56.1,116.7,56.2z"/>
	</g>
</g>
</svg>
