<?xml version="1.0" encoding="utf-8"?>
<!-- Generator: Adobe Illustrator 21.0.0, SVG Export Plug-In . SVG Version: 6.00 Build 0)  -->
<svg version="1.1" id="Layer_1" xmlns="http://www.w3.org/2000/svg" xmlns:xlink="http://www.w3.org/1999/xlink" x="0px" y="0px"
	 viewBox="0 0 150 125" style="enable-background:new 0 0 150 125;" xml:space="preserve">
<style type="text/css">
	.st0{fill:#231F20;}
</style>
<g>
	<polygon class="st0" points="42.9,71.5 40.4,71.5 40.4,53.5 43.2,53.5 45.6,63.1 48.2,53.5 51.1,53.5 51.1,71.5 48.4,71.5 
		48.4,62.2 46.5,71.5 44.5,71.5 42.9,62.2 	"/>
	<path class="st0" d="M56.3,53.2c-2,0-3.8,1-3.8,5v8.7c0,3.9,1.8,5,3.8,5s3.8-1,3.8-5v-8.7C60,54.3,58.2,53.2,56.3,53.2z M57.4,67.8
		c0,0.7-0.5,1.3-1.2,1.3s-1.2-0.6-1.2-1.3V57.2c0-0.7,0.5-1.3,1.2-1.3s1.2,0.6,1.2,1.3V67.8z"/>
	<path class="st0" d="M105.9,53.2c-2,0-3.8,1-3.8,5v8.7c0,3.9,1.8,5,3.8,5c2,0,3.8-1,3.8-5v-8.7C109.6,54.3,107.8,53.2,105.9,53.2z
		 M107,67.8c0,0.7-0.5,1.3-1.2,1.3s-1.2-0.6-1.2-1.3V57.2c0-0.7,0.5-1.3,1.2-1.3c0.6,0,1.2,0.6,1.2,1.3V67.8z"/>
	<path class="st0" d="M77.8,65.3v1.8c0,3.2-1.3,4.7-3.8,4.7c-2,0-3.7-1-3.7-5v-8.6c0-3.9,1.7-5,3.7-5c2.2,0,3.8,0.9,3.8,4.5v1.8
		h-2.7v-2.3c0-0.7-0.4-1.3-1-1.3c-0.6,0-1,0.6-1,1.3v10.5c0,0.7,0.4,1.3,1,1.3c0.6,0,1-0.6,1-1.3v-2.5L77.8,65.3L77.8,65.3z"/>
	<polygon class="st0" points="79.1,71.5 79.1,53.5 81.8,53.5 81.8,61.3 84.1,61.3 84.1,53.5 86.6,53.5 86.6,71.5 84.1,71.5 
		84.1,63.6 81.8,63.6 81.8,71.5 	"/>
	<polygon class="st0" points="88.2,71.5 88.2,53.5 91.2,53.5 91.2,71.5 	"/>
	<polygon class="st0" points="92.5,53.5 95.4,53.5 97.9,61.6 97.9,53.5 100.5,53.5 100.5,71.5 98.2,71.5 95.3,62 95.3,71.5 
		92.5,71.5 	"/>
	<path class="st0" d="M68.9,58.8v-1.1c0-3.7-1.6-4.5-3.8-4.5c-2,0-3.7,1-3.7,5v0.6c0,0.3,0,1.8,1.4,2.8c1.6,1.1,3.4,2,3.4,3.8v2.3
		c0,0.7-0.4,1.3-1,1.3c-0.6,0-1-0.6-1-1.3v-2.3h-2.7v1.4c0,3.9,1.7,5,3.7,5c2.5,0,3.8-1.5,3.8-4.7v-1.7l0,0c0-3.2-2.5-4.6-3.5-5.2
		c-0.9-0.5-1.2-1.3-1.2-1.5v-1.5c0-0.7,0.4-1.3,1-1.3c0.6,0,1,0.6,1,1.3v1.6H68.9L68.9,58.8z"/>
</g>
</svg>
