<?xml version="1.0" encoding="utf-8"?>
<!-- Generator: Adobe Illustrator 21.0.0, SVG Export Plug-In . SVG Version: 6.00 Build 0)  -->
<svg version="1.1" id="Layer_1" xmlns="http://www.w3.org/2000/svg" xmlns:xlink="http://www.w3.org/1999/xlink" x="0px" y="0px"
	 viewBox="0 0 150 125" style="enable-background:new 0 0 150 125;" xml:space="preserve">
<style type="text/css">
	.st0{fill-rule:evenodd;clip-rule:evenodd;fill:#231F20;}
</style>
<g>
	<polygon class="st0" points="19.5,78 15.1,78 15.1,47 20,47 24.1,63.5 28.6,47 33.6,47 33.6,78 29,78 28.9,62 25.7,78 22.3,78 
		19.5,62 19.5,78 	"/>
	<path class="st0" d="M42.6,46.4c-3.4,0-6.5,1.8-6.5,8.6v15c0,6.8,3.1,8.6,6.5,8.6c3.4,0,6.5-1.8,6.5-8.6V55
		C49.1,48.3,46,46.4,42.6,46.4z M44.6,71.6c0,1.2-0.9,2.3-2,2.3c-1.1,0-2-1.1-2-2.3V53.4c0-1.2,0.9-2.3,2-2.3c1.1,0,2,1.1,2,2.3
		V71.6z"/>
	<path class="st0" d="M128.4,46.4c-3.4,0-6.5,1.8-6.5,8.6v15c0,6.8,3.1,8.6,6.5,8.6c3.4,0,6.5-1.8,6.5-8.6V55
		C134.9,48.3,131.8,46.4,128.4,46.4z M130.3,71.6c0,1.2-0.9,2.3-2,2.3c-1.1,0-2-1.1-2-2.3V53.4c0-1.2,0.9-2.3,2-2.3c1,0,2,1.1,2,2.3
		V71.6z"/>
	<path class="st0" d="M79.9,67.3v3.1c0,5.5-2.2,8.1-6.5,8.1c-3.4,0-6.4-1.8-6.4-8.6V55c0-6.8,3-8.6,6.4-8.6c3.8,0,6.5,1.5,6.5,7.8
		v3.2h-4.7v-4c0-1.2-0.7-2.3-1.8-2.3c-1,0-1.7,1.1-1.7,2.3v18.1c0,1.2,0.7,2.3,1.7,2.3c1.1,0,1.8-1.1,1.8-2.3v-4.3H79.9L79.9,67.3z"
		/>
	<polygon class="st0" points="82.1,78 82.1,47 86.7,47 86.7,60.5 90.8,60.5 90.8,47 95.1,47 95.1,78 90.8,78 90.8,64.4 86.7,64.4 
		86.7,78 82.1,78 	"/>
	<polygon class="st0" points="97.9,78 97.9,47 103.1,47 103.1,78 97.9,78 	"/>
	<polygon class="st0" points="105.2,47 110.3,47 114.7,60.9 114.7,47 119.2,47 119.2,78 115.2,78 110.1,61.7 110.1,78 105.2,78 
		105.2,47 	"/>
	<path class="st0" d="M64.5,56.1v-1.9c0-6.4-2.8-7.8-6.5-7.8c-3.4,0-6.4,1.8-6.4,8.6v1.1c0,0.5,0,3.2,2.5,4.9
		c2.8,1.9,5.8,3.5,5.8,6.6v3.9c0,1.2-0.7,2.3-1.8,2.3c-1,0-1.7-1.1-1.7-2.3v-4h-4.7V70c0,6.8,3,8.6,6.4,8.6c4.4,0,6.5-2.6,6.5-8.1
		v-2.9h0c0-5.5-4.4-8-6.1-9c-1.5-0.8-2-2.3-2.1-2.6v-2.6c0-1.2,0.7-2.3,1.7-2.3c1.1,0,1.8,1.1,1.8,2.3v2.7H64.5L64.5,56.1z"/>
</g>
</svg>
