<?xml version="1.0" encoding="utf-8"?>
<!-- Generator: Adobe Illustrator 21.0.0, SVG Export Plug-In . SVG Version: 6.00 Build 0)  -->
<svg version="1.1" id="Layer_1" xmlns="http://www.w3.org/2000/svg" xmlns:xlink="http://www.w3.org/1999/xlink" x="0px" y="0px"
	 viewBox="0 0 150 125" style="enable-background:new 0 0 150 125;" xml:space="preserve">
<g>
	<g>
		<path d="M45.4,64.8c0.4-0.9,0.8-1.9,1.2-2.9C47,61,47.4,60,47.8,59c0.5-1.1,0.9-2.1,1.3-3.1c0.1-0.3,0.3-0.7,0.4-1
			c0-0.1,0.1-0.1,0.2-0.1c0.7,0,1.3,0,2,0c0,0.1,0,0.1,0,0.2c0,5,0,10.1,0,15.1c0,0.1,0,0.1,0,0.2c-0.5,0-0.9,0-1.3,0
			c0-0.1,0-0.2,0-0.3c0-4.5,0-8.9,0-13.4c0-0.1,0-0.1,0-0.2c-0.1,0.1-0.1,0.1-0.1,0.2c-0.4,0.9-0.8,1.8-1.1,2.7
			c-0.5,1.1-0.9,2.1-1.3,3.2c-0.4,1-0.9,2-1.3,3c-0.7,1.6-1.3,3.2-2.1,4.8c-0.3,0-0.7,0-1.1,0c-0.2-0.4-0.3-0.8-0.5-1.1
			c-0.3-0.6-0.5-1.2-0.9-1.9c-0.5-1-0.9-2.1-1.3-3.1c-0.3-0.8-0.7-1.5-1.1-2.3c-0.5-1.1-0.9-2.1-1.4-3.1c-0.3-0.6-0.5-1.3-0.9-1.9
			c0-0.1-0.1-0.1-0.1-0.2c0,0,0,0-0.1,0c0,0.1,0,0.2,0,0.3c0,4.3,0,8.7,0,13.1c0,0.1,0,0.2-0.1,0.3c-0.3,0-0.7,0-1.1,0
			c0-5.1,0-10.3,0-15.5c0.1,0,0.1,0,0.2,0c0.5,0,0.9,0,1.3,0c0.3,0,0.5,0.1,0.6,0.4c0.7,1.5,1.3,2.9,2,4.4c0.5,1.1,1,2.2,1.5,3.3
			c0.5,1.3,1.1,2.5,1.7,3.7c0.2,0.5,0.5,1.1,0.7,1.6"/>
		<path d="M100.2,70.2c0.2-0.5,0.4-1.1,0.6-1.7c0.5-1.1,0.9-2.3,1.3-3.5c0.5-1.1,0.9-2.3,1.3-3.4c0.5-1.1,0.9-2.3,1.3-3.5
			c0.5-1.1,0.9-2.3,1.3-3.4c0-0.1,0.1-0.1,0.1-0.1c0.5,0,1.1,0,1.6,0c0.5,1.2,0.9,2.3,1.4,3.5c0.4,1.1,0.9,2.2,1.3,3.3
			c0.5,1.2,0.9,2.3,1.4,3.5c0.5,1.3,1,2.5,1.5,3.8c0.2,0.5,0.3,0.9,0.5,1.3c0,0.1-0.1,0.1-0.1,0.1c-0.5,0-0.9,0-1.5,0
			c0-0.1-0.1-0.1-0.1-0.3c-0.5-1.3-1-2.5-1.5-3.8c-0.1-0.1-0.1-0.2-0.3-0.2c-0.7,0-1.3,0-2,0c-1.7,0-3.5,0-5.2,0
			c-0.1,0-0.2,0-0.3,0.1c-0.5,1.3-1.1,2.7-1.5,4.1C101.2,70.2,100.7,70.2,100.2,70.2z M110.4,64.8c-1.1-2.9-2.2-5.8-3.3-8.8
			c-1.1,2.9-2.2,5.9-3.3,8.8C106,64.8,108.2,64.8,110.4,64.8z"/>
		<path d="M70.1,70.2c0-0.1,0-0.1,0-0.3c0-5,0-10,0-15c0-0.1,0-0.1,0-0.3c0.5,0,0.9,0,1.4,0c0,2.3,0,4.5,0,6.8
			c0.3-0.2,0.5-0.4,0.7-0.5c0.6-0.5,1.1-1.1,1.7-1.5c0.7-0.6,1.4-1.2,2.1-1.9c0.5-0.4,0.9-0.8,1.3-1.2c0.6-0.5,1.1-1,1.7-1.5
			c0.1-0.1,0.1-0.1,0.1-0.1c0.5,0,1.1,0,1.7,0c-2.7,2.4-5.3,4.7-7.9,7.1c0.1,0.1,0.3,0.2,0.4,0.3c0.5,0.5,1,1,1.5,1.5
			c0.7,0.7,1.5,1.5,2.2,2.1c0.7,0.7,1.3,1.3,2,1.9c0.7,0.7,1.3,1.3,2,2c0.2,0.1,0.3,0.3,0.5,0.5c-0.6,0-1.3,0-1.9,0
			c-0.1-0.1-0.1-0.1-0.2-0.2c-0.7-0.6-1.3-1.3-1.9-1.9c-0.7-0.7-1.4-1.3-2.1-2c-0.9-0.9-1.7-1.7-2.6-2.5c-0.4-0.4-0.9-0.9-1.3-1.3
			c-0.1-0.1-0.1-0.1-0.2-0.1c0,0.1,0,0.2,0,0.3c0,2.5,0,5.1,0,7.5c0,0.1,0,0.1-0.1,0.3C71.1,70.2,70.6,70.2,70.1,70.2z"/>
		<path d="M60.2,70.2c0-1.7,0-3.3,0-4.9c0-0.5,0-1.1,0-1.5c0-0.1,0-0.2-0.1-0.3c-0.9-1.4-1.8-2.8-2.7-4.2s-1.7-2.7-2.6-4.1
			c-0.1-0.1-0.1-0.3-0.3-0.4c0.6,0,1.1,0,1.7,0c0.1,0,0.1,0.1,0.1,0.1c0.6,0.9,1.1,1.8,1.7,2.7c0.9,1.4,1.7,2.7,2.6,4.1
			c0.1,0.1,0.2,0.3,0.3,0.4c0.2-0.3,0.4-0.6,0.6-0.9c0.6-1,1.2-2,1.9-3c0.6-1,1.2-1.9,1.8-2.9l0.1-0.1c0.1-0.4,0.5-0.5,0.9-0.5
			c0.3,0.1,0.6,0,0.9,0c-0.1,0.3-0.3,0.5-0.4,0.7c-1,1.7-2.1,3.3-3.1,4.9c-0.6,1-1.3,2-1.9,3c-0.1,0.1-0.1,0.2-0.1,0.3
			c0,2.1,0,4.1,0,6.2c0,0.1,0,0.2,0,0.3C61.2,70.2,60.7,70.2,60.2,70.2z"/>
		<path d="M94.7,70.2c0-0.1,0-0.2,0-0.3c0-4.5,0-9.1,0-13.6c0-0.1,0-0.2,0-0.3c-1.7,0-3.3,0-4.9,0c0-0.5,0-0.9,0-1.3
			c3.8,0,7.5,0,11.3,0c0,0.4,0,0.7,0,1.1c0,0.1-0.1,0.1-0.2,0.1c-0.5,0-0.9,0-1.3,0c-1.1,0-2.1,0-3.1,0c-0.1,0-0.2,0-0.3,0
			c0,0.1,0,0.2,0,0.3c0,4.5,0,9.1,0,13.6c0,0.1,0,0.2,0,0.3C95.7,70.2,95.2,70.2,94.7,70.2z"/>
		<path d="M85.3,70.2c0-0.1,0-0.2,0-0.3c0-5,0-9.9,0-15c0-0.1,0-0.2,0-0.3c0.5,0,0.9,0,1.5,0c0,0.1,0,0.2,0,0.3c0,4.9,0,9.9,0,14.9
			c0,0.1,0,0.2,0,0.3C86.2,70.2,85.7,70.2,85.3,70.2z"/>
	</g>
</g>
</svg>
