<?xml version="1.0" encoding="utf-8"?>
<!-- Generator: Adobe Illustrator 21.0.0, SVG Export Plug-In . SVG Version: 6.00 Build 0)  -->
<svg version="1.1" id="Layer_1" xmlns="http://www.w3.org/2000/svg" xmlns:xlink="http://www.w3.org/1999/xlink" x="0px" y="0px"
	 viewBox="0 0 150 125" style="enable-background:new 0 0 150 125;" xml:space="preserve">
<g>
	<g>
		<path d="M30.7,66c0.6-1.4,1.2-2.9,1.8-4.3c0.6-1.4,1.2-2.9,1.9-4.3c0.7-1.6,1.3-3.1,2-4.7c0.2-0.5,0.4-1,0.6-1.5
			c0-0.1,0.2-0.2,0.3-0.2c1,0,2,0,3,0c0,0.1,0,0.2,0,0.3c0,7.5,0,15.1,0,22.6c0,0.1,0,0.2,0,0.3c-0.7,0-1.3,0-2,0c0-0.1,0-0.3,0-0.4
			c0-6.7,0-13.4,0-20.1c0-0.1,0-0.2,0-0.3c-0.1,0.1-0.1,0.2-0.2,0.3c-0.6,1.3-1.2,2.7-1.7,4c-0.7,1.6-1.4,3.2-2,4.8
			c-0.6,1.5-1.3,3-2,4.5c-1,2.4-2,4.8-3.1,7.2c-0.5,0-1,0-1.6,0c-0.3-0.6-0.5-1.2-0.8-1.7c-0.4-0.9-0.8-1.8-1.3-2.8
			c-0.7-1.5-1.4-3.1-2-4.6c-0.5-1.2-1.1-2.3-1.6-3.5c-0.7-1.6-1.4-3.2-2.1-4.7c-0.4-0.9-0.8-1.9-1.3-2.8c0-0.1-0.1-0.2-0.2-0.3
			c0,0,0,0-0.1,0c0,0.1,0,0.3,0,0.4c0,6.5,0,13.1,0,19.6c0,0.1,0,0.3-0.1,0.4c-0.4,0-1,0-1.6,0c0-7.7,0-15.5,0-23.2
			c0.1,0,0.2,0,0.3,0c0.7,0,1.3,0,2,0c0.5,0,0.7,0.2,0.9,0.6c1,2.2,2,4.4,3,6.6c0.7,1.6,1.5,3.3,2.2,4.9c0.8,1.9,1.7,3.7,2.5,5.6
			c0.3,0.8,0.7,1.6,1.1,2.4"/>
		<path d="M112.9,74.2c0.3-0.8,0.6-1.7,0.9-2.5c0.7-1.7,1.3-3.4,2-5.2c0.7-1.7,1.3-3.4,2-5.1c0.7-1.7,1.3-3.4,2-5.2
			c0.7-1.7,1.3-3.4,2-5.1c0-0.1,0.1-0.2,0.2-0.2c0.8,0,1.6,0,2.4,0c0.7,1.8,1.4,3.5,2.1,5.2c0.6,1.6,1.3,3.3,2,4.9
			c0.7,1.8,1.4,3.5,2.1,5.3c0.7,1.9,1.5,3.8,2.2,5.7c0.3,0.7,0.5,1.3,0.8,2c0,0.2-0.1,0.1-0.2,0.1c-0.7,0-1.4,0-2.2,0
			c0-0.1-0.1-0.2-0.1-0.4c-0.7-1.9-1.5-3.8-2.2-5.7c-0.1-0.2-0.2-0.3-0.4-0.3c-1,0-2,0-3,0c-2.6,0-5.2,0-7.8,0c-0.2,0-0.3,0-0.4,0.2
			c-0.8,2-1.6,4.1-2.3,6.1C114.3,74.2,113.6,74.2,112.9,74.2z M128.1,66.1c-1.7-4.4-3.3-8.7-5-13.2c-1.7,4.4-3.3,8.8-5,13.2
			C121.5,66.1,124.8,66.1,128.1,66.1z"/>
		<path d="M67.8,74.2c0-0.1,0-0.2,0-0.4c0-7.5,0-15,0-22.5c0-0.1,0-0.2,0-0.4c0.7,0,1.4,0,2.1,0c0,3.4,0,6.7,0,10.2
			c0.4-0.3,0.7-0.6,1-0.8c0.9-0.8,1.7-1.6,2.6-2.3c1-0.9,2.1-1.8,3.2-2.8c0.7-0.6,1.3-1.2,2-1.8c0.9-0.8,1.7-1.5,2.6-2.3
			c0.1-0.1,0.1-0.1,0.2-0.1c0.8,0,1.7,0,2.6,0c-4,3.6-7.9,7.1-11.9,10.6c0.2,0.2,0.4,0.3,0.6,0.5c0.8,0.8,1.5,1.5,2.3,2.3
			c1.1,1.1,2.2,2.2,3.3,3.2c1,1,2,1.9,3,2.9s2,2,3,3c0.3,0.2,0.5,0.5,0.8,0.7c-0.9,0-1.9,0-2.8,0c-0.1-0.1-0.2-0.2-0.3-0.3
			c-1-0.9-1.9-1.9-2.9-2.8c-1-1-2.1-2-3.1-3c-1.3-1.3-2.6-2.5-3.9-3.8c-0.6-0.6-1.3-1.3-1.9-1.9c-0.1-0.1-0.2-0.1-0.3-0.2
			c0,0.2,0,0.3,0,0.4c0,3.8,0,7.6,0,11.3c0,0.1,0,0.2-0.1,0.4C69.2,74.2,68.5,74.2,67.8,74.2z"/>
		<path d="M53,74.2c0-2.5,0-4.9,0-7.4c0-0.8,0-1.6,0-2.3c0-0.1,0-0.3-0.1-0.4c-1.3-2.1-2.7-4.2-4-6.3s-2.6-4.1-3.9-6.2
			c-0.1-0.2-0.2-0.4-0.4-0.6c0.9,0,1.7,0,2.5,0c0.1,0,0.2,0.1,0.2,0.2c0.9,1.4,1.7,2.7,2.6,4.1c1.3,2.1,2.6,4.1,3.9,6.2
			c0.1,0.2,0.3,0.4,0.4,0.6c0.3-0.5,0.6-0.9,0.9-1.4c0.9-1.5,1.8-3,2.8-4.5c0.9-1.5,1.8-2.9,2.7-4.4l0.1-0.1
			c0.2-0.6,0.7-0.8,1.4-0.7c0.4,0.1,0.9,0,1.4,0c-0.2,0.4-0.4,0.7-0.6,1c-1.5,2.5-3.1,4.9-4.6,7.4c-0.9,1.5-1.9,3-2.8,4.5
			c-0.1,0.1-0.1,0.3-0.1,0.4c0,3.1,0,6.2,0,9.3c0,0.2,0,0.3,0,0.5C54.4,74.2,53.7,74.2,53,74.2z"/>
		<path d="M104.6,74.2c0-0.2,0-0.3,0-0.5c0-6.8,0-13.6,0-20.4c0-0.1,0-0.3,0-0.5c-2.5,0-4.9,0-7.4,0c0-0.7,0-1.3,0-1.9
			c5.7,0,11.3,0,17,0c0,0.6,0,1.1,0,1.7c0,0.1-0.2,0.2-0.3,0.2c-0.7,0-1.3,0-2,0c-1.6,0-3.1,0-4.7,0c-0.1,0-0.3,0-0.4,0
			c0,0.2,0,0.3,0,0.4c0,6.8,0,13.6,0,20.4c0,0.2,0,0.3,0,0.5C106.1,74.2,105.4,74.2,104.6,74.2z"/>
		<path d="M90.5,74.2c0-0.1,0-0.3,0-0.4c0-7.5,0-14.9,0-22.4c0-0.1,0-0.3,0-0.4c0.7,0,1.4,0,2.2,0c0,0.1,0,0.3,0,0.4
			c0,7.4,0,14.9,0,22.3c0,0.2,0,0.3,0,0.5C91.9,74.2,91.2,74.2,90.5,74.2z"/>
	</g>
</g>
</svg>
