<?xml version="1.0" encoding="utf-8"?>
<!-- Generator: Adobe Illustrator 21.0.0, SVG Export Plug-In . SVG Version: 6.00 Build 0)  -->
<svg version="1.1" id="Layer_1" xmlns="http://www.w3.org/2000/svg" xmlns:xlink="http://www.w3.org/1999/xlink" x="0px" y="0px"
	 viewBox="0 0 150 125" style="enable-background:new 0 0 150 125;" xml:space="preserve">
<style type="text/css">
	.st0{clip-path:url(#SVGID_2_);fill:#231F20;}
	.st1{fill:#231F20;}
</style>
<g>
	<g>
		<defs>
			<rect id="SVGID_1_" x="14.9" y="57.3" width="120.2" height="10.3"/>
		</defs>
		<clipPath id="SVGID_2_">
			<use xlink:href="#SVGID_1_"  style="overflow:visible;"/>
		</clipPath>
		<path class="st0" d="M21,67.1c0.9,0,3.1-0.5,3.1-4c0-2.7-1.5-5.2-4-5.2c-0.9,0-3.1,0.5-3.1,4C17,64.6,18.5,67.1,21,67.1L21,67.1z
			 M20.4,57.3c3,0,5.7,2.1,5.7,5.2c0,2.7-2.1,5.2-5.5,5.2c-3,0-5.7-2.1-5.7-5.2C14.9,59.8,17,57.3,20.4,57.3"/>
	</g>
	<path class="st1" d="M27,67.1c0.9,0,1.2-0.3,1.2-1.1v-6.8c0-0.8-0.3-1.1-1.2-1.1v-0.4c1.1,0,1.6,0,2,0c0.4,0,0.9,0,2,0v0.4
		c-0.9,0-1.2,0.3-1.2,1.1v6.8c0,0.7,0.4,1,1.6,1c1.9,0,2.8-0.2,3.1-2h0.5l-0.2,2.6c-1.4,0-4.1,0-6.8,0c-0.4,0-0.8,0-1,0V67.1"/>
	<path class="st1" d="M35.6,67.1c0.9,0,1.2-0.3,1.2-1.1v-6.8c0-0.8-0.3-1.1-1.2-1.1v-0.4c1.1,0,1.6,0,2,0c0.4,0,0.9,0,2,0v0.4
		c-0.9,0-1.2,0.3-1.2,1.1v6.8c0,0.8,0.3,1.1,1.2,1.1v0.4c-1.1,0-1.6,0-2,0c-0.4,0-0.9,0-2,0V67.1"/>
	<path class="st1" d="M50.8,57.9c-1.1,0-1.2,0.1-1.9,1.6l-3.3,8h-0.4l-4-8.6c-0.4-0.9-0.7-1-1.4-1v-0.4c1,0,1.6,0,2.2,0
		c0.6,0,1.3,0,2.3,0v0.4h-0.6c-0.5,0-0.7,0.2-0.7,0.5c0,0.1,0,0.3,0.5,1.3l2.5,5.6l2.1-6c0.1-0.4,0.2-0.7,0.2-0.9
		c0-0.4-0.4-0.5-1-0.5v-0.4c0.8,0,1.3,0,1.7,0c0.4,0,0.8,0,1.6,0V57.9"/>
	<path class="st1" d="M51,67.1c0.9,0,1.2-0.3,1.2-1.1v-6.8c0-0.8-0.3-1.1-1.2-1.1v-0.4c0.5,0,1.2,0,1.9,0c2.1,0,3.9,0,5.2,0l0.1,2.3
		h-0.4c-0.2-1.3-0.8-1.8-2.5-1.8h-1.2v4H55c1.3,0,1.5-0.5,1.6-1.3h0.5c0,0.5,0,1.1,0,1.5c0,0.7,0,1.2,0,1.7h-0.5
		c0-1.1-0.4-1.4-1.6-1.4h-1.1v3.3c0,0.6,0.3,1,1.6,1c1.4,0,2.4-0.3,2.8-2h0.5c-0.1,0.7-0.2,1.8-0.2,2.6c-1.4,0-3.1,0-5.3,0
		c-1.1,0-1.9,0-2.2,0V67.1"/>
	<path class="st1" d="M62.5,62.3c0.3,0.1,0.6,0.1,0.9,0.1c1.3,0,2-0.6,2-1.9c0-1-0.5-2.5-2.3-2.5c-0.3,0-0.4,0-0.6,0.1V62.3
		L62.5,62.3z M59.6,67.1c0.9,0,1.2-0.3,1.2-1.1v-6.8c0-0.8-0.3-1.1-1.2-1.1v-0.4c0.7,0,1.2,0,1.7,0c0.9,0,1.8,0,2.7,0
		c2.4,0,3.2,1.2,3.2,2.6c0,0.9-0.6,2-2,2.4l1.8,3.2c0.6,1.2,1,1.4,1.8,1.5v0.3c-0.2,0-0.4,0-0.6,0c-1.9,0-2.6-0.6-3.4-2.3l-0.5-1.2
		c-0.6-1.2-0.8-1.3-1.7-1.4v3.1c0,0.8,0.3,1.1,1.2,1.1v0.4c-1.1,0-1.6,0-2,0c-0.4,0-0.9,0-2,0V67.1"/>
	<path class="st1" d="M76.1,62.3c0.3,0.1,0.6,0.1,0.9,0.1c1.3,0,2-0.6,2-1.9c0-1-0.5-2.5-2.3-2.5c-0.3,0-0.4,0-0.6,0.1V62.3
		L76.1,62.3z M73.2,67.1c0.9,0,1.2-0.3,1.2-1.1v-6.8c0-0.8-0.3-1.1-1.2-1.1v-0.4c0.5,0,1.2,0,1.8,0c0.7,0,1.5,0,2.2,0
		c2.7,0,3.7,1.2,3.7,2.8c0,1.6-1.1,2.6-3.6,2.6c-0.4,0-0.9,0-1.1,0v3c0,0.8,0.3,1.1,1.2,1.1v0.4c-1.1,0-1.6,0-2,0c-0.4,0-0.9,0-2,0
		V67.1"/>
	<path class="st1" d="M81.5,67.1c0.9,0,1.2-0.3,1.2-1.1v-6.8c0-0.8-0.3-1.1-1.2-1.1v-0.4c0.5,0,1.2,0,1.9,0c2.1,0,3.9,0,5.2,0
		l0.1,2.3h-0.4c-0.2-1.3-0.8-1.8-2.5-1.8h-1.2v4h1.1c1.3,0,1.5-0.5,1.6-1.3h0.5c0,0.5,0,1.1,0,1.5c0,0.7,0,1.2,0,1.7h-0.5
		c0-1.1-0.4-1.4-1.6-1.4h-1.1v3.3c0,0.6,0.3,1,1.6,1c1.4,0,2.4-0.3,2.8-2h0.5c-0.1,0.7-0.2,1.8-0.2,2.6c-1.4,0-3.1,0-5.3,0
		c-1.1,0-1.9,0-2.2,0V67.1"/>
	<path class="st1" d="M96.5,67.1c0.9,0,3.1-0.5,3.1-4c0-2.7-1.5-5.2-4-5.2c-0.9,0-3.1,0.5-3.1,4C92.5,64.6,94.1,67.1,96.5,67.1
		L96.5,67.1z M96,57.3c3,0,5.7,2.1,5.7,5.2c0,2.7-2.1,5.2-5.5,5.2c-3,0-5.7-2.1-5.7-5.2C90.5,59.8,92.5,57.3,96,57.3"/>
	<path class="st1" d="M105.5,62.3c0.3,0.1,0.6,0.1,0.9,0.1c1.3,0,2-0.6,2-1.9c0-1-0.5-2.5-2.3-2.5c-0.3,0-0.4,0-0.6,0.1V62.3
		L105.5,62.3z M102.6,67.1c0.9,0,1.2-0.3,1.2-1.1v-6.8c0-0.8-0.3-1.1-1.2-1.1v-0.4c0.5,0,1.2,0,1.8,0c0.7,0,1.5,0,2.2,0
		c2.7,0,3.7,1.2,3.7,2.8c0,1.6-1.1,2.6-3.6,2.6c-0.4,0-0.9,0-1.1,0v3c0,0.8,0.3,1.1,1.2,1.1v0.4c-1.1,0-1.6,0-2,0c-0.4,0-0.9,0-2,0
		V67.1"/>
	<path class="st1" d="M111,67.1c0.9,0,1.2-0.3,1.2-1.1v-6.8c0-0.8-0.3-1.1-1.2-1.1v-0.4c1.1,0,1.6,0,2,0c0.4,0,0.9,0,2,0v0.4
		c-0.9,0-1.2,0.3-1.2,1.1v6.8c0,0.7,0.4,1,1.6,1c1.9,0,2.8-0.2,3.1-2h0.5l-0.2,2.6c-1.4,0-4.1,0-6.8,0c-0.4,0-0.8,0-1,0V67.1"/>
	<path class="st1" d="M119.6,67.1c0.9,0,1.2-0.3,1.2-1.1v-6.8c0-0.8-0.3-1.1-1.2-1.1v-0.4c0.5,0,1.2,0,1.9,0c2.1,0,3.9,0,5.2,0
		l0.1,2.3h-0.4c-0.2-1.3-0.8-1.8-2.5-1.8h-1.2v4h1.1c1.3,0,1.5-0.5,1.6-1.3h0.5c0,0.5,0,1.1,0,1.5c0,0.7,0,1.2,0,1.7h-0.5
		c0-1.1-0.4-1.4-1.6-1.4h-1.1v3.3c0,0.6,0.3,1,1.6,1c1.4,0,2.4-0.3,2.8-2h0.5c-0.1,0.7-0.2,1.8-0.2,2.6c-1.4,0-3.1,0-5.3,0
		c-1.1,0-1.9,0-2.2,0V67.1"/>
	<path class="st1" d="M128.4,64.8h0.5c0.3,1.6,1.7,2.3,2.7,2.3c1.4,0,2-0.9,2-1.6c0-2.2-5.1-2.1-5.1-5.2c0-0.7,0.4-2.9,3.5-2.9
		c0.8,0,1.8,0.1,2.6,0.4l0.1,2.5h-0.5c-0.2-1.4-1.1-2.3-2.6-2.3c-1.1,0-1.8,0.7-1.8,1.5c0,2,5.2,2.2,5.2,5.3c0,1.6-1.2,3-3.5,3
		c-0.9,0-2.1-0.2-3.1-0.5L128.4,64.8"/>
</g>
</svg>
