<?xml version="1.0" encoding="utf-8"?>
<!-- Generator: Adobe Illustrator 21.0.0, SVG Export Plug-In . SVG Version: 6.00 Build 0)  -->
<svg version="1.1" id="Layer_1" xmlns="http://www.w3.org/2000/svg" xmlns:xlink="http://www.w3.org/1999/xlink" x="0px" y="0px"
	 viewBox="0 0 150 125" style="enable-background:new 0 0 150 125;" xml:space="preserve">
<style type="text/css">
	.st0{fill:#FFFFFF;}
</style>
<g>
	<g>
		<path d="M88.6,66.6c-0.7,0-1.3,0-2,0c0-2.7,0-5.3,0-8.3c1.9,0.1,3.8,0,5.7,0.4c0.7,0.1,1.5,1.2,1.7,2c0.5,1.4-0.4,2.4-1.7,3.2
			c0.6,0.9,1.2,1.7,1.8,2.6c-1.4,0.4-2.5,0.5-3.2-1c-0.1-0.3-0.3-0.6-0.6-0.8c-0.4-0.3-0.8-0.4-1.2-0.6c-0.2,0.4-0.4,0.8-0.5,1.2
			C88.7,65.7,88.7,66.2,88.6,66.6z M88.8,62.7c1.1-0.3,2-0.5,2.9-0.8c0.1,0,0.1-1,0-1.1c-0.9-0.3-1.8-0.5-2.9-0.7
			C88.8,61,88.8,61.6,88.8,62.7z"/>
		<path d="M28.7,63.9c0.6,0.9,1.2,1.7,1.8,2.6c-1.5,0.4-2.6,0.3-3.3-1.1c-0.4-0.7-0.8-1.6-2-1.1c0,0.7-0.1,1.4-0.1,2.3
			c-0.7,0-1.3,0-2.1,0c0-2.7,0-5.3,0-8c1.9,0,3.7-0.2,5.5,0.1c0.7,0.1,1.7,1.1,1.9,1.8c0.2,0.8-0.4,1.8-0.7,2.7
			C29.5,63.5,29.1,63.6,28.7,63.9z M25.2,62.7c1.1-0.3,2-0.6,2.9-0.9c0.1,0,0.1-0.9,0-1c-0.9-0.3-1.8-0.6-2.9-0.9
			C25.2,61,25.2,61.6,25.2,62.7z"/>
		<path d="M36.1,58.3c2.4,0,4.4,2,4.4,4.3c0,2.4-2.1,4.3-4.6,4.3s-4.4-1.9-4.4-4.3C31.5,60.1,33.6,58.2,36.1,58.3z M38.3,62.5
			c0-1.2-1.1-2.2-2.4-2.1c-1.2,0-2.3,1.1-2.2,2.2c0,1.2,1.1,2.2,2.4,2.1C37.3,64.7,38.4,63.7,38.3,62.5z"/>
		<path d="M99.7,58.3c2.5,0,4.4,1.9,4.5,4.3c0,2.4-2,4.4-4.6,4.3c-2.5,0-4.4-1.9-4.5-4.3C95.2,60.2,97.2,58.2,99.7,58.3z M99.8,64.7
			c1.2,0,2.3-1.1,2.2-2.3c0-1.2-1.1-2.2-2.4-2.1c-1.2,0-2.3,1.1-2.2,2.3C97.4,63.8,98.5,64.8,99.8,64.7z"/>
		<path d="M54,61.7c0,0.7,0,1.1,0,1.6c-1.4,0-2.7,0-4.1,0c0,0.6,0,1,0,1.6c1.5,0,3,0,4.5,0c0,0.6,0.1,1.1,0.1,1.6
			c-2.3,0-4.5,0-6.8,0c0-2.6,0-5.3,0-8c2.1,0,4.3,0,6.7,0c0,0.5,0.1,1,0.1,1.6c-1.6,0-3,0-4.6,0c0,0.6,0,1,0,1.5
			C51.2,61.7,52.5,61.7,54,61.7z"/>
		<path d="M58,61.8c2-1.3,2.6-4.3,5.8-3.2c-1,1.1-2,2.2-3,3.4c1.1,1.5,2.1,3,3.2,4.5c-2.9,1.2-3.4-1.4-5-3.1
			c-0.4,1.2-0.8,2.2-1.1,3.3c-0.4,0-1.1,0-1.8,0c0-2.7,0-5.3,0-8.1c0.6,0,1.3-0.1,2.1-0.1C58,59.5,58,60.5,58,61.8z"/>
		<path d="M124.4,62c1.1,1.5,2.1,3,3.1,4.4c-0.1,0.2-0.1,0.3-0.2,0.5c-0.9-0.3-2-0.3-2.7-0.8c-0.8-0.6-1.2-1.6-2.1-2.9
			c-0.4,1.4-0.7,2.3-1.1,3.4c-0.4,0-1.1,0-1.9,0c0-2.6,0-5.3,0-8c0.6,0,1.3,0,2.1,0c0,1,0,2,0,3.2c2-1.2,2.5-4.2,5.7-3.2
			C126.4,59.7,125.4,60.8,124.4,62z"/>
		<path d="M80.2,66.6c-0.8,0-1.4,0-2.1,0c0-2.7,0-5.4,0-8.2c1.5,0,3-0.1,4.4,0c1.7,0.1,2.8,1.2,2.8,2.7s-0.9,2.6-2.6,3
			c-0.7,0.1-1.5,0.1-2.4,0.2C80.4,65.1,80.3,65.8,80.2,66.6z M80.4,59.8c0,1.2,0,1.9,0,3.1c0.9-0.4,1.7-0.6,2.5-1
			c0.2-0.1,0.2-0.9,0-1C82.2,60.5,81.5,60.2,80.4,59.8z"/>
		<path d="M16.7,64.4c0,0.8-0.1,1.5-0.1,2.2c-0.7,0-1.3,0-2.1,0c0-2.7,0-5.4,0-8.1c1.5,0,3-0.1,4.5,0c1.7,0.1,2.6,1.2,2.7,2.6
			c0.1,1.5-0.8,2.7-2.5,3C18.4,64.3,17.6,64.3,16.7,64.4z M16.7,62.9c1-0.4,1.8-0.6,2.5-1c0.2-0.1,0.2-1,0-1.1
			c-0.7-0.4-1.5-0.6-2.5-1C16.7,61,16.7,61.7,16.7,62.9z"/>
		<path d="M135.9,58.5c0,0.6,0,1.1,0,1.6c-0.8,0.1-1.6,0.1-2.5,0.2c0,2.1,0,4.1,0,6.3c-0.8,0-1.5,0-2.3,0c0-2.1,0-4.1,0-6.3
			c-0.9-0.1-1.7-0.1-2.6-0.2c0-0.6,0-1.1,0-1.6C131,58.5,133.4,58.5,135.9,58.5z"/>
		<path d="M69.7,66.6c-0.9,0-1.5,0-2.2,0c0-2.1,0-4.1,0-6.3c-0.9-0.1-1.8-0.1-2.6-0.2c0-0.6,0-1.1,0-1.7c2.5,0,4.9,0,7.4,0
			c0,0.6,0,1,0.1,1.6c-0.9,0.1-1.7,0.1-2.6,0.2C69.7,62.4,69.7,64.4,69.7,66.6z"/>
		<path d="M43.8,58.5c0.9,0,1.5,0,2.2,0c0,1.9,0.1,3.8,0,5.6c-0.2,2.6-2.9,3.5-5.4,2c0.3-0.4,0.5-0.9,0.8-1.3c2.2,0.3,2.4,0.1,2.4-2
			C43.8,61.4,43.8,60,43.8,58.5z"/>
		<path d="M111.6,58.1c0.1,0.7,0.3,1,0.3,1.4c0,1.3,0,2.6,0,3.8c0.1,1.8,1.1,2.8,2.8,2.8c1.7,0,2.7-1,2.8-2.8c0.1-1.5,0-3.1,0.1-4.6
			c0-0.1,0.1-0.1,0.2-0.2c0.1,0,0.3,0,0.3,0c0,2.1,0.1,4.3-0.2,6.4c-0.2,1.3-1.6,1.8-2.9,1.9s-2.5-0.2-3.3-1.4
			S110.8,59.8,111.6,58.1z"/>
		<path d="M103.8,66.4c2.4-0.5,5.4-0.4,5.3-3.9c-0.1-3.3-2.8-3.4-5.3-3.7c2.2-0.8,4.4-0.2,5.5,1.4c0.9,1.3,1,3.1,0.1,4.5
			C108.3,66.4,106.2,67,103.8,66.4z"/>
		<path class="st0" d="M88.8,62.7c0-1.1,0-1.7,0-2.7c1.1,0.2,2,0.4,2.9,0.7c0.1,0,0.2,1.1,0,1.1C90.8,62.2,89.9,62.4,88.8,62.7z"/>
		<path class="st0" d="M25.2,62.7c0-1.1,0-1.8,0-2.8c1.1,0.3,2,0.5,2.9,0.9c0.1,0,0.1,0.9,0,1C27.2,62.2,26.3,62.4,25.2,62.7z"/>
		<path class="st0" d="M35.9,60.4c1.3-0.1,2.4,0.9,2.4,2.1s-1,2.2-2.2,2.2"/>
		<path class="st0" d="M99.6,60.3c1.2,0,2.3,0.9,2.4,2.1c0,1.3-1,2.3-2.2,2.3"/>
		<path class="st0" d="M80.4,59.8c1,0.4,1.8,0.7,2.5,1.1c0.1,0.1,0.1,0.9,0,1c-0.7,0.4-1.5,0.6-2.5,1C80.4,61.7,80.4,61,80.4,59.8z"
			/>
		<path class="st0" d="M16.7,62.9c0-1.2,0-1.9,0-3c1,0.3,1.8,0.6,2.5,1c0.2,0.1,0.2,1,0,1.1C18.5,62.4,17.7,62.6,16.7,62.9z"/>
	</g>
</g>
</svg>
