<?xml version="1.0" encoding="utf-8"?>
<!-- Generator: Adobe Illustrator 21.0.0, SVG Export Plug-In . SVG Version: 6.00 Build 0)  -->
<svg version="1.1" id="Layer_1" xmlns="http://www.w3.org/2000/svg" xmlns:xlink="http://www.w3.org/1999/xlink" x="0px" y="0px"
	 viewBox="0 0 150 125" style="enable-background:new 0 0 150 125;" xml:space="preserve">
<g>
	<g>
		<path d="M92.1,64c0,1.5-0.1,2.8,0,4.1c0.1,1.1-0.4,1.3-1.4,0.9c0-4.3,0-8.7,0-13c2.5,0,4.9-0.2,7.3,0.1c1.9,0.2,3,1.7,3.1,3.5
			c0.1,1.9-0.8,3.2-2.6,3.9c-0.2,0.1-0.5,0.2-0.9,0.3c1.3,1.8,2.6,3.4,3.9,5.2c-1,0.4-1.6,0.2-2.2-0.5c-0.9-1.2-1.8-2.3-2.6-3.6
			c-0.5-0.7-1-1-1.9-0.9C94,64.1,93.1,64,92.1,64z M92.1,62.8c1.9-0.1,3.6-0.1,5.4-0.3c1.3-0.2,2.1-1.2,2.1-2.5
			c0.1-1.2-0.5-2.3-1.7-2.5c-1.9-0.3-3.8-0.3-5.7-0.4C92.1,59.2,92.1,60.9,92.1,62.8z"/>
		<path d="M28,56.1c2.5,0,4.9-0.2,7.2,0.1c1.9,0.2,3.1,1.6,3.3,3.5c0.2,1.9-0.6,3.1-2.6,3.9c-0.2,0.1-0.4,0.2-0.8,0.3
			c1.3,1.8,2.6,3.4,3.9,5.2c-1,0.3-1.7,0.2-2.2-0.6c-0.8-1.2-1.7-2.2-2.5-3.3c-0.5-0.8-1.1-1-2-1c-2.7,0.1-2.7,0-2.7,2.7
			c0,0.6,0.1,1.2,0,1.8c-0.1,0.3-0.5,0.5-0.8,0.8c-0.2-0.2-0.6-0.5-0.6-0.7C28,64.5,28,60.4,28,56.1z M29.6,60.2c0,0.4-0.1,1,0,1.7
			c0,0.2,0.3,0.7,0.5,0.7c1.6,0,3.3,0.1,5-0.2c1.3-0.2,2.1-1.3,2.1-2.6c0-1.3-0.8-2.2-2.2-2.5c-0.8-0.2-1.6-0.2-2.5-0.2
			C29.7,57.2,29.7,57.2,29.6,60.2z"/>
		<path d="M105.7,69.2c0-4.6,0-8.9,0-13.4c3,0,6,0,8.9,0c0.2,0,0.6,0.5,0.5,0.6c-0.1,0.3-0.4,0.7-0.6,0.7c-2,0.1-4,0.1-6,0
			c-1.2-0.1-1.4,0.4-1.3,1.4s0,2,0,3.2c2.4,0,4.7,0,7.1,0c0,0.5,0.1,0.9,0.1,1.4c-2,0-4,0.1-5.9,0c-1,0-1.5,0.2-1.3,1.3
			c0.1,1.1,0,2.2,0,3.4c2.2,0,4.2,0,6.2,0c0.4,0,0.9-0.1,1.2,0c0.3,0.1,0.5,0.5,0.7,0.6c-0.2,0.2-0.5,0.6-0.8,0.6
			c-1.5,0.1-2.9,0-4.3,0C108.8,69.2,107.4,69.2,105.7,69.2z"/>
		<path d="M50.9,61.9c0.4,1,0.2,1.4-0.9,1.3c-2,0-4,0-6.2,0c0,1.5,0,2.9,0.1,4.2c0,0.2,0.5,0.5,0.9,0.5c1.9,0.1,3.9,0,5.8,0
			c0.4,0,0.9,0,1.2,0c0.3,1,0.2,1.4-0.9,1.3c-2.8-0.1-5.6,0-8.5,0c0-4.5,0-8.9,0-13.4c3,0,5.9,0,8.8,0c0.2,0,0.4,0.5,0.6,0.8
			c-0.3,0.2-0.5,0.5-0.9,0.5c-2,0.1-4,0.1-6,0c-0.9,0-1.3,0.2-1.2,1.2c0.1,1.1-0.3,2.6,0.2,3.2c0.5,0.5,2,0.2,3.1,0.3
			C48.5,61.9,49.7,61.9,50.9,61.9z"/>
		<path d="M54.7,67.3c0.3-0.4,0.5-0.6,0.6-0.9c1.3,0.5,2.5,1.2,3.8,1.6c0.7,0.2,1.6,0.1,2.3-0.2c0.9-0.2,1.6-0.9,1.6-2
			c0.1-1-0.5-1.7-1.5-2c-1.2-0.4-2.3-0.6-3.5-1c-2.1-0.7-3-1.9-2.9-3.8c0.2-1.8,1.5-3,3.5-3.3c2-0.3,3.8,0.2,5.4,1.6
			c-0.2,0.4-0.5,0.7-0.7,0.9c-0.9-0.4-1.8-0.9-2.6-1.1c-0.9-0.2-1.9-0.2-2.7,0.2c-0.6,0.2-1.2,1.2-1.2,1.8c0,0.6,0.5,1.5,1.1,1.9
			c0.6,0.5,1.6,0.6,2.3,0.9c0.7,0.2,1.5,0.4,2.1,0.7c1.6,0.7,2.3,1.8,2.2,3.3c-0.1,1.6-1,2.9-2.6,3.3C59.2,69.9,56.9,69.2,54.7,67.3
			z"/>
		<path d="M84.1,55.9c-0.3,0.4-0.5,0.6-0.8,0.9c-3.8,3.9-7.6,7.8-11.4,11.6c-0.8,0.8-1.6,0.9-2.6,0.6c0.2-0.3,0.5-0.5,0.6-0.8
			c3.9-4,7.8-7.9,11.7-11.9C82.3,55.7,83,55.6,84.1,55.9z"/>
		<path d="M120.6,55.9c0.5,0,0.8,0,1.2,0c0,0.3,0.1,0.5,0.1,0.8c0,3.8,0,7.6,0,11.5c0,0.5,0.2,1.1-0.7,1.1c-0.8,0-0.8-0.5-0.8-1
			c0-3.8,0-7.6,0-11.5C120.6,56.5,120.6,56.3,120.6,55.9z"/>
	</g>
</g>
</svg>
