<?xml version="1.0" encoding="utf-8"?>
<!-- Generator: Adobe Illustrator 21.0.0, SVG Export Plug-In . SVG Version: 6.00 Build 0)  -->
<svg version="1.1" id="Layer_1" xmlns="http://www.w3.org/2000/svg" xmlns:xlink="http://www.w3.org/1999/xlink" x="0px" y="0px"
	 viewBox="0 0 150 125" style="enable-background:new 0 0 150 125;" xml:space="preserve">
<g>
	<g>
		<path d="M97.2,64.9c0,1.9-0.1,3.6,0,5.3c0.1,1.4-0.5,1.7-1.8,1.2c0-5.6,0-11.2,0-16.8c3.2,0,6.3-0.3,9.4,0.1
			c2.5,0.3,3.9,2.2,4,4.5c0.1,2.4-1,4.1-3.4,5c-0.3,0.1-0.6,0.2-1.1,0.4c1.7,2.3,3.3,4.4,5,6.7c-1.3,0.5-2.1,0.3-2.8-0.7
			c-1.1-1.6-2.3-3-3.3-4.6c-0.6-0.9-1.3-1.3-2.4-1.2C99.6,65,98.5,64.9,97.2,64.9z M97.2,63.3c2.4-0.1,4.7-0.1,6.9-0.4
			c1.7-0.2,2.7-1.6,2.7-3.2c0.1-1.6-0.7-3-2.2-3.2c-2.4-0.4-4.9-0.4-7.4-0.5C97.2,58.6,97.2,60.8,97.2,63.3z"/>
		<path d="M14.6,54.7c3.2,0,6.3-0.2,9.3,0.1c2.5,0.2,4,2.1,4.2,4.5s-0.8,4-3.4,5c-0.3,0.1-0.5,0.2-1,0.4c1.7,2.3,3.3,4.4,5,6.7
			c-1.3,0.4-2.2,0.3-2.9-0.8c-1-1.5-2.2-2.8-3.2-4.3C22,65.3,21.2,65,20,65c-3.5,0.1-3.5,0-3.5,3.5c0,0.8,0.1,1.5,0,2.3
			c-0.1,0.4-0.6,0.6-1,1c-0.3-0.3-0.8-0.6-0.8-0.9C14.6,65.5,14.6,60.2,14.6,54.7z M16.6,60c0,0.5-0.1,1.3,0,2.2
			c0,0.3,0.4,0.9,0.7,0.9c2.1,0,4.3,0.1,6.4-0.2c1.7-0.2,2.7-1.7,2.7-3.4s-1-2.9-2.8-3.2c-1-0.2-2.1-0.2-3.2-0.2
			C16.8,56.1,16.8,56.1,16.6,60z"/>
		<path d="M114.8,71.6c0-5.9,0-11.5,0-17.3c3.9,0,7.7,0,11.5,0c0.3,0,0.8,0.6,0.7,0.8c-0.1,0.4-0.5,0.9-0.8,0.9
			c-2.6,0.1-5.2,0.1-7.8,0c-1.5-0.1-1.8,0.5-1.7,1.8c0.1,1.3,0,2.6,0,4.1c3.1,0,6.1,0,9.2,0c0,0.7,0.1,1.1,0.1,1.8
			c-2.6,0-5.1,0.1-7.6,0c-1.3,0-1.9,0.3-1.7,1.7c0.1,1.4,0,2.8,0,4.4c2.8,0,5.4,0,8,0c0.5,0,1.1-0.1,1.5,0s0.6,0.6,0.9,0.8
			c-0.3,0.3-0.6,0.8-1,0.8c-1.9,0.1-3.8,0-5.6,0C118.7,71.6,116.9,71.6,114.8,71.6z"/>
		<path d="M44.1,62.1c0.5,1.3,0.2,1.8-1.1,1.7c-2.6,0-5.2,0-8,0c0,1.9,0,3.7,0.1,5.4c0,0.2,0.7,0.6,1.1,0.6c2.5,0.1,5,0,7.5,0
			c0.5,0,1.1,0,1.6,0c0.4,1.3,0.2,1.8-1.1,1.7c-3.6-0.1-7.2,0-10.9,0c0-5.8,0-11.5,0-17.3c3.9,0,7.6,0,11.4,0c0.3,0,0.5,0.6,0.8,1
			c-0.4,0.2-0.7,0.7-1.1,0.7c-2.6,0.1-5.2,0.1-7.8,0c-1.2,0-1.7,0.3-1.6,1.5c0.1,1.4-0.4,3.3,0.3,4.1c0.7,0.7,2.6,0.3,4,0.4
			C41,62.1,42.5,62.1,44.1,62.1z"/>
		<path d="M49,69.1c0.4-0.5,0.7-0.8,0.8-1.1c1.7,0.7,3.2,1.5,4.9,2c0.9,0.3,2,0.1,3-0.2c1.2-0.3,2-1.2,2.1-2.6
			c0.1-1.3-0.6-2.2-1.9-2.6c-1.5-0.5-3-0.8-4.5-1.3c-2.7-0.9-3.9-2.4-3.7-4.9c0.2-2.3,1.9-3.9,4.5-4.3c2.6-0.4,4.9,0.3,7,2
			c-0.3,0.5-0.6,0.9-0.9,1.2c-1.2-0.5-2.3-1.2-3.4-1.4c-1.2-0.2-2.5-0.2-3.5,0.3c-0.8,0.3-1.5,1.5-1.6,2.3c0,0.8,0.7,1.9,1.4,2.4
			c0.8,0.6,2,0.8,3,1.1c0.9,0.3,1.9,0.5,2.7,0.9c2,0.9,3,2.3,2.9,4.2c-0.1,2-1.3,3.7-3.3,4.3C54.8,72.5,51.8,71.5,49,69.1z"/>
		<path d="M86.9,54.4c-0.4,0.5-0.7,0.8-1,1.2c-4.9,5-9.8,10-14.7,15c-1,1-2,1.2-3.4,0.8c0.3-0.4,0.6-0.7,0.8-1
			c5-5.1,10.1-10.2,15.1-15.3C84.6,54.2,85.5,54,86.9,54.4z"/>
		<path d="M134,54.4c0.6,0,1,0,1.6,0c0,0.4,0.1,0.7,0.1,1c0,4.9,0,9.8,0,14.8c0,0.6,0.2,1.4-0.9,1.4c-1,0-1-0.6-1-1.3
			c0-4.9,0-9.8,0-14.8C133.9,55.2,134,54.9,134,54.4z"/>
	</g>
</g>
</svg>
