<?xml version="1.0" encoding="utf-8"?>
<!-- Generator: Adobe Illustrator 21.0.0, SVG Export Plug-In . SVG Version: 6.00 Build 0)  -->
<svg version="1.1" id="Layer_1" xmlns="http://www.w3.org/2000/svg" xmlns:xlink="http://www.w3.org/1999/xlink" x="0px" y="0px"
	 viewBox="0 0 150 125" style="enable-background:new 0 0 150 125;" xml:space="preserve">
<style type="text/css">
	.st0{fill-rule:evenodd;clip-rule:evenodd;fill:#2D2E2F;}
</style>
<g>
	<path class="st0" d="M126.8,52.5h1.7c0.1,0.1,0.2,0.1,0.2,0.2l0,2c-0.1,0.1-0.2,0.2-0.3,0.2c-0.5,0-1,0-1.6,0
		c-0.2,0-0.3-0.1-0.3-0.3c0-0.6,0-1.3,0-1.9C126.6,52.7,126.7,52.6,126.8,52.5L126.8,52.5L126.8,52.5z M119.1,52.6
		c0.2-0.1,0.4,0,0.6,0c0.4,0,0.7,0,1.1,0c0.2,0,0.3,0.1,0.3,0.3c0,6.3,0,12.6,0,18.8c0,0.2-0.1,0.3-0.3,0.3c-0.5,0-1,0-1.4,0
		c-0.1,0-0.2,0-0.3-0.1c-0.1-0.1-0.1-0.2-0.1-0.3c0-6.3,0-12.6,0-18.8C118.9,52.8,119,52.6,119.1,52.6L119.1,52.6L119.1,52.6z
		 M122.8,52.6c0.4-0.1,0.9,0,1.3,0c0.1,0,0.3,0,0.5,0c0.1,0,0.2,0.2,0.2,0.3c0,6.3,0,12.6,0,18.8c0,0.2-0.1,0.3-0.3,0.3
		c-0.5,0-1.1,0-1.6,0c-0.2,0-0.3-0.2-0.3-0.3c0-6.3,0-12.6,0-18.8C122.6,52.8,122.7,52.6,122.8,52.6L122.8,52.6L122.8,52.6z
		 M36.5,53.3c0-0.2,0.1-0.4,0.3-0.4c0.5,0,1,0,1.6,0c0.2,0,0.3,0.2,0.3,0.4c0,1,0,2,0,3c0,0.3,0,0.6,0,1c0.3-0.1,0.4-0.3,0.6-0.5
		c0.6-0.5,1.4-0.7,2.2-0.7c1,0,2,0.5,2.7,1.3c0.6,0.7,0.8,1.6,1,2.5c0.3,1.7,0.1,3.3,0.1,5c0,1.1-0.1,2.1-0.3,3.2
		c-0.1,0.6-0.2,1.3-0.5,1.8c-0.3,0.6-0.8,1.2-1.4,1.7c-0.7,0.5-1.5,0.8-2.4,0.8c-1.1,0-2.2-0.5-3-1.3c-0.9-0.9-1.3-2.1-1.3-3.3
		C36.4,62.8,36.5,58.1,36.5,53.3L36.5,53.3L36.5,53.3z M40.9,57.9c-0.7,0-1.3,0.5-1.6,1c-0.3,0.5-0.4,1-0.5,1.6
		c-0.2,1.3-0.2,2.6-0.2,4c0,1-0.1,2.1,0,3.1c0.1,0.5,0.1,1.1,0.4,1.6c0.2,0.4,0.5,0.8,0.9,1c0.7,0.4,1.6,0.3,2.3-0.1
		c0.5-0.3,0.7-0.9,0.9-1.4c0.3-1.2,0.4-2.4,0.4-3.6c0-1.5,0.2-2.9,0-4.4c-0.1-0.5-0.1-0.9-0.3-1.3c-0.1-0.4-0.4-0.8-0.7-1
		C41.9,57.9,41.4,57.8,40.9,57.9L40.9,57.9L40.9,57.9z M62.6,53.4c0.1,0,0.2,0,0.2,0c0.5,0,1,0,1.5,0c0.2,0,0.3,0.1,0.3,0.3
		c0,0.7,0,1.4,0,2.1c0,0.2,0.1,0.3,0.3,0.3c0.4,0,0.8,0,1.2,0c0.1,0,0.3,0.1,0.3,0.3c0,0.5,0,1,0,1.5c0,0.1-0.1,0.3-0.2,0.3
		c-0.5,0-0.9,0-1.4,0c-0.2,0-0.2,0.2-0.2,0.4c0,4.4,0,8.9,0,13.3c0,0.2-0.1,0.3-0.3,0.3c-0.6,0-1.1,0-1.7,0c-0.2,0-0.3-0.1-0.3-0.3
		c0-6,0-12,0-18.1C62.4,53.5,62.4,53.4,62.6,53.4L62.6,53.4L62.6,53.4z M84.1,55.9c0.5,0,0.9-0.1,1.4,0c1,0.2,1.9,0.9,2.5,1.7
		c0.6,0.8,0.8,1.8,0.8,2.8c0,0.2,0,0.4-0.1,0.6c-0.1,0.1-0.3,0.1-0.5,0.1c-0.4,0-0.8,0-1.2,0c-0.2,0-0.4-0.1-0.4-0.3
		c-0.1-0.8-0.2-1.7-0.7-2.4c-0.2-0.4-0.6-0.6-1.1-0.7c-0.5,0-1,0-1.4,0.4c-0.5,0.4-0.7,0.9-0.9,1.4c-0.2,0.6-0.3,1.2-0.3,1.7
		c-0.1,1.5-0.2,2.9-0.1,4.4c0,1,0.1,1.9,0.4,2.9c0.2,0.5,0.4,1.1,0.8,1.4c0.4,0.3,0.8,0.4,1.3,0.3c0.6,0,1.1-0.3,1.5-0.7
		c0.3-0.4,0.4-0.9,0.5-1.3c0.1-0.4,0.1-0.7,0.2-1.1c0-0.2,0.2-0.3,0.4-0.3c0.4,0,0.8,0,1.2,0c0.1,0,0.3,0,0.4,0.1
		c0.2,0.2,0.1,0.4,0.1,0.7c-0.1,1-0.3,2.1-1,2.9c-0.5,0.7-1.2,1.2-1.9,1.4c-0.6,0.2-1.2,0.2-1.7,0.2c-0.9-0.1-1.7-0.6-2.4-1.2
		c-0.7-0.7-1.2-1.6-1.4-2.5c-0.2-1-0.3-2.1-0.4-3.2c-0.1-1.5-0.1-2.9,0.1-4.4c0.1-0.9,0.3-1.9,0.7-2.8c0.3-0.6,0.8-1.2,1.3-1.6
		C82.7,56.2,83.4,55.9,84.1,55.9L84.1,55.9L84.1,55.9z M50.5,55.9c0.9-0.1,1.8,0,2.6,0.4c0.5,0.2,0.9,0.6,1.3,1
		c0.6,0.6,0.9,1.5,1,2.4c0.1,0.5,0.2,1,0.1,1.4c0,0.2-0.2,0.3-0.4,0.5c-2.1,1.9-4.1,3.8-6.2,5.7c-0.2,0.2-0.3,0.4-0.2,0.7
		c0.1,0.6,0.3,1.2,0.7,1.7c0.5,0.5,1.2,0.8,1.9,0.8c0.5,0,1-0.3,1.4-0.7c0.3-0.4,0.5-0.9,0.7-1.4c0-0.2,0.2-0.4,0.4-0.4
		c0.4,0,0.8,0,1.2,0c0.2,0,0.3,0.3,0.2,0.5c-0.1,0.8-0.4,1.6-1,2.2c-0.5,0.6-1.1,1.1-1.8,1.4c-0.4,0.1-0.8,0.2-1.2,0.2
		c-0.9,0-1.9-0.3-2.6-0.9c-0.7-0.5-1.2-1.3-1.5-2.1c-0.4-1-0.5-2.2-0.6-3.3c0-1.3,0-2.6,0-3.9c0-0.7,0.1-1.4,0.2-2.1
		c0.3-1.1,0.7-2.2,1.5-3C48.9,56.4,49.7,56,50.5,55.9L50.5,55.9L50.5,55.9z M50.7,57.9c-0.3,0.1-0.7,0.2-1,0.4
		c-0.4,0.4-0.6,0.9-0.8,1.4c-0.4,1.5-0.4,3.1-0.3,4.6c0.1,0.2,0.3,0.1,0.4,0c1.4-1.2,2.8-2.4,4.2-3.7c0.1-0.4,0-0.8-0.1-1.2
		c-0.2-0.5-0.4-1.1-1-1.4C51.8,57.9,51.2,57.8,50.7,57.9L50.7,57.9L50.7,57.9z M59.9,55.9c0.3-0.1,0.7-0.1,1-0.1
		c0.2,0,0.4,0.2,0.4,0.4c0,0.4,0,0.9,0,1.3c0,0.2-0.1,0.4-0.3,0.3c-0.8,0-1.6,0.3-2.1,0.9c-0.5,0.6-0.5,1.4-0.5,2.1
		c0,3.6,0,7.3,0,10.9c0,0.1-0.1,0.2-0.2,0.2c-0.5,0-1,0-1.6,0c-0.2,0-0.3-0.2-0.3-0.4c0-2.9,0-5.8,0-8.7c0-1.1-0.1-2.1,0.1-3.2
		c0.1-0.7,0.3-1.4,0.7-1.9c0.4-0.6,0.9-1.1,1.5-1.5C59,56.2,59.5,56,59.9,55.9L59.9,55.9L59.9,55.9z M94.5,55.9
		c0.8-0.1,1.7,0,2.4,0.5c0.6,0.3,1,0.8,1.4,1.3c0.4,0.6,0.6,1.3,0.6,2.1c0.1,0.8,0,1.6,0,2.5c0,3.2-0.1,6.4-0.1,9.6
		c0,0.2-0.2,0.3-0.4,0.3c-0.4,0-0.8,0-1.2,0c-0.1,0-0.3,0-0.4-0.1c-0.1-0.2,0-0.4-0.1-0.6c-0.2-0.1-0.3,0.1-0.5,0.1
		c-0.4,0.3-0.9,0.6-1.5,0.7c-0.4,0.1-0.9,0.2-1.3,0.2c-1,0-1.9-0.4-2.7-1.1c-0.6-0.5-1-1.2-1.1-2c-0.2-1.2,0-2.4,0.4-3.5
		c0.2-0.6,0.6-1.1,1.1-1.5c0.7-0.7,1.6-1.3,2.5-1.8c0.6-0.3,1.2-0.6,1.8-1c0.5-0.4,0.9-0.8,1.2-1.4c0.3-0.6,0.2-1.3-0.3-1.8
		C96,58,95.5,57.9,95,57.9c-0.6,0-1.3,0.2-1.7,0.6c-0.3,0.3-0.4,0.7-0.5,1.1c-0.1,0.7-0.2,1.5-0.3,2.2c0,0.2-0.3,0.4-0.5,0.4
		c-0.4,0-0.8,0-1.1-0.1c-0.2,0-0.3-0.2-0.3-0.4c0-1.1,0-2.3,0.5-3.4c0.2-0.6,0.7-1.2,1.2-1.7C92.9,56.2,93.7,56,94.5,55.9L94.5,55.9
		L94.5,55.9z M96,63.5c-0.8,0.6-1.5,1.1-2.3,1.6c-0.4,0.2-0.7,0.5-1,0.9c-0.5,0.5-0.8,1.3-0.8,2c0,0.9,0.5,1.7,1.3,2.2
		c0.9,0.5,2.2,0.4,2.9-0.4c0.3-0.4,0.6-0.8,0.6-1.3c0.1-0.5,0.1-1,0.2-1.6c0.1-1.3,0.1-2.6,0.1-3.9c0-0.1,0-0.2-0.1-0.3
		C96.5,63,96.3,63.3,96,63.5L96,63.5L96,63.5z M112.6,55.9c0.9-0.1,1.8,0,2.6,0.4c0.4,0.2,0.8,0.5,1.1,0.9c0.3,0.4,0.6,0.8,0.8,1.3
		c0.3,0.9,0.3,1.9,0.3,2.9c0,3.5-0.1,7-0.1,10.5c0,0.2-0.2,0.3-0.4,0.3c-0.4,0-0.9,0-1.3,0c-0.1,0-0.3,0-0.4-0.1
		c-0.1-0.2,0-0.4-0.1-0.6c-0.1-0.1-0.3,0.1-0.4,0.1c-0.7,0.5-1.5,0.9-2.4,1c-1.1,0.1-2.2-0.3-3-1c-0.6-0.5-1-1.2-1.2-1.9
		c-0.2-0.9-0.1-1.9,0.1-2.9c0.2-0.7,0.5-1.3,0.9-1.8c1-1.2,2.3-2,3.6-2.6c0.7-0.4,1.4-0.9,1.9-1.5c0.2-0.3,0.4-0.7,0.5-1.1
		c0-0.4-0.1-0.9-0.5-1.2c-0.4-0.3-0.9-0.4-1.3-0.4c-0.5,0-1.1,0.1-1.5,0.4c-0.4,0.3-0.6,0.7-0.7,1.2c-0.1,0.7-0.2,1.3-0.2,2
		c0,0.1,0,0.3-0.1,0.4c-0.1,0.2-0.3,0.2-0.5,0.2c-0.3,0-0.7,0-1-0.1c-0.1,0-0.3-0.1-0.3-0.3c-0.1-0.2,0-0.5,0-0.7
		c0-1.1,0.1-2.2,0.6-3.2c0.3-0.7,0.8-1.2,1.4-1.6C111.5,56.2,112,56,112.6,55.9L112.6,55.9L112.6,55.9z M114.3,63.4
		c-0.8,0.6-1.5,1.1-2.3,1.6c-0.4,0.3-0.8,0.6-1.1,1c-0.5,0.5-0.8,1.2-0.8,2c0,0.9,0.5,1.7,1.3,2.2c0.9,0.5,2.2,0.4,2.9-0.4
		c0.3-0.4,0.5-0.8,0.6-1.2c0.1-0.5,0.1-1,0.2-1.5c0.1-1.2,0.1-2.4,0.1-3.6c0-0.2,0-0.5,0-0.7C114.8,62.9,114.6,63.2,114.3,63.4
		L114.3,63.4L114.3,63.4z M126.6,56.2c0-0.1,0.1-0.3,0.2-0.3c0.5,0,1.1,0,1.6,0c0.1,0,0.2,0.1,0.3,0.2l0,15.7
		c-0.1,0.1-0.2,0.2-0.3,0.2c-0.5,0-1,0-1.5,0c-0.1,0-0.3-0.1-0.3-0.2c0-0.2,0-0.3,0-0.5C126.6,66.3,126.6,61.3,126.6,56.2
		L126.6,56.2L126.6,56.2z M30.2,56c1-0.2,2,0,2.9,0.5c0.8,0.4,1.4,1.1,1.7,1.9c0.7,1.7,0.8,3.5,0.8,5.3c0,1-0.1,2.1-0.2,3.1
		c-0.1,0.9-0.3,1.9-0.6,2.8c-0.3,0.8-0.9,1.6-1.6,2c-0.8,0.5-1.8,0.6-2.7,0.6c-0.8,0-1.7-0.3-2.3-0.9c-0.6-0.5-1-1.2-1.3-1.9
		c-0.4-1-0.5-2-0.6-3c-0.2-1.8-0.1-3.5,0-5.3c0.1-0.7,0.2-1.4,0.4-2c0.2-0.8,0.7-1.6,1.4-2.2C28.7,56.5,29.4,56.1,30.2,56L30.2,56
		L30.2,56z M30.6,57.9c-0.6,0.1-1.1,0.4-1.4,0.9c-0.3,0.4-0.4,0.9-0.5,1.3c-0.2,0.7-0.2,1.4-0.3,2.2c-0.1,1.5-0.1,2.9,0,4.4
		c0.1,0.8,0.2,1.6,0.5,2.4c0.2,0.4,0.5,0.8,0.9,1c0.4,0.2,0.8,0.3,1.2,0.3c0.8,0,1.6-0.6,1.9-1.3c0.2-0.4,0.3-0.9,0.4-1.4
		c0.2-1.2,0.2-2.4,0.2-3.6c0-1.3,0-2.6-0.3-3.9c-0.2-0.6-0.4-1.3-0.9-1.8C31.8,58,31.2,57.8,30.6,57.9L30.6,57.9L30.6,57.9z
		 M70.2,56c1-0.2,2,0,2.8,0.5c0.8,0.4,1.4,1,1.8,1.8c0.6,1.5,0.8,3.2,0.8,4.9c0.1,1.6-0.1,3.3-0.4,4.9c-0.1,0.7-0.3,1.4-0.7,2.1
		c-0.4,0.7-0.9,1.3-1.6,1.6c-0.8,0.4-1.7,0.5-2.6,0.5c-0.9,0-1.7-0.3-2.3-0.9c-0.7-0.6-1.1-1.5-1.3-2.4c-0.3-0.9-0.4-1.8-0.4-2.8
		c-0.1-1.5-0.1-2.9,0-4.4c0.1-0.9,0.2-1.8,0.4-2.6c0.2-0.8,0.7-1.5,1.3-2.1C68.5,56.5,69.4,56.2,70.2,56L70.2,56L70.2,56z
		 M70.5,57.9c-0.5,0.1-1,0.4-1.4,0.8c-0.2,0.3-0.3,0.6-0.4,0.9c-0.2,0.6-0.2,1.2-0.3,1.8c-0.1,0.9-0.1,1.8-0.1,2.7
		c0,1.3,0,2.7,0.3,4c0.1,0.5,0.3,1.1,0.6,1.5c0.4,0.5,1.1,0.7,1.7,0.8c0.7,0,1.5-0.4,1.8-1c0.2-0.4,0.3-0.7,0.4-1.1
		c0.2-0.9,0.2-1.8,0.2-2.7c0-0.8,0-1.5,0.1-2.3c0-1.1,0-2.3-0.4-3.4c-0.2-0.6-0.5-1.2-0.9-1.5C71.7,58,71.1,57.8,70.5,57.9
		L70.5,57.9L70.5,57.9z M106.2,56.5c0.1-0.3,0.3-0.5,0.6-0.5c0.5,0,1,0,1.5,0.1c0.2,0,0.3,0.2,0.3,0.3c0,0.2-0.1,0.5-0.1,0.7
		c-1.2,4.9-2.4,9.7-3.5,14.6c0,0.2-0.2,0.4-0.5,0.4c-0.4,0-0.7,0-1.1,0c-0.2,0-0.4-0.2-0.5-0.4c-1.1-5.1-2.2-10.1-3.4-15.2
		c-0.1-0.2,0.2-0.4,0.4-0.4c0.4,0,0.9,0,1.3,0c0.2,0,0.4,0.2,0.5,0.4c0.8,3.4,1.5,6.7,2.3,10.1c0.3-1,0.5-2.1,0.7-3.1
		C105.2,61.2,105.7,58.9,106.2,56.5L106.2,56.5L106.2,56.5z M23.9,56.5c0.6-0.3,1.3-0.4,2-0.4c0.2,0,0.4,0.2,0.4,0.4
		c0,0.4,0,0.9,0,1.3c0,0.2-0.1,0.3-0.2,0.4c-0.2,0-0.4,0-0.6,0c-0.6,0.1-1.2,0.4-1.6,0.9c-0.5,0.6-0.5,1.4-0.5,2.1
		c0,3.4,0,6.8,0,10.2c0,0.2,0,0.3,0,0.5C23.3,72,23.1,72,23,72c-0.5,0-1,0-1.4,0c-0.1,0-0.2-0.1-0.3-0.3V61.3c0-0.8,0.1-1.7,0.5-2.5
		c0.2-0.4,0.4-0.7,0.7-1.1C22.9,57.2,23.3,56.8,23.9,56.5L23.9,56.5L23.9,56.5z"/>
</g>
</svg>
