<?xml version="1.0" encoding="utf-8"?>
<!-- Generator: Adobe Illustrator 21.0.0, SVG Export Plug-In . SVG Version: 6.00 Build 0)  -->
<svg version="1.1" id="Layer_1" xmlns="http://www.w3.org/2000/svg" xmlns:xlink="http://www.w3.org/1999/xlink" x="0px" y="0px"
	 viewBox="0 0 150 125" style="enable-background:new 0 0 150 125;" xml:space="preserve">
<g>
	<g>
		<path d="M73.7,61.7c-0.2-0.2-0.3-0.4-0.3-0.5c0-0.1,0.3-0.2,0.4-0.4c0.1,0.1,0.3,0.3,0.3,0.4C74,61.4,73.8,61.5,73.7,61.7z"/>
		<path d="M133.2,62.2c-0.2-0.2-0.4-0.4-0.3-0.5c0-0.1,0.2-0.3,0.4-0.4c0.1,0.1,0.3,0.2,0.3,0.4C133.5,61.9,133.4,62,133.2,62.2z"/>
		<path d="M97.1,62.5c-0.2-0.2-0.3-0.4-0.3-0.5s0.2-0.2,0.4-0.4c0.1,0.1,0.3,0.2,0.3,0.4C97.4,62.1,97.3,62.3,97.1,62.5z"/>
		<path d="M132.8,60.7c-0.2,0.2-0.4,0.3-0.5,0.3s-0.2-0.2-0.4-0.4c0.1-0.1,0.3-0.3,0.4-0.3C132.5,60.4,132.6,60.5,132.8,60.7z"/>
		<path d="M85.7,59.9c-0.3,0.2-0.4,0.3-0.6,0.3c-0.1,0-0.3-0.2-0.3-0.4c0-0.1,0.2-0.3,0.3-0.3C85.3,59.6,85.4,59.7,85.7,59.9z"/>
		<path d="M98.7,62.5c-0.2,0.1-0.4,0.3-0.5,0.3s-0.2-0.2-0.3-0.3c0.1-0.1,0.3-0.3,0.4-0.3C98.4,62.2,98.5,62.4,98.7,62.5z"/>
		<path d="M34.5,59.2c0.2,0.2,0.4,0.4,0.3,0.5c0,0.1-0.2,0.2-0.4,0.4c-0.1-0.1-0.3-0.2-0.3-0.4C34.1,59.5,34.3,59.4,34.5,59.2z"/>
		<path d="M27.5,59.7C27.3,59.9,27.1,60,27,60s-0.2-0.2-0.4-0.4c0.1-0.1,0.2-0.3,0.4-0.3C27.1,59.3,27.2,59.5,27.5,59.7z"/>
		<path d="M74.2,65.6c-0.2,0.2-0.4,0.3-0.5,0.3c-0.1,0-0.3-0.2-0.4-0.3c0.1-0.1,0.3-0.3,0.4-0.3C73.8,65.2,74,65.4,74.2,65.6z"/>
		<path d="M24.6,59.1c0.2,0.2,0.4,0.4,0.3,0.5c0,0.1-0.2,0.3-0.4,0.3c-0.1,0-0.3-0.2-0.3-0.3C24.3,59.5,24.4,59.4,24.6,59.1z"/>
		<path d="M108.5,64.2c-0.2,0.2-0.3,0.4-0.5,0.4c-0.1,0-0.3-0.2-0.4-0.3c0.1-0.1,0.2-0.3,0.4-0.3C108.1,63.9,108.3,64,108.5,64.2z"
			/>
		<path d="M39.7,59.7c-0.3,0.1-0.4,0.3-0.5,0.3c-0.1,0-0.2-0.2-0.3-0.4c0.1-0.1,0.3-0.3,0.4-0.3C39.3,59.3,39.5,59.5,39.7,59.7z"/>
		<path d="M47.3,59.7c-0.2,0.2-0.4,0.3-0.5,0.3c-0.1,0-0.2-0.2-0.4-0.4c0.1-0.1,0.3-0.3,0.4-0.3C46.9,59.3,47,59.5,47.3,59.7z"/>
		<path d="M82.1,59.7c-0.2,0.2-0.4,0.3-0.5,0.3c-0.1,0-0.2-0.2-0.4-0.3c0.1-0.1,0.2-0.3,0.4-0.4C81.8,59.3,81.9,59.5,82.1,59.7z"/>
		<path d="M90.4,59.2c0.1,0.2,0.3,0.4,0.3,0.5c0,0.1-0.2,0.2-0.3,0.3c-0.1-0.1-0.3-0.2-0.3-0.4C90,59.5,90.2,59.4,90.4,59.2z"/>
		<path d="M71.4,62.8c0.2,0.2,0.4,0.4,0.4,0.5c0,0.1-0.2,0.3-0.3,0.4c-0.1-0.1-0.3-0.2-0.3-0.4C71.1,63.2,71.2,63.1,71.4,62.8z"/>
		<path d="M120.4,63.1c-0.2,0.2-0.3,0.4-0.4,0.4c-0.1,0-0.3-0.2-0.4-0.3c0.1-0.1,0.2-0.3,0.4-0.4C120,62.7,120.2,62.9,120.4,63.1z"
			/>
		<path d="M114.6,62.5c0.2,0.3,0.3,0.4,0.3,0.6c0,0.1-0.2,0.3-0.4,0.3c-0.1,0-0.3-0.2-0.3-0.3C114.2,62.9,114.4,62.8,114.6,62.5z"/>
		<path d="M105.6,59.6c-0.2,0.2-0.3,0.4-0.5,0.4c-0.1,0-0.3-0.2-0.4-0.3c0.1-0.1,0.2-0.3,0.3-0.4C105.1,59.3,105.3,59.5,105.6,59.6z
			"/>
		<path d="M134.1,62.3c0.2,0.2,0.3,0.4,0.3,0.5c0,0.1-0.2,0.2-0.4,0.4c-0.1-0.1-0.3-0.3-0.3-0.4C133.8,62.5,134,62.5,134.1,62.3z"/>
		<path d="M110.2,59.7c-0.2,0.1-0.4,0.3-0.5,0.3c-0.1,0-0.2-0.2-0.3-0.3c0.1-0.1,0.2-0.3,0.4-0.3C109.9,59.3,110,59.5,110.2,59.7z"
			/>
		<path d="M127.2,62.5c-0.2,0.2-0.4,0.4-0.5,0.3c-0.1,0-0.3-0.2-0.4-0.3c0.1-0.1,0.2-0.3,0.4-0.3C126.9,62.2,127,62.4,127.2,62.5z"
			/>
		<path d="M125.4,62.1c0.2,0.2,0.4,0.4,0.3,0.5c0,0.1-0.2,0.3-0.3,0.4c-0.1-0.1-0.3-0.2-0.3-0.4C125.1,62.5,125.3,62.3,125.4,62.1z"
			/>
		<path d="M117.3,63c-0.2-0.2-0.4-0.4-0.4-0.5c0-0.1,0.2-0.3,0.3-0.4c0.1,0.1,0.3,0.2,0.4,0.4C117.6,62.6,117.4,62.8,117.3,63z"/>
		<path d="M125.9,59.7c-0.2,0.2-0.4,0.3-0.5,0.3c-0.1,0-0.2-0.2-0.4-0.3c0.1-0.1,0.2-0.3,0.4-0.4C125.6,59.3,125.7,59.5,125.9,59.7z
			"/>
		<path d="M126.8,60.2c-0.2-0.2-0.4-0.4-0.3-0.5c0-0.1,0.2-0.3,0.3-0.4c0.1,0.1,0.3,0.2,0.3,0.4C127.1,59.8,126.9,59.9,126.8,60.2z"
			/>
		<path d="M128.6,59.7c-0.3,0.1-0.4,0.3-0.5,0.3s-0.2-0.2-0.3-0.4c0.1-0.1,0.3-0.3,0.4-0.3C128.2,59.3,128.3,59.5,128.6,59.7z"/>
		<path d="M99.4,63c-0.2-0.2-0.4-0.4-0.4-0.5c0-0.1,0.2-0.3,0.3-0.4c0.1,0.1,0.3,0.2,0.3,0.3C99.7,62.6,99.5,62.8,99.4,63z"/>
		<path d="M119.9,65.9c-0.2-0.2-0.4-0.4-0.4-0.5c0-0.1,0.2-0.3,0.3-0.4c0.1,0.1,0.3,0.2,0.3,0.4C120.2,65.6,120.1,65.7,119.9,65.9z"
			/>
		<path d="M33.2,62.1c0.1,0.2,0.3,0.4,0.3,0.5c0,0.1-0.2,0.2-0.4,0.4c-0.1-0.1-0.3-0.3-0.3-0.4C32.8,62.4,33,62.3,33.2,62.1z"/>
		<path d="M80.7,60.8c-0.2-0.2-0.4-0.4-0.3-0.5c0-0.1,0.2-0.2,0.4-0.4c0.1,0.1,0.3,0.2,0.3,0.4C81,60.5,80.8,60.6,80.7,60.8z"/>
		<path d="M15,63c-0.2-0.3-0.3-0.4-0.3-0.6c0-0.1,0.2-0.3,0.3-0.3c0.1,0,0.3,0.2,0.3,0.3C15.4,62.5,15.2,62.7,15,63z"/>
		<path d="M56.5,61.1c-0.2-0.2-0.4-0.4-0.4-0.5c0-0.1,0.2-0.3,0.3-0.4c0.1,0.1,0.3,0.2,0.3,0.4C56.9,60.8,56.7,60.9,56.5,61.1z"/>
		<path d="M120.4,62c-0.2,0.2-0.3,0.4-0.5,0.4c-0.1,0-0.3-0.2-0.4-0.3c0.1-0.1,0.2-0.3,0.4-0.3C120,61.6,120.2,61.8,120.4,62z"/>
		<path d="M114.5,62.5c-0.2-0.3-0.3-0.4-0.3-0.6c0-0.1,0.3-0.3,0.4-0.3s0.3,0.2,0.3,0.4C114.9,62.2,114.7,62.3,114.5,62.5z"/>
		<path d="M134.6,65.4c-0.2,0.2-0.4,0.4-0.5,0.4s-0.2-0.2-0.4-0.3c0.1-0.1,0.2-0.3,0.4-0.4C134.2,65.1,134.4,65.3,134.6,65.4z"/>
		<path d="M120.4,60.8c-0.2,0.2-0.4,0.4-0.5,0.4c-0.2,0-0.3-0.2-0.4-0.3c0.1-0.1,0.2-0.3,0.4-0.3C120,60.5,120.2,60.6,120.4,60.8z"
			/>
		<path d="M135,62.2c-0.2-0.2-0.3-0.4-0.3-0.5c0-0.1,0.2-0.2,0.3-0.4c0.1,0.1,0.3,0.2,0.4,0.4C135.4,61.9,135.2,62,135,62.2z"/>
		<path d="M97.6,65.5c-0.3,0.2-0.4,0.3-0.6,0.3c-0.1,0-0.2-0.2-0.3-0.3c0.1-0.1,0.3-0.3,0.4-0.3C97.3,65.1,97.4,65.3,97.6,65.5z"/>
		<path d="M18.8,64.5c-0.2,0.2-0.4,0.4-0.5,0.4s-0.3-0.2-0.4-0.3c0.1-0.1,0.2-0.3,0.4-0.3C18.5,64.2,18.6,64.3,18.8,64.5z"/>
		<path d="M22.2,60.2c-0.2-0.2-0.3-0.4-0.3-0.5c0-0.1,0.2-0.2,0.4-0.4c0.1,0.1,0.3,0.3,0.3,0.4C22.6,59.8,22.4,59.9,22.2,60.2z"/>
		<path d="M84,65c0.2,0.2,0.4,0.4,0.4,0.5s-0.2,0.3-0.3,0.4c-0.1-0.1-0.3-0.2-0.4-0.4C83.7,65.4,83.9,65.2,84,65z"/>
		<path d="M119.9,64.8c-0.2-0.3-0.3-0.4-0.3-0.5c0-0.1,0.3-0.3,0.3-0.3c0.1,0,0.3,0.2,0.3,0.4C120.2,64.4,120.1,64.5,119.9,64.8z"/>
		<path d="M97.1,63.8c0.2,0.2,0.4,0.4,0.3,0.5c0,0.1-0.2,0.3-0.4,0.3c-0.1,0-0.3-0.2-0.3-0.3C96.8,64.1,96.9,64,97.1,63.8z"/>
		<path d="M50.2,65.4c-0.2,0.2-0.4,0.4-0.5,0.4c-0.2,0-0.3-0.2-0.4-0.3c0.1-0.1,0.2-0.3,0.4-0.3C49.8,65.1,50,65.3,50.2,65.4z"/>
		<path d="M124.6,62c-0.2,0.2-0.4,0.3-0.5,0.3s-0.2-0.2-0.4-0.4c0.1-0.1,0.3-0.3,0.4-0.3C124.3,61.7,124.4,61.9,124.6,62z"/>
		<path d="M48.2,64.9c0.2,0.2,0.4,0.4,0.4,0.5c0,0.1-0.2,0.3-0.4,0.4c-0.1-0.1-0.3-0.2-0.3-0.4C47.9,65.3,48,65.2,48.2,64.9z"/>
		<path d="M101.9,62.1c-0.2,0.2-0.4,0.3-0.5,0.3c-0.1,0-0.2-0.2-0.3-0.3c0.1-0.1,0.2-0.3,0.4-0.3C101.6,61.7,101.7,61.9,101.9,62.1z
			"/>
		<path d="M63.4,61.8c0.2,0.2,0.4,0.4,0.4,0.5c0,0.1-0.2,0.3-0.3,0.4c-0.1-0.1-0.3-0.2-0.3-0.3C63.1,62.1,63.3,62,63.4,61.8z"/>
		<path d="M72.3,62.2c-0.3,0.2-0.4,0.4-0.6,0.4c-0.1,0-0.3-0.2-0.3-0.3c0-0.1,0.2-0.3,0.3-0.4C71.8,61.9,72,62.1,72.3,62.2z"/>
		<path d="M46.7,64.9c0.2,0.2,0.4,0.4,0.4,0.5c0,0.1-0.2,0.3-0.3,0.4c-0.1-0.1-0.3-0.2-0.3-0.4C46.5,65.3,46.7,65.2,46.7,64.9z"/>
		<path d="M39.7,65.5c-0.2,0.2-0.4,0.3-0.5,0.3c-0.1,0-0.2-0.2-0.4-0.4c0.1-0.1,0.3-0.3,0.4-0.3C39.3,65.1,39.4,65.3,39.7,65.5z"/>
		<path d="M34.9,65.4c-0.2,0.2-0.4,0.3-0.5,0.3c-0.1,0-0.2-0.2-0.4-0.3c0.1-0.1,0.2-0.3,0.4-0.3S34.7,65.3,34.9,65.4z"/>
		<path d="M79.8,63c-0.2-0.2-0.4-0.4-0.3-0.5c0-0.1,0.2-0.2,0.4-0.4c0.1,0.1,0.3,0.2,0.3,0.4C80.1,62.6,80,62.7,79.8,63z"/>
		<path d="M92.5,62.5c-0.2,0.2-0.4,0.4-0.5,0.3c-0.1,0-0.3-0.2-0.4-0.3c0.1-0.1,0.3-0.3,0.4-0.3C92.1,62.2,92.3,62.4,92.5,62.5z"/>
		<path d="M124.2,64.9c0.2,0.2,0.3,0.4,0.3,0.5c0,0.1-0.2,0.2-0.4,0.4c-0.1-0.1-0.3-0.3-0.3-0.4C123.8,65.3,124,65.2,124.2,64.9z"/>
		<path d="M31.3,65.5c0.2-0.2,0.4-0.3,0.5-0.3s0.3,0.2,0.4,0.3c-0.1,0.1-0.2,0.3-0.4,0.4C31.7,65.8,31.6,65.6,31.3,65.5z"/>
		<path d="M53.9,64.9c0.2,0.2,0.3,0.4,0.3,0.5c0,0.1-0.2,0.2-0.3,0.4c-0.1-0.1-0.3-0.2-0.4-0.4C53.5,65.3,53.7,65.2,53.9,64.9z"/>
		<path d="M125.9,65.5c-0.2,0.2-0.4,0.3-0.5,0.3c-0.1,0-0.2-0.2-0.4-0.4c0.1-0.1,0.2-0.3,0.4-0.3C125.6,65.1,125.7,65.3,125.9,65.5z
			"/>
		<path d="M67.8,65.5c-0.2,0.2-0.4,0.4-0.5,0.3c-0.1,0-0.2-0.2-0.4-0.4c0.1-0.1,0.2-0.3,0.4-0.3S67.6,65.3,67.8,65.5z"/>
		<path d="M67.3,62.5C67.1,62.3,67,62.1,67,62s0.2-0.2,0.3-0.4c0.1,0.1,0.3,0.2,0.4,0.4C67.7,62.1,67.5,62.3,67.3,62.5z"/>
		<path d="M61.1,62.5c-0.2-0.2-0.4-0.4-0.3-0.5c0-0.1,0.2-0.2,0.4-0.4c0.1,0.1,0.3,0.2,0.3,0.4C61.4,62.2,61.2,62.3,61.1,62.5z"/>
		<path d="M46.7,62.5c-0.2-0.2-0.3-0.4-0.3-0.5s0.2-0.2,0.4-0.3c0.1,0.1,0.3,0.3,0.3,0.4C47.1,62.2,46.9,62.3,46.7,62.5z"/>
		<path d="M39.7,62c-0.2,0.2-0.4,0.4-0.5,0.3c-0.1,0-0.3-0.2-0.4-0.3c0.1-0.1,0.2-0.3,0.4-0.3C39.3,61.7,39.4,61.8,39.7,62z"/>
		<path d="M31,62c-0.2,0.2-0.4,0.3-0.5,0.3s-0.2-0.2-0.4-0.3c0.1-0.1,0.2-0.3,0.4-0.4C30.7,61.6,30.8,61.8,31,62z"/>
		<path d="M108,62.4c-0.2-0.2-0.4-0.4-0.3-0.5c0-0.1,0.2-0.2,0.4-0.4c0.1,0.1,0.3,0.2,0.3,0.4C108.3,62,108.1,62.1,108,62.4z"/>
		<path d="M24,61.4c0.2,0.2,0.4,0.4,0.4,0.5c0,0.1-0.2,0.3-0.4,0.4c-0.1-0.1-0.3-0.2-0.3-0.4C23.7,61.7,23.8,61.6,24,61.4z"/>
		<path d="M94,65.4c-0.2,0.2-0.4,0.4-0.5,0.3c-0.1,0-0.3-0.2-0.4-0.3c0.1-0.1,0.2-0.3,0.4-0.3S93.8,65.3,94,65.4z"/>
		<path d="M16.9,65.6c-0.2,0.2-0.4,0.3-0.5,0.3s-0.2-0.2-0.4-0.3c0.1-0.1,0.2-0.3,0.4-0.4C16.5,65.2,16.6,65.4,16.9,65.6z"/>
		<path d="M75.3,61.4c-0.2,0.2-0.4,0.4-0.5,0.3c-0.1,0-0.3-0.2-0.4-0.3c0.1-0.1,0.2-0.3,0.4-0.3C75,61,75.1,61.2,75.3,61.4z"/>
		<path d="M39.7,64.2c-0.2,0.2-0.3,0.4-0.5,0.4c-0.1,0-0.3-0.2-0.4-0.3c0.1-0.1,0.2-0.3,0.4-0.4C39.3,63.9,39.4,64.1,39.7,64.2z"/>
		<path d="M31,64.3c-0.2,0.1-0.4,0.3-0.5,0.3s-0.2-0.2-0.3-0.3c0.1-0.1,0.3-0.3,0.4-0.3C30.7,63.9,30.8,64.1,31,64.3z"/>
		<path d="M108,64.9c0.2,0.2,0.4,0.3,0.3,0.5c0,0.1-0.2,0.3-0.3,0.4c-0.1-0.1-0.3-0.2-0.4-0.4C107.6,65.3,107.8,65.2,108,64.9z"/>
		<path d="M24.5,64.2c-0.2,0.2-0.4,0.4-0.5,0.3c-0.1,0-0.2-0.2-0.4-0.4c0.1-0.1,0.3-0.3,0.4-0.3C24.2,63.9,24.3,64.1,24.5,64.2z"/>
		<path d="M134.1,64.6c-0.2-0.2-0.4-0.3-0.3-0.5c0-0.1,0.2-0.3,0.3-0.4c0.1,0.1,0.3,0.2,0.4,0.4C134.5,64.2,134.3,64.3,134.1,64.6z"
			/>
		<path d="M114.6,65.9c-0.2-0.2-0.4-0.4-0.4-0.5c0-0.1,0.2-0.3,0.4-0.4c0.1,0.1,0.3,0.2,0.3,0.4C114.9,65.6,114.8,65.7,114.6,65.9z"
			/>
		<path d="M61.1,64.8c-0.2-0.2-0.4-0.4-0.3-0.5c0-0.1,0.2-0.3,0.4-0.4c0.1,0.1,0.3,0.2,0.3,0.4C61.4,64.4,61.2,64.5,61.1,64.8z"/>
		<path d="M67.3,63.8c0.2,0.2,0.4,0.4,0.4,0.5c0,0.1-0.2,0.3-0.3,0.4c-0.1-0.1-0.3-0.2-0.3-0.4C67,64.1,67.2,64,67.3,63.8z"/>
		<path d="M93,63.5c-0.2,0.2-0.4,0.3-0.5,0.3s-0.2-0.2-0.4-0.3c0.1-0.1,0.2-0.3,0.4-0.4C92.6,63.1,92.8,63.3,93,63.5z"/>
		<path d="M90.9,63.4c-0.2,0.2-0.4,0.4-0.5,0.4c-0.1,0-0.3-0.2-0.4-0.3c0.1-0.1,0.2-0.3,0.3-0.4C90.5,63.1,90.6,63.3,90.9,63.4z"/>
		<path d="M55.5,63.5c-0.2,0.2-0.4,0.3-0.5,0.3c-0.1,0-0.2-0.2-0.4-0.3c0.1-0.1,0.2-0.3,0.4-0.3C55.1,63.1,55.3,63.3,55.5,63.5z"/>
		<path d="M114.6,64.8c-0.2-0.2-0.4-0.4-0.4-0.5c0-0.1,0.2-0.3,0.3-0.3c0.1,0,0.3,0.2,0.4,0.3C114.9,64.4,114.8,64.5,114.6,64.8z"/>
		<path d="M124.6,63.1c-0.2,0.2-0.4,0.3-0.5,0.3s-0.2-0.2-0.4-0.3c0.1-0.1,0.2-0.3,0.4-0.4C124.3,62.7,124.4,62.9,124.6,63.1z"/>
		<path d="M124.1,63.8c0.2,0.2,0.4,0.4,0.4,0.5c0,0.1-0.2,0.3-0.3,0.4c-0.1-0.1-0.3-0.2-0.3-0.4C123.8,64.1,124,64,124.1,63.8z"/>
		<path d="M54.9,64.5c-0.2,0.2-0.4,0.3-0.5,0.3s-0.2-0.2-0.4-0.3c0.1-0.1,0.2-0.3,0.4-0.4C54.6,64.1,54.7,64.3,54.9,64.5z"/>
		<path d="M108,63.5c-0.2-0.2-0.4-0.4-0.3-0.5c0-0.1,0.2-0.3,0.4-0.4c0.1,0.1,0.3,0.2,0.3,0.4C108.3,63.1,108.2,63.3,108,63.5z"/>
		<path d="M24.1,62.5c0.2,0.2,0.3,0.4,0.3,0.5s-0.2,0.2-0.4,0.3c-0.1-0.1-0.3-0.3-0.3-0.4C23.7,62.8,23.9,62.7,24.1,62.5z"/>
		<path d="M71.7,64c0.2,0.2,0.4,0.4,0.3,0.5c0,0.1-0.2,0.2-0.4,0.4c-0.1-0.1-0.3-0.2-0.3-0.4C71.4,64.3,71.6,64.2,71.7,64z"/>
		<path d="M93.6,64.5c-0.2,0.2-0.4,0.3-0.5,0.3s-0.2-0.2-0.4-0.3c0.1-0.1,0.2-0.3,0.4-0.3C93.2,64.1,93.3,64.3,93.6,64.5z"/>
		<path d="M17.4,63.1c-0.2-0.2-0.4-0.3-0.4-0.4c0-0.1,0.2-0.3,0.3-0.4c0.1,0.1,0.3,0.2,0.4,0.4C17.8,62.8,17.6,62.9,17.4,63.1z"/>
		<path d="M119.5,64.5c-0.2,0.2-0.4,0.3-0.5,0.3s-0.2-0.2-0.4-0.3c0.1-0.1,0.2-0.3,0.4-0.4C119.1,64.1,119.3,64.3,119.5,64.5z"/>
		<path d="M80.7,65.2c-0.2-0.2-0.4-0.4-0.4-0.5c0-0.1,0.2-0.3,0.4-0.4c0.1,0.1,0.3,0.2,0.3,0.4C81,64.8,80.9,65,80.7,65.2z"/>
		<path d="M14.5,65.1c-0.2,0.2-0.3,0.3-0.5,0.3c-0.1,0-0.2-0.2-0.4-0.3c0.1-0.1,0.2-0.3,0.4-0.4C14.1,64.7,14.3,64.9,14.5,65.1z"/>
		<path d="M85.1,65.6c-0.2-0.2-0.3-0.4-0.3-0.5c0-0.1,0.2-0.2,0.3-0.3c0.1,0.1,0.3,0.2,0.3,0.4C85.5,65.3,85.3,65.4,85.1,65.6z"/>
		<path d="M73.1,65.3c-0.2,0.2-0.4,0.4-0.5,0.3c-0.1,0-0.3-0.2-0.4-0.4c0.1-0.1,0.2-0.3,0.4-0.3C72.7,65,72.8,65.1,73.1,65.3z"/>
		<path d="M24.5,65.5c-0.2,0.2-0.4,0.3-0.5,0.3s-0.2-0.2-0.4-0.4c0.1-0.1,0.3-0.3,0.4-0.3C24.2,65.1,24.3,65.3,24.5,65.5z"/>
		<path d="M101,62.5c-0.2,0.2-0.4,0.4-0.5,0.3c-0.1,0-0.3-0.2-0.4-0.4c0.1-0.1,0.2-0.3,0.4-0.3C100.6,62.3,100.8,62.4,101,62.5z"/>
		<path d="M30.5,65.9c-0.2-0.2-0.3-0.4-0.3-0.5c0-0.1,0.2-0.2,0.3-0.4c0.1,0.1,0.3,0.2,0.4,0.4C30.9,65.6,30.7,65.7,30.5,65.9z"/>
		<path d="M115.1,59.6c-0.2,0.2-0.4,0.4-0.5,0.3c-0.1,0-0.3-0.2-0.4-0.3c0.1-0.1,0.2-0.3,0.4-0.3C114.7,59.3,114.9,59.5,115.1,59.6z
			"/>
		<path d="M120.4,59.6c-0.2,0.2-0.4,0.4-0.5,0.4c-0.2,0-0.3-0.2-0.4-0.3c0.1-0.1,0.2-0.3,0.4-0.3C120,59.3,120.2,59.5,120.4,59.6z"
			/>
		<path d="M24.1,61.1c-0.2-0.2-0.4-0.3-0.4-0.5c0-0.1,0.2-0.3,0.3-0.4c0.1,0.1,0.3,0.2,0.4,0.3C24.4,60.7,24.2,60.9,24.1,61.1z"/>
		<path d="M91.4,60.6C91.2,60.8,91,61,90.9,61c-0.2,0-0.3-0.2-0.4-0.3c0.1-0.1,0.2-0.3,0.4-0.3C91,60.3,91.2,60.5,91.4,60.6z"/>
		<path d="M108,60.1c0.2,0.2,0.4,0.4,0.3,0.5c0,0.1-0.2,0.3-0.3,0.4c-0.1-0.1-0.3-0.2-0.3-0.4C107.6,60.5,107.8,60.4,108,60.1z"/>
		<path d="M116,60.6c-0.2,0.2-0.4,0.4-0.5,0.3c-0.1,0-0.3-0.2-0.4-0.4c0.1-0.1,0.2-0.3,0.4-0.3C115.6,60.3,115.7,60.5,116,60.6z"/>
		<path d="M16.1,60c-0.2-0.2-0.4-0.4-0.4-0.5c0-0.1,0.2-0.3,0.3-0.4c0.1,0.1,0.3,0.2,0.3,0.4C16.4,59.6,16.2,59.8,16.1,60z"/>
		<path d="M21.6,59.7c-0.3,0.2-0.4,0.3-0.5,0.3s-0.2-0.2-0.4-0.4c0.1-0.1,0.2-0.3,0.4-0.3C21.2,59.3,21.4,59.5,21.6,59.7z"/>
		<path d="M61.9,60c0.2,0.2,0.3,0.4,0.3,0.5c0,0.1-0.2,0.2-0.3,0.4c-0.1-0.1-0.3-0.2-0.4-0.4C61.5,60.4,61.7,60.2,61.9,60z"/>
		<path d="M107.4,59.1c0.2,0.2,0.4,0.4,0.3,0.5c0,0.1-0.2,0.3-0.4,0.3c-0.1,0-0.3-0.2-0.3-0.3C107.1,59.5,107.2,59.4,107.4,59.1z"/>
		<path d="M106.7,59.7c-0.2,0.2-0.4,0.3-0.5,0.3s-0.2-0.2-0.4-0.4c0.1-0.1,0.2-0.3,0.4-0.3C106.4,59.3,106.5,59.5,106.7,59.7z"/>
		<path d="M61.6,60.8c-0.2,0.2-0.4,0.3-0.5,0.3s-0.2-0.2-0.4-0.3c0.1-0.1,0.2-0.3,0.4-0.4C61.2,60.5,61.3,60.7,61.6,60.8z"/>
		<path d="M57.5,59.6c-0.2,0.2-0.4,0.3-0.5,0.3c-0.1,0-0.3-0.2-0.4-0.3c0.1-0.1,0.2-0.3,0.4-0.4C57.2,59.3,57.3,59.5,57.5,59.6z"/>
		<path d="M97.6,60.8c-0.2,0.2-0.4,0.4-0.5,0.4s-0.3-0.2-0.4-0.3c0.1-0.1,0.2-0.3,0.4-0.3C97.2,60.5,97.4,60.7,97.6,60.8z"/>
		<path d="M115.1,60.8c-0.2,0.2-0.4,0.4-0.5,0.4s-0.3-0.2-0.4-0.3c0.1-0.1,0.2-0.3,0.4-0.3C114.7,60.5,114.9,60.7,115.1,60.8z"/>
		<path d="M124.6,59.7c-0.2,0.2-0.4,0.3-0.5,0.3s-0.2-0.2-0.3-0.3c0.1-0.1,0.2-0.3,0.4-0.3C124.3,59.3,124.4,59.5,124.6,59.7z"/>
		<path d="M13.8,61.1c-0.2,0.2-0.4,0.3-0.5,0.3c-0.1,0-0.2-0.2-0.4-0.3c0.1-0.1,0.2-0.3,0.4-0.4C13.4,60.7,13.6,60.9,13.8,61.1z"/>
		<path d="M131.9,59.6c-0.3,0.2-0.4,0.4-0.5,0.4s-0.2-0.2-0.4-0.3c0.1-0.1,0.2-0.3,0.4-0.4C131.5,59.3,131.7,59.5,131.9,59.6z"/>
		<path d="M25.8,60.2c-0.2-0.2-0.4-0.4-0.3-0.5c0-0.1,0.2-0.3,0.4-0.4c0.1,0.1,0.3,0.2,0.3,0.4C26.1,59.8,25.9,59.9,25.8,60.2z"/>
		<path d="M33.1,59.2c0.2,0.2,0.4,0.4,0.4,0.5c0,0.1-0.2,0.3-0.3,0.4c-0.1-0.1-0.3-0.2-0.3-0.3C32.8,59.5,33,59.4,33.1,59.2z"/>
		<path d="M67.3,59.1c0.2,0.3,0.3,0.5,0.3,0.6c0,0.1-0.2,0.3-0.4,0.3c-0.1,0-0.3-0.2-0.3-0.3C67,59.5,67.2,59.4,67.3,59.1z"/>
		<path d="M97.6,59.7c-0.2,0.1-0.4,0.3-0.5,0.3s-0.2-0.2-0.4-0.3c0.1-0.1,0.3-0.3,0.4-0.3C97.3,59.3,97.4,59.5,97.6,59.7z"/>
		<path d="M100.5,59.1c0.2,0.2,0.4,0.4,0.3,0.5c0,0.1-0.2,0.3-0.4,0.3c-0.1,0-0.3-0.2-0.3-0.3C100.1,59.5,100.3,59.4,100.5,59.1z"/>
		<path d="M99.3,59.2c0.2,0.2,0.4,0.3,0.3,0.5c0,0.1-0.2,0.3-0.3,0.4c-0.1-0.1-0.3-0.2-0.4-0.4C99,59.5,99.2,59.4,99.3,59.2z"/>
		<path d="M32.3,59.6C32.1,59.8,32,60,31.8,60c-0.1,0-0.3-0.2-0.4-0.3c0.1-0.1,0.2-0.3,0.4-0.4C31.9,59.3,32.1,59.5,32.3,59.6z"/>
		<path d="M80.5,63.7C80.3,63.9,80.1,64,80,64s-0.2-0.2-0.4-0.3c0.1-0.1,0.2-0.3,0.4-0.4C80.2,63.3,80.3,63.5,80.5,63.7z"/>
		<path d="M118.1,64c-0.1-0.2-0.3-0.4-0.3-0.5c0-0.1,0.2-0.2,0.3-0.4c0.1,0.1,0.3,0.2,0.3,0.4C118.5,63.6,118.3,63.8,118.1,64z"/>
		<path d="M100.2,63c0.2,0.2,0.3,0.4,0.3,0.5c0,0.1-0.2,0.2-0.4,0.3c-0.1-0.1-0.3-0.2-0.3-0.4C99.8,63.3,100,63.2,100.2,63z"/>
		<path d="M91.5,63c0.2,0.2,0.3,0.4,0.3,0.5c0,0.1-0.2,0.2-0.4,0.3c-0.1-0.1-0.3-0.3-0.3-0.4C91.1,63.3,91.3,63.2,91.5,63z"/>
		<path d="M61.6,59.6c-0.2,0.2-0.4,0.4-0.5,0.4s-0.3-0.2-0.4-0.3c0.1-0.1,0.2-0.3,0.4-0.3C61.2,59.3,61.3,59.5,61.6,59.6z"/>
		<path d="M57,64c-0.2-0.2-0.3-0.4-0.3-0.5c0-0.1,0.2-0.2,0.4-0.4c0.1,0.1,0.3,0.3,0.3,0.4C57.4,63.6,57.2,63.8,57,64z"/>
		<path d="M56,64c-0.2-0.2-0.3-0.4-0.3-0.5c0-0.1,0.2-0.2,0.4-0.4c0.1,0.1,0.3,0.3,0.3,0.4C56.3,63.6,56.2,63.8,56,64z"/>
		<path d="M18.4,62.8c0.2,0.2,0.3,0.4,0.3,0.5c0,0.1-0.2,0.3-0.3,0.4c-0.1-0.1-0.3-0.2-0.4-0.4C18,63.2,18.2,63.1,18.4,62.8z"/>
		<path d="M82.8,65.1c0.2,0.2,0.4,0.4,0.3,0.5c0,0.1-0.2,0.2-0.4,0.4c-0.1-0.1-0.3-0.2-0.3-0.4C82.5,65.4,82.7,65.3,82.8,65.1z"/>
		<path d="M15.1,66c-0.2-0.2-0.3-0.4-0.3-0.5s0.2-0.2,0.4-0.4c0.1,0.1,0.3,0.2,0.3,0.4C15.5,65.7,15.3,65.8,15.1,66z"/>
		<path d="M128.6,65.4c-0.2,0.2-0.4,0.4-0.5,0.4s-0.3-0.2-0.4-0.4c0.1-0.1,0.2-0.3,0.4-0.3C128.2,65.1,128.3,65.3,128.6,65.4z"/>
		<path d="M126.7,65.9c-0.2-0.2-0.3-0.4-0.3-0.5c0-0.1,0.2-0.2,0.4-0.3c0.1,0.1,0.3,0.3,0.3,0.4S126.9,65.7,126.7,65.9z"/>
		<path d="M101.8,64.9c0.2,0.2,0.3,0.4,0.3,0.5c0,0.1-0.2,0.3-0.4,0.4c-0.1-0.1-0.3-0.2-0.3-0.4C101.4,65.3,101.6,65.2,101.8,64.9z"
			/>
		<path d="M61.6,65.4c-0.2,0.2-0.3,0.4-0.5,0.4c-0.1,0-0.3-0.2-0.4-0.3c0.1-0.1,0.2-0.3,0.4-0.4C61.2,65.1,61.3,65.3,61.6,65.4z"/>
		<path d="M42.1,64.9c0.2,0.2,0.3,0.4,0.3,0.5c0,0.1-0.2,0.2-0.3,0.4c-0.1-0.1-0.3-0.2-0.4-0.4C41.7,65.3,41.9,65.2,42.1,64.9z"/>
		<path d="M41.1,65.4c-0.2,0.2-0.4,0.4-0.5,0.4c-0.1,0-0.3-0.2-0.4-0.3c0.1-0.1,0.2-0.3,0.4-0.3C40.8,65.1,40.9,65.3,41.1,65.4z"/>
		<path d="M33.6,65.5c-0.2,0.2-0.4,0.3-0.5,0.3c-0.1,0-0.2-0.2-0.4-0.4c0.1-0.1,0.3-0.3,0.4-0.3C33.3,65.1,33.4,65.3,33.6,65.5z"/>
		<path d="M74.9,65.9c-0.2-0.2-0.3-0.4-0.3-0.5c0-0.1,0.2-0.2,0.3-0.4c0.1,0.1,0.3,0.2,0.4,0.4C75.2,65.5,75,65.7,74.9,65.9z"/>
		<path d="M18,65.3c-0.2,0.2-0.4,0.3-0.5,0.3s-0.2-0.2-0.4-0.4c0.1-0.1,0.2-0.3,0.4-0.3C17.7,65,17.8,65.2,18,65.3z"/>
		<path d="M76.3,64.8c-0.2,0.2-0.4,0.4-0.5,0.3c-0.1,0-0.3-0.2-0.4-0.4c0.1-0.1,0.2-0.3,0.4-0.3C76,64.5,76.1,64.6,76.3,64.8z"/>
		<path d="M101,63.9c0.2,0.2,0.3,0.4,0.3,0.5s-0.2,0.2-0.3,0.4c-0.1-0.1-0.3-0.2-0.4-0.4C100.6,64.3,100.8,64.2,101,63.9z"/>
		<path d="M86.6,64.5c-0.2,0.2-0.4,0.3-0.5,0.3c-0.1,0-0.2-0.2-0.4-0.3c0.1-0.1,0.2-0.3,0.4-0.3C86.2,64.1,86.3,64.3,86.6,64.5z"/>
		<path d="M82.8,59c0.2,0.2,0.4,0.4,0.4,0.5c0,0.1-0.2,0.3-0.3,0.4c-0.1-0.1-0.3-0.2-0.3-0.4C82.5,59.4,82.7,59.2,82.8,59z"/>
		<path d="M15.4,59.6c-0.2,0.2-0.4,0.3-0.5,0.3s-0.2-0.2-0.4-0.3c0.1-0.1,0.2-0.3,0.4-0.3C15,59.2,15.1,59.4,15.4,59.6z"/>
		<path d="M84.1,59c0.2,0.2,0.3,0.4,0.3,0.5c0,0.1-0.2,0.2-0.3,0.4c-0.1-0.1-0.3-0.2-0.3-0.4C83.7,59.4,83.9,59.3,84.1,59z"/>
		<path d="M46.7,64.8c-0.2-0.2-0.4-0.4-0.3-0.5c0-0.1,0.2-0.2,0.4-0.4c0.1,0.1,0.3,0.2,0.3,0.4C47.1,64.4,46.9,64.5,46.7,64.8z"/>
		<path d="M23.9,59.6c-0.2,0.2-0.3,0.4-0.5,0.4c-0.1,0-0.3-0.2-0.4-0.3c0.1-0.1,0.2-0.3,0.4-0.4C23.5,59.3,23.7,59.5,23.9,59.6z"/>
		<path d="M13.7,64.2c-0.2,0.2-0.4,0.4-0.5,0.3c-0.1,0-0.3-0.2-0.4-0.4c0.1-0.1,0.2-0.3,0.4-0.3C13.3,63.9,13.4,64.1,13.7,64.2z"/>
		<path d="M30.5,60.2c-0.2-0.2-0.3-0.4-0.3-0.5c0-0.1,0.2-0.2,0.3-0.4c0.1,0.1,0.3,0.2,0.3,0.4C30.9,59.8,30.7,59.9,30.5,60.2z"/>
		<path d="M65.5,62.3c-0.2,0.1-0.4,0.3-0.5,0.3c-0.1,0-0.2-0.2-0.3-0.3c0.1-0.1,0.2-0.3,0.4-0.3C65.2,61.9,65.3,62.1,65.5,62.3z"/>
		<path d="M86.6,60.6c-0.2,0.1-0.4,0.3-0.5,0.3c-0.1,0-0.2-0.2-0.3-0.3c0.1-0.1,0.3-0.3,0.4-0.3C86.2,60.2,86.4,60.4,86.6,60.6z"/>
		<path d="M14.4,62.1c-0.3,0.2-0.4,0.4-0.5,0.4c-0.1,0-0.2-0.2-0.4-0.4c0.1-0.1,0.2-0.3,0.4-0.3C14,61.8,14.2,62,14.4,62.1z"/>
		<path d="M135.9,60.2c0.2,0.2,0.3,0.4,0.3,0.5c0,0.1-0.2,0.2-0.4,0.4c-0.1-0.1-0.3-0.3-0.3-0.4C135.6,60.5,135.8,60.4,135.9,60.2z"
			/>
		<path d="M76.3,62c-0.2,0.1-0.4,0.3-0.5,0.3c-0.1,0-0.2-0.2-0.3-0.4c0.1-0.1,0.3-0.3,0.4-0.3C76,61.6,76.1,61.8,76.3,62z"/>
		<path d="M31,60.8c-0.2,0.2-0.4,0.4-0.5,0.3c-0.1,0-0.2-0.2-0.4-0.4c0.1-0.1,0.2-0.3,0.4-0.3C30.7,60.5,30.8,60.7,31,60.8z"/>
		<path d="M39.7,60.8c-0.2,0.2-0.4,0.4-0.5,0.4c-0.1,0-0.3-0.2-0.4-0.3c0.1-0.1,0.2-0.3,0.4-0.3C39.3,60.5,39.4,60.7,39.7,60.8z"/>
		<path d="M47.3,60.8c-0.2,0.2-0.4,0.4-0.5,0.4c-0.1,0-0.3-0.2-0.4-0.3c0.1-0.1,0.2-0.3,0.4-0.3C46.9,60.5,47,60.7,47.3,60.8z"/>
		<path d="M67.4,61.3c-0.2-0.2-0.3-0.4-0.3-0.5c0-0.1,0.2-0.2,0.3-0.4c0.1,0.1,0.3,0.2,0.4,0.4C67.7,60.9,67.5,61.1,67.4,61.3z"/>
		<path d="M124.6,60.8c-0.2,0.2-0.4,0.4-0.5,0.4s-0.3-0.2-0.4-0.3c0.1-0.1,0.2-0.3,0.4-0.3C124.3,60.5,124.4,60.7,124.6,60.8z"/>
		<path d="M116.9,61.6c-0.2,0.2-0.4,0.4-0.5,0.4s-0.3-0.2-0.4-0.3c0.1-0.1,0.2-0.3,0.4-0.3C116.5,61.3,116.6,61.4,116.9,61.6z"/>
		<path d="M91.5,61.1c0.2,0.2,0.3,0.4,0.3,0.5c0,0.1-0.2,0.2-0.4,0.4c-0.1-0.1-0.3-0.3-0.3-0.4C91.1,61.5,91.3,61.3,91.5,61.1z"/>
		<path d="M56.5,61.6c-0.2,0.2-0.4,0.4-0.5,0.3c-0.1,0-0.2-0.2-0.4-0.4c0.1-0.1,0.2-0.3,0.4-0.3C56.2,61.3,56.2,61.5,56.5,61.6z"/>
		<path d="M73.1,61.5c-0.2,0.2-0.4,0.3-0.5,0.3c-0.1,0-0.2-0.2-0.4-0.3c0.1-0.1,0.3-0.3,0.4-0.3C72.7,61.1,72.9,61.3,73.1,61.5z"/>
		<path d="M80.5,61.4c-0.2,0.1-0.4,0.3-0.5,0.3s-0.2-0.3-0.3-0.4c0.1-0.1,0.3-0.3,0.4-0.3C80.2,61,80.3,61.2,80.5,61.4z"/>
		<path d="M101.8,60.6c0.2,0.2,0.4,0.4,0.3,0.5c0,0.1-0.2,0.2-0.4,0.4c-0.1-0.1-0.3-0.2-0.3-0.4C101.5,60.9,101.7,60.8,101.8,60.6z"
			/>
		<path d="M66.2,61.4c-0.2,0.2-0.4,0.3-0.5,0.3c-0.1,0-0.2-0.2-0.4-0.3c0.1-0.1,0.2-0.3,0.4-0.4C65.8,61,66,61.2,66.2,61.4z"/>
		<path d="M63.2,61.4c-0.2,0.1-0.4,0.3-0.5,0.3c-0.1,0-0.2-0.2-0.4-0.3c0.1-0.1,0.2-0.3,0.4-0.3C62.8,61,62.9,61.2,63.2,61.4z"/>
		<path d="M98.7,59.7c-0.2,0.1-0.4,0.3-0.5,0.3s-0.2-0.2-0.3-0.4c0.1-0.1,0.3-0.3,0.4-0.3C98.4,59.3,98.5,59.5,98.7,59.7z"/>
		<path d="M97.6,63.1c-0.2,0.1-0.3,0.3-0.5,0.3c-0.1,0-0.3-0.2-0.4-0.3c0.1-0.1,0.2-0.3,0.4-0.4C97.2,62.7,97.4,62.9,97.6,63.1z"/>
		<path d="M67.8,63.1c-0.2,0.1-0.4,0.3-0.5,0.3s-0.2-0.2-0.3-0.3c0.1-0.1,0.2-0.3,0.4-0.3C67.5,62.7,67.6,62.9,67.8,63.1z"/>
		<path d="M64.7,63c-0.2,0.2-0.4,0.4-0.5,0.4S64,63.2,63.8,63c0.1-0.1,0.3-0.3,0.4-0.3C64.4,62.7,64.5,62.9,64.7,63z"/>
		<path d="M61,63.6c-0.2-0.2-0.3-0.4-0.3-0.5c0-0.1,0.2-0.2,0.3-0.4c0.1,0.1,0.3,0.3,0.3,0.4C61.4,63.2,61.2,63.4,61,63.6z"/>
		<path d="M47.3,63.1c-0.2,0.2-0.4,0.3-0.5,0.3c-0.1,0-0.3-0.2-0.4-0.3c0.1-0.1,0.2-0.3,0.4-0.4C46.9,62.7,47,62.9,47.3,63.1z"/>
		<path d="M39.7,63.1c-0.2,0.2-0.3,0.3-0.5,0.3c-0.1,0-0.3-0.2-0.4-0.3c0.1-0.1,0.2-0.3,0.4-0.4C39.3,62.7,39.4,62.9,39.7,63.1z"/>
		<path d="M30.6,62.6c0.2,0.2,0.3,0.4,0.3,0.5c0,0.1-0.2,0.2-0.4,0.4c-0.1-0.1-0.3-0.3-0.3-0.4C30.2,62.9,30.4,62.8,30.6,62.6z"/>
		<path d="M109.1,59.6c-0.2,0.2-0.4,0.4-0.5,0.4c-0.1,0-0.3-0.2-0.4-0.3c0.1-0.1,0.2-0.3,0.4-0.4C108.7,59.3,108.8,59.5,109.1,59.6z
			"/>
		<path d="M111.4,59.7c-0.2,0.1-0.4,0.3-0.5,0.3c-0.1,0-0.2-0.2-0.3-0.4c0.1-0.1,0.3-0.3,0.4-0.3C111.1,59.3,111.2,59.5,111.4,59.7z
			"/>
		<path d="M16.2,62.1c0.2,0.2,0.3,0.4,0.3,0.5c0,0.1-0.2,0.2-0.3,0.4c-0.1-0.1-0.3-0.2-0.3-0.4C15.9,62.5,16.1,62.3,16.2,62.1z"/>
		<path d="M136.3,59.7c0.2-0.2,0.4-0.4,0.5-0.4s0.3,0.2,0.4,0.3c-0.1,0.1-0.2,0.3-0.4,0.3C136.7,60,136.6,59.8,136.3,59.7z"/>
		<path d="M66.5,61c-0.1-0.2-0.3-0.4-0.3-0.5c0-0.1,0.2-0.2,0.3-0.3c0.1,0.1,0.3,0.2,0.3,0.4C66.9,60.7,66.7,60.8,66.5,61z"/>
		<path d="M17.2,59.2c0.2,0.2,0.4,0.4,0.4,0.5c0,0.1-0.2,0.3-0.3,0.4C17.2,60,17,59.9,17,59.8C16.9,59.6,17.1,59.5,17.2,59.2z"/>
		<path d="M31.8,63c-0.2-0.2-0.3-0.4-0.3-0.5c0-0.1,0.2-0.3,0.3-0.4c0.1,0.1,0.3,0.2,0.4,0.4C32.2,62.6,32,62.8,31.8,63z"/>
		<path d="M18.7,60.4c-0.2,0.2-0.3,0.4-0.5,0.3c-0.1,0-0.3-0.2-0.4-0.3c0.1-0.1,0.2-0.3,0.4-0.4C18.4,60,18.5,60.2,18.7,60.4z"/>
		<path d="M56,62.5c-0.2,0.1-0.4,0.3-0.5,0.3s-0.2-0.2-0.3-0.3c0.1-0.1,0.2-0.3,0.4-0.3C55.7,62.2,55.8,62.5,56,62.5z"/>
		<path d="M101.4,60.6c-0.2-0.2-0.3-0.4-0.3-0.5c0-0.1,0.2-0.2,0.3-0.4c0.1,0.1,0.3,0.2,0.3,0.4C101.8,60.2,101.6,60.3,101.4,60.6z"
			/>
		<path d="M13.8,59.5c0.2,0.2,0.3,0.4,0.3,0.5c0,0.1-0.2,0.2-0.4,0.4c-0.1-0.1-0.3-0.3-0.3-0.4C13.4,59.9,13.6,59.7,13.8,59.5z"/>
		<path d="M81.6,64.8c0.2,0.2,0.4,0.4,0.4,0.5c0,0.1-0.2,0.3-0.3,0.4c-0.1-0.1-0.3-0.2-0.3-0.4C81.3,65.2,81.5,65.1,81.6,64.8z"/>
	</g>
</g>
</svg>
