<?xml version="1.0" encoding="utf-8"?>
<!-- Generator: Adobe Illustrator 21.0.0, SVG Export Plug-In . SVG Version: 6.00 Build 0)  -->
<svg version="1.1" id="Layer_1" xmlns="http://www.w3.org/2000/svg" xmlns:xlink="http://www.w3.org/1999/xlink" x="0px" y="0px"
	 viewBox="0 0 150 125" style="enable-background:new 0 0 150 125;" xml:space="preserve">
<g>
	<g>
		<path d="M73.8,61.8c-0.2-0.2-0.3-0.3-0.3-0.4c0-0.1,0.3-0.2,0.3-0.3c0.1,0.1,0.3,0.3,0.3,0.3C74.1,61.5,73.9,61.6,73.8,61.8z"/>
		<path d="M125.6,62.2c-0.2-0.2-0.3-0.3-0.3-0.4c0-0.1,0.2-0.3,0.3-0.3c0.1,0.1,0.3,0.2,0.3,0.3C125.9,61.9,125.8,62,125.6,62.2z"/>
		<path d="M94.2,62.5C94.1,62.3,94,62.1,94,62s0.2-0.2,0.3-0.3c0.1,0.1,0.3,0.2,0.3,0.3C94.5,62.1,94.4,62.3,94.2,62.5z"/>
		<path d="M125.3,60.9c-0.2,0.2-0.3,0.3-0.4,0.3c-0.1,0-0.2-0.2-0.3-0.3c0.1-0.1,0.3-0.3,0.3-0.3C125,60.6,125.1,60.7,125.3,60.9z"
			/>
		<path d="M84.3,60.2c-0.3,0.2-0.3,0.3-0.5,0.3c-0.1,0-0.3-0.2-0.3-0.3c0-0.1,0.2-0.3,0.3-0.3C84,60,84.1,60,84.3,60.2z"/>
		<path d="M95.6,62.5c-0.2,0.1-0.3,0.3-0.4,0.3c-0.1,0-0.2-0.2-0.3-0.3c0.1-0.1,0.3-0.3,0.3-0.3C95.4,62.2,95.4,62.4,95.6,62.5z"/>
		<path d="M39.8,59.6c0.2,0.2,0.3,0.3,0.3,0.4c0,0.1-0.2,0.2-0.3,0.3c-0.1-0.1-0.3-0.2-0.3-0.3C39.4,59.9,39.6,59.8,39.8,59.6z"/>
		<path d="M33.6,60c-0.2,0.2-0.3,0.3-0.4,0.3c-0.1,0-0.2-0.2-0.3-0.3c0.1-0.1,0.2-0.3,0.3-0.3C33.3,59.7,33.4,59.9,33.6,60z"/>
		<path d="M74.3,65.2c-0.2,0.2-0.3,0.3-0.4,0.3c-0.1,0-0.3-0.2-0.3-0.3c0.1-0.1,0.3-0.3,0.3-0.3C73.9,64.9,74.1,65,74.3,65.2z"/>
		<path d="M31.2,59.5c0.2,0.2,0.3,0.3,0.3,0.4c0,0.1-0.2,0.3-0.3,0.3c-0.1,0-0.3-0.2-0.3-0.3C30.9,59.9,31,59.8,31.2,59.5z"/>
		<path d="M104.1,64c-0.2,0.2-0.3,0.3-0.4,0.3c-0.1,0-0.3-0.2-0.3-0.3c0.1-0.1,0.2-0.3,0.3-0.3C103.8,63.7,104,63.8,104.1,64z"/>
		<path d="M44.3,60c-0.3,0.1-0.3,0.3-0.4,0.3s-0.2-0.2-0.3-0.3c0.1-0.1,0.3-0.3,0.3-0.3C44,59.7,44.1,59.9,44.3,60z"/>
		<path d="M50.9,60c-0.2,0.2-0.3,0.3-0.4,0.3s-0.2-0.2-0.3-0.3c0.1-0.1,0.3-0.3,0.3-0.3C50.6,59.7,50.7,59.9,50.9,60z"/>
		<path d="M81.2,60c-0.2,0.2-0.3,0.3-0.4,0.3c-0.1,0-0.2-0.2-0.3-0.3c0.1-0.1,0.2-0.3,0.3-0.3C80.9,59.7,81,59.9,81.2,60z"/>
		<path d="M88.4,59.6c0.1,0.2,0.3,0.3,0.3,0.4s-0.2,0.2-0.3,0.3c-0.1-0.1-0.3-0.2-0.3-0.3C88,59.9,88.2,59.8,88.4,59.6z"/>
		<path d="M71.9,62.8c0.2,0.2,0.3,0.3,0.3,0.4s-0.2,0.3-0.3,0.3c-0.1-0.1-0.3-0.2-0.3-0.3C71.6,63.1,71.7,63.1,71.9,62.8z"/>
		<path d="M114.5,63.1c-0.2,0.2-0.3,0.3-0.3,0.3c-0.1,0-0.3-0.2-0.3-0.3c0.1-0.1,0.2-0.3,0.3-0.3C114.1,62.7,114.3,62.9,114.5,63.1z
			"/>
		<path d="M109.5,62.5c0.2,0.3,0.3,0.3,0.3,0.5c0,0.1-0.2,0.3-0.3,0.3c-0.1,0-0.3-0.2-0.3-0.3C109.1,62.9,109.3,62.8,109.5,62.5z"/>
		<path d="M101.6,60c-0.2,0.2-0.3,0.3-0.4,0.3c-0.1,0-0.3-0.2-0.3-0.3c0.1-0.1,0.2-0.3,0.3-0.3C101.2,59.7,101.4,59.9,101.6,60z"/>
		<path d="M126.4,62.3c0.2,0.2,0.3,0.3,0.3,0.4s-0.2,0.2-0.3,0.3c-0.1-0.1-0.3-0.3-0.3-0.3C126.2,62.5,126.3,62.5,126.4,62.3z"/>
		<path d="M105.6,60c-0.2,0.1-0.3,0.3-0.4,0.3c-0.1,0-0.2-0.2-0.3-0.3c0.1-0.1,0.2-0.3,0.3-0.3C105.3,59.7,105.4,59.9,105.6,60z"/>
		<path d="M120.4,62.5c-0.2,0.2-0.3,0.3-0.4,0.3c-0.1,0-0.3-0.2-0.3-0.3c0.1-0.1,0.2-0.3,0.3-0.3C120.1,62.2,120.2,62.4,120.4,62.5z
			"/>
		<path d="M118.8,62.1c0.2,0.2,0.3,0.3,0.3,0.4c0,0.1-0.2,0.3-0.3,0.3c-0.1-0.1-0.3-0.2-0.3-0.3C118.6,62.5,118.8,62.3,118.8,62.1z"
			/>
		<path d="M111.8,63c-0.2-0.2-0.3-0.3-0.3-0.4c0-0.1,0.2-0.3,0.3-0.3c0.1,0.1,0.3,0.2,0.3,0.3C112.1,62.6,111.9,62.8,111.8,63z"/>
		<path d="M119.3,60c-0.2,0.2-0.3,0.3-0.4,0.3c-0.1,0-0.2-0.2-0.3-0.3c0.1-0.1,0.2-0.3,0.3-0.3C119,59.7,119.1,59.9,119.3,60z"/>
		<path d="M120.1,60.5c-0.2-0.2-0.3-0.3-0.3-0.4c0-0.1,0.2-0.3,0.3-0.3c0.1,0.1,0.3,0.2,0.3,0.3C120.3,60.1,120.1,60.2,120.1,60.5z"
			/>
		<path d="M121.6,60c-0.3,0.1-0.3,0.3-0.4,0.3c-0.1,0-0.2-0.2-0.3-0.3c0.1-0.1,0.3-0.3,0.3-0.3C121.3,59.7,121.3,59.9,121.6,60z"/>
		<path d="M96.2,63c-0.2-0.2-0.3-0.3-0.3-0.4c0-0.1,0.2-0.3,0.3-0.3c0.1,0.1,0.3,0.2,0.3,0.3C96.5,62.6,96.3,62.8,96.2,63z"/>
		<path d="M114,65.5c-0.2-0.2-0.3-0.3-0.3-0.4c0-0.1,0.2-0.3,0.3-0.3c0.1,0.1,0.3,0.2,0.3,0.3C114.3,65.2,114.2,65.3,114,65.5z"/>
		<path d="M38.6,62.1c0.1,0.2,0.3,0.3,0.3,0.4c0,0.1-0.2,0.2-0.3,0.3c-0.1-0.1-0.3-0.3-0.3-0.3C38.3,62.4,38.5,62.3,38.6,62.1z"/>
		<path d="M79.9,61c-0.2-0.2-0.3-0.3-0.3-0.4c0-0.1,0.2-0.2,0.3-0.3c0.1,0.1,0.3,0.2,0.3,0.3C80.2,60.7,80,60.8,79.9,61z"/>
		<path d="M22.8,63c-0.2-0.3-0.3-0.3-0.3-0.5c0-0.1,0.2-0.3,0.3-0.3c0.1,0,0.3,0.2,0.3,0.3C23.1,62.5,23,62.7,22.8,63z"/>
		<path d="M58.9,61.3c-0.2-0.2-0.3-0.3-0.3-0.4s0.2-0.3,0.3-0.3c0.1,0.1,0.3,0.2,0.3,0.3C59.3,61,59.1,61.1,58.9,61.3z"/>
		<path d="M114.5,62c-0.2,0.2-0.3,0.3-0.4,0.3c-0.1,0-0.3-0.2-0.3-0.3c0.1-0.1,0.2-0.3,0.3-0.3C114.1,61.7,114.3,61.9,114.5,62z"/>
		<path d="M109.4,62.5c-0.2-0.3-0.3-0.3-0.3-0.5c0-0.1,0.3-0.3,0.3-0.3c0.1,0,0.3,0.2,0.3,0.3C109.7,62.2,109.6,62.3,109.4,62.5z"/>
		<path d="M126.9,65c-0.2,0.2-0.3,0.3-0.4,0.3c-0.1,0-0.2-0.2-0.3-0.3c0.1-0.1,0.2-0.3,0.3-0.3C126.5,64.8,126.7,65,126.9,65z"/>
		<path d="M114.5,61c-0.2,0.2-0.3,0.3-0.4,0.3c-0.2,0-0.3-0.2-0.3-0.3c0.1-0.1,0.2-0.3,0.3-0.3C114.1,60.7,114.3,60.8,114.5,61z"/>
		<path d="M127.2,62.2c-0.2-0.2-0.3-0.3-0.3-0.4s0.2-0.2,0.3-0.3c0.1,0.1,0.3,0.2,0.3,0.3C127.5,61.9,127.4,62,127.2,62.2z"/>
		<path d="M94.7,65.1c-0.3,0.2-0.3,0.3-0.5,0.3c-0.1,0-0.2-0.2-0.3-0.3c0.1-0.1,0.3-0.3,0.3-0.3C94.4,64.8,94.5,65,94.7,65.1z"/>
		<path d="M26.2,64.3c-0.2,0.2-0.3,0.3-0.4,0.3s-0.3-0.2-0.3-0.3c0.1-0.1,0.2-0.3,0.3-0.3C25.8,64,26,64.1,26.2,64.3z"/>
		<path d="M29.1,60.5c-0.2-0.2-0.3-0.3-0.3-0.4s0.2-0.2,0.3-0.3c0.1,0.1,0.3,0.3,0.3,0.3C29.4,60.1,29.3,60.2,29.1,60.5z"/>
		<path d="M82.8,64.7c0.2,0.2,0.3,0.3,0.3,0.4c0,0.1-0.2,0.3-0.3,0.3c-0.1-0.1-0.3-0.2-0.3-0.3C82.5,65,82.7,64.9,82.8,64.7z"/>
		<path d="M114,64.5c-0.2-0.3-0.3-0.3-0.3-0.4c0-0.1,0.3-0.3,0.3-0.3c0.1,0,0.3,0.2,0.3,0.3C114.3,64.2,114.2,64.3,114,64.5z"/>
		<path d="M94.2,63.7c0.2,0.2,0.3,0.3,0.3,0.4c0,0.1-0.2,0.3-0.3,0.3c-0.1,0-0.3-0.2-0.3-0.3C94,63.9,94.1,63.8,94.2,63.7z"/>
		<path d="M53.4,65c-0.2,0.2-0.3,0.3-0.4,0.3c-0.2,0-0.3-0.2-0.3-0.3c0.1-0.1,0.2-0.3,0.3-0.3C53.1,64.8,53.3,65,53.4,65z"/>
		<path d="M118.2,62c-0.2,0.2-0.3,0.3-0.4,0.3c-0.1,0-0.2-0.2-0.3-0.3c0.1-0.1,0.3-0.3,0.3-0.3C117.9,61.8,118,61.9,118.2,62z"/>
		<path d="M51.7,64.6c0.2,0.2,0.3,0.3,0.3,0.4c0,0.1-0.2,0.3-0.3,0.3c-0.1-0.1-0.3-0.2-0.3-0.3C51.5,65,51.5,64.9,51.7,64.6z"/>
		<path d="M98.4,62.1c-0.2,0.2-0.3,0.3-0.4,0.3c-0.1,0-0.2-0.2-0.3-0.3c0.1-0.1,0.2-0.3,0.3-0.3C98.1,61.8,98.2,61.9,98.4,62.1z"/>
		<path d="M64.9,61.9c0.2,0.2,0.3,0.3,0.3,0.4s-0.2,0.3-0.3,0.3c-0.1-0.1-0.3-0.2-0.3-0.3C64.6,62.1,64.8,62,64.9,61.9z"/>
		<path d="M72.6,62.2c-0.3,0.2-0.3,0.3-0.5,0.3c-0.1,0-0.3-0.2-0.3-0.3c0-0.1,0.2-0.3,0.3-0.3C72.2,61.9,72.4,62.1,72.6,62.2z"/>
		<path d="M50.4,64.6c0.2,0.2,0.3,0.3,0.3,0.4c0,0.1-0.2,0.3-0.3,0.3c-0.1-0.1-0.3-0.2-0.3-0.3C50.2,65,50.3,64.9,50.4,64.6z"/>
		<path d="M44.3,65.1c-0.2,0.2-0.3,0.3-0.4,0.3s-0.2-0.2-0.3-0.3c0.1-0.1,0.3-0.3,0.3-0.3S44.1,65,44.3,65.1z"/>
		<path d="M40.1,65c-0.2,0.2-0.3,0.3-0.4,0.3s-0.2-0.2-0.3-0.3c0.1-0.1,0.2-0.3,0.3-0.3S39.9,65,40.1,65z"/>
		<path d="M79.2,63c-0.2-0.2-0.3-0.3-0.3-0.4c0-0.1,0.2-0.2,0.3-0.3c0.1,0.1,0.3,0.2,0.3,0.3C79.4,62.6,79.3,62.7,79.2,63z"/>
		<path d="M90.2,62.5c-0.2,0.2-0.3,0.3-0.4,0.3c-0.1,0-0.3-0.2-0.3-0.3c0.1-0.1,0.3-0.3,0.3-0.3C89.8,62.2,90,62.4,90.2,62.5z"/>
		<path d="M117.8,64.6c0.2,0.2,0.3,0.3,0.3,0.4c0,0.1-0.2,0.2-0.3,0.3c-0.1-0.1-0.3-0.3-0.3-0.3C117.5,65,117.6,64.9,117.8,64.6z"/>
		<path d="M37,65.1c0.2-0.2,0.3-0.3,0.4-0.3c0.1,0,0.3,0.2,0.3,0.3c-0.1,0.1-0.2,0.3-0.3,0.3C37.3,65.4,37.3,65.2,37,65.1z"/>
		<path d="M56.6,64.6c0.2,0.2,0.3,0.3,0.3,0.4c0,0.1-0.2,0.2-0.3,0.3c-0.1-0.1-0.3-0.2-0.3-0.3C56.3,65,56.5,64.9,56.6,64.6z"/>
		<path d="M119.3,65.1c-0.2,0.2-0.3,0.3-0.4,0.3c-0.1,0-0.2-0.2-0.3-0.3c0.1-0.1,0.2-0.3,0.3-0.3S119.1,65,119.3,65.1z"/>
		<path d="M68.8,65.1c-0.2,0.2-0.3,0.3-0.4,0.3c-0.1,0-0.2-0.2-0.3-0.3c0.1-0.1,0.2-0.3,0.3-0.3C68.5,64.8,68.6,65,68.8,65.1z"/>
		<path d="M68.3,62.5c-0.2-0.2-0.3-0.3-0.3-0.4s0.2-0.2,0.3-0.3c0.1,0.1,0.3,0.2,0.3,0.3C68.7,62.1,68.5,62.3,68.3,62.5z"/>
		<path d="M62.9,62.5c-0.2-0.2-0.3-0.3-0.3-0.4c0-0.1,0.2-0.2,0.3-0.3c0.1,0.1,0.3,0.2,0.3,0.3C63.2,62.2,63,62.3,62.9,62.5z"/>
		<path d="M50.4,62.5c-0.2-0.2-0.3-0.3-0.3-0.4s0.2-0.2,0.3-0.3c0.1,0.1,0.3,0.3,0.3,0.3S50.6,62.3,50.4,62.5z"/>
		<path d="M44.3,62c-0.2,0.2-0.3,0.3-0.4,0.3c-0.1,0-0.3-0.2-0.3-0.3c0.1-0.1,0.2-0.3,0.3-0.3C44,61.8,44.1,61.9,44.3,62z"/>
		<path d="M36.7,62c-0.2,0.2-0.3,0.3-0.4,0.3c-0.1,0-0.2-0.2-0.3-0.3c0.1-0.1,0.2-0.3,0.3-0.3C36.5,61.7,36.6,61.9,36.7,62z"/>
		<path d="M103.7,62.4c-0.2-0.2-0.3-0.3-0.3-0.4c0-0.1,0.2-0.2,0.3-0.3c0.1,0.1,0.3,0.2,0.3,0.3C104,62,103.8,62.1,103.7,62.4z"/>
		<path d="M30.6,61.5c0.2,0.2,0.3,0.3,0.3,0.4s-0.2,0.3-0.3,0.3c-0.1-0.1-0.3-0.2-0.3-0.3C30.4,61.8,30.5,61.7,30.6,61.5z"/>
		<path d="M91.6,65c-0.2,0.2-0.3,0.3-0.4,0.3c-0.1,0-0.3-0.2-0.3-0.3c0.1-0.1,0.2-0.3,0.3-0.3C91.3,64.8,91.4,65,91.6,65z"/>
		<path d="M24.4,65.2c-0.2,0.2-0.3,0.3-0.4,0.3s-0.2-0.2-0.3-0.3c0.1-0.1,0.2-0.3,0.3-0.3C24.1,64.9,24.2,65,24.4,65.2z"/>
		<path d="M75.3,61.5c-0.2,0.2-0.3,0.3-0.4,0.3c-0.1,0-0.3-0.2-0.3-0.3c0.1-0.1,0.2-0.3,0.3-0.3C75,61.2,75.1,61.3,75.3,61.5z"/>
		<path d="M44.3,64c-0.2,0.2-0.3,0.3-0.4,0.3c-0.1,0-0.3-0.2-0.3-0.3c0.1-0.1,0.2-0.3,0.3-0.3C44,63.7,44.1,63.9,44.3,64z"/>
		<path d="M36.7,64.1c-0.2,0.1-0.3,0.3-0.4,0.3c-0.1,0-0.2-0.2-0.3-0.3c0.1-0.1,0.3-0.3,0.3-0.3C36.5,63.7,36.6,63.9,36.7,64.1z"/>
		<path d="M103.7,64.6c0.2,0.2,0.3,0.3,0.3,0.4c0,0.1-0.2,0.3-0.3,0.3c-0.1-0.1-0.3-0.2-0.3-0.3C103.4,65,103.5,64.9,103.7,64.6z"/>
		<path d="M31.1,64c-0.2,0.2-0.3,0.3-0.4,0.3c-0.1,0-0.2-0.2-0.3-0.3c0.1-0.1,0.3-0.3,0.3-0.3C30.8,63.7,30.9,63.9,31.1,64z"/>
		<path d="M126.4,64.4c-0.2-0.2-0.3-0.3-0.3-0.4c0-0.1,0.2-0.3,0.3-0.3c0.1,0.1,0.3,0.2,0.3,0.3C126.8,64,126.6,64.1,126.4,64.4z"/>
		<path d="M109.5,65.5c-0.2-0.2-0.3-0.3-0.3-0.4c0-0.1,0.2-0.3,0.3-0.3c0.1,0.1,0.3,0.2,0.3,0.3C109.7,65.2,109.6,65.3,109.5,65.5z"
			/>
		<path d="M62.9,64.5c-0.2-0.2-0.3-0.3-0.3-0.4c0-0.1,0.2-0.3,0.3-0.3c0.1,0.1,0.3,0.2,0.3,0.3C63.2,64.2,63,64.3,62.9,64.5z"/>
		<path d="M68.3,63.7c0.2,0.2,0.3,0.3,0.3,0.4c0,0.1-0.2,0.3-0.3,0.3c-0.1-0.1-0.3-0.2-0.3-0.3C68.1,63.9,68.2,63.8,68.3,63.7z"/>
		<path d="M90.6,63.4c-0.2,0.2-0.3,0.3-0.4,0.3c-0.1,0-0.2-0.2-0.3-0.3c0.1-0.1,0.2-0.3,0.3-0.3C90.3,63.1,90.4,63.2,90.6,63.4z"/>
		<path d="M88.8,63.3c-0.2,0.2-0.3,0.3-0.4,0.3c-0.1,0-0.3-0.2-0.3-0.3c0.1-0.1,0.2-0.3,0.3-0.3C88.5,63.1,88.6,63.2,88.8,63.3z"/>
		<path d="M58,63.4c-0.2,0.2-0.3,0.3-0.4,0.3s-0.2-0.2-0.3-0.3c0.1-0.1,0.2-0.3,0.3-0.3C57.7,63.1,57.8,63.2,58,63.4z"/>
		<path d="M109.5,64.5c-0.2-0.2-0.3-0.3-0.3-0.4c0-0.1,0.2-0.3,0.3-0.3c0.1,0,0.3,0.2,0.3,0.3C109.7,64.2,109.6,64.3,109.5,64.5z"/>
		<path d="M118.2,63.1c-0.2,0.2-0.3,0.3-0.4,0.3c-0.1,0-0.2-0.2-0.3-0.3c0.1-0.1,0.2-0.3,0.3-0.3C117.9,62.7,118,62.9,118.2,63.1z"
			/>
		<path d="M117.7,63.7c0.2,0.2,0.3,0.3,0.3,0.4c0,0.1-0.2,0.3-0.3,0.3c-0.1-0.1-0.3-0.2-0.3-0.3C117.5,63.9,117.6,63.8,117.7,63.7z"
			/>
		<path d="M57.5,64.3c-0.2,0.2-0.3,0.3-0.4,0.3s-0.2-0.2-0.3-0.3c0.1-0.1,0.2-0.3,0.3-0.3C57.2,63.9,57.3,64.1,57.5,64.3z"/>
		<path d="M103.7,63.4c-0.2-0.2-0.3-0.3-0.3-0.4c0-0.1,0.2-0.3,0.3-0.3c0.1,0.1,0.3,0.2,0.3,0.3C104,63.1,103.9,63.2,103.7,63.4z"/>
		<path d="M30.7,62.5c0.2,0.2,0.3,0.3,0.3,0.4s-0.2,0.2-0.3,0.3c-0.1-0.1-0.3-0.3-0.3-0.3C30.4,62.8,30.5,62.7,30.7,62.5z"/>
		<path d="M72.1,63.8c0.2,0.2,0.3,0.3,0.3,0.4c0,0.1-0.2,0.2-0.3,0.3c-0.1-0.1-0.3-0.2-0.3-0.3C71.9,64.1,72,64,72.1,63.8z"/>
		<path d="M91.1,64.3c-0.2,0.2-0.3,0.3-0.4,0.3c-0.1,0-0.2-0.2-0.3-0.3c0.1-0.1,0.2-0.3,0.3-0.3C90.8,63.9,90.9,64.1,91.1,64.3z"/>
		<path d="M24.9,63.1c-0.2-0.2-0.3-0.3-0.3-0.3s0.2-0.3,0.3-0.3c0.1,0.1,0.3,0.2,0.3,0.3C25.2,62.8,25,62.9,24.9,63.1z"/>
		<path d="M113.7,64.3c-0.2,0.2-0.3,0.3-0.4,0.3c-0.1,0-0.2-0.2-0.3-0.3c0.1-0.1,0.2-0.3,0.3-0.3C113.3,63.9,113.5,64.1,113.7,64.3z
			"/>
		<path d="M79.9,64.9c-0.2-0.2-0.3-0.3-0.3-0.4c0-0.1,0.2-0.3,0.3-0.3c0.1,0.1,0.3,0.2,0.3,0.3C80.2,64.5,80.1,64.7,79.9,64.9z"/>
		<path d="M22.4,64.8C22.2,65,22.1,65,21.9,65c-0.1,0-0.2-0.2-0.3-0.3c0.1-0.1,0.2-0.3,0.3-0.3C22,64.4,22.2,64.6,22.4,64.8z"/>
		<path d="M83.8,65.2c-0.2-0.2-0.3-0.3-0.3-0.4c0-0.1,0.2-0.2,0.3-0.3c0.1,0.1,0.3,0.2,0.3,0.3C84.2,65,84,65,83.8,65.2z"/>
		<path d="M73.3,65c-0.2,0.2-0.3,0.3-0.4,0.3c-0.1,0-0.3-0.2-0.3-0.3c0.1-0.1,0.2-0.3,0.3-0.3C73,64.7,73.1,64.8,73.3,65z"/>
		<path d="M31.1,65.1c-0.2,0.2-0.3,0.3-0.4,0.3c-0.1,0-0.2-0.2-0.3-0.3c0.1-0.1,0.3-0.3,0.3-0.3C30.8,64.8,30.9,65,31.1,65.1z"/>
		<path d="M97.6,62.5c-0.2,0.2-0.3,0.3-0.4,0.3c-0.1,0-0.3-0.2-0.3-0.3c0.1-0.1,0.2-0.3,0.3-0.3C97.2,62.3,97.4,62.4,97.6,62.5z"/>
		<path d="M36.3,65.5c-0.2-0.2-0.3-0.3-0.3-0.4c0-0.1,0.2-0.2,0.3-0.3c0.1,0.1,0.3,0.2,0.3,0.3C36.7,65.2,36.5,65.3,36.3,65.5z"/>
		<path d="M109.9,60c-0.2,0.2-0.3,0.3-0.4,0.3c-0.1,0-0.3-0.2-0.3-0.3c0.1-0.1,0.2-0.3,0.3-0.3C109.6,59.7,109.7,59.9,109.9,60z"/>
		<path d="M114.5,60c-0.2,0.2-0.3,0.3-0.4,0.3c-0.2,0-0.3-0.2-0.3-0.3c0.1-0.1,0.2-0.3,0.3-0.3C114.1,59.7,114.3,59.9,114.5,60z"/>
		<path d="M30.7,61.3c-0.2-0.2-0.3-0.3-0.3-0.4c0-0.1,0.2-0.3,0.3-0.3c0.1,0.1,0.3,0.2,0.3,0.3C31,60.9,30.8,61.1,30.7,61.3z"/>
		<path d="M89.2,60.8c-0.2,0.2-0.3,0.3-0.4,0.3c-0.2,0-0.3-0.2-0.3-0.3c0.1-0.1,0.2-0.3,0.3-0.3C88.9,60.6,89.1,60.7,89.2,60.8z"/>
		<path d="M103.7,60.4c0.2,0.2,0.3,0.3,0.3,0.4c0,0.1-0.2,0.3-0.3,0.3c-0.1-0.1-0.3-0.2-0.3-0.3C103.4,60.7,103.5,60.6,103.7,60.4z"
			/>
		<path d="M110.7,60.8c-0.2,0.2-0.3,0.3-0.4,0.3c-0.1,0-0.3-0.2-0.3-0.3c0.1-0.1,0.2-0.3,0.3-0.3C110.3,60.6,110.4,60.7,110.7,60.8z
			"/>
		<path d="M23.7,60.3c-0.2-0.2-0.3-0.3-0.3-0.4s0.2-0.3,0.3-0.3c0.1,0.1,0.3,0.2,0.3,0.3C24,60,23.8,60.1,23.7,60.3z"/>
		<path d="M28.6,60c-0.3,0.2-0.3,0.3-0.4,0.3S28,60.1,27.8,60c0.1-0.1,0.2-0.3,0.3-0.3C28.2,59.7,28.4,59.9,28.6,60z"/>
		<path d="M63.6,60.3c0.2,0.2,0.3,0.3,0.3,0.4s-0.2,0.2-0.3,0.3c-0.1-0.1-0.3-0.2-0.3-0.3C63.3,60.6,63.4,60.5,63.6,60.3z"/>
		<path d="M103.2,59.5c0.2,0.2,0.3,0.3,0.3,0.4c0,0.1-0.2,0.3-0.3,0.3c-0.1,0-0.3-0.2-0.3-0.3C102.9,59.9,103,59.8,103.2,59.5z"/>
		<path d="M102.6,60c-0.2,0.2-0.3,0.3-0.4,0.3c-0.1,0-0.2-0.2-0.3-0.3c0.1-0.1,0.2-0.3,0.3-0.3C102.3,59.7,102.4,59.9,102.6,60z"/>
		<path d="M63.3,61c-0.2,0.2-0.3,0.3-0.4,0.3s-0.2-0.2-0.3-0.3c0.1-0.1,0.2-0.3,0.3-0.3C63,60.7,63.1,60.9,63.3,61z"/>
		<path d="M59.8,60c-0.2,0.2-0.3,0.3-0.4,0.3S59.1,60,59,60c0.1-0.1,0.2-0.3,0.3-0.3C59.6,59.7,59.6,59.9,59.8,60z"/>
		<path d="M94.7,61c-0.2,0.2-0.3,0.3-0.4,0.3c-0.1,0-0.3-0.2-0.3-0.3c0.1-0.1,0.2-0.3,0.3-0.3C94.3,60.7,94.5,60.9,94.7,61z"/>
		<path d="M109.9,61c-0.2,0.2-0.3,0.3-0.4,0.3c-0.1,0-0.3-0.2-0.3-0.3c0.1-0.1,0.2-0.3,0.3-0.3C109.6,60.7,109.7,60.9,109.9,61z"/>
		<path d="M118.2,60c-0.2,0.2-0.3,0.3-0.4,0.3c-0.1,0-0.2-0.2-0.3-0.3c0.1-0.1,0.2-0.3,0.3-0.3C117.9,59.7,118,59.9,118.2,60z"/>
		<path d="M21.8,61.3c-0.2,0.2-0.3,0.3-0.4,0.3s-0.2-0.2-0.3-0.3c0.1-0.1,0.2-0.3,0.3-0.3C21.4,60.9,21.6,61.1,21.8,61.3z"/>
		<path d="M124.5,60c-0.3,0.2-0.3,0.3-0.4,0.3c-0.1,0-0.2-0.2-0.3-0.3c0.1-0.1,0.2-0.3,0.3-0.3C124.2,59.7,124.4,59.9,124.5,60z"/>
		<path d="M32.2,60.5c-0.2-0.2-0.3-0.3-0.3-0.4c0-0.1,0.2-0.3,0.3-0.3c0.1,0.1,0.3,0.2,0.3,0.3C32.4,60.1,32.3,60.2,32.2,60.5z"/>
		<path d="M38.6,59.6c0.2,0.2,0.3,0.3,0.3,0.4s-0.2,0.3-0.3,0.3c-0.1-0.1-0.3-0.2-0.3-0.3C38.3,59.9,38.5,59.8,38.6,59.6z"/>
		<path d="M68.3,59.5c0.2,0.3,0.3,0.4,0.3,0.5s-0.2,0.3-0.3,0.3c-0.1,0-0.3-0.2-0.3-0.3C68.1,59.9,68.2,59.8,68.3,59.5z"/>
		<path d="M94.7,60c-0.2,0.1-0.3,0.3-0.4,0.3c-0.1,0-0.2-0.2-0.3-0.3c0.1-0.1,0.3-0.3,0.3-0.3C94.4,59.7,94.5,59.9,94.7,60z"/>
		<path d="M97.2,59.5c0.2,0.2,0.3,0.3,0.3,0.4c0,0.1-0.2,0.3-0.3,0.3c-0.1,0-0.3-0.2-0.3-0.3C96.8,59.9,97,59.8,97.2,59.5z"/>
		<path d="M96.1,59.6c0.2,0.2,0.3,0.3,0.3,0.4c0,0.1-0.2,0.3-0.3,0.3c-0.1-0.1-0.3-0.2-0.3-0.3C95.9,59.9,96,59.8,96.1,59.6z"/>
		<path d="M37.9,60c-0.2,0.2-0.3,0.3-0.4,0.3c-0.1,0-0.3-0.2-0.3-0.3c0.1-0.1,0.2-0.3,0.3-0.3C37.5,59.7,37.7,59.9,37.9,60z"/>
		<path d="M79.8,63.6c-0.2,0.2-0.3,0.3-0.4,0.3c-0.1,0-0.2-0.2-0.3-0.3c0.1-0.1,0.2-0.3,0.3-0.3C79.5,63.2,79.6,63.4,79.8,63.6z"/>
		<path d="M112.5,63.8c-0.1-0.2-0.3-0.3-0.3-0.4s0.2-0.2,0.3-0.3c0.1,0.1,0.3,0.2,0.3,0.3C112.8,63.5,112.7,63.7,112.5,63.8z"/>
		<path d="M96.9,63c0.2,0.2,0.3,0.3,0.3,0.4s-0.2,0.2-0.3,0.3c-0.1-0.1-0.3-0.2-0.3-0.3C96.6,63.2,96.7,63.1,96.9,63z"/>
		<path d="M89.3,63c0.2,0.2,0.3,0.3,0.3,0.4s-0.2,0.2-0.3,0.3c-0.1-0.1-0.3-0.3-0.3-0.3S89.2,63.1,89.3,63z"/>
		<path d="M63.3,60c-0.2,0.2-0.3,0.3-0.4,0.3s-0.3-0.2-0.3-0.3c0.1-0.1,0.2-0.3,0.3-0.3C63,59.7,63.1,59.9,63.3,60z"/>
		<path d="M59.4,63.8c-0.2-0.2-0.3-0.3-0.3-0.4s0.2-0.2,0.3-0.3c0.1,0.1,0.3,0.3,0.3,0.3S59.6,63.7,59.4,63.8z"/>
		<path d="M58.4,63.8c-0.2-0.2-0.3-0.3-0.3-0.4s0.2-0.2,0.3-0.3c0.1,0.1,0.3,0.3,0.3,0.3C58.8,63.5,58.6,63.7,58.4,63.8z"/>
		<path d="M25.7,62.8c0.2,0.2,0.3,0.3,0.3,0.4s-0.2,0.3-0.3,0.3c-0.1-0.1-0.3-0.2-0.3-0.3C25.4,63.1,25.6,63.1,25.7,62.8z"/>
		<path d="M81.8,64.8c0.2,0.2,0.3,0.3,0.3,0.4c0,0.1-0.2,0.2-0.3,0.3c-0.1-0.1-0.3-0.2-0.3-0.3C81.5,65,81.7,65,81.8,64.8z"/>
		<path d="M22.9,65.6c-0.2-0.2-0.3-0.3-0.3-0.4c0-0.1,0.2-0.2,0.3-0.3c0.1,0.1,0.3,0.2,0.3,0.3C23.2,65.3,23.1,65.4,22.9,65.6z"/>
		<path d="M121.6,65c-0.2,0.2-0.3,0.3-0.4,0.3c-0.1,0-0.3-0.2-0.3-0.3c0.1-0.1,0.2-0.3,0.3-0.3C121.3,64.8,121.3,65,121.6,65z"/>
		<path d="M120,65.5c-0.2-0.2-0.3-0.3-0.3-0.4c0-0.1,0.2-0.2,0.3-0.3c0.1,0.1,0.3,0.3,0.3,0.3C120.3,65.2,120.1,65.3,120,65.5z"/>
		<path d="M98.3,64.6c0.2,0.2,0.3,0.3,0.3,0.4c0,0.1-0.2,0.3-0.3,0.3c-0.1-0.1-0.3-0.2-0.3-0.3C97.9,65,98.1,64.9,98.3,64.6z"/>
		<path d="M63.3,65c-0.2,0.2-0.3,0.3-0.4,0.3c-0.1,0-0.3-0.2-0.3-0.3c0.1-0.1,0.2-0.3,0.3-0.3C63,64.8,63.1,65,63.3,65z"/>
		<path d="M46.4,64.6c0.2,0.2,0.3,0.3,0.3,0.4c0,0.1-0.2,0.2-0.3,0.3c-0.1-0.1-0.3-0.2-0.3-0.3C46,65,46.2,64.9,46.4,64.6z"/>
		<path d="M45.5,65c-0.2,0.2-0.3,0.3-0.4,0.3s-0.3-0.2-0.3-0.3c0.1-0.1,0.2-0.3,0.3-0.3C45.3,64.8,45.4,65,45.5,65z"/>
		<path d="M39,65.1c-0.2,0.2-0.3,0.3-0.4,0.3s-0.2-0.2-0.3-0.3c0.1-0.1,0.3-0.3,0.3-0.3C38.7,64.8,38.8,65,39,65.1z"/>
		<path d="M74.9,65.5c-0.2-0.2-0.3-0.3-0.3-0.4c0-0.1,0.2-0.2,0.3-0.3c0.1,0.1,0.3,0.2,0.3,0.3C75.2,65.1,75,65.3,74.9,65.5z"/>
		<path d="M25.4,65c-0.2,0.2-0.3,0.3-0.4,0.3s-0.2-0.2-0.3-0.3c0.1-0.1,0.2-0.3,0.3-0.3C25.1,64.7,25.2,64.9,25.4,65z"/>
		<path d="M76.2,64.5c-0.2,0.2-0.3,0.3-0.4,0.3c-0.1,0-0.3-0.2-0.3-0.3c0.1-0.1,0.2-0.3,0.3-0.3C75.9,64.3,76,64.4,76.2,64.5z"/>
		<path d="M97.6,63.7c0.2,0.2,0.3,0.3,0.3,0.4c0,0.1-0.2,0.2-0.3,0.3c-0.1-0.1-0.3-0.2-0.3-0.3C97.2,64.1,97.4,64,97.6,63.7z"/>
		<path d="M85.1,64.3c-0.2,0.2-0.3,0.3-0.4,0.3c-0.1,0-0.2-0.2-0.3-0.3c0.1-0.1,0.2-0.3,0.3-0.3C84.8,63.9,84.9,64.1,85.1,64.3z"/>
		<path d="M81.8,59.4c0.2,0.2,0.3,0.3,0.3,0.4s-0.2,0.3-0.3,0.3c-0.1-0.1-0.3-0.2-0.3-0.3C81.5,59.8,81.7,59.6,81.8,59.4z"/>
		<path d="M23.1,60c-0.2,0.2-0.3,0.3-0.4,0.3c-0.1,0-0.2-0.2-0.3-0.3c0.1-0.1,0.2-0.3,0.3-0.3C22.8,59.6,22.9,59.8,23.1,60z"/>
		<path d="M82.9,59.4c0.2,0.2,0.3,0.3,0.3,0.4S83,60,82.9,60.2c-0.1-0.1-0.3-0.2-0.3-0.3C82.5,59.8,82.7,59.7,82.9,59.4z"/>
		<path d="M50.4,64.5c-0.2-0.2-0.3-0.3-0.3-0.4c0-0.1,0.2-0.2,0.3-0.3c0.1,0.1,0.3,0.2,0.3,0.3C50.8,64.2,50.6,64.3,50.4,64.5z"/>
		<path d="M30.5,60c-0.2,0.2-0.3,0.3-0.4,0.3c-0.1,0-0.3-0.2-0.3-0.3c0.1-0.1,0.2-0.3,0.3-0.3C30.2,59.7,30.4,59.9,30.5,60z"/>
		<path d="M21.7,64c-0.2,0.2-0.3,0.3-0.4,0.3c-0.1,0-0.3-0.2-0.3-0.3c0.1-0.1,0.2-0.3,0.3-0.3C21.3,63.7,21.4,63.9,21.7,64z"/>
		<path d="M36.3,60.5c-0.2-0.2-0.3-0.3-0.3-0.4s0.2-0.2,0.3-0.3c0.1,0.1,0.3,0.2,0.3,0.3C36.7,60.1,36.5,60.2,36.3,60.5z"/>
		<path d="M66.7,62.3c-0.2,0.1-0.3,0.3-0.4,0.3c-0.1,0-0.2-0.2-0.3-0.3c0.1-0.1,0.2-0.3,0.3-0.3C66.4,61.9,66.5,62.1,66.7,62.3z"/>
		<path d="M85.1,60.8c-0.2,0.1-0.3,0.3-0.4,0.3c-0.1,0-0.2-0.2-0.3-0.3c0.1-0.1,0.3-0.3,0.3-0.3C84.8,60.5,84.9,60.6,85.1,60.8z"/>
		<path d="M22.3,62.1c-0.3,0.2-0.3,0.3-0.4,0.3s-0.2-0.2-0.3-0.3c0.1-0.1,0.2-0.3,0.3-0.3C21.9,61.9,22.1,62,22.3,62.1z"/>
		<path d="M128,60.5c0.2,0.2,0.3,0.3,0.3,0.4s-0.2,0.2-0.3,0.3c-0.1-0.1-0.3-0.3-0.3-0.3C127.7,60.7,127.9,60.6,128,60.5z"/>
		<path d="M76.2,62c-0.2,0.1-0.3,0.3-0.4,0.3c-0.1,0-0.2-0.2-0.3-0.3c0.1-0.1,0.3-0.3,0.3-0.3C75.9,61.7,76,61.9,76.2,62z"/>
		<path d="M36.7,61c-0.2,0.2-0.3,0.3-0.4,0.3c-0.1,0-0.2-0.2-0.3-0.3c0.1-0.1,0.2-0.3,0.3-0.3C36.5,60.7,36.6,60.9,36.7,61z"/>
		<path d="M44.3,61c-0.2,0.2-0.3,0.3-0.4,0.3s-0.3-0.2-0.3-0.3c0.1-0.1,0.2-0.3,0.3-0.3C44,60.7,44.1,60.9,44.3,61z"/>
		<path d="M50.9,61c-0.2,0.2-0.3,0.3-0.4,0.3s-0.3-0.2-0.3-0.3c0.1-0.1,0.2-0.3,0.3-0.3C50.6,60.7,50.7,60.9,50.9,61z"/>
		<path d="M68.4,61.4c-0.2-0.2-0.3-0.3-0.3-0.4s0.2-0.2,0.3-0.3c0.1,0.1,0.3,0.2,0.3,0.3C68.7,61.1,68.5,61.3,68.4,61.4z"/>
		<path d="M118.2,61c-0.2,0.2-0.3,0.3-0.4,0.3c-0.1,0-0.3-0.2-0.3-0.3c0.1-0.1,0.2-0.3,0.3-0.3C117.9,60.7,118,60.9,118.2,61z"/>
		<path d="M111.4,61.7c-0.2,0.2-0.3,0.3-0.4,0.3c-0.1,0-0.3-0.2-0.3-0.3c0.1-0.1,0.2-0.3,0.3-0.3C111.1,61.4,111.2,61.5,111.4,61.7z
			"/>
		<path d="M89.3,61.3c0.2,0.2,0.3,0.3,0.3,0.4s-0.2,0.2-0.3,0.3c-0.1-0.1-0.3-0.3-0.3-0.3S89.2,61.4,89.3,61.3z"/>
		<path d="M58.9,61.7c-0.2,0.2-0.3,0.3-0.4,0.3c-0.1,0-0.2-0.2-0.3-0.3c0.1-0.1,0.2-0.3,0.3-0.3C58.6,61.4,58.7,61.6,58.9,61.7z"/>
		<path d="M73.3,61.6c-0.2,0.2-0.3,0.3-0.4,0.3c-0.1,0-0.2-0.2-0.3-0.3c0.1-0.1,0.3-0.3,0.3-0.3C73,61.3,73.1,61.4,73.3,61.6z"/>
		<path d="M79.8,61.5c-0.2,0.1-0.3,0.3-0.4,0.3c-0.1,0-0.2-0.3-0.3-0.3c0.1-0.1,0.3-0.3,0.3-0.3C79.5,61.2,79.6,61.3,79.8,61.5z"/>
		<path d="M98.3,60.8c0.2,0.2,0.3,0.3,0.3,0.4c0,0.1-0.2,0.2-0.3,0.3c-0.1-0.1-0.3-0.2-0.3-0.3C98,61.1,98.2,61,98.3,60.8z"/>
		<path d="M67.4,61.5c-0.2,0.2-0.3,0.3-0.4,0.3c-0.1,0-0.2-0.2-0.3-0.3c0.1-0.1,0.2-0.3,0.3-0.3C67,61.2,67.2,61.3,67.4,61.5z"/>
		<path d="M64.7,61.5c-0.2,0.1-0.3,0.3-0.4,0.3c-0.1,0-0.2-0.2-0.3-0.3c0.1-0.1,0.2-0.3,0.3-0.3C64.4,61.2,64.5,61.3,64.7,61.5z"/>
		<path d="M95.6,60c-0.2,0.1-0.3,0.3-0.4,0.3c-0.1,0-0.2-0.2-0.3-0.3c0.1-0.1,0.3-0.3,0.3-0.3C95.4,59.7,95.4,59.9,95.6,60z"/>
		<path d="M94.7,63.1c-0.2,0.1-0.3,0.3-0.4,0.3c-0.1,0-0.3-0.2-0.3-0.3c0.1-0.1,0.2-0.3,0.3-0.3C94.3,62.7,94.5,62.9,94.7,63.1z"/>
		<path d="M68.8,63.1c-0.2,0.1-0.3,0.3-0.4,0.3c-0.1,0-0.2-0.2-0.3-0.3c0.1-0.1,0.2-0.3,0.3-0.3C68.5,62.7,68.6,62.9,68.8,63.1z"/>
		<path d="M66,63c-0.2,0.2-0.3,0.3-0.4,0.3c-0.1,0-0.2-0.2-0.3-0.3c0.1-0.1,0.3-0.3,0.3-0.3C65.7,62.7,65.8,62.9,66,63z"/>
		<path d="M62.8,63.5c-0.2-0.2-0.3-0.3-0.3-0.4s0.2-0.2,0.3-0.3c0.1,0.1,0.3,0.3,0.3,0.3C63.2,63.1,63,63.3,62.8,63.5z"/>
		<path d="M50.9,63.1c-0.2,0.2-0.3,0.3-0.4,0.3s-0.3-0.2-0.3-0.3c0.1-0.1,0.2-0.3,0.3-0.3C50.6,62.7,50.7,62.9,50.9,63.1z"/>
		<path d="M44.3,63.1c-0.2,0.2-0.3,0.3-0.4,0.3c-0.1,0-0.3-0.2-0.3-0.3c0.1-0.1,0.2-0.3,0.3-0.3C44,62.7,44.1,62.9,44.3,63.1z"/>
		<path d="M36.4,62.6c0.2,0.2,0.3,0.3,0.3,0.4s-0.2,0.2-0.3,0.3c-0.1-0.1-0.3-0.3-0.3-0.3C36.1,62.9,36.2,62.8,36.4,62.6z"/>
		<path d="M104.6,60c-0.2,0.2-0.3,0.3-0.4,0.3c-0.1,0-0.3-0.2-0.3-0.3c0.1-0.1,0.2-0.3,0.3-0.3C104.3,59.7,104.4,59.9,104.6,60z"/>
		<path d="M106.6,60c-0.2,0.1-0.3,0.3-0.4,0.3c-0.1,0-0.2-0.2-0.3-0.3c0.1-0.1,0.3-0.3,0.3-0.3C106.4,59.7,106.5,59.9,106.6,60z"/>
		<path d="M23.8,62.1c0.2,0.2,0.3,0.3,0.3,0.4c0,0.1-0.2,0.2-0.3,0.3c-0.1-0.1-0.3-0.2-0.3-0.3C23.6,62.5,23.7,62.3,23.8,62.1z"/>
		<path d="M128.3,60c0.2-0.2,0.3-0.3,0.4-0.3c0.1,0,0.3,0.2,0.3,0.3c-0.1,0.1-0.2,0.3-0.3,0.3C128.7,60.3,128.6,60.1,128.3,60z"/>
		<path d="M67.6,61.2c-0.1-0.2-0.3-0.3-0.3-0.4s0.2-0.2,0.3-0.3c0.1,0.1,0.3,0.2,0.3,0.3C68,60.9,67.8,61,67.6,61.2z"/>
		<path d="M24.7,59.6C24.9,59.8,25,60,25,60s-0.2,0.3-0.3,0.3c-0.1-0.1-0.3-0.2-0.3-0.3C24.4,60,24.6,59.9,24.7,59.6z"/>
		<path d="M37.4,63c-0.2-0.2-0.3-0.3-0.3-0.4c0-0.1,0.2-0.3,0.3-0.3c0.1,0.1,0.3,0.2,0.3,0.3C37.8,62.6,37.6,62.8,37.4,63z"/>
		<path d="M26.1,60.6c-0.2,0.2-0.3,0.3-0.4,0.3c-0.1,0-0.3-0.2-0.3-0.3c0.1-0.1,0.2-0.3,0.3-0.3C25.7,60.3,25.8,60.5,26.1,60.6z"/>
		<path d="M58.4,62.5c-0.2,0.1-0.3,0.3-0.4,0.3s-0.2-0.2-0.3-0.3c0.1-0.1,0.2-0.3,0.3-0.3C58.2,62.2,58.3,62.5,58.4,62.5z"/>
		<path d="M97.9,60.8c-0.2-0.2-0.3-0.3-0.3-0.4s0.2-0.2,0.3-0.3c0.1,0.1,0.3,0.2,0.3,0.3C98.3,60.5,98.1,60.6,97.9,60.8z"/>
		<path d="M21.8,59.9c0.2,0.2,0.3,0.3,0.3,0.4s-0.2,0.2-0.3,0.3c-0.1-0.1-0.3-0.3-0.3-0.3C21.4,60.2,21.6,60,21.8,59.9z"/>
		<path d="M80.7,64.5c0.2,0.2,0.3,0.3,0.3,0.4c0,0.1-0.2,0.3-0.3,0.3c-0.1-0.1-0.3-0.2-0.3-0.3C80.5,64.9,80.6,64.8,80.7,64.5z"/>
	</g>
</g>
</svg>
