<?xml version="1.0" encoding="utf-8"?>
<!-- Generator: Adobe Illustrator 21.0.0, SVG Export Plug-In . SVG Version: 6.00 Build 0)  -->
<svg version="1.1" id="Layer_1" xmlns="http://www.w3.org/2000/svg" xmlns:xlink="http://www.w3.org/1999/xlink" x="0px" y="0px"
	 viewBox="0 0 150 125" style="enable-background:new 0 0 150 125;" xml:space="preserve">
<g>
	<g>
		<path d="M73.3,70.2C73.1,70,73,69.8,73,69.7s0.3-0.2,0.4-0.4c0.1,0.1,0.3,0.3,0.3,0.4C73.6,69.9,73.4,70,73.3,70.2z"/>
		<path d="M133.5,70.7c-0.2-0.2-0.4-0.4-0.3-0.5c0-0.1,0.2-0.3,0.4-0.4c0.1,0.1,0.3,0.2,0.3,0.4C133.8,70.4,133.7,70.5,133.5,70.7z"
			/>
		<path d="M97,71c-0.2-0.2-0.3-0.4-0.3-0.5s0.2-0.2,0.4-0.4c0.1,0.1,0.3,0.2,0.3,0.4C97.3,70.6,97.2,70.8,97,71z"/>
		<path d="M133.1,69.2c-0.2,0.2-0.4,0.3-0.5,0.3s-0.2-0.2-0.4-0.4c0.1-0.1,0.3-0.3,0.4-0.3C132.8,68.9,132.9,69,133.1,69.2z"/>
		<path d="M85.5,68.4c-0.3,0.2-0.4,0.3-0.6,0.3c-0.1,0-0.3-0.2-0.3-0.4c0-0.1,0.2-0.3,0.3-0.3C85.1,68.1,85.2,68.2,85.5,68.4z"/>
		<path d="M98.6,71.1c-0.2,0.1-0.4,0.3-0.5,0.3s-0.2-0.2-0.3-0.3c0.1-0.1,0.3-0.3,0.4-0.3C98.3,70.7,98.4,70.9,98.6,71.1z"/>
		<path d="M33.7,67.7c0.2,0.2,0.4,0.4,0.3,0.5c0,0.1-0.2,0.2-0.4,0.4c-0.1-0.1-0.3-0.2-0.3-0.4C33.3,68,33.5,67.9,33.7,67.7z"/>
		<path d="M26.6,68.2c-0.2,0.2-0.4,0.3-0.5,0.3s-0.2-0.2-0.4-0.4c0.1-0.1,0.2-0.3,0.4-0.3C26.2,67.8,26.3,68,26.6,68.2z"/>
		<path d="M73.8,74.2c-0.2,0.2-0.4,0.3-0.5,0.3s-0.3-0.2-0.4-0.3c0.1-0.1,0.3-0.3,0.4-0.3C73.4,73.8,73.6,74,73.8,74.2z"/>
		<path d="M23.7,67.6c0.2,0.2,0.4,0.4,0.3,0.5c0,0.1-0.2,0.3-0.4,0.3c-0.1,0-0.3-0.2-0.3-0.3C23.4,68,23.5,67.9,23.7,67.6z"/>
		<path d="M108.5,72.8c-0.2,0.2-0.3,0.4-0.5,0.4c-0.1,0-0.3-0.2-0.4-0.3c0.1-0.1,0.2-0.3,0.4-0.3C108.1,72.5,108.3,72.6,108.5,72.8z
			"/>
		<path d="M39,68.2c-0.3,0.1-0.4,0.3-0.5,0.3s-0.2-0.2-0.3-0.4c0.1-0.1,0.3-0.3,0.4-0.3C38.6,67.8,38.8,68,39,68.2z"/>
		<path d="M46.7,68.2c-0.2,0.2-0.4,0.3-0.5,0.3s-0.2-0.2-0.4-0.4c0.1-0.1,0.3-0.3,0.4-0.3C46.3,67.8,46.4,68,46.7,68.2z"/>
		<path d="M81.8,68.2c-0.2,0.2-0.4,0.3-0.5,0.3s-0.2-0.2-0.4-0.3c0.1-0.1,0.2-0.3,0.4-0.4C81.5,67.8,81.6,68,81.8,68.2z"/>
		<path d="M90.2,67.7c0.1,0.2,0.3,0.4,0.3,0.5s-0.2,0.2-0.3,0.3c-0.1-0.1-0.3-0.2-0.3-0.4C89.8,68,90,67.9,90.2,67.7z"/>
		<path d="M71,71.4c0.2,0.2,0.4,0.4,0.4,0.5s-0.2,0.3-0.3,0.4c-0.1-0.1-0.3-0.2-0.3-0.4C70.7,71.8,70.8,71.7,71,71.4z"/>
		<path d="M120.5,71.7c-0.2,0.2-0.3,0.4-0.4,0.4s-0.3-0.2-0.4-0.3c0.1-0.1,0.2-0.3,0.4-0.4C120.1,71.3,120.3,71.5,120.5,71.7z"/>
		<path d="M114.7,71.1c0.2,0.3,0.3,0.4,0.3,0.6c0,0.1-0.2,0.3-0.4,0.3c-0.1,0-0.3-0.2-0.3-0.3C114.3,71.5,114.5,71.4,114.7,71.1z"/>
		<path d="M105.6,68.1c-0.2,0.2-0.3,0.4-0.5,0.4c-0.1,0-0.3-0.2-0.4-0.3c0.1-0.1,0.2-0.3,0.3-0.4C105.1,67.8,105.3,68,105.6,68.1z"
			/>
		<path d="M134.4,70.8c0.2,0.2,0.3,0.4,0.3,0.5s-0.2,0.2-0.4,0.4c-0.1-0.1-0.3-0.3-0.3-0.4C134.1,71.1,134.3,71,134.4,70.8z"/>
		<path d="M110.2,68.2c-0.2,0.1-0.4,0.3-0.5,0.3s-0.2-0.2-0.3-0.3c0.1-0.1,0.2-0.3,0.4-0.3C109.9,67.8,110,68,110.2,68.2z"/>
		<path d="M127.4,71.1c-0.2,0.2-0.4,0.4-0.5,0.3c-0.1,0-0.3-0.2-0.4-0.3c0.1-0.1,0.2-0.3,0.4-0.3C127.1,70.7,127.2,70.9,127.4,71.1z
			"/>
		<path d="M125.6,70.6c0.2,0.2,0.4,0.4,0.3,0.5c0,0.1-0.2,0.3-0.3,0.4c-0.1-0.1-0.3-0.2-0.3-0.4C125.3,71,125.5,70.8,125.6,70.6z"/>
		<path d="M117.4,71.6c-0.2-0.2-0.4-0.4-0.4-0.5s0.2-0.3,0.3-0.4c0.1,0.1,0.3,0.2,0.4,0.4C117.7,71.2,117.5,71.4,117.4,71.6z"/>
		<path d="M126.1,68.2c-0.2,0.2-0.4,0.3-0.5,0.3s-0.2-0.2-0.4-0.3c0.1-0.1,0.2-0.3,0.4-0.4C125.8,67.8,125.9,68,126.1,68.2z"/>
		<path d="M127,68.7c-0.2-0.2-0.4-0.4-0.3-0.5c0-0.1,0.2-0.3,0.3-0.4c0.1,0.1,0.3,0.2,0.3,0.4C127.3,68.3,127.1,68.4,127,68.7z"/>
		<path d="M128.8,68.2c-0.3,0.1-0.4,0.3-0.5,0.3s-0.2-0.2-0.3-0.4c0.1-0.1,0.3-0.3,0.4-0.3C128.4,67.8,128.5,68,128.8,68.2z"/>
		<path d="M99.3,71.6c-0.2-0.2-0.4-0.4-0.4-0.5s0.2-0.3,0.3-0.4c0.1,0.1,0.3,0.2,0.3,0.3C99.6,71.2,99.4,71.4,99.3,71.6z"/>
		<path d="M120,74.5c-0.2-0.2-0.4-0.4-0.4-0.5s0.2-0.3,0.3-0.4c0.1,0.1,0.3,0.2,0.3,0.4C120.3,74.2,120.2,74.3,120,74.5z"/>
		<path d="M32.4,70.6c0.1,0.2,0.3,0.4,0.3,0.5s-0.2,0.2-0.4,0.4c-0.1-0.1-0.3-0.3-0.3-0.4C32,70.9,32.2,70.8,32.4,70.6z"/>
		<path d="M80.4,69.3c-0.2-0.2-0.4-0.4-0.3-0.5c0-0.1,0.2-0.2,0.4-0.4c0.1,0.1,0.3,0.2,0.3,0.4C80.7,69,80.5,69.1,80.4,69.3z"/>
		<path d="M14,71.6c-0.2-0.3-0.3-0.4-0.3-0.6c0-0.1,0.2-0.3,0.3-0.3s0.3,0.2,0.3,0.3C14.4,71.1,14.2,71.3,14,71.6z"/>
		<path d="M56,69.6c-0.2-0.2-0.4-0.4-0.4-0.5s0.2-0.3,0.3-0.4c0.1,0.1,0.3,0.2,0.3,0.4C56.4,69.3,56.2,69.4,56,69.6z"/>
		<path d="M120.5,70.5c-0.2,0.2-0.3,0.4-0.5,0.4c-0.1,0-0.3-0.2-0.4-0.3c0.1-0.1,0.2-0.3,0.4-0.3C120.1,70.1,120.3,70.3,120.5,70.5z
			"/>
		<path d="M114.6,71c-0.2-0.3-0.3-0.4-0.3-0.6c0-0.1,0.3-0.3,0.4-0.3s0.3,0.2,0.3,0.4C115,70.7,114.8,70.8,114.6,71z"/>
		<path d="M134.9,74c-0.2,0.2-0.4,0.4-0.5,0.4s-0.2-0.2-0.4-0.3c0.1-0.1,0.2-0.3,0.4-0.4C134.5,73.7,134.7,73.9,134.9,74z"/>
		<path d="M120.5,69.3c-0.2,0.2-0.4,0.4-0.5,0.4c-0.2,0-0.3-0.2-0.4-0.3c0.1-0.1,0.2-0.3,0.4-0.3C120.1,69,120.3,69.1,120.5,69.3z"
			/>
		<path d="M135.3,70.7c-0.2-0.2-0.3-0.4-0.3-0.5s0.2-0.2,0.3-0.4c0.1,0.1,0.3,0.2,0.4,0.4C135.7,70.4,135.5,70.5,135.3,70.7z"/>
		<path d="M97.5,74.1c-0.3,0.2-0.4,0.3-0.6,0.3c-0.1,0-0.2-0.2-0.3-0.3c0.1-0.1,0.3-0.3,0.4-0.3C97.2,73.7,97.3,73.9,97.5,74.1z"/>
		<path d="M17.9,73.1c-0.2,0.2-0.4,0.4-0.5,0.4s-0.3-0.2-0.4-0.3c0.1-0.1,0.2-0.3,0.4-0.3C17.5,72.8,17.7,72.9,17.9,73.1z"/>
		<path d="M21.3,68.7c-0.2-0.2-0.3-0.4-0.3-0.5s0.2-0.2,0.4-0.4c0.1,0.1,0.3,0.3,0.3,0.4C21.7,68.3,21.5,68.4,21.3,68.7z"/>
		<path d="M83.7,73.6c0.2,0.2,0.4,0.4,0.4,0.5s-0.2,0.3-0.3,0.4c-0.1-0.1-0.3-0.2-0.4-0.4C83.4,74,83.6,73.8,83.7,73.6z"/>
		<path d="M120,73.4c-0.2-0.3-0.3-0.4-0.3-0.5s0.3-0.3,0.3-0.3c0.1,0,0.3,0.2,0.3,0.4C120.3,73,120.2,73.1,120,73.4z"/>
		<path d="M97,72.4c0.2,0.2,0.4,0.4,0.3,0.5c0,0.1-0.2,0.3-0.4,0.3c-0.1,0-0.3-0.2-0.3-0.3C96.7,72.7,96.8,72.6,97,72.4z"/>
		<path d="M49.6,74c-0.2,0.2-0.4,0.4-0.5,0.4c-0.2,0-0.3-0.2-0.4-0.3c0.1-0.1,0.2-0.3,0.4-0.3C49.2,73.7,49.4,73.9,49.6,74z"/>
		<path d="M124.8,70.5c-0.2,0.2-0.4,0.3-0.5,0.3s-0.2-0.2-0.4-0.4c0.1-0.1,0.3-0.3,0.4-0.3C124.5,70.2,124.6,70.4,124.8,70.5z"/>
		<path d="M47.6,73.5c0.2,0.2,0.4,0.4,0.4,0.5s-0.2,0.3-0.4,0.4c-0.1-0.1-0.3-0.2-0.3-0.4C47.3,73.9,47.4,73.8,47.6,73.5z"/>
		<path d="M101.8,70.6c-0.2,0.2-0.4,0.3-0.5,0.3s-0.2-0.2-0.3-0.3c0.1-0.1,0.2-0.3,0.4-0.3C101.5,70.2,101.6,70.4,101.8,70.6z"/>
		<path d="M62.9,70.3c0.2,0.2,0.4,0.4,0.4,0.5s-0.2,0.3-0.3,0.4c-0.1-0.1-0.3-0.2-0.3-0.3C62.6,70.6,62.8,70.5,62.9,70.3z"/>
		<path d="M71.9,70.7c-0.3,0.2-0.4,0.4-0.6,0.4c-0.1,0-0.3-0.2-0.3-0.3c0-0.1,0.2-0.3,0.3-0.4C71.4,70.4,71.6,70.6,71.9,70.7z"/>
		<path d="M46.1,73.5c0.2,0.2,0.4,0.4,0.4,0.5s-0.2,0.3-0.3,0.4c-0.1-0.1-0.3-0.2-0.3-0.4C45.8,73.9,46,73.8,46.1,73.5z"/>
		<path d="M39,74.1c-0.2,0.2-0.4,0.3-0.5,0.3s-0.2-0.2-0.4-0.4c0.1-0.1,0.3-0.3,0.4-0.3C38.6,73.7,38.7,73.9,39,74.1z"/>
		<path d="M34.1,74c-0.2,0.2-0.4,0.3-0.5,0.3s-0.2-0.2-0.4-0.3c0.1-0.1,0.2-0.3,0.4-0.3S33.9,73.9,34.1,74z"/>
		<path d="M79.5,71.6c-0.2-0.2-0.4-0.4-0.3-0.5c0-0.1,0.2-0.2,0.4-0.4c0.1,0.1,0.3,0.2,0.3,0.4C79.8,71.2,79.7,71.3,79.5,71.6z"/>
		<path d="M92.3,71.1c-0.2,0.2-0.4,0.4-0.5,0.3c-0.1,0-0.3-0.2-0.4-0.3c0.1-0.1,0.3-0.3,0.4-0.3C91.9,70.7,92.1,70.9,92.3,71.1z"/>
		<path d="M124.4,73.5c0.2,0.2,0.3,0.4,0.3,0.5s-0.2,0.2-0.4,0.4c-0.1-0.1-0.3-0.3-0.3-0.4S124.2,73.8,124.4,73.5z"/>
		<path d="M30.5,74.1c0.2-0.2,0.4-0.3,0.5-0.3s0.3,0.2,0.4,0.3c-0.1,0.1-0.2,0.3-0.4,0.4C30.9,74.4,30.8,74.2,30.5,74.1z"/>
		<path d="M53.3,73.5c0.2,0.2,0.3,0.4,0.3,0.5s-0.2,0.2-0.3,0.4c-0.1-0.1-0.3-0.2-0.4-0.4C52.9,73.9,53.1,73.8,53.3,73.5z"/>
		<path d="M126.1,74.1c-0.2,0.2-0.4,0.3-0.5,0.3s-0.2-0.2-0.4-0.4c0.1-0.1,0.2-0.3,0.4-0.3S125.9,73.9,126.1,74.1z"/>
		<path d="M67.4,74.1c-0.2,0.2-0.4,0.4-0.5,0.3c-0.1,0-0.2-0.2-0.4-0.4c0.1-0.1,0.2-0.3,0.4-0.3C67.1,73.7,67.2,73.9,67.4,74.1z"/>
		<path d="M66.9,71c-0.2-0.2-0.3-0.4-0.3-0.5s0.2-0.2,0.3-0.4c0.1,0.1,0.3,0.2,0.4,0.4C67.3,70.6,67.1,70.8,66.9,71z"/>
		<path d="M60.6,71c-0.2-0.2-0.4-0.4-0.3-0.5c0-0.1,0.2-0.2,0.4-0.4c0.1,0.1,0.3,0.2,0.3,0.4C60.9,70.7,60.7,70.8,60.6,71z"/>
		<path d="M46.1,71c-0.2-0.2-0.3-0.4-0.3-0.5s0.2-0.2,0.4-0.3c0.1,0.1,0.3,0.3,0.3,0.4S46.3,70.8,46.1,71z"/>
		<path d="M39,70.5c-0.2,0.2-0.4,0.4-0.5,0.3c-0.1,0-0.3-0.2-0.4-0.3c0.1-0.1,0.2-0.3,0.4-0.3C38.6,70.2,38.7,70.3,39,70.5z"/>
		<path d="M30.2,70.5c-0.2,0.2-0.4,0.3-0.5,0.3s-0.2-0.2-0.4-0.3c0.1-0.1,0.2-0.3,0.4-0.4C29.9,70.1,30,70.3,30.2,70.5z"/>
		<path d="M108,70.9c-0.2-0.2-0.4-0.4-0.3-0.5c0-0.1,0.2-0.2,0.4-0.4c0.1,0.1,0.3,0.2,0.3,0.4C108.3,70.5,108.1,70.6,108,70.9z"/>
		<path d="M23.1,69.9c0.2,0.2,0.4,0.4,0.4,0.5s-0.2,0.3-0.4,0.4c-0.1-0.1-0.3-0.2-0.3-0.4C22.8,70.2,22.9,70.1,23.1,69.9z"/>
		<path d="M93.9,74c-0.2,0.2-0.4,0.4-0.5,0.3c-0.1,0-0.3-0.2-0.4-0.3c0.1-0.1,0.2-0.3,0.4-0.3C93.6,73.7,93.7,73.9,93.9,74z"/>
		<path d="M15.9,74.2c-0.2,0.2-0.4,0.3-0.5,0.3s-0.2-0.2-0.4-0.3c0.1-0.1,0.2-0.3,0.4-0.4C15.5,73.8,15.6,74,15.9,74.2z"/>
		<path d="M75,69.9c-0.2,0.2-0.4,0.4-0.5,0.3c-0.1,0-0.3-0.2-0.4-0.3c0.1-0.1,0.2-0.3,0.4-0.3C74.6,69.5,74.8,69.7,75,69.9z"/>
		<path d="M39,72.8c-0.2,0.2-0.3,0.4-0.5,0.4c-0.1,0-0.3-0.2-0.4-0.3c0.1-0.1,0.2-0.3,0.4-0.4C38.6,72.5,38.7,72.7,39,72.8z"/>
		<path d="M30.2,72.9c-0.2,0.1-0.4,0.3-0.5,0.3s-0.2-0.2-0.3-0.3c0.1-0.1,0.3-0.3,0.4-0.3C29.9,72.5,30,72.7,30.2,72.9z"/>
		<path d="M108,73.5c0.2,0.2,0.4,0.3,0.3,0.5c0,0.1-0.2,0.3-0.3,0.4c-0.1-0.1-0.3-0.2-0.4-0.4C107.6,73.9,107.8,73.8,108,73.5z"/>
		<path d="M23.6,72.8c-0.2,0.2-0.4,0.4-0.5,0.3c-0.1,0-0.2-0.2-0.4-0.4c0.1-0.1,0.3-0.3,0.4-0.3C23.3,72.5,23.4,72.7,23.6,72.8z"/>
		<path d="M134.4,73.2c-0.2-0.2-0.4-0.3-0.3-0.5c0-0.1,0.2-0.3,0.3-0.4c0.1,0.1,0.3,0.2,0.4,0.4C134.8,72.8,134.6,72.9,134.4,73.2z"
			/>
		<path d="M114.7,74.5c-0.2-0.2-0.4-0.4-0.4-0.5s0.2-0.3,0.4-0.4c0.1,0.1,0.3,0.2,0.3,0.4C115,74.2,114.9,74.3,114.7,74.5z"/>
		<path d="M60.6,73.4c-0.2-0.2-0.4-0.4-0.3-0.5c0-0.1,0.2-0.3,0.4-0.4c0.1,0.1,0.3,0.2,0.3,0.4C60.9,73,60.7,73.1,60.6,73.4z"/>
		<path d="M66.9,72.4c0.2,0.2,0.4,0.4,0.4,0.5s-0.2,0.3-0.3,0.4c-0.1-0.1-0.3-0.2-0.3-0.4C66.6,72.7,66.8,72.6,66.9,72.4z"/>
		<path d="M92.8,72.1c-0.2,0.2-0.4,0.3-0.5,0.3s-0.2-0.2-0.4-0.3c0.1-0.1,0.2-0.3,0.4-0.4C92.4,71.7,92.6,71.9,92.8,72.1z"/>
		<path d="M90.7,72c-0.2,0.2-0.4,0.4-0.5,0.4s-0.3-0.2-0.4-0.3c0.1-0.1,0.2-0.3,0.3-0.4C90.3,71.7,90.4,71.9,90.7,72z"/>
		<path d="M54.9,72.1c-0.2,0.2-0.4,0.3-0.5,0.3s-0.2-0.2-0.4-0.3c0.1-0.1,0.2-0.3,0.4-0.3C54.5,71.7,54.7,71.9,54.9,72.1z"/>
		<path d="M114.7,73.4c-0.2-0.2-0.4-0.4-0.4-0.5s0.2-0.3,0.3-0.3c0.1,0,0.3,0.2,0.4,0.3C115,73,114.9,73.1,114.7,73.4z"/>
		<path d="M124.8,71.7c-0.2,0.2-0.4,0.3-0.5,0.3s-0.2-0.2-0.4-0.3c0.1-0.1,0.2-0.3,0.4-0.4C124.5,71.3,124.6,71.5,124.8,71.7z"/>
		<path d="M124.3,72.4c0.2,0.2,0.4,0.4,0.4,0.5s-0.2,0.3-0.3,0.4c-0.1-0.1-0.3-0.2-0.3-0.4C124,72.7,124.2,72.6,124.3,72.4z"/>
		<path d="M54.3,73.1c-0.2,0.2-0.4,0.3-0.5,0.3s-0.2-0.2-0.4-0.3c0.1-0.1,0.2-0.3,0.4-0.4C54,72.7,54.1,72.9,54.3,73.1z"/>
		<path d="M108,72.1c-0.2-0.2-0.4-0.4-0.3-0.5c0-0.1,0.2-0.3,0.4-0.4c0.1,0.1,0.3,0.2,0.3,0.4C108.3,71.7,108.2,71.9,108,72.1z"/>
		<path d="M23.2,71.1c0.2,0.2,0.3,0.4,0.3,0.5s-0.2,0.2-0.4,0.3c-0.1-0.1-0.3-0.3-0.3-0.4C22.8,71.4,23,71.3,23.2,71.1z"/>
		<path d="M71.3,72.6c0.2,0.2,0.4,0.4,0.3,0.5c0,0.1-0.2,0.2-0.4,0.4c-0.1-0.1-0.3-0.2-0.3-0.4C71,72.9,71.2,72.8,71.3,72.6z"/>
		<path d="M93.4,73.1c-0.2,0.2-0.4,0.3-0.5,0.3s-0.2-0.2-0.4-0.3c0.1-0.1,0.2-0.3,0.4-0.3C93,72.7,93.1,72.9,93.4,73.1z"/>
		<path d="M16.4,71.7c-0.2-0.2-0.4-0.3-0.4-0.4s0.2-0.3,0.3-0.4c0.1,0.1,0.3,0.2,0.4,0.4C16.8,71.4,16.6,71.5,16.4,71.7z"/>
		<path d="M119.6,73.1c-0.2,0.2-0.4,0.3-0.5,0.3s-0.2-0.2-0.4-0.3c0.1-0.1,0.2-0.3,0.4-0.4C119.2,72.7,119.4,72.9,119.6,73.1z"/>
		<path d="M80.4,73.8c-0.2-0.2-0.4-0.4-0.4-0.5s0.2-0.3,0.4-0.4c0.1,0.1,0.3,0.2,0.3,0.4C80.7,73.4,80.6,73.6,80.4,73.8z"/>
		<path d="M13.5,73.7C13.3,73.9,13.2,74,13,74c-0.1,0-0.2-0.2-0.4-0.3c0.1-0.1,0.2-0.3,0.4-0.4C13.1,73.3,13.3,73.5,13.5,73.7z"/>
		<path d="M84.9,74.2c-0.2-0.2-0.3-0.4-0.3-0.5s0.2-0.2,0.3-0.3c0.1,0.1,0.3,0.2,0.3,0.4C85.3,73.9,85.1,74,84.9,74.2z"/>
		<path d="M72.7,73.9c-0.2,0.2-0.4,0.4-0.5,0.3c-0.1,0-0.3-0.2-0.4-0.4c0.1-0.1,0.2-0.3,0.4-0.3C72.3,73.6,72.4,73.7,72.7,73.9z"/>
		<path d="M23.6,74.1c-0.2,0.2-0.4,0.3-0.5,0.3s-0.2-0.2-0.4-0.4c0.1-0.1,0.3-0.3,0.4-0.3C23.3,73.7,23.4,73.9,23.6,74.1z"/>
		<path d="M100.9,71.1c-0.2,0.2-0.4,0.4-0.5,0.3c-0.1,0-0.3-0.2-0.4-0.4c0.1-0.1,0.2-0.3,0.4-0.3C100.5,70.8,100.7,70.9,100.9,71.1z
			"/>
		<path d="M29.7,74.5c-0.2-0.2-0.3-0.4-0.3-0.5s0.2-0.2,0.3-0.4c0.1,0.1,0.3,0.2,0.4,0.4C30.1,74.2,29.9,74.3,29.7,74.5z"/>
		<path d="M115.2,68.1c-0.2,0.2-0.4,0.4-0.5,0.3c-0.1,0-0.3-0.2-0.4-0.3c0.1-0.1,0.2-0.3,0.4-0.3C114.8,67.8,115,68,115.2,68.1z"/>
		<path d="M120.5,68.1c-0.2,0.2-0.4,0.4-0.5,0.4c-0.2,0-0.3-0.2-0.4-0.3c0.1-0.1,0.2-0.3,0.4-0.3C120.1,67.8,120.3,68,120.5,68.1z"
			/>
		<path d="M23.2,69.6c-0.2-0.2-0.4-0.3-0.4-0.5c0-0.1,0.2-0.3,0.3-0.4c0.1,0.1,0.3,0.2,0.4,0.3C23.5,69.2,23.3,69.4,23.2,69.6z"/>
		<path d="M91.2,69.1c-0.2,0.2-0.4,0.4-0.5,0.4c-0.2,0-0.3-0.2-0.4-0.3c0.1-0.1,0.2-0.3,0.4-0.3C90.8,68.8,91,69,91.2,69.1z"/>
		<path d="M108,68.6c0.2,0.2,0.4,0.4,0.3,0.5c0,0.1-0.2,0.3-0.3,0.4c-0.1-0.1-0.3-0.2-0.3-0.4C107.6,69,107.8,68.9,108,68.6z"/>
		<path d="M116.1,69.1c-0.2,0.2-0.4,0.4-0.5,0.3c-0.1,0-0.3-0.2-0.4-0.4c0.1-0.1,0.2-0.3,0.4-0.3C115.7,68.8,115.8,69,116.1,69.1z"
			/>
		<path d="M15.1,68.5c-0.2-0.2-0.4-0.4-0.4-0.5s0.2-0.3,0.3-0.4c0.1,0.1,0.3,0.2,0.3,0.4C15.4,68.1,15.2,68.3,15.1,68.5z"/>
		<path d="M20.7,68.2c-0.3,0.2-0.4,0.3-0.5,0.3s-0.2-0.2-0.4-0.4c0.1-0.1,0.2-0.3,0.4-0.3C20.3,67.8,20.5,68,20.7,68.2z"/>
		<path d="M61.4,68.5c0.2,0.2,0.3,0.4,0.3,0.5s-0.2,0.2-0.3,0.4c-0.1-0.1-0.3-0.2-0.4-0.4C61,68.9,61.2,68.7,61.4,68.5z"/>
		<path d="M107.4,67.6c0.2,0.2,0.4,0.4,0.3,0.5c0,0.1-0.2,0.3-0.4,0.3c-0.1,0-0.3-0.2-0.3-0.3C107.1,68,107.2,67.9,107.4,67.6z"/>
		<path d="M106.7,68.2c-0.2,0.2-0.4,0.3-0.5,0.3s-0.2-0.2-0.4-0.4c0.1-0.1,0.2-0.3,0.4-0.3C106.4,67.8,106.5,68,106.7,68.2z"/>
		<path d="M61.1,69.3c-0.2,0.2-0.4,0.3-0.5,0.3s-0.2-0.2-0.4-0.3c0.1-0.1,0.2-0.3,0.4-0.4C60.7,69,60.8,69.2,61.1,69.3z"/>
		<path d="M57,68.1c-0.2,0.2-0.4,0.3-0.5,0.3s-0.3-0.2-0.4-0.3c0.1-0.1,0.2-0.3,0.4-0.4C56.7,67.8,56.8,68,57,68.1z"/>
		<path d="M97.5,69.3c-0.2,0.2-0.4,0.4-0.5,0.4s-0.3-0.2-0.4-0.3c0.1-0.1,0.2-0.3,0.4-0.3C97.1,69,97.3,69.2,97.5,69.3z"/>
		<path d="M115.2,69.3c-0.2,0.2-0.4,0.4-0.5,0.4s-0.3-0.2-0.4-0.3c0.1-0.1,0.2-0.3,0.4-0.3C114.8,69,115,69.2,115.2,69.3z"/>
		<path d="M124.8,68.2c-0.2,0.2-0.4,0.3-0.5,0.3s-0.2-0.2-0.3-0.3c0.1-0.1,0.2-0.3,0.4-0.3C124.5,67.8,124.6,68,124.8,68.2z"/>
		<path d="M12.8,69.6c-0.2,0.2-0.4,0.3-0.5,0.3s-0.2-0.2-0.4-0.3c0.1-0.1,0.2-0.3,0.4-0.4C12.4,69.2,12.6,69.4,12.8,69.6z"/>
		<path d="M132.2,68.1c-0.3,0.2-0.4,0.4-0.5,0.4s-0.2-0.2-0.4-0.3c0.1-0.1,0.2-0.3,0.4-0.4C131.8,67.8,132,68,132.2,68.1z"/>
		<path d="M24.9,68.7c-0.2-0.2-0.4-0.4-0.3-0.5c0-0.1,0.2-0.3,0.4-0.4c0.1,0.1,0.3,0.2,0.3,0.4C25.2,68.3,25,68.4,24.9,68.7z"/>
		<path d="M32.3,67.7c0.2,0.2,0.4,0.4,0.4,0.5s-0.2,0.3-0.3,0.4c-0.1-0.1-0.3-0.2-0.3-0.3C32,68,32.2,67.9,32.3,67.7z"/>
		<path d="M66.9,67.6c0.2,0.3,0.3,0.5,0.3,0.6s-0.2,0.3-0.4,0.3c-0.1,0-0.3-0.2-0.3-0.3C66.6,68,66.8,67.9,66.9,67.6z"/>
		<path d="M97.5,68.2c-0.2,0.1-0.4,0.3-0.5,0.3s-0.2-0.2-0.4-0.3c0.1-0.1,0.3-0.3,0.4-0.3C97.2,67.8,97.3,68,97.5,68.2z"/>
		<path d="M100.4,67.6c0.2,0.2,0.4,0.4,0.3,0.5c0,0.1-0.2,0.3-0.4,0.3c-0.1,0-0.3-0.2-0.3-0.3C100,68,100.2,67.9,100.4,67.6z"/>
		<path d="M99.2,67.7c0.2,0.2,0.4,0.3,0.3,0.5c0,0.1-0.2,0.3-0.3,0.4c-0.1-0.1-0.3-0.2-0.4-0.4C98.9,68,99.1,67.9,99.2,67.7z"/>
		<path d="M31.5,68.1c-0.2,0.2-0.3,0.4-0.5,0.4c-0.1,0-0.3-0.2-0.4-0.3c0.1-0.1,0.2-0.3,0.4-0.4C31.1,67.8,31.3,68,31.5,68.1z"/>
		<path d="M80.2,72.3c-0.2,0.2-0.4,0.3-0.5,0.3s-0.2-0.2-0.4-0.3c0.1-0.1,0.2-0.3,0.4-0.4C79.9,71.9,80,72.1,80.2,72.3z"/>
		<path d="M118.2,72.6c-0.1-0.2-0.3-0.4-0.3-0.5s0.2-0.2,0.3-0.4c0.1,0.1,0.3,0.2,0.3,0.4C118.6,72.2,118.4,72.4,118.2,72.6z"/>
		<path d="M100.1,71.6c0.2,0.2,0.3,0.4,0.3,0.5s-0.2,0.2-0.4,0.3c-0.1-0.1-0.3-0.2-0.3-0.4C99.7,71.9,99.9,71.8,100.1,71.6z"/>
		<path d="M91.3,71.6c0.2,0.2,0.3,0.4,0.3,0.5s-0.2,0.2-0.4,0.3c-0.1-0.1-0.3-0.3-0.3-0.4S91.1,71.8,91.3,71.6z"/>
		<path d="M61.1,68.1c-0.2,0.2-0.4,0.4-0.5,0.4s-0.3-0.2-0.4-0.3c0.1-0.1,0.2-0.3,0.4-0.3C60.7,67.8,60.8,68,61.1,68.1z"/>
		<path d="M56.5,72.6c-0.2-0.2-0.3-0.4-0.3-0.5s0.2-0.2,0.4-0.4c0.1,0.1,0.3,0.3,0.3,0.4S56.7,72.4,56.5,72.6z"/>
		<path d="M55.4,72.6c-0.2-0.2-0.3-0.4-0.3-0.5s0.2-0.2,0.4-0.4c0.1,0.1,0.3,0.3,0.3,0.4C55.8,72.2,55.6,72.4,55.4,72.6z"/>
		<path d="M17.4,71.4c0.2,0.2,0.3,0.4,0.3,0.5s-0.2,0.3-0.3,0.4c-0.1-0.1-0.3-0.2-0.4-0.4C17,71.8,17.2,71.7,17.4,71.4z"/>
		<path d="M82.5,73.7c0.2,0.2,0.4,0.4,0.3,0.5c0,0.1-0.2,0.2-0.4,0.4c-0.1-0.1-0.3-0.2-0.3-0.4C82.2,74,82.4,73.9,82.5,73.7z"/>
		<path d="M14.1,74.6c-0.2-0.2-0.3-0.4-0.3-0.5s0.2-0.2,0.4-0.4c0.1,0.1,0.3,0.2,0.3,0.4S14.3,74.4,14.1,74.6z"/>
		<path d="M128.8,74c-0.2,0.2-0.4,0.4-0.5,0.4s-0.3-0.2-0.4-0.4c0.1-0.1,0.2-0.3,0.4-0.3C128.4,73.7,128.5,73.9,128.8,74z"/>
		<path d="M126.9,74.5c-0.2-0.2-0.3-0.4-0.3-0.5s0.2-0.2,0.4-0.3c0.1,0.1,0.3,0.3,0.3,0.4S127.1,74.3,126.9,74.5z"/>
		<path d="M101.7,73.5c0.2,0.2,0.3,0.4,0.3,0.5s-0.2,0.3-0.4,0.4c-0.1-0.1-0.3-0.2-0.3-0.4C101.3,73.9,101.5,73.8,101.7,73.5z"/>
		<path d="M61.1,74c-0.2,0.2-0.3,0.4-0.5,0.4c-0.1,0-0.3-0.2-0.4-0.3c0.1-0.1,0.2-0.3,0.4-0.4C60.7,73.7,60.8,73.9,61.1,74z"/>
		<path d="M41.4,73.5c0.2,0.2,0.3,0.4,0.3,0.5s-0.2,0.2-0.3,0.4c-0.1-0.1-0.3-0.2-0.4-0.4C41,73.9,41.2,73.8,41.4,73.5z"/>
		<path d="M40.4,74c-0.2,0.2-0.4,0.4-0.5,0.4s-0.3-0.2-0.4-0.3c0.1-0.1,0.2-0.3,0.4-0.3C40.1,73.7,40.2,73.9,40.4,74z"/>
		<path d="M32.8,74.1c-0.2,0.2-0.4,0.3-0.5,0.3s-0.2-0.2-0.4-0.4c0.1-0.1,0.3-0.3,0.4-0.3C32.5,73.7,32.6,73.9,32.8,74.1z"/>
		<path d="M74.5,74.5c-0.2-0.2-0.3-0.4-0.3-0.5s0.2-0.2,0.3-0.4c0.1,0.1,0.3,0.2,0.4,0.4C74.9,74.1,74.7,74.3,74.5,74.5z"/>
		<path d="M17,73.9c-0.2,0.2-0.4,0.3-0.5,0.3s-0.2-0.2-0.4-0.4c0.1-0.1,0.2-0.3,0.4-0.3C16.7,73.6,16.8,73.8,17,73.9z"/>
		<path d="M76,73.4c-0.2,0.2-0.4,0.4-0.5,0.3c-0.1,0-0.3-0.2-0.4-0.4c0.1-0.1,0.2-0.3,0.4-0.3C75.7,73.1,75.8,73.2,76,73.4z"/>
		<path d="M100.9,72.5c0.2,0.2,0.3,0.4,0.3,0.5s-0.2,0.2-0.3,0.4c-0.1-0.1-0.3-0.2-0.4-0.4C100.5,72.9,100.7,72.8,100.9,72.5z"/>
		<path d="M86.4,73.1c-0.2,0.2-0.4,0.3-0.5,0.3s-0.2-0.2-0.4-0.3c0.1-0.1,0.2-0.3,0.4-0.3C86,72.7,86.1,72.9,86.4,73.1z"/>
		<path d="M82.5,67.5c0.2,0.2,0.4,0.4,0.4,0.5s-0.2,0.3-0.3,0.4c-0.1-0.1-0.3-0.2-0.3-0.4C82.2,67.9,82.4,67.7,82.5,67.5z"/>
		<path d="M14.4,68.1c-0.2,0.2-0.4,0.3-0.5,0.3s-0.2-0.2-0.4-0.3c0.1-0.1,0.2-0.3,0.4-0.3C14,67.7,14.1,67.9,14.4,68.1z"/>
		<path d="M83.8,67.5c0.2,0.2,0.3,0.4,0.3,0.5s-0.2,0.2-0.3,0.4c-0.1-0.1-0.3-0.2-0.3-0.4C83.4,67.9,83.6,67.8,83.8,67.5z"/>
		<path d="M46.1,73.4c-0.2-0.2-0.4-0.4-0.3-0.5c0-0.1,0.2-0.2,0.4-0.4c0.1,0.1,0.3,0.2,0.3,0.4C46.5,73,46.3,73.1,46.1,73.4z"/>
		<path d="M23,68.1c-0.2,0.2-0.3,0.4-0.5,0.4c-0.1,0-0.3-0.2-0.4-0.3c0.1-0.1,0.2-0.3,0.4-0.4C22.6,67.8,22.8,68,23,68.1z"/>
		<path d="M12.7,72.8c-0.2,0.2-0.4,0.4-0.5,0.3c-0.1,0-0.3-0.2-0.4-0.4c0.1-0.1,0.2-0.3,0.4-0.3C12.3,72.5,12.4,72.7,12.7,72.8z"/>
		<path d="M29.7,68.7c-0.2-0.2-0.3-0.4-0.3-0.5s0.2-0.2,0.3-0.4c0.1,0.1,0.3,0.2,0.3,0.4C30.1,68.3,29.9,68.4,29.7,68.7z"/>
		<path d="M65,70.8c-0.2,0.1-0.4,0.3-0.5,0.3s-0.2-0.2-0.3-0.3c0.1-0.1,0.2-0.3,0.4-0.3C64.7,70.4,64.8,70.6,65,70.8z"/>
		<path d="M86.4,69.1c-0.2,0.1-0.4,0.3-0.5,0.3s-0.2-0.2-0.3-0.3c0.1-0.1,0.3-0.3,0.4-0.3C86,68.7,86.2,68.9,86.4,69.1z"/>
		<path d="M13.4,70.6C13.1,70.8,13,71,12.9,71s-0.2-0.2-0.4-0.4c0.1-0.1,0.2-0.3,0.4-0.3C13,70.3,13.2,70.5,13.4,70.6z"/>
		<path d="M136.2,68.7c0.2,0.2,0.3,0.4,0.3,0.5s-0.2,0.2-0.4,0.4c-0.1-0.1-0.3-0.3-0.3-0.4C135.9,69,136.1,68.9,136.2,68.7z"/>
		<path d="M76,70.5c-0.2,0.1-0.4,0.3-0.5,0.3s-0.2-0.2-0.3-0.4c0.1-0.1,0.3-0.3,0.4-0.3S75.8,70.3,76,70.5z"/>
		<path d="M30.2,69.3c-0.2,0.2-0.4,0.4-0.5,0.3c-0.1,0-0.2-0.2-0.4-0.4c0.1-0.1,0.2-0.3,0.4-0.3C29.9,69,30,69.2,30.2,69.3z"/>
		<path d="M39,69.3c-0.2,0.2-0.4,0.4-0.5,0.4s-0.3-0.2-0.4-0.3c0.1-0.1,0.2-0.3,0.4-0.3C38.6,69,38.7,69.2,39,69.3z"/>
		<path d="M46.7,69.3c-0.2,0.2-0.4,0.4-0.5,0.4s-0.3-0.2-0.4-0.3c0.1-0.1,0.2-0.3,0.4-0.3C46.3,69,46.4,69.2,46.7,69.3z"/>
		<path d="M67,69.8c-0.2-0.2-0.3-0.4-0.3-0.5s0.2-0.2,0.3-0.4c0.1,0.1,0.3,0.2,0.4,0.4C67.3,69.4,67.1,69.6,67,69.8z"/>
		<path d="M124.8,69.3c-0.2,0.2-0.4,0.4-0.5,0.4s-0.3-0.2-0.4-0.3c0.1-0.1,0.2-0.3,0.4-0.3C124.5,69,124.6,69.2,124.8,69.3z"/>
		<path d="M117,70.1c-0.2,0.2-0.4,0.4-0.5,0.4s-0.3-0.2-0.4-0.3c0.1-0.1,0.2-0.3,0.4-0.3C116.6,69.8,116.7,69.9,117,70.1z"/>
		<path d="M91.3,69.6c0.2,0.2,0.3,0.4,0.3,0.5s-0.2,0.2-0.4,0.4c-0.1-0.1-0.3-0.3-0.3-0.4S91.1,69.8,91.3,69.6z"/>
		<path d="M56,70.1c-0.2,0.2-0.4,0.4-0.5,0.3c-0.1,0-0.2-0.2-0.4-0.4c0.1-0.1,0.2-0.3,0.4-0.3C55.6,69.8,55.7,70,56,70.1z"/>
		<path d="M72.7,70c-0.2,0.2-0.4,0.3-0.5,0.3S72,70.1,71.8,70c0.1-0.1,0.3-0.3,0.4-0.3C72.3,69.6,72.5,69.8,72.7,70z"/>
		<path d="M80.2,69.9c-0.2,0.1-0.4,0.3-0.5,0.3s-0.2-0.3-0.3-0.4c0.1-0.1,0.3-0.3,0.4-0.3C79.9,69.5,80,69.7,80.2,69.9z"/>
		<path d="M101.7,69.1c0.2,0.2,0.4,0.4,0.3,0.5c0,0.1-0.2,0.2-0.4,0.4c-0.1-0.1-0.3-0.2-0.3-0.4C101.4,69.4,101.6,69.3,101.7,69.1z"
			/>
		<path d="M65.8,69.9c-0.2,0.2-0.4,0.3-0.5,0.3s-0.2-0.2-0.4-0.3c0.1-0.1,0.2-0.3,0.4-0.4C65.4,69.5,65.6,69.7,65.8,69.9z"/>
		<path d="M62.7,69.9c-0.2,0.1-0.4,0.3-0.5,0.3S62,70,61.8,69.9c0.1-0.1,0.2-0.3,0.4-0.3C62.3,69.5,62.4,69.7,62.7,69.9z"/>
		<path d="M98.6,68.2c-0.2,0.1-0.4,0.3-0.5,0.3s-0.2-0.2-0.3-0.4c0.1-0.1,0.3-0.3,0.4-0.3C98.3,67.8,98.4,68,98.6,68.2z"/>
		<path d="M97.5,71.7C97.3,71.8,97.2,72,97,72c-0.1,0-0.3-0.2-0.4-0.3c0.1-0.1,0.2-0.3,0.4-0.4C97.1,71.3,97.3,71.5,97.5,71.7z"/>
		<path d="M67.4,71.7C67.2,71.8,67,72,66.9,72s-0.2-0.2-0.3-0.3c0.1-0.1,0.2-0.3,0.4-0.3C67.1,71.3,67.2,71.5,67.4,71.7z"/>
		<path d="M64.2,71.6C64,71.8,63.8,72,63.7,72s-0.2-0.2-0.4-0.4c0.1-0.1,0.3-0.3,0.4-0.3C63.9,71.3,64,71.5,64.2,71.6z"/>
		<path d="M60.5,72.2c-0.2-0.2-0.3-0.4-0.3-0.5s0.2-0.2,0.3-0.4c0.1,0.1,0.3,0.3,0.3,0.4C60.9,71.8,60.7,72,60.5,72.2z"/>
		<path d="M46.7,71.7c-0.2,0.2-0.4,0.3-0.5,0.3s-0.3-0.2-0.4-0.3c0.1-0.1,0.2-0.3,0.4-0.4C46.3,71.3,46.4,71.5,46.7,71.7z"/>
		<path d="M39,71.7c-0.2,0.2-0.3,0.3-0.5,0.3c-0.1,0-0.3-0.2-0.4-0.3c0.1-0.1,0.2-0.3,0.4-0.4C38.6,71.3,38.7,71.5,39,71.7z"/>
		<path d="M29.8,71.2c0.2,0.2,0.3,0.4,0.3,0.5s-0.2,0.2-0.4,0.4c-0.1-0.1-0.3-0.3-0.3-0.4C29.4,71.5,29.6,71.4,29.8,71.2z"/>
		<path d="M109.1,68.1c-0.2,0.2-0.4,0.4-0.5,0.4s-0.3-0.2-0.4-0.3c0.1-0.1,0.2-0.3,0.4-0.4C108.7,67.8,108.8,68,109.1,68.1z"/>
		<path d="M111.4,68.2c-0.2,0.1-0.4,0.3-0.5,0.3s-0.2-0.2-0.3-0.4c0.1-0.1,0.3-0.3,0.4-0.3C111.1,67.8,111.2,68,111.4,68.2z"/>
		<path d="M15.2,70.6c0.2,0.2,0.3,0.4,0.3,0.5s-0.2,0.2-0.3,0.4c-0.1-0.1-0.3-0.2-0.3-0.4C14.9,71,15.1,70.8,15.2,70.6z"/>
		<path d="M136.6,68.2c0.2-0.2,0.4-0.4,0.5-0.4s0.3,0.2,0.4,0.3c-0.1,0.1-0.2,0.3-0.4,0.3C137,68.5,136.9,68.3,136.6,68.2z"/>
		<path d="M66.1,69.5c-0.1-0.2-0.3-0.4-0.3-0.5s0.2-0.2,0.3-0.3c0.1,0.1,0.3,0.2,0.3,0.4C66.5,69.2,66.3,69.3,66.1,69.5z"/>
		<path d="M16.2,67.7c0.2,0.2,0.4,0.4,0.4,0.5s-0.2,0.3-0.3,0.4c-0.1-0.1-0.3-0.2-0.3-0.3C15.9,68.1,16.1,68,16.2,67.7z"/>
		<path d="M31,71.6c-0.2-0.2-0.3-0.4-0.3-0.5s0.2-0.3,0.3-0.4c0.1,0.1,0.3,0.2,0.4,0.4C31.4,71.2,31.2,71.4,31,71.6z"/>
		<path d="M17.8,68.9c-0.2,0.2-0.3,0.4-0.5,0.3c-0.1,0-0.3-0.2-0.4-0.3c0.1-0.1,0.2-0.3,0.4-0.4C17.4,68.5,17.5,68.7,17.8,68.9z"/>
		<path d="M55.4,71.1c-0.2,0.1-0.4,0.3-0.5,0.3s-0.2-0.2-0.3-0.3c0.1-0.1,0.2-0.3,0.4-0.3C55.1,70.7,55.2,71,55.4,71.1z"/>
		<path d="M101.3,69.1c-0.2-0.2-0.3-0.4-0.3-0.5s0.2-0.2,0.3-0.4c0.1,0.1,0.3,0.2,0.3,0.4C101.7,68.7,101.5,68.8,101.3,69.1z"/>
		<path d="M12.8,68c0.2,0.2,0.3,0.4,0.3,0.5s-0.2,0.2-0.4,0.4c-0.1-0.1-0.3-0.3-0.3-0.4C12.4,68.4,12.6,68.2,12.8,68z"/>
		<path d="M81.3,73.4c0.2,0.2,0.4,0.4,0.4,0.5s-0.2,0.3-0.3,0.4c-0.1-0.1-0.3-0.2-0.3-0.4C81,73.8,81.2,73.7,81.3,73.4z"/>
		<path d="M71.8,53.7c-0.2,0.1-0.3,0.3-0.4,0.3s-0.2-0.2-0.3-0.3c0.1-0.1,0.2-0.3,0.4-0.3C71.5,53.3,71.6,53.5,71.8,53.7z"/>
		<path d="M71.8,56c-0.2,0.2-0.3,0.3-0.4,0.3S71.2,56.1,71,56c0.1-0.1,0.2-0.3,0.3-0.4C71.4,55.7,71.6,55.9,71.8,56z"/>
		<path d="M77.7,60c-0.2,0.2-0.3,0.3-0.4,0.3s-0.2-0.2-0.4-0.3c0.1-0.1,0.2-0.3,0.3-0.3S77.5,59.9,77.7,60z"/>
		<path d="M75.7,61.4c-0.2,0.1-0.3,0.3-0.4,0.3s-0.2-0.2-0.3-0.3c0.1-0.1,0.2-0.3,0.4-0.3C75.4,61.1,75.5,61.3,75.7,61.4z"/>
		<path d="M79.5,52.4c0.1,0.2,0.3,0.3,0.3,0.4c0,0.1-0.2,0.2-0.3,0.3c-0.1-0.1-0.3-0.2-0.3-0.3C79.2,52.7,79.3,52.6,79.5,52.4z"/>
		<path d="M80.6,53.7c-0.2-0.2-0.3-0.3-0.3-0.4c0-0.1,0.2-0.2,0.3-0.4c0.1,0.1,0.3,0.2,0.3,0.3C80.9,53.4,80.7,53.5,80.6,53.7z"/>
		<path d="M76.3,61.2c-0.2-0.2-0.4-0.3-0.3-0.4c0-0.1,0.2-0.2,0.3-0.4c0.1,0.1,0.3,0.2,0.3,0.3C76.6,60.8,76.4,61,76.3,61.2z"/>
		<path d="M77.4,54.3C77.2,54.1,77,54,77,53.9c0-0.1,0.2-0.3,0.3-0.4c0.1,0.1,0.3,0.2,0.3,0.3C77.7,53.9,77.5,54.1,77.4,54.3z"/>
		<path d="M71.7,54.8c-0.2,0.2-0.3,0.3-0.4,0.3s-0.2-0.2-0.4-0.3c0.1-0.1,0.2-0.3,0.3-0.3C71.4,54.5,71.5,54.7,71.7,54.8z"/>
		<path d="M72.9,59.5c-0.2,0.2-0.3,0.3-0.4,0.3s-0.2-0.2-0.4-0.3c0.1-0.1,0.2-0.3,0.3-0.3C72.6,59.2,72.7,59.4,72.9,59.5z"/>
		<path d="M79.1,59c-0.1-0.2-0.3-0.3-0.3-0.4c0-0.1,0.2-0.2,0.3-0.3c0.1,0.1,0.3,0.2,0.3,0.4C79.5,58.7,79.3,58.8,79.1,59z"/>
		<path d="M72,58.8c-0.2-0.2-0.3-0.3-0.3-0.4c0-0.1,0.2-0.2,0.3-0.3c0.1,0.1,0.3,0.2,0.3,0.3C72.3,58.5,72.1,58.7,72,58.8z"/>
		<path d="M76,53.8c-0.2,0.1-0.3,0.3-0.4,0.3s-0.2-0.2-0.3-0.3c0.1-0.1,0.2-0.3,0.3-0.3C75.7,53.5,75.8,53.6,76,53.8z"/>
		<path d="M76.6,54.4c0.1,0.2,0.3,0.3,0.3,0.4c0,0.1-0.2,0.2-0.3,0.3c-0.1-0.1-0.3-0.2-0.3-0.3C76.3,54.7,76.5,54.6,76.6,54.4z"/>
		<path d="M74.2,61.6c0.2,0.2,0.3,0.3,0.3,0.4c0,0.1-0.2,0.2-0.3,0.3c-0.1-0.1-0.3-0.2-0.3-0.3C73.9,62,74.1,61.8,74.2,61.6z"/>
		<path d="M72,57.2c-0.2,0.2-0.3,0.3-0.4,0.3s-0.2-0.2-0.4-0.3c0.1-0.1,0.2-0.3,0.3-0.3C71.7,56.9,71.8,57.1,72,57.2z"/>
		<path d="M73.6,50.7c0.2,0.2,0.3,0.3,0.3,0.4c0,0.1-0.2,0.2-0.3,0.4c-0.1-0.1-0.3-0.2-0.3-0.3C73.2,51,73.4,50.9,73.6,50.7z"/>
		<path d="M72,51.6c0.2-0.2,0.3-0.3,0.4-0.3s0.2,0.2,0.4,0.3c-0.1,0.1-0.2,0.3-0.3,0.3C72.3,51.9,72.2,51.7,72,51.6z"/>
		<path d="M74.6,52c-0.1-0.2-0.3-0.3-0.3-0.4c0-0.1,0.2-0.2,0.3-0.3c0.1,0.1,0.3,0.2,0.3,0.4C75,51.7,74.8,51.8,74.6,52z"/>
		<path d="M80.4,57.7C80.2,57.8,80.1,58,80,58s-0.2-0.2-0.3-0.3c0.1-0.1,0.2-0.3,0.4-0.3C80.1,57.3,80.3,57.5,80.4,57.7z"/>
		<path d="M71.7,52.9c-0.1-0.2-0.3-0.3-0.3-0.4c0-0.1,0.2-0.2,0.3-0.3c0.1,0.1,0.3,0.2,0.3,0.3S71.8,52.7,71.7,52.9z"/>
		<path d="M75.7,55.4c0.1,0.2,0.3,0.3,0.3,0.4c0,0.1-0.2,0.2-0.4,0.3c-0.1-0.1-0.3-0.2-0.3-0.3C75.4,55.7,75.6,55.6,75.7,55.4z"/>
		<path d="M73.6,62.7c-0.2,0.1-0.3,0.3-0.4,0.3s-0.2-0.2-0.3-0.3c0.1-0.1,0.2-0.3,0.3-0.3S73.4,62.6,73.6,62.7z"/>
		<path d="M81.6,54.3c-0.2,0.1-0.3,0.3-0.4,0.3s-0.2-0.2-0.3-0.3c0.1-0.1,0.2-0.3,0.4-0.3C81.3,54,81.4,54.2,81.6,54.3z"/>
		<path d="M72.6,63.3c-0.2,0.1-0.3,0.3-0.4,0.3s-0.2-0.2-0.3-0.3c0.1-0.1,0.2-0.3,0.3-0.3C72.2,63,72.4,63.2,72.6,63.3z"/>
		<path d="M81.1,56.6c-0.2,0.1-0.3,0.3-0.4,0.3s-0.2-0.2-0.3-0.3c0.1-0.1,0.2-0.3,0.3-0.3S80.9,56.5,81.1,56.6z"/>
		<path d="M75.7,52.6c-0.2,0.1-0.4,0.3-0.4,0.3c-0.1,0-0.2-0.2-0.3-0.3c0.1-0.1,0.2-0.2,0.4-0.2C75.4,52.3,75.6,52.5,75.7,52.6z"/>
		<path d="M78.3,53.5c-0.1-0.2-0.3-0.3-0.3-0.4c0-0.1,0.2-0.2,0.3-0.3c0.1,0.1,0.3,0.2,0.3,0.3C78.6,53.2,78.4,53.4,78.3,53.5z"/>
		<path d="M78.2,58.9c0.2,0.2,0.3,0.3,0.3,0.4c0,0.1-0.2,0.2-0.3,0.3c-0.1-0.1-0.3-0.2-0.3-0.3C77.9,59.2,78.1,59.1,78.2,58.9z"/>
		<path d="M81.1,56c-0.1-0.2-0.3-0.3-0.3-0.4c0-0.1,0.2-0.2,0.3-0.3c0.1,0.1,0.3,0.2,0.3,0.4C81.4,55.6,81.2,55.8,81.1,56z"/>
		<path d="M76,54.8c-0.2,0.2-0.3,0.3-0.4,0.3s-0.2-0.2-0.4-0.3c0.1-0.1,0.2-0.3,0.3-0.3C75.7,54.5,75.8,54.6,76,54.8z"/>
	</g>
</g>
</svg>
