<?xml version="1.0" encoding="utf-8"?>
<!-- Generator: Adobe Illustrator 21.0.0, SVG Export Plug-In . SVG Version: 6.00 Build 0)  -->
<svg version="1.1" id="Layer_1" xmlns="http://www.w3.org/2000/svg" xmlns:xlink="http://www.w3.org/1999/xlink" x="0px" y="0px"
	 viewBox="0 0 150 125" style="enable-background:new 0 0 150 125;" xml:space="preserve">
<style type="text/css">
	.st0{fill:#6D6E71;}
</style>
<g>
	<path class="st0" d="M28.4,65.2c0.5,2,2,3.1,3.9,3.1c1.5,0,3.1-0.8,3.1-2.7c0-1.7-1-2-2.4-2.3c-3.4-0.7-5.3-1.4-5.3-3.9
		c0-2.1,2-3.9,5.3-3.9c0.8,0,2.6,0.2,3.4,0.7c0,1,0,2,0.1,2.9h-0.4c-0.2-1.8-2-2.5-3.4-2.5c-2.1,0-3.3,1.1-3.3,2.4
		c0,1.6,0.8,1.7,3.3,2.3c2.5,0.5,4.4,1.1,4.4,3.8c0,2.4-1.7,4.3-5.4,4.3c-1.2,0-2.5-0.2-3.7-1c0-1.1,0-2.2-0.1-3.3L28.4,65.2
		L28.4,65.2z"/>
	<path class="st0" d="M38.1,57.3c-0.2-0.7-0.5-1.2-1.2-1.4v-0.3c0.7,0,1.2,0.2,1.8,0.2c0.7,0,1.5-0.2,2.2-0.2v0.3
		c-0.4,0-1.1,0.2-1.1,0.6c0,0.2,0.1,0.6,0.2,1.1l2.9,9.2l0,0c0.7-2.2,1.9-6.1,1.9-6.5c0-0.4-0.9-3-1.1-3.4c-0.2-0.7-0.8-0.8-1.6-1
		v-0.3c0.9,0,1.9,0.2,2.8,0.2c0.7,0,1.3-0.2,1.9-0.2v0.3c-0.8,0-1.1,0.3-1.1,0.7c0,0.2,0.1,0.6,0.2,1.2l2.8,9.1l0,0l2.5-8.8
		c0.2-0.6,0.2-1.1,0.2-1.3c0-0.5-0.2-0.7-1.2-0.9v-0.3c0.7,0,1.2,0.2,1.9,0.2c0.6,0,1.1-0.2,1.6-0.2v0.3c-0.7,0.2-0.9,0.5-1.1,1.5
		l-3.4,11.9h-1.5l-2.2-7.6l0,0l-2.1,7.6h-1.4L38.1,57.3L38.1,57.3z"/>
	<path class="st0" d="M58.4,63l-1.7-5.2l0,0L54.9,63H58.4L58.4,63z M50.8,68.9c0.7,0,0.9-0.2,1.2-1.4l3.6-10.3
		c0.1-0.2,0.1-0.4,0.1-0.7c0-0.5-0.2-0.6-0.7-0.7v-0.3c0.5,0.1,1,0.2,1.6,0.2c0.3,0,0.7-0.1,1.1-0.2c0.1,0.6,0.3,1.3,0.7,2.3
		l3.4,9.3c0.5,1.4,0.7,1.6,1.3,1.7v0.4c-0.5,0-1-0.2-1.6-0.2c-0.8,0-1.6,0.2-2.4,0.2v-0.3c0.7-0.1,0.9-0.2,0.9-0.7s-0.1-0.7-0.6-1.9
		l-0.8-2.3h-4.3l-1,2.9c-0.2,0.6-0.3,1.1-0.3,1.4c0,0.3,0.2,0.5,1.1,0.5v0.3c-0.5,0-1.1-0.2-1.6-0.2c-0.6,0-1.2,0.2-1.8,0.2v-0.3
		H50.8z"/>
	<path class="st0" d="M64.2,56.9c0-0.6-0.2-0.7-1-0.9v-0.3h5.8c2.7,0,3.6,1.5,3.6,3.2c0,2.1-1.7,3.4-3.7,3.6l3.7,5
		c0.6,0.8,1.1,1.3,1.7,1.4v0.4c-0.3,0-0.7-0.2-1.1-0.2c-0.5,0-1.1,0.2-1.6,0.2c-0.2-0.1-0.4-0.4-2-2.8l-2.6-3.7
		c-0.2-0.3-0.4-0.5-0.4-0.6c0-0.2,0.2-0.2,0.4-0.2c2,0,3.5-0.9,3.5-2.8c0-2-1.7-2.3-3.4-2.3h-1.1V68c0,0.6,0.2,0.7,1,0.9v0.3
		c-0.4,0-1.2-0.2-2-0.2c-0.7,0-1.6,0.2-2,0.2v-0.3c0.8-0.2,1-0.3,1-0.9V56.9H64.2z"/>
	<path class="st0" d="M80.2,68c2.1,0,4.2-1.6,4.2-5c0-3.7-2.4-6.2-5-6.2c-1.5,0-4.2,1.2-4.2,5.1C75.3,64.9,77.1,68,80.2,68L80.2,68z
		 M80,55.4c4.4,0,6.2,3.8,6.2,6.9c0,3.6-2.5,7.2-6.5,7.2s-6.3-3.2-6.3-7C73.4,58.4,76.9,55.4,80,55.4L80,55.4z"/>
	<path class="st0" d="M85.2,55.6c0.8,0,1.6,0.2,2.5,0.2c0.6,0,1.1-0.2,1.7-0.2v0.3c-0.7,0-1,0.2-1,0.6c0,0.2,0.2,0.7,0.2,0.9
		l3.1,9.4l0,0l2.9-9.1c0.2-0.5,0.2-0.9,0.2-1.1c0-0.4-0.6-0.6-1-0.7v-0.3c0.6,0,1.2,0.2,1.8,0.2c0.5,0,1-0.2,1.5-0.2v0.3
		c-0.7,0.1-1,0.5-1.2,1.1l-3.8,12.2h-1.3l-4.4-12.4c-0.2-0.5-0.3-0.9-1.2-1V55.6L85.2,55.6z"/>
	<path class="st0" d="M97.4,65.2c0.5,2,2,3.1,3.9,3.1c1.5,0,3.1-0.8,3.1-2.7c0-1.7-1-2-2.4-2.3c-3.4-0.7-5.3-1.4-5.3-3.9
		c0-2.1,2-3.9,5.3-3.9c0.8,0,2.6,0.2,3.4,0.7c0,1,0,2,0.1,2.9h-0.4c-0.2-1.8-2-2.5-3.4-2.5c-2.1,0-3.3,1.1-3.3,2.4
		c0,1.6,0.8,1.7,3.3,2.3c2.5,0.5,4.4,1.1,4.4,3.8c0,2.4-1.7,4.3-5.4,4.3c-1.2,0-2.5-0.2-3.7-1c0-1.1,0-2.2-0.1-3.3L97.4,65.2
		L97.4,65.2z"/>
	<path class="st0" d="M111.3,61.8c0.8,0.9,1.6,1.6,2.5,2.6l3.1,3.8c0.4,0.5,0.7,0.7,1.3,0.8v0.2c-0.6-0.1-1.1-0.2-1.6-0.2
		c-0.5,0-1,0.1-1.2,0.2l-2.4-2.9c-1.1-1.4-2.4-2.6-3.7-3.8v5.6c0,0.6,0.2,0.7,1.1,0.9v0.2c-0.4,0-1.2-0.2-2-0.2
		c-0.7,0-1.6,0.2-2,0.2v-0.3c0.8-0.2,1-0.3,1-0.9V56.8c0-0.6-0.2-0.7-1-0.9v-0.3c0.4,0,1.2,0.2,2,0.2c0.7,0,1.6-0.2,2-0.2v0.3
		c-0.8,0.2-1.1,0.3-1.1,0.9v5.3l0,0l4.3-4.8c0.6-0.6,0.7-0.8,0.7-1c0-0.2-0.2-0.4-0.9-0.4v-0.3c0.7,0,1.5,0.2,2.2,0.2
		c0.6,0,1.1-0.2,1.8-0.2v0.3c-0.8,0.2-1.1,0.3-1.5,0.8L111.3,61.8L111.3,61.8z"/>
	<path class="st0" d="M118.2,68.9c0.8-0.2,1-0.3,1-0.9V56.8c0-0.6-0.2-0.7-1-0.9v-0.3c0.4,0,1.2,0.2,2,0.2c0.7,0,1.6-0.2,2-0.2v0.3
		c-0.8,0.2-1,0.3-1,0.9v11.3c0,0.6,0.2,0.7,1,0.9v0.2c-0.4,0-1.2-0.2-2-0.2s-1.6,0.2-2,0.2V68.9L118.2,68.9z"/>
</g>
</svg>
