<?xml version="1.0" encoding="utf-8"?>
<!-- Generator: Adobe Illustrator 21.0.0, SVG Export Plug-In . SVG Version: 6.00 Build 0)  -->
<svg version="1.1" id="Layer_1" xmlns="http://www.w3.org/2000/svg" xmlns:xlink="http://www.w3.org/1999/xlink" x="0px" y="0px"
	 viewBox="0 0 150 125" style="enable-background:new 0 0 150 125;" xml:space="preserve">
<g>
	<path d="M90.2,57.6c2.7,0,4.6,2.1,4.6,4.9c0,2.7-1.9,4.9-4.6,4.9c-2.7,0-4.6-2.1-4.6-4.9S87.4,57.6,90.2,57.6 M90.2,69.6
		c4.3,0,7.2-3.1,7.2-7.1s-2.9-7.1-7.2-7.1c-4.1,0-7.2,3.1-7.2,7.1S86.1,69.6,90.2,69.6 M45.9,57.6c2.7,0,4.6,2.1,4.6,4.9
		c0,2.7-1.9,4.9-4.6,4.9c-2.7,0-4.6-2.1-4.6-4.9S43.2,57.6,45.9,57.6 M45.9,69.6c4.3,0,7.2-3.1,7.2-7.1s-2.9-7.1-7.2-7.1
		c-4.1,0-7.2,3.1-7.2,7.1S41.8,69.6,45.9,69.6 M61.3,69.3l3.7-9.8v9.8h2.4V55.7H64l-3.3,8.8l-3.3-8.8H54v13.6h2.4v-9.7l3.7,9.7
		L61.3,69.3L61.3,69.3z M115.1,57.9c2.9,0,4.7,2,4.7,4.6c0,2.7-1.8,4.6-4.7,4.6h-2.7v-9.3H115.1 M115.1,69.3c4.5,0,7.2-3,7.2-6.8
		c0-4-2.8-6.8-7.2-6.8H110v13.6H115.1 M103.8,57.9c1.8,0,2.9,0.5,2.9,1.9c0,1.3-1.1,2.1-2.9,2.1h-3.2v-4L103.8,57.9 M109.8,69.3
		l-3.7-5.7c1.7-0.4,3-1.6,3-3.9c0-2.6-1.7-4-4.9-4h-6v13.6h2.4v-5.3h3l3.3,5.3H109.8L109.8,69.3z M82.9,55.7H72.8v13.6h2.4V64h7.2
		v-2.2h-7.2v-4h7.8V55.7L82.9,55.7z M34.7,69.3h-2.4V57.9h-4.7v-2.2h11.6v2.2h-4.6V69.3L34.7,69.3z"/>
</g>
</svg>
