<?xml version="1.0" encoding="utf-8"?>
<!-- Generator: Adobe Illustrator 21.0.0, SVG Export Plug-In . SVG Version: 6.00 Build 0)  -->
<svg version="1.1" id="Layer_1" xmlns="http://www.w3.org/2000/svg" xmlns:xlink="http://www.w3.org/1999/xlink" x="0px" y="0px"
	 viewBox="0 0 150 125" style="enable-background:new 0 0 150 125;" xml:space="preserve">
<g>
	<path d="M94.9,56.1c3.6,0,6,2.8,6,6.4c0,3.6-2.5,6.4-6,6.4c-3.5,0-6-2.8-6-6.4C88.9,58.9,91.3,56.1,94.9,56.1 M94.9,71.8
		c5.6,0,9.4-4.1,9.4-9.3c0-5.2-3.8-9.3-9.4-9.3c-5.4,0-9.4,4.1-9.4,9.3C85.5,67.7,89.5,71.8,94.9,71.8 M36.7,56.1c3.6,0,6,2.8,6,6.4
		c0,3.6-2.5,6.4-6,6.4c-3.6,0-6-2.8-6-6.4C30.7,58.9,33.1,56.1,36.7,56.1 M36.7,71.8c5.6,0,9.4-4.1,9.4-9.3c0-5.2-3.8-9.3-9.4-9.3
		c-5.4,0-9.4,4.1-9.4,9.3C27.3,67.7,31.3,71.8,36.7,71.8 M56.9,71.5l4.9-12.9v12.9h3.1V53.5h-4.4l-4.4,11.5l-4.3-11.5h-4.4v17.9h3.1
		V58.6l4.8,12.8H56.9L56.9,71.5z M127.7,56.4c3.8,0,6.2,2.6,6.2,6.1c0,3.6-2.3,6.1-6.2,6.1h-3.6V56.4H127.7 M127.7,71.5
		c5.9,0,9.5-3.9,9.5-9c0-5.2-3.7-8.9-9.5-8.9h-6.7v17.9H127.7 M112.8,56.4c2.3,0,3.8,0.6,3.8,2.5c0,1.7-1.4,2.7-3.8,2.7h-4.2v-5.3
		H112.8 M120.7,71.5l-4.8-7.5c2.2-0.5,3.9-2.1,3.9-5.1c0-3.4-2.2-5.3-6.4-5.3h-7.9v17.9h3.1v-6.9h3.9l4.4,6.9H120.7L120.7,71.5z
		 M85.3,53.5H72v17.9h3.1v-6.9h9.5v-2.9h-9.5v-5.3h10.2V53.5L85.3,53.5z M22,71.5h-3.1v-15h-6.2v-2.9h15.3v2.9h-6V71.5L22,71.5z"/>
</g>
</svg>
