<?xml version="1.0" encoding="utf-8"?>
<!-- Generator: Adobe Illustrator 21.0.0, SVG Export Plug-In . SVG Version: 6.00 Build 0)  -->
<svg version="1.1" id="Layer_1" xmlns="http://www.w3.org/2000/svg" xmlns:xlink="http://www.w3.org/1999/xlink" x="0px" y="0px"
	 viewBox="0 0 150 125" style="enable-background:new 0 0 150 125;" xml:space="preserve">
<style type="text/css">
	.st0{fill:#FFFFFF;}
</style>
<g>
	<g>
		<path d="M66.6,39.5c-4.6,0.7-4.4,4.1-4.9,7.2c-1.1,7.9-2.2,15.7-3.2,23.6c-0.1,0.7,0,1.3,0,2.7c2.2-0.9,4.1-1.6,5.9-2.3
			c0.5-0.2,1-0.6,1.5-0.9c4.1-2.4,6.7-5.5,6.8-10.7c0.2-5.4,1.3-10.7,2-16.1c0.5-4.1,0.4-4.3-3.4-5c-0.1-0.3-0.1-0.5-0.2-0.8
			c4.9-1.2,9.8-2.5,14.8-3.7c0,0.5,0.1,0.7,0.1,0.7c-6,3.4-3.7,9.6-5.6,15.1c2.9-2.3,5.2-4,7.4-5.8c0.1,0.1,0.2,0.3,0.3,0.4
			c-2.6,3.3-5.9,6.2-7.5,9.9c-1.6,3.8-1.5,8.4-2.4,13.6c2.1-1.1,3.5-1.6,4.5-2.5C91.5,57,96.2,47,98.3,35.6c0.4-2.2-0.7-3.1-2.9-2.7
			c-1.3,0.2-2.6,0.4-3.9,0.6c-0.1-0.4-0.2-0.7-0.3-1.1c5.7-1.4,11.5-2.8,17.2-4.2c0.1,0.3,0.2,0.7,0.3,1c-0.9,0.3-1.8,0.8-2.8,0.9
			c-3.4,0.7-4.8,2.9-5.8,6.2c-2.3,7.6-4.6,15.2-7.8,22.4c-3,6.7-7.9,12.2-14.8,15.4c-2.1,1-4.5,1.4-7.3,2.2c0.4-3.4,0.7-6,1.1-9.3
			C65,73.3,59.2,79,50.2,81c0.7-5.2,1.2-9.9,1.9-14.6c0.8-5.7,1.6-11.5,2.4-17.2c0.7-5.4,0.2-5.9-5.2-5.3c-0.4,0-0.9,0-1.3-0.1
			c-0.1-0.3-0.1-0.6-0.2-1c6-1.5,12-2.9,17.9-4.4C66.1,38.7,66.3,39.1,66.6,39.5z"/>
		<path d="M50.3,99.1c0-3.5,0-5.9,0-9.1c1.7,0.5,3.9,0.6,4.3,1.5c0.9,1.8,1.3,4.2,0.8,6C55.2,98.3,52.4,98.5,50.3,99.1z M52.1,94.7
			c-0.3,0.3-0.6,0.6-0.9,1c0.6,0.7,1,1.6,1.7,1.9c0.4,0.2,1.2-0.8,1.9-1.2C53.8,95.9,52.9,95.3,52.1,94.7z"/>
		<path d="M94.3,99c-1.1-2.5-1.9-4.4-2.9-6.7c-1,2.2-1.9,4.1-3.1,6.6C87,95.8,86,93.3,85,90.8c0.3-0.1,0.5-0.3,0.8-0.4
			c0.8,1.6,1.6,3.2,2.6,5.4c1-2,1.8-3.7,3-6.2c1.1,2.4,1.9,4.1,2.9,6.2c0.9-2,1.7-3.7,2.5-5.4c0.3,0.1,0.6,0.2,0.8,0.4
			C96.6,93.3,95.5,95.8,94.3,99z"/>
		<path d="M40.8,90.7c-1,2.6-2.1,5.1-3.3,8.2c-1.1-2.4-1.9-4.3-3-6.7c-1,2.3-1.8,4.1-3,6.6c-1.3-3.1-2.4-5.6-3.4-8.2
			c0.3-0.1,0.5-0.3,0.8-0.4c0.8,1.7,1.6,3.3,2.7,5.5c0.9-2.1,1.7-3.8,2.9-6.3c1.2,2.4,2,4.1,3,6.3c0.9-2.1,1.7-3.7,2.5-5.4
			C40.2,90.5,40.5,90.6,40.8,90.7z"/>
		<path d="M121.4,98.9c-0.9-1.5-1.8-2.9-2.6-4.4c-0.3,0.2-0.6,0.5-1,0.7c-0.2,1.1-0.4,2.1-0.6,3.2c-0.2,0-0.3,0-0.5,0
			c0-2.5,0-5.1,0-7.6c3.8-0.9,4.4-0.2,3.9,3.7c-0.1,1.2,1,2.5,1.6,3.8C121.9,98.5,121.7,98.7,121.4,98.9z"/>
		<path d="M110.2,89.5c1.6,3.5,2.7,6,4,9c-1.7-0.9-2.9-2-4.1-2c-1.1,0-2.3,1.1-3.9,2C107.5,95.6,108.6,92.9,110.2,89.5z"/>
		<path d="M66.4,94.5c-0.8,0.6-1.7,1.2-2.6,1.8c1,0.7,2.1,1.4,3,2c-1.1,0-2.5,0-4.1,0c0-2.6,0-5.1,0-7.7c1.6,0,3,0,4.9,0
			c-1.6,0.8-2.7,1.4-3.8,1.9C64.9,93.3,65.9,94.1,66.4,94.5z"/>
		<path d="M43.2,90.6c1.6,0,3,0,4.3,0c0,0.2,0,0.4,0.1,0.6c-1,0.1-1.9,0.3-2.9,0.4c-0.5,2-0.5,2,3.1,3.2C46.9,94.9,46.5,95,46,95
			c-0.5,0.1-1,0.1-1.5,0.1c-1.5,3.5,1.8,2.2,3.6,3.3c-2.1,0-3.5,0-5.1,0C43.2,95.9,43.2,93.4,43.2,90.6z"/>
		<path d="M104.2,91.3c-1,0.1-1.9,0.2-2.9,0.3c-1.5,3.5,1.9,2,2.9,2.8c-1.1,0.7-2.2,1.4-3.3,2.1c1.1,0.7,2.1,1.3,3.1,2
			c-1.1,0-2.5,0-4.3,0c0-2.3-0.4-4.6,0.1-6.7C100.5,89,102.7,90.7,104.2,91.3z"/>
		<path d="M78.7,90.6c1.5,0,2.9,0,4.2,0c0,0.2,0,0.4,0,0.5c-1,0.1-2,0.3-2.9,0.4c-0.4,2.1-0.4,2.1,3,3.2c-0.9,0.1-1.9,0-2.6,0.4
			c-0.5,0.3-0.6,1.3-1,2.3c1.4,0.2,2.4,0.4,3.5,0.6c0,0.1,0,0.3,0,0.4c-1.3,0-2.6,0-4.1,0C78.7,95.9,78.7,93.4,78.7,90.6z"/>
		<path d="M73,93.2c0.8-1.2,1.5-2.1,2.2-3c0.1,0.1,0.3,0.3,0.4,0.4c-1,2.6-2,5.1-2.8,7.3c-0.8-2.1-1.8-4.7-3-7.7
			C70.9,91.1,71.8,92,73,93.2z"/>
		<path class="st0" d="M52.1,94.7c0.9,0.6,1.8,1.1,2.7,1.7c-0.6,0.4-1.5,1.4-1.9,1.2c-0.7-0.3-1.1-1.2-1.7-1.9
			C51.4,95.4,51.7,95.1,52.1,94.7z"/>
	</g>
</g>
</svg>
