<?xml version="1.0" encoding="utf-8"?>
<!-- Generator: Adobe Illustrator 21.0.0, SVG Export Plug-In . SVG Version: 6.00 Build 0)  -->
<svg version="1.1" id="Layer_1" xmlns="http://www.w3.org/2000/svg" xmlns:xlink="http://www.w3.org/1999/xlink" x="0px" y="0px"
	 viewBox="0 0 150 125" style="enable-background:new 0 0 150 125;" xml:space="preserve">
<style type="text/css">
	.st0{fill:#FFFFFF;}
</style>
<g>
	<g>
		<path d="M50.1,67.4c0-3.5,0-5.9,0-9.1c1.7,0.5,3.9,0.6,4.3,1.5c0.9,1.8,1.3,4.2,0.8,6C55,66.6,52.2,66.8,50.1,67.4z M51.9,63
			c-0.3,0.3-0.6,0.6-0.9,1c0.6,0.7,1,1.6,1.7,1.9c0.4,0.2,1.2-0.8,1.9-1.2C53.6,64.2,52.8,63.6,51.9,63z"/>
		<path d="M94.2,67.2c-1.1-2.5-1.9-4.4-2.9-6.7c-1,2.2-1.9,4.1-3.1,6.6c-1.3-3.1-2.3-5.6-3.3-8.1c0.3-0.1,0.5-0.3,0.8-0.4
			c0.8,1.6,1.6,3.2,2.6,5.4c1-2,1.8-3.7,3-6.2c1.1,2.4,1.9,4.1,2.9,6.2c0.9-2,1.7-3.7,2.5-5.4c0.3,0.1,0.6,0.2,0.8,0.4
			C96.4,61.6,95.3,64.1,94.2,67.2z"/>
		<path d="M40.6,59c-1,2.6-2.1,5.1-3.3,8.2c-1.1-2.4-1.9-4.3-3-6.7c-1,2.3-1.8,4.1-3,6.6c-1.3-3.1-2.4-5.6-3.4-8.2
			c0.3-0.1,0.5-0.3,0.8-0.4c0.8,1.7,1.6,3.3,2.7,5.5c0.9-2.1,1.7-3.8,2.9-6.3c1.2,2.4,2,4.1,3,6.3c0.9-2.1,1.7-3.7,2.5-5.4
			C40,58.8,40.3,58.9,40.6,59z"/>
		<path d="M121.2,67.2c-0.9-1.5-1.8-2.9-2.6-4.4c-0.3,0.2-0.6,0.5-1,0.7c-0.2,1.1-0.4,2.1-0.6,3.2c-0.2,0-0.3,0-0.5,0
			c0-2.5,0-5.1,0-7.6c3.8-0.9,4.4-0.2,3.9,3.7c-0.1,1.2,1,2.5,1.6,3.8C121.8,66.8,121.5,66.9,121.2,67.2z"/>
		<path d="M110,57.8c1.6,3.5,2.7,6,4,9c-1.7-0.9-2.9-2-4.1-2c-1.1,0-2.3,1.1-3.9,2C107.3,63.9,108.4,61.2,110,57.8z"/>
		<path d="M66.2,62.8c-0.8,0.6-1.7,1.2-2.6,1.8c1,0.7,2.1,1.4,3,2c-1.1,0-2.5,0-4.1,0c0-2.6,0-5.1,0-7.7c1.6,0,3,0,4.9,0
			c-1.6,0.8-2.7,1.4-3.8,1.9C64.8,61.6,65.8,62.4,66.2,62.8z"/>
		<path d="M43,58.9c1.6,0,3,0,4.3,0c0,0.2,0,0.4,0.1,0.6c-1,0.1-1.9,0.3-2.9,0.4c-0.5,2-0.5,2,3.1,3.2c-0.9,0.1-1.3,0.2-1.8,0.2
			c-0.5,0.1-1,0.1-1.5,0.1c-1.5,3.5,1.8,2.2,3.6,3.3c-2.1,0-3.5,0-5.1,0C43,64.2,43,61.7,43,58.9z"/>
		<path d="M104,59.6c-1,0.1-1.9,0.2-2.9,0.3c-1.5,3.5,1.9,2,2.9,2.8c-1.1,0.7-2.2,1.4-3.3,2.1c1.1,0.7,2.1,1.3,3.1,2
			c-1.1,0-2.5,0-4.3,0c0-2.3-0.4-4.6,0.1-6.7C100.3,57.3,102.5,59,104,59.6z"/>
		<path d="M78.5,58.9c1.5,0,2.9,0,4.2,0c0,0.2,0,0.4,0,0.5c-1,0.1-2,0.3-2.9,0.4c-0.4,2.1-0.4,2.1,3,3.2c-0.9,0.1-1.9,0-2.6,0.4
			c-0.5,0.3-0.6,1.3-1,2.3c1.4,0.2,2.4,0.4,3.5,0.6c0,0.1,0,0.3,0,0.4c-1.3,0-2.6,0-4.1,0C78.5,64.2,78.5,61.7,78.5,58.9z"/>
		<path d="M72.8,61.5c0.8-1.2,1.5-2.1,2.2-3c0.1,0.1,0.3,0.3,0.4,0.4c-1,2.6-2,5.1-2.8,7.3c-0.8-2.1-1.8-4.7-3-7.7
			C70.8,59.4,71.7,60.3,72.8,61.5z"/>
		<path class="st0" d="M51.9,63c0.9,0.6,1.8,1.1,2.7,1.7c-0.6,0.4-1.5,1.4-1.9,1.2c-0.7-0.3-1.1-1.2-1.7-1.9
			C51.2,63.7,51.5,63.4,51.9,63z"/>
	</g>
</g>
</svg>
