<svg width="33" height="32" viewBox="0 0 33 32" fill="none" xmlns="http://www.w3.org/2000/svg">
<g clip-path="url(#clip0)">
<path d="M16.5 32C25.6127 32 33 24.8366 33 16C33 7.16344 25.6127 0 16.5 0C7.3873 0 0 7.16344 0 16C0 24.8366 7.3873 32 16.5 32Z" fill="#F0F0F0"/>
<path d="M33 15.9999C33 9.12049 28.5223 3.2558 22.2391 0.995117V31.0048C28.5223 28.7441 33 22.8794 33 15.9999Z" fill="#D80027"/>
<path d="M0 15.9999C0 22.8794 4.47775 28.7441 10.7609 31.0047V0.995117C4.47775 3.25581 0 9.12049 0 15.9999Z" fill="#0052B4"/>
</g>
<defs>
<clipPath id="clip0">
<rect width="33" height="32" fill="white"/>
</clipPath>
</defs>
</svg>
