<svg width="32" height="32" viewBox="0 0 32 32" fill="none" xmlns="http://www.w3.org/2000/svg">
<path d="M0 16C0 14.0429 0.352063 12.1682 0.995188 10.4348L16 9.04354L31.0048 10.4348C31.6479 12.1682 32 14.0429 32 16C32 17.9572 31.6479 19.8319 31.0048 21.5652L16 22.9565L0.995188 21.5652C0.352063 19.8319 0 17.9572 0 16Z" fill="#FFDA44"/>
<path d="M31.0049 21.5652C28.7442 27.6579 22.8795 32 16.0001 32C9.12061 32 3.25593 27.6579 0.995239 21.5652H31.0049Z" fill="#D80027"/>
<path d="M0.995239 10.4348C3.25593 4.34206 9.12061 -9.53674e-07 16.0001 -9.53674e-07C22.8795 -9.53674e-07 28.7442 4.34206 31.0049 10.4348H0.995239Z" fill="#D80027"/>
</svg>
