<svg width="33" height="32" viewBox="0 0 33 32" fill="none" xmlns="http://www.w3.org/2000/svg">
<path d="M16.5 32C25.6127 32 33 24.8366 33 16C33 7.16344 25.6127 0 16.5 0C7.3873 0 0 7.16344 0 16C0 24.8366 7.3873 32 16.5 32Z" fill="#F0F0F0"/>
<path d="M3.41093 6.25879C2.11484 7.89398 1.13754 9.77866 0.568481 11.8261H9.15222L3.41093 6.25879Z" fill="#0052B4"/>
<path d="M32.4316 11.826C31.8626 9.77867 30.8852 7.89398 29.5892 6.25879L23.848 11.826H32.4316Z" fill="#0052B4"/>
<path d="M0.568481 20.1738C1.1376 22.2212 2.11491 24.1059 3.41093 25.741L9.15203 20.1738H0.568481Z" fill="#0052B4"/>
<path d="M26.5455 3.3074C24.8593 2.05059 22.9157 1.1029 20.8043 0.551025V8.87459L26.5455 3.3074Z" fill="#0052B4"/>
<path d="M6.45459 28.6924C8.14088 29.9492 10.0845 30.8969 12.1958 31.4487V23.1252L6.45459 28.6924Z" fill="#0052B4"/>
<path d="M12.1958 0.551025C10.0844 1.1029 8.14081 2.05059 6.45459 3.30734L12.1958 8.87453V0.551025Z" fill="#0052B4"/>
<path d="M20.8044 31.4487C22.9158 30.8969 24.8594 29.9492 26.5456 28.6924L20.8044 23.1252V31.4487Z" fill="#0052B4"/>
<path d="M23.848 20.1738L29.5892 25.7411C30.8852 24.106 31.8626 22.2212 32.4316 20.1738H23.848Z" fill="#0052B4"/>
<path d="M32.8603 13.9131H18.6523H18.6522V0.135438C17.9477 0.0465 17.2294 0 16.5 0C15.7705 0 15.0523 0.0465 14.3478 0.135438V13.9129V13.913H0.13967C0.0479531 14.5962 0 15.2927 0 16C0 16.7074 0.0479531 17.4038 0.13967 18.0869H14.3477H14.3478V31.8646C15.0523 31.9535 15.7705 32 16.5 32C17.2294 32 17.9477 31.9536 18.6522 31.8646V18.0871V18.087H32.8603C32.952 17.4038 33 16.7074 33 16C33 15.2927 32.952 14.5962 32.8603 13.9131Z" fill="#D80027"/>
<path d="M20.8043 20.1739L28.1672 27.3136C28.5058 26.9854 28.8289 26.6422 29.1371 26.2865L22.8334 20.1738H20.8043V20.1739Z" fill="#D80027"/>
<path d="M12.1956 20.1741H12.1954L4.83264 27.3138C5.17115 27.6421 5.52506 27.9554 5.89193 28.2543L12.1956 22.1415V20.1741Z" fill="#D80027"/>
<path d="M12.1957 11.8262V11.8261L4.83281 4.68628C4.49417 5.01453 4.17113 5.35772 3.86292 5.71347L10.1666 11.8262H12.1957V11.8262Z" fill="#D80027"/>
<path d="M20.8043 11.8262L28.1673 4.68629C27.8287 4.35791 27.4748 4.04466 27.108 3.74585L20.8043 9.85854V11.8262Z" fill="#D80027"/>
</svg>
