<?xml version="1.0" encoding="utf-8"?>
<!-- Generator: Adobe Illustrator 18.0.0, SVG Export Plug-In . SVG Version: 6.00 Build 0)  -->
<!DOCTYPE svg PUBLIC "-//W3C//DTD SVG 1.1//EN" "http://www.w3.org/Graphics/SVG/1.1/DTD/svg11.dtd">
<svg version="1.1" id="Ebene_1" xmlns="http://www.w3.org/2000/svg" xmlns:xlink="http://www.w3.org/1999/xlink" x="0px" y="0px"
	 viewBox="14.3 0 566.9 283.5" enable-background="new 14.3 0 566.9 283.5" xml:space="preserve">
<rect x="14.3" y="0" fill="#FFFFFF" width="566.9" height="283.5"/>
<g>
	<g>
		<path d="M80.1,210.4c-3.8,0-5.1-0.2-7.9-0.7l-1.2-0.2v-17.8h3.2c4,0,5.7-1.7,5.7-5.6V73.6h22.1v114.2
			C102.1,202.6,94.5,210.4,80.1,210.4"/>
	</g>
	<g>
		<path d="M188.4,183.3c-5.6,0-12.3-1.5-18.3-4.2l-0.9-0.4v-22.2l2.1,1.1c7.3,3.8,11.8,5.4,15.8,5.4c3.3,0,5.6-2,5.6-5.1v-0.3
			c0-3-0.9-5.2-9.3-13.5c-9.3-9.1-15.1-17.1-15.1-28.5v-0.3c0-15.2,10.3-25.1,26.2-25.1c5.5,0,9.8,0.7,14.8,2.4l1,0.3v22.3l-2.1-1.1
			c-4.3-2.3-8.7-3.6-12.5-3.6c-3.4,0-5.7,1.7-5.7,4.2v0.3c0,2.7,1.3,4.8,10,13.3c10.7,10.3,14.4,17.8,14.4,28.4v0.3
			C214.2,172.6,203.6,183.3,188.4,183.3"/>
	</g>
	<g>
		<path d="M127.8,183.3c-11.2,0-18.2-9.3-18.2-24.2V91.6h22.1v63.1c0,2.6,0.5,8.5,4.9,8.5c3.2,0,5.2-3.3,5.2-8.5V91.6h22.1v90.1
			h-22.1v-6.5C138.8,179.6,134.5,183.3,127.8,183.3"/>
	</g>
	<g>
		<path d="M238.8,182.8c-12.8,0-19.4-5.9-19.4-17.6v-55.2h-5.2V91.6h5.2V73.1h22.1v18.5h10.3v18.5h-10.3v48.7c0,2.9,1.1,3.9,3.9,3.9
			c1.3,0,2.8-0.3,4.2-0.9l2-0.8v18.3l-0.7,0.4C247.5,181.6,242.7,182.8,238.8,182.8"/>
	</g>
	<g>
		<path d="M451.3,129.7l0,28.2c0,7.7-5.9,14-13.2,14c-7.3,0-13.2-6.2-13.2-14c0-8.4,6.8-13.8,12.6-18.3
			C443.3,135.1,451.3,129.7,451.3,129.7 M451.2,117.2c-4.8,3.5-19.2,12.4-25.5,16.6c-6.3,4.2-13.9,11.3-13.9,25.6
			c0,12.8,10.2,23.2,22.8,23.2c6.4,0,12.4-2.3,16.5-6.6v5.1l12.5-0.5v-61c0-15.4-10.5-27.9-23.4-27.9c-12.9,0-23.4,12.5-23.4,27.9
			v7.5h12.2l0-8.1l0-0.9c0-7.7,5-13.9,11.1-13.9c5.8,0,10.6,5.6,11.1,12.8L451.2,117.2z M484.4,75l0,106h-12.9V75H484.4z
			 M352.8,129.7l0,28.2c0,7.7-5.9,14-13.2,14c-7.3,0-13.2-6.2-13.2-14c0-8.4,6.8-13.8,12.6-18.3
			C344.9,135.1,352.8,129.7,352.8,129.7 M352.7,117.2c-4.8,3.5-19.2,12.4-25.5,16.6c-6.3,4.2-13.9,11.3-13.9,25.6
			c0,12.8,10.2,23.2,22.8,23.2c6.4,0,12.4-2.3,16.5-6.6v5.1l12.5-0.5v-61c0-15.4-10.5-27.9-23.4-27.9c-12.9,0-23.4,12.5-23.4,27.9
			v7.5h12.2l0-8.1l0-0.9c0-7.7,5-13.9,11.1-13.9c5.8,0,10.6,5.6,11.1,12.8L352.7,117.2z M365.6,93.7h13.6l12.3,55.6l11.8-55.6H417
			l-20.4,87.6H386L365.6,93.7z M504.1,75l0,106h-12.6V75H504.1z M524.5,75l0,13.9h-12.9V75H524.5z M524.5,94.4l0,86.5h-12.9V94.4
			H524.5z M310.4,121.2h-11.7c-0.2-9.9-5.7-17.9-12.5-17.9c-6.9,0-12.5,8.3-12.5,18.6v29.9c0,10.3,5.6,18.6,12.5,18.6
			c6.8,0,12.3-8.1,12.5-18.2h11.6l0,2c0,15.5-10.8,28.1-24.1,28.1c-13.3,0-24.1-12.6-24.1-28.1v-34.7c0-15.5,10.8-28.1,24.1-28.1
			c13.3,0,24.1,12.6,24.1,28.1L310.4,121.2z"/>
	</g>
</g>
</svg>
