<svg width="192" height="32" viewBox="0 0 192 32" fill="none" xmlns="http://www.w3.org/2000/svg">
<path d="M0 16C0 14.0429 0.352063 12.1682 0.995188 10.4348L16 9.04354L31.0048 10.4348C31.6479 12.1682 32 14.0429 32 16C32 17.9572 31.6479 19.8319 31.0048 21.5652L16 22.9565L0.995188 21.5652C0.352063 19.8319 0 17.9572 0 16Z" fill="#FFDA44"/>
<path d="M31.0049 21.5652C28.7442 27.6579 22.8795 32 16.0001 32C9.12061 32 3.25593 27.6579 0.995239 21.5652H31.0049Z" fill="#D80027"/>
<path d="M0.995239 10.4348C3.25593 4.34206 9.12061 -9.53674e-07 16.0001 -9.53674e-07C22.8795 -9.53674e-07 28.7442 4.34206 31.0049 10.4348H0.995239Z" fill="#D80027"/>
<path d="M69.5 32C78.6127 32 86 24.8366 86 16C86 7.16344 78.6127 0 69.5 0C60.3873 0 53 7.16344 53 16C53 24.8366 60.3873 32 69.5 32Z" fill="#F0F0F0"/>
<path d="M56.4109 6.25879C55.1148 7.89398 54.1375 9.77866 53.5685 11.8261H62.1522L56.4109 6.25879Z" fill="#0052B4"/>
<path d="M85.4316 11.826C84.8626 9.77867 83.8852 7.89398 82.5892 6.25879L76.848 11.826H85.4316Z" fill="#0052B4"/>
<path d="M53.5685 20.1738C54.1376 22.2212 55.1149 24.1059 56.4109 25.741L62.152 20.1738H53.5685Z" fill="#0052B4"/>
<path d="M79.5455 3.3074C77.8593 2.05059 75.9157 1.1029 73.8043 0.551025V8.87459L79.5455 3.3074Z" fill="#0052B4"/>
<path d="M59.4546 28.6924C61.1409 29.9492 63.0845 30.8969 65.1958 31.4487V23.1252L59.4546 28.6924Z" fill="#0052B4"/>
<path d="M65.1958 0.551025C63.0844 1.1029 61.1408 2.05059 59.4546 3.30734L65.1958 8.87453V0.551025Z" fill="#0052B4"/>
<path d="M73.8044 31.4487C75.9158 30.8969 77.8594 29.9492 79.5456 28.6924L73.8044 23.1252V31.4487Z" fill="#0052B4"/>
<path d="M76.848 20.1738L82.5892 25.7411C83.8852 24.106 84.8626 22.2212 85.4316 20.1738H76.848Z" fill="#0052B4"/>
<path d="M85.8603 13.9131H71.6523H71.6522V0.135438C70.9477 0.0465 70.2294 0 69.5 0C68.7705 0 68.0523 0.0465 67.3478 0.135438V13.9129V13.913H53.1397C53.048 14.5962 53 15.2927 53 16C53 16.7074 53.048 17.4038 53.1397 18.0869H67.3477H67.3478V31.8646C68.0523 31.9535 68.7705 32 69.5 32C70.2294 32 70.9477 31.9536 71.6522 31.8646V18.0871V18.087H85.8603C85.952 17.4038 86 16.7074 86 16C86 15.2927 85.952 14.5962 85.8603 13.9131Z" fill="#D80027"/>
<path d="M73.8043 20.1739L81.1672 27.3136C81.5058 26.9854 81.8289 26.6422 82.1371 26.2865L75.8334 20.1738H73.8043V20.1739Z" fill="#D80027"/>
<path d="M65.1956 20.1741H65.1954L57.8326 27.3138C58.1711 27.6421 58.5251 27.9554 58.8919 28.2543L65.1956 22.1415V20.1741Z" fill="#D80027"/>
<path d="M65.1957 11.8262V11.8261L57.8328 4.68628C57.4942 5.01453 57.1711 5.35772 56.8629 5.71347L63.1666 11.8262H65.1957V11.8262Z" fill="#D80027"/>
<path d="M73.8043 11.8262L81.1673 4.68629C80.8287 4.35791 80.4748 4.04466 80.108 3.74585L73.8043 9.85854V11.8262Z" fill="#D80027"/>
<g clip-path="url(#clip0)">
<path d="M122.5 32C131.613 32 139 24.8366 139 16C139 7.16344 131.613 0 122.5 0C113.387 0 106 7.16344 106 16C106 24.8366 113.387 32 122.5 32Z" fill="#F0F0F0"/>
<path d="M139 15.9999C139 9.12049 134.522 3.2558 128.239 0.995117V31.0048C134.522 28.7441 139 22.8794 139 15.9999Z" fill="#D80027"/>
<path d="M106 15.9999C106 22.8794 110.478 28.7441 116.761 31.0047V0.995117C110.478 3.25581 106 9.12049 106 15.9999Z" fill="#0052B4"/>
</g>
<path d="M176 32C184.837 32 192 24.8366 192 16C192 7.16344 184.837 0 176 0C167.163 0 160 7.16344 160 16C160 24.8366 167.163 32 176 32Z" fill="#F0F0F0"/>
<path d="M192 15.9999C192 9.12049 187.658 3.2558 181.565 0.995117V31.0048C187.658 28.7441 192 22.8794 192 15.9999Z" fill="#D80027"/>
<path d="M160 15.9999C160 22.8794 164.342 28.7441 170.435 31.0047V0.995117C164.342 3.25581 160 9.12049 160 15.9999Z" fill="#6DA544"/>
<defs>
<clipPath id="clip0">
<rect width="33" height="32" fill="white" transform="translate(106)"/>
</clipPath>
</defs>
</svg>
