<svg width="80" height="32" viewBox="0 0 80 32" fill="none" xmlns="http://www.w3.org/2000/svg">
<g clip-path="url(#clip0)">
<path fill-rule="evenodd" clip-rule="evenodd" d="M32.0001 16.098C32.0001 7.20605 24.8361 -0.00195312 16.0001 -0.00195312C7.16009 4.68751e-05 -0.00390625 7.20605 -0.00390625 16.1C-0.00390625 24.134 5.84809 30.794 13.4961 32.002V20.752H9.43609V16.1H13.5001V12.55C13.5001 8.51605 15.8901 6.28805 19.5441 6.28805C21.2961 6.28805 23.1261 6.60205 23.1261 6.60205V10.562H21.1081C19.1221 10.562 18.5021 11.804 18.5021 13.078V16.098H22.9381L22.2301 20.75H18.5001V32C26.1481 30.792 32.0001 24.132 32.0001 16.098Z" fill="#4267B2"/>
</g>
<path d="M64 0C59.658 0 59.112 0.02 57.406 0.096C55.7 0.176 54.538 0.444 53.52 0.84C52.4522 1.24164 51.485 1.87165 50.686 2.686C49.8722 3.48539 49.2422 4.45248 48.84 5.52C48.444 6.536 48.174 7.7 48.096 9.4C48.02 11.11 48 11.654 48 16.002C48 20.346 48.02 20.89 48.096 22.596C48.176 24.3 48.444 25.462 48.84 26.48C49.25 27.532 49.796 28.424 50.686 29.314C51.574 30.204 52.466 30.752 53.518 31.16C54.538 31.556 55.698 31.826 57.402 31.904C59.11 31.98 59.654 32 64 32C68.346 32 68.888 31.98 70.596 31.904C72.298 31.824 73.464 31.556 74.482 31.16C75.5491 30.7582 76.5156 30.1282 77.314 29.314C78.204 28.424 78.75 27.532 79.16 26.48C79.554 25.462 79.824 24.3 79.904 22.596C79.98 20.89 80 20.346 80 16C80 11.654 79.98 11.11 79.904 9.402C79.824 7.7 79.554 6.536 79.16 5.52C78.7578 4.45245 78.1279 3.48535 77.314 2.686C76.5153 1.87135 75.548 1.24129 74.48 0.84C73.46 0.444 72.296 0.174 70.594 0.096C68.886 0.02 68.344 0 63.996 0H64.002H64ZM62.566 2.884H64.002C68.274 2.884 68.78 2.898 70.466 2.976C72.026 3.046 72.874 3.308 73.438 3.526C74.184 3.816 74.718 4.164 75.278 4.724C75.838 5.284 76.184 5.816 76.474 6.564C76.694 7.126 76.954 7.974 77.024 9.534C77.102 11.22 77.118 11.726 77.118 15.996C77.118 20.266 77.102 20.774 77.024 22.46C76.954 24.02 76.692 24.866 76.474 25.43C76.2175 26.1247 75.8081 26.7529 75.276 27.268C74.716 27.828 74.184 28.174 73.436 28.464C72.876 28.684 72.028 28.944 70.466 29.016C68.78 29.092 68.274 29.11 64.002 29.11C59.73 29.11 59.222 29.092 57.536 29.016C55.976 28.944 55.13 28.684 54.566 28.464C53.871 28.2078 53.2423 27.7992 52.726 27.268C52.1935 26.7521 51.7834 26.1233 51.526 25.428C51.308 24.866 51.046 24.018 50.976 22.458C50.9 20.772 50.884 20.266 50.884 15.992C50.884 11.72 50.9 11.216 50.976 9.53C51.048 7.97 51.308 7.122 51.528 6.558C51.818 5.812 52.166 5.278 52.726 4.718C53.286 4.158 53.818 3.812 54.566 3.522C55.13 3.302 55.976 3.042 57.536 2.97C59.012 2.902 59.584 2.882 62.566 2.88V2.884ZM72.542 5.54C72.2899 5.54 72.0402 5.58966 71.8072 5.68615C71.5743 5.78264 71.3626 5.92407 71.1844 6.10236C71.0061 6.28064 70.8646 6.4923 70.7682 6.72525C70.6717 6.95819 70.622 7.20786 70.622 7.46C70.622 7.71214 70.6717 7.96181 70.7682 8.19475C70.8646 8.4277 71.0061 8.63936 71.1844 8.81765C71.3626 8.99593 71.5743 9.13736 71.8072 9.23385C72.0402 9.33034 72.2899 9.38 72.542 9.38C73.0512 9.38 73.5396 9.17772 73.8996 8.81765C74.2597 8.45757 74.462 7.96922 74.462 7.46C74.462 6.95078 74.2597 6.46242 73.8996 6.10236C73.5396 5.74229 73.0512 5.54 72.542 5.54ZM64.002 7.784C62.9121 7.767 61.8298 7.96697 60.818 8.37228C59.8061 8.77759 58.885 9.38014 58.1083 10.1448C57.3316 10.9096 56.7147 11.8211 56.2937 12.8265C55.8726 13.8319 55.6558 14.911 55.6558 16.001C55.6558 17.091 55.8726 18.1701 56.2937 19.1755C56.7147 20.1809 57.3316 21.0924 58.1083 21.8572C58.885 22.6219 59.8061 23.2244 60.818 23.6297C61.8298 24.035 62.9121 24.235 64.002 24.218C66.1591 24.1843 68.2164 23.3038 69.73 21.7665C71.2435 20.2292 72.0918 18.1583 72.0918 16.001C72.0918 13.8437 71.2435 11.7728 69.73 10.2355C68.2164 8.69817 66.1591 7.81765 64.002 7.784ZM64.002 10.666C65.4167 10.666 66.7734 11.228 67.7737 12.2283C68.774 13.2286 69.336 14.5853 69.336 16C69.336 17.4147 68.774 18.7714 67.7737 19.7717C66.7734 20.772 65.4167 21.334 64.002 21.334C62.5873 21.334 61.2306 20.772 60.2303 19.7717C59.23 18.7714 58.668 17.4147 58.668 16C58.668 14.5853 59.23 13.2286 60.2303 12.2283C61.2306 11.228 62.5873 10.666 64.002 10.666Z" fill="#C13584"/>
<defs>
<clipPath id="clip0">
<rect width="32" height="32" fill="white"/>
</clipPath>
</defs>
</svg>
